<?xml version="1.0" encoding="utf-8"?>
<!-- Generator: Adobe Illustrator 19.0.0, SVG Export Plug-In . SVG Version: 6.00 Build 0)  -->
<svg version="1.1" xmlns="http://www.w3.org/2000/svg" xmlns:xlink="http://www.w3.org/1999/xlink" x="0px" y="0px"
	 viewBox="0 0 414 713.5" enable-background="new 0 0 414 713.5" xml:space="preserve" >
<g id="Capa_1">
	<image overflow="visible" width="828" height="1427" xlink:href="./images/howtouse/2-Comenzar-Paso1.png"  transform="matrix(0.5 0 0 0.5 0 0)">
	</image>
</g>
<g id="Capa_2">
	
		<circle id="circulo" display="none" fill="none" stroke="#F3B745" stroke-width="12" stroke-miterlimit="10" cx="96" cy="264" r="72"/>
		<path id="cursorcomenzar1" display="none" fill="#F3B745" d="M125.1,286.4c-0.4,1-1.3,1.6-2.3,1.6h-10.8l4.6,9.7c1,2,0.1,4.5-1.9,5.5
		c-2,1-4.5,0.1-5.5-1.9l-4.8-10l-7.7,9c-0.5,0.6-1.2,0.9-1.9,0.9c-0.3,0-0.6,0-0.8-0.2c-1-0.4-1.6-1.3-1.6-2.4V261
		c0-1,0.6-1.8,1.4-2.2c0.9-0.4,1.9-0.2,2.6,0.4l27.8,24.6C125.2,284.4,125.4,285.4,125.1,286.4z" onload="animateManual(this)" />
	
		<line display="none" fill="none" stroke="#F3B745" stroke-width="12" stroke-linecap="round" stroke-miterlimit="10" x1="86.6" y1="244.2" x2="75.5" y2="221.9"/>
	
		<line display="none" fill="none" stroke="#F3B745" stroke-width="12" stroke-linecap="round" stroke-miterlimit="10" x1="72.3" y1="259.8" x2="48.6" y2="252"/>
	
		<line display="none" fill="none" stroke="#F3B745" stroke-width="12" stroke-linecap="round" stroke-miterlimit="10" x1="106.8" y1="243.1" x2="114.6" y2="219.5"/>
</g>
</svg>
