<?xml version="1.0" encoding="utf-8"?>
<!-- Generator: Adobe Illustrator 19.0.0, SVG Export Plug-In . SVG Version: 6.00 Build 0)  -->
<svg version="1.1" id="Capa_1" xmlns="http://www.w3.org/2000/svg" xmlns:xlink="http://www.w3.org/1999/xlink" x="0px" y="0px"
	 viewBox="0 0 414 812.5" enable-background="new 0 0 414 812.5" xml:space="preserve">
<image overflow="visible" width="828" height="1625" xlink:href="7-ContenidoRecomendado-Paso5.png"  transform="matrix(0.5 0 0 0.5 0 0)">
</image>
<path id="cursor" fill="#F3B745" d="M368.5,628c-0.4,1-1.3,1.6-2.3,1.6h-10.8l4.6,9.7c1,2,0.1,4.5-1.9,5.5c-2,1-4.5,0.1-5.5-1.9
	l-4.8-10l-7.7,9c-0.5,0.6-1.2,0.9-1.9,0.9c-0.3,0-0.6,0-0.8-0.2c-1-0.4-1.6-1.3-1.6-2.4v-37.6c0-1,0.6-1.8,1.4-2.2
	c0.9-0.4,1.9-0.2,2.6,0.4l27.8,24.6C368.6,626,368.8,627.1,368.5,628z"/>
</svg>
