<?xml version="1.0" encoding="utf-8"?>
<!-- Generator: Adobe Illustrator 19.0.0, SVG Export Plug-In . SVG Version: 6.00 Build 0)  -->
<svg version="1.1" id="Capa_1" xmlns="http://www.w3.org/2000/svg" xmlns:xlink="http://www.w3.org/1999/xlink" x="0px" y="0px"
	 width="537.4px" height="537.4px" viewBox="0 0 537.4 537.4" style="enable-background:new 0 0 537.4 537.4;" xml:space="preserve"
	>
<path style="fill:#FFFFFF;" d="M372.9,356.1c-24.9,29.7-62.4,48.6-104.2,48.6c-24.8,0-48-6.6-68-18.2l-65.6,114.3
	c39.3,22.7,84.9,35.7,133.6,35.7c82,0,155.3-36.8,204.4-94.9L372.9,356.1z"/>
<path style="fill:#FFFFFF;" d="M200.7,386.5c-11-6.4-21-14.2-29.8-23.3l-94.3,92c17.3,17.8,36.9,33.2,58.6,45.6L200.7,386.5z"/>
<path style="fill:#FFFFFF;" d="M135.6,297c-1.9-9.1-2.9-18.6-2.9-28.3c0-16.3,2.9-32,8.2-46.5L16.6,178.2
	C6.5,206.5,0.9,236.9,0.9,268.7c0,19.5,2.1,38.4,6,56.7L135.6,297z"/>
<path style="fill:#FFFFFF;" d="M185,161.5c14.8-11.6,32-20.1,50.8-24.8L203.4,9c-37.1,9.3-71.1,26.3-100.3,49.3L185,161.5z"/>
<path style="fill:#FFFFFF;" d="M372.9,356.1c19.8-23.6,31.8-54.1,31.8-87.4c0,0,0,0,0,0l131.7,1.2c-0.3,65.5-24,125.4-63.3,171.7
	L372.9,356.1z"/>
<path style="fill:#002680;" d="M170.9,363.2c-17.4-18-29.8-40.8-35.2-66.2L7,325.4c10.7,49.8,35.3,94.5,69.6,129.7L170.9,363.2z"/>
<g transform="translate(375,570) scale(0.85,0.85)" style="opacity:0.53;">
	
		<line style="fill:none;stroke:#000000;stroke-miterlimit:10;stroke-opacity:0.3137;" x1="48.2" y1="-330.1" x2="174.4" y2="-312.4"/>
</g>
<g transform="matrix(0.85,0,0,0.85,375,570)" style="opacity:0.53;">
	
		<line style="fill:none;stroke:#000000;stroke-miterlimit:10;stroke-opacity:0.3137;" x1="43.2" y1="-306.2" x2="165.6" y2="-271.1"/>
</g>
<g transform="matrix(0.85,0,0,0.85,375,570)" style="opacity:0.53;">
	
		<line style="fill:none;stroke:#000000;stroke-miterlimit:10;stroke-opacity:0.3137;" x1="34.8" y1="-283.3" x2="151.2" y2="-231.5"/>
</g>
<g transform="matrix(0.85,0,0,0.85,375,570)" style="opacity:0.53;">
	
		<line style="fill:none;stroke:#000000;stroke-miterlimit:10;stroke-opacity:0.3137;" x1="23.3" y1="-261.7" x2="131.4" y2="-194.2"/>
</g>
<g transform="matrix(0.85,0,0,0.85,375,570)" style="opacity:0.53;">
	<line style="fill:none;stroke:#000000;stroke-miterlimit:10;stroke-opacity:0.3137;" x1="-8" y1="-224.4" x2="77.3" y2="-129.8"/>
</g>
<g transform="matrix(0.85,0,0,0.85,375,570)" style="opacity:0.53;">
	<line style="fill:none;stroke:#000000;stroke-miterlimit:10;stroke-opacity:0.3137;" x1="-27.2" y1="-209.4" x2="44" y2="-103.8"/>
</g>
<g transform="matrix(0.85,0,0,0.85,375,570)" style="opacity:0.53;">
	<line style="fill:none;stroke:#000000;stroke-miterlimit:10;stroke-opacity:0.3137;" x1="-48.4" y1="-197.2" x2="7.5" y2="-82.7"/>
</g>
<g transform="matrix(0.85,0,0,0.85,375,570)" style="opacity:0.53;">
	<line style="fill:none;stroke:#000000;stroke-miterlimit:10;stroke-opacity:0.3137;" x1="-71" y1="-188" x2="-31.6" y2="-66.9"/>
</g>
<g transform="matrix(0.85,0,0,0.85,375,570)" style="opacity:0.53;">
	
		<line style="fill:none;stroke:#000000;stroke-miterlimit:10;stroke-opacity:0.3137;" x1="-94.7" y1="-182.1" x2="-72.6" y2="-56.7"/>
</g>
<g transform="matrix(0.85,0,0,0.85,375,570)" style="opacity:0.53;">
	
		<line style="fill:none;stroke:#000000;stroke-miterlimit:10;stroke-opacity:0.3137;" x1="-119" y1="-179.6" x2="-114.5" y2="-52.3"/>
</g>
<g transform="matrix(0.85,0,0,0.85,375,570)" style="opacity:0.53;">
	
		<line style="fill:none;stroke:#000000;stroke-miterlimit:10;stroke-opacity:0.3137;" x1="-143.4" y1="-180.4" x2="-156.7" y2="-53.7"/>
</g>
<g transform="matrix(0.85,0,0,0.85,375,570)" style="opacity:0.53;">
	
		<line style="fill:none;stroke:#000000;stroke-miterlimit:10;stroke-opacity:0.3137;" x1="-167.4" y1="-184.7" x2="-198.2" y2="-61.1"/>
</g>
<g transform="matrix(0.85,0,0,0.85,375,570)" style="opacity:0.53;">
	
		<line style="fill:none;stroke:#000000;stroke-miterlimit:10;stroke-opacity:0.3137;" x1="-190.6" y1="-192.2" x2="-238.3" y2="-74.1"/>
</g>
<g transform="matrix(0.85,0,0,0.85,375,570)" style="opacity:0.53;">
	
		<line style="fill:none;stroke:#000000;stroke-miterlimit:10;stroke-opacity:0.3137;" x1="-232.8" y1="-216.6" x2="-311.2" y2="-116.2"/>
</g>
<g transform="matrix(0.85,0,0,0.85,375,570)" style="opacity:0.53;">
	
		<line style="fill:none;stroke:#000000;stroke-miterlimit:10;stroke-opacity:0.3137;" x1="-266.6" y1="-251.6" x2="-369.7" y2="-176.7"/>
</g>
<g transform="matrix(0.85,0,0,0.85,375,570)" style="opacity:0.53;">
	
		<line style="fill:none;stroke:#000000;stroke-miterlimit:10;stroke-opacity:0.3137;" x1="-279.6" y1="-272.3" x2="-392.1" y2="-212.5"/>
</g>
<g transform="matrix(0.85,0,0,0.85,375,570)" style="opacity:0.53;">
	
		<line style="fill:none;stroke:#000000;stroke-miterlimit:10;stroke-opacity:0.3137;" x1="-289.5" y1="-294.6" x2="-409.2" y2="-251.1"/>
</g>
<g transform="matrix(0.85,0,0,0.85,375,570)" style="opacity:0.53;">
	
		<line style="fill:none;stroke:#000000;stroke-miterlimit:10;stroke-opacity:0.3137;" x1="-299.6" y1="-342.3" x2="-426.7" y2="-333.4"/>
</g>
<g transform="matrix(0.85,0,0,0.85,375,570)" style="opacity:0.53;">
	
		<line style="fill:none;stroke:#000000;stroke-miterlimit:10;stroke-opacity:0.3137;" x1="-299.6" y1="-366.7" x2="-426.7" y2="-375.6"/>
</g>
<g transform="matrix(0.85,0,0,0.85,375,570)" style="opacity:0.53;">
	
		<line style="fill:none;stroke:#000000;stroke-miterlimit:10;stroke-opacity:0.3137;" x1="-296.2" y1="-390.9" x2="-420.9" y2="-417.4"/>
</g>
<g transform="matrix(0.85,0,0,0.85,375,570)" style="opacity:0.53;">
	
		<line style="fill:none;stroke:#000000;stroke-miterlimit:10;stroke-opacity:0.3137;" x1="-279.6" y1="-436.6" x2="-392.1" y2="-496.4"/>
</g>
<g transform="matrix(0.85,0,0,0.85,375,570)" style="opacity:0.53;">
	
		<line style="fill:none;stroke:#000000;stroke-miterlimit:10;stroke-opacity:0.3137;" x1="-266.6" y1="-457.3" x2="-369.7" y2="-532.2"/>
</g>
<g transform="matrix(0.85,0,0,0.85,375,570)" style="opacity:0.53;">
	
		<line style="fill:none;stroke:#000000;stroke-miterlimit:10;stroke-opacity:0.3137;" x1="-251" y1="-476" x2="-342.6" y2="-564.5"/>
</g>
<g transform="matrix(0.85,0,0,0.85,375,570)" style="opacity:0.53;">
	
		<line style="fill:none;stroke:#000000;stroke-miterlimit:10;stroke-opacity:0.3137;" x1="-212.6" y1="-506" x2="-276.3" y2="-616.4"/>
</g>
<g transform="matrix(0.85,0,0,0.85,375,570)" style="opacity:0.53;">
	
		<line style="fill:none;stroke:#000000;stroke-miterlimit:10;stroke-opacity:0.3137;" x1="-190.6" y1="-516.7" x2="-238.3" y2="-634.9"/>
</g>
<g transform="matrix(0.85,0,0,0.85,375,570)" style="opacity:0.53;">
	
		<line style="fill:none;stroke:#000000;stroke-miterlimit:10;stroke-opacity:0.3137;" x1="-143.4" y1="-528.5" x2="-156.7" y2="-655.2"/>
</g>
<g transform="matrix(0.85,0,0,0.85,375,570)" style="opacity:0.53;">
	
		<line style="fill:none;stroke:#000000;stroke-miterlimit:10;stroke-opacity:0.3137;" x1="-119" y1="-529.4" x2="-114.5" y2="-656.7"/>
</g>
<g transform="matrix(0.85,0,0,0.85,375,570)" style="opacity:0.53;">
	
		<line style="fill:none;stroke:#000000;stroke-miterlimit:10;stroke-opacity:0.3137;" x1="-94.7" y1="-526.8" x2="-72.6" y2="-652.3"/>
</g>
<g transform="matrix(0.85,0,0,0.85,375,570)" style="opacity:0.53;">
	
		<line style="fill:none;stroke:#000000;stroke-miterlimit:10;stroke-opacity:0.3137;" x1="-71" y1="-520.9" x2="-31.6" y2="-642.1"/>
</g>
<g transform="matrix(0.85,0,0,0.85,375,570)" style="opacity:0.53;">
	
		<line style="fill:none;stroke:#000000;stroke-miterlimit:10;stroke-opacity:0.3137;" x1="-48.4" y1="-511.8" x2="7.5" y2="-626.3"/>
</g>
<g transform="matrix(0.85,0,0,0.85,375,570)" style="opacity:0.53;">
	<line style="fill:none;stroke:#000000;stroke-miterlimit:10;stroke-opacity:0.3137;" x1="-27.2" y1="-499.6" x2="44" y2="-605.2"/>
</g>
<g transform="matrix(0.85,0,0,0.85,375,570)" style="opacity:0.53;">
	<line style="fill:none;stroke:#000000;stroke-miterlimit:10;stroke-opacity:0.3137;" x1="9" y1="-467" x2="106.6" y2="-548.9"/>
</g>
<g transform="matrix(0.85,0,0,0.85,375,570)" style="opacity:0.53;">
	
		<line style="fill:none;stroke:#000000;stroke-miterlimit:10;stroke-opacity:0.3137;" x1="23.3" y1="-447.2" x2="131.4" y2="-514.7"/>
</g>
<g transform="matrix(0.85,0,0,0.85,375,570)" style="opacity:0.53;">
	
		<line style="fill:none;stroke:#000000;stroke-miterlimit:10;stroke-opacity:0.3137;" x1="34.8" y1="-425.7" x2="151.2" y2="-477.5"/>
</g>
<g transform="matrix(0.85,0,0,0.85,375,570)" style="opacity:0.53;">
	
		<line style="fill:none;stroke:#000000;stroke-miterlimit:10;stroke-opacity:0.3137;" x1="43.2" y1="-402.7" x2="165.6" y2="-437.8"/>
</g>
<g transform="matrix(0.85,0,0,0.85,375,570)" style="opacity:0.53;">
	
		<line style="fill:none;stroke:#000000;stroke-miterlimit:10;stroke-opacity:0.3137;" x1="48.2" y1="-378.8" x2="174.4" y2="-396.6"/>
</g>
<g transform="translate(375,570) scale(0.85,0.85) translate(198.0536,27.8346) rotate(8)">
	<path style="fill:#002680;" d="M-177.4-333.6l-5.2-7.2l8.4,2.8l5.3-7.3v9l8.4,2.7l-8.5,2.7l0.1,9l-5.3-7.3l-8.5,2.8L-177.4-333.6z"
		/>
</g>
<g transform="matrix(0.85,0,0,0.85,375,570) translate(237.6643,33.4016) rotate(8)">
	<path style="fill:#002680;" d="M-177.4-333.6l-5.2-7.2l8.4,2.8l5.3-7.3v9l8.4,2.7l-8.5,2.7l0.1,9l-5.3-7.3l-8.5,2.8L-177.4-333.6z"
		/>
</g>
<g transform="matrix(0.85,0,0,0.85,375,570) translate(192.2523,55.1275) rotate(16)">
	<path style="fill:#002680;" d="M-222.1-306.3l-5.2-7.2l8.4,2.8l5.3-7.3v9l8.4,2.7l-8.5,2.7l0.1,9l-5.3-7.3l-8.5,2.8L-222.1-306.3z"
		/>
</g>
<g transform="matrix(0.85,0,0,0.85,375,570) translate(230.7028,66.153) rotate(16)">
	<path style="fill:#002680;" d="M-222.1-306.3l-5.2-7.2l8.4,2.8l5.3-7.3v9l8.4,2.7l-8.5,2.7l0.1,9l-5.3-7.3l-8.5,2.8L-222.1-306.3z"
		/>
</g>
<g transform="matrix(0.85,0,0,0.85,375,570) translate(182.7091,81.3473) rotate(24)">
	<path style="fill:#002680;" d="M-262.6-273l-5.2-7.2l8.4,2.8l5.3-7.3l0,9l8.4,2.7l-8.5,2.7l0.1,9l-5.3-7.3l-8.5,2.8L-262.6-273z"/>
</g>
<g transform="matrix(0.85,0,0,0.85,375,570) translate(169.6096,105.9839) rotate(32)">
	<path style="fill:#002680;" d="M-298.1-234.3l-5.2-7.2l8.4,2.8l5.3-7.3l0,9l8.4,2.7l-8.5,2.7l0.1,9l-5.3-7.3l-8.5,2.8L-298.1-234.3
		z"/>
</g>
<g transform="matrix(0.85,0,0,0.85,375,570) translate(203.5315,127.1806) rotate(32)">
	<path style="fill:#002680;" d="M-298.1-234.3l-5.2-7.2l8.4,2.8l5.3-7.3l0,9l8.4,2.7l-8.5,2.7l0.1,9l-5.3-7.3l-8.5,2.8L-298.1-234.3
		z"/>
</g>
<g transform="matrix(0.85,0,0,0.85,375,570) translate(237.4535,148.3774) rotate(32)">
	<path style="fill:#002680;" d="M-298.1-234.3l-5.2-7.2l8.4,2.8l5.3-7.3l0,9l8.4,2.7l-8.5,2.7l0.1,9l-5.3-7.3l-8.5,2.8L-298.1-234.3
		z"/>
</g>
<g transform="matrix(0.85,0,0,0.85,375,570) translate(133.8261,148.629) rotate(48)">
	<path style="fill:#002680;" d="M-351.3-144.2l-5.2-7.2l8.4,2.8l5.3-7.3v9l8.4,2.7l-8.5,2.7l0.1,9l-5.3-7.3l-8.5,2.8L-351.3-144.2z"
		/>
</g>
<g transform="matrix(0.85,0,0,0.85,375,570) translate(160.5913,178.3548) rotate(48)">
	<path style="fill:#002680;" d="M-351.3-144.2l-5.2-7.2l8.4,2.8l5.3-7.3v9l8.4,2.7l-8.5,2.7l0.1,9l-5.3-7.3l-8.5,2.8L-351.3-144.2z"
		/>
</g>
<g transform="matrix(0.85,0,0,0.85,375,570) translate(111.8386,165.8075) rotate(56)">
	<path style="fill:#002680;" d="M-368-94.5l-5.2-7.2l8.4,2.8l5.3-7.3v9l8.4,2.7l-8.5,2.7l0.1,9l-5.3-7.3l-8.5,2.8L-368-94.5z"/>
</g>
<g transform="matrix(0.85,0,0,0.85,375,570) translate(134.2063,198.969) rotate(56)">
	<path style="fill:#002680;" d="M-368-94.5l-5.2-7.2l8.4,2.8l5.3-7.3v9l8.4,2.7l-8.5,2.7l0.1,9l-5.3-7.3l-8.5,2.8L-368-94.5z"/>
</g>
<g transform="matrix(0.85,0,0,0.85,375,570) translate(87.6742,179.7588) rotate(64)">
	<path style="fill:#002680;" d="M-377.6-43l-5.2-7.2l8.4,2.8l5.3-7.3l0,9l8.4,2.7l-8.5,2.7l0.1,9l-5.3-7.3l-8.5,2.8L-377.6-43z"/>
</g>
<g transform="matrix(0.85,0,0,0.85,375,570) translate(61.8034,190.2113) rotate(72)">
	<path style="fill:#002680;" d="M-380,9.4l-5.2-7.2l8.4,2.8l5.3-7.3v9l8.4,2.7l-8.5,2.7l0.1,9l-5.3-7.3l-8.5,2.8L-380,9.4z"/>
</g>
<g transform="matrix(0.85,0,0,0.85,375,570) translate(34.7296,196.9616) rotate(80)">
	<path style="fill:#002680;" d="M-375,61.6l-5.2-7.2l8.4,2.8l5.3-7.3v9l8.4,2.7l-8.5,2.7l0.1,9l-5.3-7.3l-8.5,2.8L-375,61.6z"/>
</g>
<g transform="matrix(0.85,0,0,0.85,375,570) translate(6.9799,199.8782) rotate(88)">
	<path style="fill:#002680;" d="M-362.8,112.6l-5.2-7.2l8.4,2.8l5.3-7.3l0,9l8.4,2.7l-8.5,2.7l0.1,9l-5.3-7.3l-8.5,2.8L-362.8,112.6
		z"/>
</g>
<g transform="matrix(0.85,0,0,0.85,375,570) translate(-20.9057,198.9044) rotate(96)">
	<path style="fill:#002680;" d="M-343.7,161.4l-5.2-7.2l8.4,2.8l5.3-7.3v9l8.4,2.7l-8.5,2.7l0.1,9l-5.3-7.3l-8.5,2.8L-343.7,161.4z"
		/>
</g>
<g transform="matrix(0.85,0,0,0.85,375,570) translate(-48.3844,194.0591) rotate(104)">
	<path style="fill:#002680;" d="M-317.9,207.1l-5.2-7.2l8.4,2.8l5.3-7.3v9l8.4,2.7l-8.5,2.7l0.1,9l-5.3-7.3l-8.5,2.8L-317.9,207.1z"
		/>
</g>
<g transform="matrix(0.85,0,0,0.85,375,570) translate(-74.9213,185.4368) rotate(112)">
	<path style="fill:#002680;" d="M-286,248.8l-5.2-7.2l8.4,2.8l5.3-7.3v9l8.4,2.7l-8.5,2.7l0.1,9l-5.3-7.3l-8.5,2.8L-286,248.8z"/>
</g>
<g transform="matrix(0.85,0,0,0.85,375,570) translate(-89.9056,222.5241) rotate(112)">
	<path style="fill:#002680;" d="M-286,248.8l-5.2-7.2l8.4,2.8l5.3-7.3v9l8.4,2.7l-8.5,2.7l0.1,9l-5.3-7.3l-8.5,2.8L-286,248.8z"/>
</g>
<g transform="matrix(0.85,0,0,0.85,375,570) translate(-123.1323,157.6021) rotate(128)">
	<path style="fill:#002680;" d="M-206.5,316.8l-5.2-7.2l8.4,2.8l5.3-7.3v9l8.4,2.7l-8.5,2.7l0.1,9l-5.3-7.3l-8.5,2.8L-206.5,316.8z"
		/>
</g>
<g transform="matrix(0.85,0,0,0.85,375,570) translate(-161.8034,117.557) rotate(144)">
	<path style="fill:#FFFFFF;" d="M-111.4,360.3l-5.2-7.2l8.4,2.8l5.3-7.3v9l8.4,2.7l-8.5,2.7l0.1,9l-5.3-7.3l-8.5,2.8L-111.4,360.3z"
		/>
</g>
<g transform="matrix(0.85,0,0,0.85,375,570) translate(-194.1641,141.0685) rotate(144)">
	<path style="fill:#FFFFFF;" d="M-111.4,360.3l-5.2-7.2l8.4,2.8l5.3-7.3v9l8.4,2.7l-8.5,2.7l0.1,9l-5.3-7.3l-8.5,2.8L-111.4,360.3z"
		/>
</g>
<g transform="matrix(0.85,0,0,0.85,375,570) translate(-226.5248,164.5798) rotate(144)">
	<path style="fill:#FFFFFF;" d="M-111.4,360.3l-5.2-7.2l8.4,2.8l5.3-7.3v9l8.4,2.7l-8.5,2.7l0.1,9l-5.3-7.3l-8.5,2.8L-111.4,360.3z"
		/>
</g>
<g transform="matrix(0.85,0,0,0.85,375,570) translate(-176.5895,93.8943) rotate(152)">
	<path style="fill:#FFFFFF;" d="M-60.2,371.7l-5.2-7.2l8.4,2.8l5.3-7.3l0,9l8.4,2.7l-8.5,2.7l0.1,9l-5.3-7.3l-8.5,2.8L-60.2,371.7z"
		/>
</g>
<g transform="matrix(0.85,0,0,0.85,375,570) translate(-187.9385,68.404) rotate(160)">
	<path style="fill:#FFFFFF;" d="M-7.9,375.9l-5.2-7.2l8.4,2.8l5.3-7.3l0,9l8.4,2.7l-8.5,2.7l0.1,9l-5.3-7.3l-8.5,2.8L-7.9,375.9z"/>
</g>
<g transform="matrix(0.85,0,0,0.85,375,570) translate(-225.5262,82.0848) rotate(160)">
	<path style="fill:#FFFFFF;" d="M-7.9,375.9l-5.2-7.2l8.4,2.8l5.3-7.3l0,9l8.4,2.7l-8.5,2.7l0.1,9l-5.3-7.3l-8.5,2.8L-7.9,375.9z"/>
</g>
<g transform="matrix(0.85,0,0,0.85,375,570) translate(-199.5128,13.9513) rotate(176)">
	<path style="fill:#002680;" d="M95.8,362.3l-5.2-7.2l8.4,2.8l5.3-7.3v9l8.4,2.7l-8.5,2.7l0.1,9l-5.3-7.3l-8.5,2.8L95.8,362.3z"/>
</g>
<g transform="matrix(0.85,0,0,0.85,375,570) translate(-239.4154,16.7416) rotate(176)">
	<path style="fill:#002680;" d="M95.8,362.3l-5.2-7.2l8.4,2.8l5.3-7.3v9l8.4,2.7l-8.5,2.7l0.1,9l-5.3-7.3l-8.5,2.8L95.8,362.3z"/>
</g>
<g transform="matrix(0.85,0,0,0.85,375,570) translate(-199.5128,-13.9513) rotate(184)">
	<path style="fill:#002680;" d="M145.3,344.9l-5.2-7.2l8.4,2.8l5.3-7.3v9l8.4,2.7l-8.5,2.7l0.1,9l-5.3-7.3l-8.5,2.8L145.3,344.9z"/>
</g>
<g transform="matrix(0.85,0,0,0.85,375,570) translate(-239.4154,-16.7416) rotate(184)">
	<path style="fill:#002680;" d="M145.3,344.9l-5.2-7.2l8.4,2.8l5.3-7.3v9l8.4,2.7l-8.5,2.7l0.1,9l-5.3-7.3l-8.5,2.8L145.3,344.9z"/>
</g>
<g transform="matrix(0.85,0,0,0.85,375,570) translate(-195.6295,-41.5824) rotate(192)">
	<path style="fill:#002680;" d="M191.8,320.7l-5.2-7.2l8.4,2.8l5.3-7.3v9l8.4,2.7l-8.5,2.7l0.1,9l-5.3-7.3l-8.5,2.8L191.8,320.7z"/>
</g>
<g transform="matrix(0.85,0,0,0.85,375,570) translate(-234.7554,-49.8989) rotate(192)">
	<path style="fill:#002680;" d="M191.8,320.7l-5.2-7.2l8.4,2.8l5.3-7.3v9l8.4,2.7l-8.5,2.7l0.1,9l-5.3-7.3l-8.5,2.8L191.8,320.7z"/>
</g>
<g transform="matrix(0.85,0,0,0.85,375,570) translate(-100,-173.2051) rotate(240)">
	<path style="fill:#002680;" d="M365.3,68.9l-5.2-7.2l8.4,2.8l5.3-7.3v9l8.4,2.7l-8.5,2.7l0.1,9l-5.3-7.3l-8.5,2.8L365.3,68.9z"/>
</g>
<g transform="matrix(0.85,0,0,0.85,375,570) translate(-120,-207.8461) rotate(240)">
	<path style="fill:#002680;" d="M365.3,68.9l-5.2-7.2l8.4,2.8l5.3-7.3v9l8.4,2.7l-8.5,2.7l0.1,9l-5.3-7.3l-8.5,2.8L365.3,68.9z"/>
</g>
<g transform="matrix(0.85,0,0,0.85,375,570) translate(-140,-242.4871) rotate(240)">
	<path style="fill:#002680;" d="M365.3,68.9l-5.2-7.2l8.4,2.8l5.3-7.3v9l8.4,2.7l-8.5,2.7l0.1,9l-5.3-7.3l-8.5,2.8L365.3,68.9z"/>
</g>
<g transform="matrix(0.85,0,0,0.85,375,570) translate(-74.9213,-185.4368) rotate(248)">
	<path style="fill:#002680;" d="M371.3,16.8l-5.2-7.2l8.4,2.8l5.3-7.3v9l8.4,2.7l-8.5,2.7l0.1,9l-5.3-7.3L366,24L371.3,16.8z"/>
</g>
<path style="fill:none;stroke:#002680;stroke-width:1.8853;stroke-miterlimit:10;" d="M473.1,441.6c-49.1,58-122.5,94.9-204.4,94.9
	c-48.6,0-94.3-13-133.6-35.7"/>
<path style="fill:none;stroke:#002680;stroke-width:1.8853;stroke-miterlimit:10;" d="M448.3,70.1c-47.5-43-110.5-69.2-179.6-69.2
	c-22.5,0-44.4,2.8-65.3,8"/>
<path style="fill:none;stroke:#002680;stroke-width:1.8853;stroke-miterlimit:10;" d="M203.4,9c-37.1,9.3-71.1,26.3-100.3,49.3"/>
<path style="fill:none;stroke:#002680;stroke-width:1.8853;stroke-miterlimit:10;" d="M135.1,500.8c-21.6-12.5-41.3-27.9-58.6-45.6"
	/>
<path style="fill:none;stroke:#002680;stroke-width:1.8853;stroke-miterlimit:10;" d="M448.3,70.1c54.1,49,88.1,119.8,88.1,198.6
	c0,0.4,0,0.8,0,1.2"/>
<path style="fill:none;stroke:#002680;stroke-width:1.8853;stroke-miterlimit:10;" d="M7,325.4c10.7,49.8,35.3,94.5,69.6,129.7"/>
<path style="fill:none;stroke:#002680;stroke-width:1.8853;stroke-miterlimit:10;" d="M473.1,441.6c39.3-46.4,63-106.3,63.3-171.7"
	/>
<path style="fill:none;stroke:#002680;stroke-width:1.8853;stroke-miterlimit:10;" d="M16.6,178.2C6.5,206.5,0.9,236.9,0.9,268.7
	c0,19.5,2.1,38.4,6,56.7"/>
<path style="fill:none;stroke:#002680;stroke-width:1.8853;stroke-miterlimit:10;" d="M103.1,58.3C64.1,89,33.8,130.5,16.6,178.2"/>
<path style="fill:none;stroke:#002680;stroke-width:1.8853;stroke-miterlimit:10;" d="M140.9,222.1c-5.3,14.5-8.2,30.2-8.2,46.5
	c0,9.7,1,19.1,2.9,28.3"/>
<path style="fill:none;stroke:#002680;stroke-width:1.8853;stroke-miterlimit:10;" d="M170.9,363.2c-17.4-18-29.8-40.8-35.2-66.2"/>
<path style="fill:none;stroke:#002680;stroke-width:1.8853;stroke-miterlimit:10;" d="M359.7,167.6c27.6,24.9,45,60.9,45,101.1"/>
<path style="fill:none;stroke:#002680;stroke-width:1.8853;stroke-miterlimit:10;" d="M372.9,356.1c19.8-23.6,31.8-54.1,31.8-87.4
	c0,0,0,0,0,0"/>
<path style="fill:none;stroke:#002680;stroke-width:1.8853;stroke-miterlimit:10;" d="M140.9,222.1c8.8-24.1,24.2-45.1,44.1-60.6"/>
<path style="fill:none;stroke:#002680;stroke-width:1.8853;stroke-miterlimit:10;" d="M185,161.5c14.8-11.6,32-20.1,50.8-24.8"/>
<path style="fill:none;stroke:#002680;stroke-width:1.8853;stroke-miterlimit:10;" d="M359.7,167.6c-24.1-21.7-56-34.9-91-34.9
	c-11.3,0-22.4,1.4-32.9,4"/>
<path style="fill:none;stroke:#002680;stroke-width:1.8853;stroke-miterlimit:10;" d="M372.9,356.1c-24.9,29.7-62.4,48.6-104.2,48.6
	c-24.8,0-48-6.6-68-18.2"/>
<path style="fill:none;stroke:#002680;stroke-width:1.8853;stroke-miterlimit:10;" d="M200.7,386.5c-11-6.4-21-14.2-29.8-23.3"/>
<line style="fill:none;stroke:#002680;stroke-width:1.8853;stroke-miterlimit:10;" x1="372.9" y1="356.1" x2="473.1" y2="441.6"/>
<line style="fill:none;stroke:#002680;stroke-width:1.8853;stroke-miterlimit:10;" x1="200.7" y1="386.5" x2="135.1" y2="500.8"/>
<line style="fill:none;stroke:#002680;stroke-width:1.8853;stroke-miterlimit:10;" x1="76.6" y1="455.1" x2="170.9" y2="363.2"/>
<line style="fill:none;stroke:#002680;stroke-width:1.8853;stroke-miterlimit:10;" x1="7" y1="325.4" x2="135.6" y2="297"/>
<line style="fill:none;stroke:#002680;stroke-width:1.8853;stroke-miterlimit:10;" x1="16.6" y1="178.2" x2="140.9" y2="222.1"/>
<line style="fill:none;stroke:#002680;stroke-width:1.8853;stroke-miterlimit:10;" x1="103.1" y1="58.3" x2="185" y2="161.5"/>
<line style="fill:none;stroke:#002680;stroke-width:1.8853;stroke-miterlimit:10;" x1="203.4" y1="9" x2="235.8" y2="136.7"/>
<line style="fill:none;stroke:#002680;stroke-width:1.8853;stroke-miterlimit:10;" x1="359.7" y1="167.6" x2="448.3" y2="70.1"/>
<line style="fill:none;stroke:#002680;stroke-width:1.8853;stroke-miterlimit:10;" x1="536.4" y1="269.9" x2="404.7" y2="268.7"/>
<path style="fill:none;stroke:#002680;stroke-width:1.8853;stroke-miterlimit:10;" d="M163.3,230.3c-4.4,12-6.7,24.9-6.7,38.4
	c0,8,0.8,15.8,2.4,23.3"/>
<path style="fill:none;stroke:#002680;stroke-width:9.4267;stroke-miterlimit:10;" d="M188,346.6c-14.3-14.9-24.6-33.6-29-54.6"/>
<path style="fill:none;stroke:#002680;stroke-width:1.8853;stroke-miterlimit:10;" d="M343.7,185.3c22.8,20.5,37.1,50.3,37.1,83.4"
	/>
<path style="fill:none;stroke:#002680;stroke-width:1.8853;stroke-miterlimit:10;" d="M354.6,340.8c16.4-19.5,26.2-44.6,26.2-72.1
	c0,0,0,0,0,0"/>
<path style="fill:none;stroke:#002680;stroke-width:1.8853;stroke-miterlimit:10;" d="M163.3,230.3c7.3-19.9,20-37.2,36.4-50"/>
<path style="fill:none;stroke:#002680;stroke-width:1.8853;stroke-miterlimit:10;" d="M199.6,180.3c12.2-9.5,26.4-16.6,41.9-20.5"/>
<path style="fill:none;stroke:#002680;stroke-width:1.8853;stroke-miterlimit:10;" d="M343.7,185.3c-19.9-17.9-46.2-28.8-75.1-28.8
	c-9.4,0-18.4,1.2-27.1,3.3"/>
<path style="fill:none;stroke:#002680;stroke-width:1.8853;stroke-miterlimit:10;" d="M354.6,340.8c-20.6,24.5-51.4,40.1-85.9,40.1
	c-20.4,0-39.6-5.5-56.1-15"/>
<path style="fill:none;stroke:#002680;stroke-width:1.8853;stroke-miterlimit:10;" d="M212.6,365.9c-9.1-5.3-17.4-11.7-24.6-19.2"/>
<path style="fill:none;stroke:#002680;stroke-width:2;stroke-miterlimit:10;" d="M228.8,254.6c-1.6,4.4-2.5,9.1-2.5,14.1
	c0,2.9,0.3,5.8,0.9,8.6"/>
<path style="fill:none;stroke:#002680;stroke-width:10;stroke-miterlimit:10;" d="M238.2,297.3c-5.4-5.5-9.3-12.4-11-20.1"/>
<path style="fill:none;stroke:#002680;stroke-width:2;stroke-miterlimit:10;" d="M297.1,238.1c8.6,7.5,14,18.5,14,30.6"/>
<path style="fill:none;stroke:#002680;stroke-width:2;stroke-miterlimit:10;" d="M301.2,295.2c6.2-7.2,9.9-16.4,9.9-26.5
	c0,0,0,0,0,0"/>
<path style="fill:none;stroke:#002680;stroke-width:2;stroke-miterlimit:10;" d="M228.8,254.6c2.7-7.3,7.6-13.7,13.7-18.4"/>
<path style="fill:none;stroke:#002680;stroke-width:2;stroke-miterlimit:10;" d="M242.6,236.2c4.6-3.5,10-6.1,15.8-7.5"/>
<path style="fill:none;stroke:#002680;stroke-width:2;stroke-miterlimit:10;" d="M297.1,238.1c-7.5-6.6-17.5-10.6-28.4-10.6
	c-3.5,0-7,0.4-10.3,1.2"/>
<path style="fill:none;stroke:#002680;stroke-width:2;stroke-miterlimit:10;" d="M301.2,295.2c-7.8,9-19.4,14.7-32.5,14.7
	c-7.7,0-15-2-21.2-5.5"/>
<path style="fill:none;stroke:#002680;stroke-width:2;stroke-miterlimit:10;" d="M247.5,304.4c-3.4-1.9-6.6-4.3-9.3-7.1"/>
<text transform="matrix(1 0 0 1 183.1969 321.886)" style="fill:#002680; font-family:'Barlow-Medium'; font-size:59.0261px;">4</text>
</svg>
