<?xml version="1.0" encoding="utf-8"?>
<!-- Generator: Adobe Illustrator 19.0.0, SVG Export Plug-In . SVG Version: 6.00 Build 0)  -->
<svg version="1.1" xmlns="http://www.w3.org/2000/svg" xmlns:xlink="http://www.w3.org/1999/xlink" x="0px" y="0px" width="631px"
	 height="86px" viewBox="0 0 631 86" style="enable-background:new 0 0 631 86;" xml:space="preserve">
<g id="Capa_1">
	<g id="XMLID_681_">
		<text id="XMLID_77_" transform="matrix(1 0 0 1 116.666 33.5678)"><tspan x="0" y="0" style="font-family:'GothamRounded-Medium'; font-size:35px;">Informaci贸n </tspan><tspan x="0" y="34" style="font-family:'GothamRounded-Medium'; font-size:35px;">y manejo de datos</tspan></text>
	</g>
	<path id="XMLID_30_" style="fill:none;stroke:#000000;stroke-width:6;stroke-miterlimit:10;" d="M42.4,2.9
		C20.5,2.9,2.9,20.5,2.9,42.4S20.7,82,42.6,82H625"/>
	<path id="XMLID_46_" style="fill:#B73CFF;" d="M73.7,28c-5.3-12-17-19.9-30.6-19.9c-18.6,0-33.7,15-33.7,33.6
		c0,18.6,15.3,33.6,33.9,33.6c0.1,0,0.7-0.1,0.7-0.1V43h15v28.3c2-0.9,4-2.1,5-3.3V28H73.7z"/>
	<path id="XMLID_47_" style="fill:#FFB419;" d="M43,77h15v-4.7c-4,2.5-9,3.9-15,4V77z"/>
	<path id="XMLID_49_" style="fill:#FFB419;" d="M73.7,28c2,4,3.1,8.8,3.1,13.8c0,10.7-4.8,20-12.8,26.2v8h16V28H73.7z"/>
	<path id="XMLID_52_" style="fill:#B73CFF;" d="M44,43v32.2c6-0.1,11-1.5,15-4V43H44z"/>
	<path id="XMLID_51_" d="M44,43v32.2c6-0.1,11-1.5,15-4V43H44z"/>
	<path id="XMLID_54_" style="fill:#B73CFF;" d="M76.8,41.8c0-5-1.1-9.8-3.1-13.8H64v40C72,61.8,76.8,52.5,76.8,41.8z"/>
	<path id="XMLID_53_" d="M76.8,41.8c0-5-1.1-9.8-3.1-13.8H64v40C72,61.8,76.8,52.5,76.8,41.8z"/>
	<rect id="XMLID_40_" x="84.5" y="9.9" style="fill:#FFB419;" width="15.5" height="65.8"/>
	<g id="XMLID_36_">
		<text id="XMLID_78_" transform="matrix(1 0 0 1 116.666 34.5678)"><tspan x="0" y="0" style="font-family:'GothamRounded-Medium'; font-size:35px;">Informaci贸n </tspan><tspan x="0" y="34" style="font-family:'GothamRounded-Medium'; font-size:35px;">y manejo de datos</tspan></text>
	</g>
	<path id="XMLID_35_" style="fill:#B73CFF;" d="M73.7,29c-5.3-12-17-19.9-30.6-19.9c-18.6,0-33.7,15-33.7,33.6
		c0,18.6,15.3,33.6,33.9,33.6c0.1,0,0.7-0.1,0.7-0.1V44h15v28.3c2-0.9,4-2.1,5-3.3V29H73.7z"/>
	<path id="XMLID_34_" style="fill:#FFB419;" d="M73.7,29c2,4,3.1,8.8,3.1,13.8c0,10.7-4.8,20-12.8,26.2v8h16V29H73.7z"/>
	<path id="XMLID_33_" style="fill:#B73CFF;" d="M44,44v32.2c6-0.1,11-1.5,15-4V44H44z"/>
	<path id="XMLID_32_" d="M44,44v32.2c6-0.1,11-1.5,15-4V44H44z"/>
	<path id="XMLID_31_" style="fill:#B73CFF;" d="M76.8,42.8c0-5-1.1-9.8-3.1-13.8H64v40C72,62.8,76.8,53.5,76.8,42.8z"/>
	<path id="XMLID_16_" d="M76.8,42.8c0-5-1.1-9.8-3.1-13.8H64v40C72,62.8,76.8,53.5,76.8,42.8z"/>
	<rect id="XMLID_13_" x="84.5" y="10.9" style="fill:#FFB419;" width="15.5" height="65.8"/>
	<g id="XMLID_66_">
		<text id="XMLID_80_" transform="matrix(1 0 0 1 115.666 33.5678)"><tspan x="0" y="0" style="font-family:'GothamRounded-Medium'; font-size:35px;">Informaci贸n </tspan><tspan x="0" y="34" style="font-family:'GothamRounded-Medium'; font-size:35px;">y manejo de datos</tspan></text>
	</g>
	<path id="XMLID_65_" style="fill:#B73CFF;" d="M72.7,28c-5.3-12-17-19.9-30.6-19.9c-18.6,0-33.7,15-33.7,33.6
		c0,18.6,15.3,33.6,33.9,33.6c0.1,0,0.7-0.1,0.7-0.1V43h15v28.3c2-0.9,4-2.1,5-3.3V28H72.7z"/>
	<path id="XMLID_64_" style="fill:#FFB419;" d="M72.7,28c2,4,3.1,8.8,3.1,13.8c0,10.7-4.8,20-12.8,26.2v8h16V28H72.7z"/>
	<path id="XMLID_63_" style="fill:#B73CFF;" d="M43,43v32.2c6-0.1,11-1.5,15-4V43H43z"/>
	<path id="XMLID_62_" d="M43,43v32.2c6-0.1,11-1.5,15-4V43H43z"/>
	<path id="XMLID_61_" style="fill:#B73CFF;" d="M75.8,41.8c0-5-1.1-9.8-3.1-13.8H63v40C71,61.8,75.8,52.5,75.8,41.8z"/>
	<path id="XMLID_59_" d="M75.8,41.8c0-5-1.1-9.8-3.1-13.8H63v40C71,61.8,75.8,52.5,75.8,41.8z"/>
	<rect id="XMLID_58_" x="83.5" y="9.9" style="fill:#FFB419;" width="15.5" height="65.8"/>
	<g id="XMLID_50_">
		<text id="XMLID_79_" transform="matrix(1 0 0 1 115.666 34.5678)"><tspan x="0" y="0" style="font-family:'GothamRounded-Medium'; font-size:35px;">Informaci贸n </tspan><tspan x="0" y="34" style="font-family:'GothamRounded-Medium'; font-size:35px;">y manejo de datos</tspan></text>
	</g>
	<path id="XMLID_48_" style="fill:#B73CFF;" d="M72.7,29c-5.3-12-17-19.9-30.6-19.9c-18.6,0-33.7,15-33.7,33.6
		c0,18.6,15.3,33.6,33.9,33.6c0.1,0,0.7-0.1,0.7-0.1V44h15v28.3c2-0.9,4-2.1,5-3.3V29H72.7z"/>
	<path id="XMLID_45_" style="fill:#FFB419;" d="M72.7,29c2,4,3.1,8.8,3.1,13.8c0,10.7-4.8,20-12.8,26.2v8h16V29H72.7z"/>
	<path id="XMLID_44_" style="fill:#B73CFF;" d="M43,44v32.2c6-0.1,11-1.5,15-4V44H43z"/>
	<path id="XMLID_42_" d="M43,44v32.2c6-0.1,11-1.5,15-4V44H43z"/>
	<path id="XMLID_41_" style="fill:#B73CFF;" d="M75.8,42.8c0-5-1.1-9.8-3.1-13.8H63v40C71,62.8,75.8,53.5,75.8,42.8z"/>
	<path id="XMLID_38_" d="M75.8,42.8c0-5-1.1-9.8-3.1-13.8H63v40C71,62.8,75.8,53.5,75.8,42.8z"/>
	<rect id="XMLID_37_" x="83.5" y="10.9" style="fill:#FFB419;" width="15.5" height="65.8"/>
</g>
<g id="Capa_2" style="display:none;">
	
		<line id="XMLID_653_" style="display:inline;fill:none;stroke:#000000;stroke-width:6;stroke-linecap:round;stroke-miterlimit:10;" x1="43" y1="83" x2="628" y2="83"/>
</g>
</svg>
