<?xml version="1.0" encoding="utf-8"?>
<!-- Generator: Adobe Illustrator 19.0.0, SVG Export Plug-In . SVG Version: 6.00 Build 0)  -->
<svg version="1.1" id="Capa_1" xmlns="http://www.w3.org/2000/svg" xmlns:xlink="http://www.w3.org/1999/xlink" x="0px" y="0px"
	 width="79.1px" height="24.5px" viewBox="0 0 79.1 24.5" style="enable-background:new 0 0 79.1 24.5;" xml:space="preserve">
<g id="XMLID_401_">
	<g id="XMLID_405_">
		<path id="XMLID_513_" style="fill:#229BFF;" d="M12.8,23.8l-6.2-9.4l-2.3,2.3v7.1H0V3h4.3v8.4L12.2,3h5.6l-8.2,8.2l8.4,12.6H12.8z
			"/>
		<path id="XMLID_492_" style="fill:#229BFF;" d="M30.1,11.9H34v5.6c0,1.1-0.2,2-0.5,2.9c-0.3,0.9-0.8,1.6-1.4,2.2
			c-0.6,0.6-1.4,1.1-2.2,1.4C29,24.3,28,24.5,27,24.5c-1.2,0-2.2-0.2-3.2-0.5c-0.9-0.3-1.7-0.8-2.3-1.4c-0.6-0.6-1.1-1.3-1.5-2.1
			c-0.3-0.8-0.5-1.6-0.5-2.6c0-0.5,0.1-1,0.2-1.5c0.1-0.5,0.3-1,0.5-1.4c0.2-0.4,0.5-0.8,0.8-1.2c0.3-0.3,0.6-0.6,1-0.8
			c-1.6-0.8-2.4-2.3-2.4-4.3c0-0.9,0.2-1.7,0.6-2.4c0.4-0.7,0.9-1.3,1.6-1.8s1.5-0.9,2.5-1.2c1-0.3,2-0.4,3.2-0.4v3.4
			c-1.4,0-2.4,0.2-3,0.7c-0.6,0.4-0.8,1.2-0.8,2.2c0,0.9,0.3,1.5,0.9,1.9c0.6,0.4,1.6,0.6,2.9,0.6v2.9c-1.3,0-2.2,0.3-2.9,0.8
			c-0.7,0.5-1,1.3-1,2.4c0,0.4,0.1,0.9,0.2,1.2c0.1,0.4,0.3,0.7,0.6,1c0.3,0.3,0.6,0.5,1.1,0.7c0.4,0.2,0.9,0.3,1.5,0.3
			c2.1,0,3.1-1.2,3.1-3.7V11.9z"/>
		<path id="XMLID_490_" style="fill:#229BFF;" d="M41.9,23.8V6.7h-6.3V3h16.9v3.6h-6.3v17.1H41.9z"/>
		<path id="XMLID_406_" style="fill:#229BFF;" d="M66.8,23.8v-9.3h-8.1v9.3h-4.3V3h4.3v7.8h8.1V3h4.4v20.8H66.8z"/>
	</g>
	<g id="XMLID_402_">
		<path id="XMLID_403_" style="fill:#229BFF;" d="M73.9,7.9c0-0.4,0-0.7,0.1-1C74,6.6,74.1,6.3,74.3,6c0.2-0.3,0.4-0.6,0.7-0.9
			c0.3-0.3,0.7-0.6,1.2-1c0.3-0.2,0.5-0.4,0.7-0.5c0.2-0.2,0.3-0.3,0.4-0.4c0.1-0.1,0.2-0.3,0.2-0.4c0-0.1,0.1-0.3,0.1-0.5
			c0-0.2,0-0.4-0.1-0.5c-0.1-0.1-0.1-0.2-0.2-0.3c-0.1-0.1-0.2-0.1-0.3-0.2c-0.1,0-0.3,0-0.4,0c-0.3,0-0.6,0.1-0.8,0.3
			c-0.2,0.2-0.3,0.6-0.3,1.1H74c0-0.8,0.2-1.5,0.7-2C75.1,0.2,75.7,0,76.5,0c0.4,0,0.7,0,1.1,0.1c0.3,0.1,0.6,0.2,0.8,0.4
			c0.2,0.2,0.4,0.4,0.5,0.7s0.2,0.6,0.2,1c0,0.3,0,0.6-0.1,0.8c-0.1,0.2-0.2,0.5-0.4,0.7c-0.2,0.2-0.4,0.5-0.7,0.7
			c-0.3,0.2-0.6,0.5-1,0.8c-0.3,0.2-0.5,0.4-0.7,0.7c-0.2,0.3-0.3,0.5-0.3,0.7h3.3v1.3H73.9z"/>
	</g>
</g>
</svg>
