<?xml version="1.0" encoding="utf-8"?>
<!-- Generator: Adobe Illustrator 19.0.0, SVG Export Plug-In . SVG Version: 6.00 Build 0)  -->
<svg version="1.1" id="Capa_3" xmlns="http://www.w3.org/2000/svg" xmlns:xlink="http://www.w3.org/1999/xlink" x="0px" y="0px"
	 viewBox="195 -195 400 400" enable-background="new 195 -195 400 400" xml:space="preserve">
<g id="XMLID_620_">
	<path id="XMLID_644_" fill="#33C4A1" d="M405-21.4v47.5h-11v-47.5c0-6.9,2.1-13.1,5.4-18.3C403.1-34.4,405-28.2,405-21.4z"/>
	<path id="XMLID_641_" fill="#229BFF" d="M371.4-55c-10.4,0-19.6,4.6-25.7,12c4.9,5.9,8,13.4,8,21.7V7.2c5.1,3.2,11.3,5.1,17.9,5.1
		c3.3,0,6.5-0.5,9.4-1.4v1.9c0,7.3,5.9,13.2,13.2,13.2v-47.3c0-6.9,2.1-13.1,5.4-18.3C393.6-48.9,383.2-55,371.4-55z M371.4-12
		c-5.3,0-9.4-4.3-9.4-9.4c0-5.3,4.3-9.4,9.4-9.4c5.3,0,9.4,4.3,9.4,9.4C381-16.1,376.7-12,371.4-12z"/>
	<path id="XMLID_629_" fill="#FFB419" d="M480.8-55c-8.8-0.5-16.9,2.6-23.1,7.8c-1.4,1.3-2.9,2.7-4.1,4.1c4.9,5.9,8,13.4,8,21.7
		c0,12-6.4,22.6-15.8,28.5v35.7h11c7.3,0,13.2-5.9,13.2-13.2V10.8c3,1,6.2,1.4,9.4,1.4c19.1,0,34.6-16.1,33.6-35.4
		C511.8-40.3,497.8-54.2,480.8-55z M479.2-12c-5.3,0-9.4-4.3-9.4-9.4c0-5.3,4.3-9.4,9.4-9.4c5.3,0,9.4,4.3,9.4,9.4
		C488.6-16.1,484.4-12,479.2-12z"/>
	<path id="XMLID_628_" fill="#3376C4" d="M353.7-21.4V7.2c-9.6-5.9-15.8-16.6-15.8-28.5c0-8.3,3-15.8,8-21.7
		C350.7-37.1,353.7-29.7,353.7-21.4z"/>
	<path id="XMLID_625_" fill="#B73CFF" d="M337.8-21.4c0-8.3,3-15.8,8-21.7c-6.4-7.7-16.1-12.3-26.9-12
		c-17.2,0.6-31.4,14.5-32.4,31.7c-1.1,19.4,14.3,35.4,33.6,35.4c3.3,0,6.5-0.5,9.4-1.4v23.6c0,5.1-4,9.6-9.1,9.7
		c-5.4,0.2-9.9-4.1-9.9-9.4c0-9.2-7.5-16.7-16.7-16.7h-7.3v16.4c0,18.5,14.8,33.8,33.3,34.1c18.6,0.2,34-15,34-33.6V7.2
		C344.2,1.3,337.8-9.4,337.8-21.4z M320.1-12c-5.3,0-9.4-4.3-9.4-9.4c0-5.3,4.3-9.4,9.4-9.4c5.3,0,9.4,4.3,9.4,9.4
		C329.5-16.1,325.4-12,320.1-12z"/>
	<path id="XMLID_622_" fill="#35FF00" d="M449.4-47.2c-5.9-4.9-13.4-7.8-21.7-7.8c-11.6,0-22,6.1-28.1,15.3
		c3.5,5.3,5.4,11.6,5.4,18.3v47.5h-11v16.7h11c7.3,0,13.2-5.9,13.2-13.2V10.8c3,1,6.2,1.4,9.4,1.4c3.3,0,6.5-0.5,9.4-1.4
		c3-0.8,5.7-2.1,8.3-3.7v-28.5c0-8.3,3-15.8,8-21.7C452.2-44.5,450.8-45.9,449.4-47.2z M427.7-12c-5.3,0-9.4-4.3-9.4-9.4
		c0-5.3,4.3-9.4,9.4-9.4c5.3,0,9.4,4.3,9.4,9.4C437.2-16.1,432.9-12,427.7-12z"/>
	<path id="XMLID_621_" fill="#FFDA19" d="M461.3-21.4c0,12-6.4,22.6-15.8,28.5v-28.5c0-8.3,3-15.8,8-21.7
		C458.4-37.1,461.3-29.7,461.3-21.4z"/>
</g>
</svg>
