<?xml version="1.0" encoding="utf-8"?>
<!-- Generator: Adobe Illustrator 19.0.0, SVG Export Plug-In . SVG Version: 6.00 Build 0)  -->
<svg version="1.1" id="Capa_1" xmlns="http://www.w3.org/2000/svg" xmlns:xlink="http://www.w3.org/1999/xlink" x="0px" y="0px"
	 width="36.6px" height="36.6px" viewBox="0 0 36.6 36.6" style="enable-background:new 0 0 36.6 36.6;" xml:space="preserve">
<path id="XMLID_2724_" style="fill:#FFFFFF;" d="M36.6,3.9v28.7c0,2.2-1.8,3.9-3.9,3.9H3.9c-2.2,0-3.9-1.8-3.9-3.9V3.9
	C0,1.8,1.8,0,3.9,0h28.7C34.8,0,36.6,1.8,36.6,3.9z M29.4,5.2h-9.1c-1.7,0-2.6,2.1-1.4,3.3l2.6,2.6l-16,16c-0.4,0.4-0.4,1,0,1.4
	L8,31c0.4,0.4,1,0.4,1.4,0l16-16l2.6,2.6c1.2,1.2,3.3,0.4,3.3-1.4V7.2C31.3,6.1,30.5,5.2,29.4,5.2z"/>
</svg>
