<?xml version="1.0" encoding="utf-8"?>
<!-- Generator: Adobe Illustrator 19.0.0, SVG Export Plug-In . SVG Version: 6.00 Build 0)  -->
<svg version="1.1" id="Capa_1" xmlns="http://www.w3.org/2000/svg" xmlns:xlink="http://www.w3.org/1999/xlink" x="0px" y="0px"
	 width="145.1px" height="145.1px" viewBox="0 0 145.1 145.1" style="enable-background:new 0 0 145.1 145.1;" xml:space="preserve"
	>
<circle id="XMLID_315_" style="fill:#001477;" cx="72.6" cy="72.6" r="72.6"/>
<g id="XMLID_266_">
	
		<circle id="XMLID_290_" style="fill:none;stroke:#D7F4F2;stroke-width:2.4;stroke-linecap:round;stroke-miterlimit:10;" cx="71.9" cy="53.2" r="18.4"/>
	<g id="XMLID_286_">
		
			<path id="XMLID_289_" style="fill:#002680;stroke:#D7F4F2;stroke-width:2;stroke-linecap:round;stroke-linejoin:round;stroke-miterlimit:10;" d="
			M100.4,51.1l-30.5,8.6v49.8l30.5-8.6c3.3-1,6.5-4.2,6.5-7.5v-38C106.9,52,103.7,50.2,100.4,51.1z"/>
		
			<line id="XMLID_288_" style="fill:none;stroke:#D7F4F2;stroke-width:2.4;stroke-linecap:round;stroke-linejoin:round;stroke-miterlimit:10;" x1="78.1" y1="66.2" x2="99.8" y2="60.1"/>
		
			<line id="XMLID_287_" style="fill:none;stroke:#D7F4F2;stroke-width:2.4;stroke-linecap:round;stroke-linejoin:round;stroke-miterlimit:10;" x1="78.1" y1="98.4" x2="88.9" y2="95.3"/>
	</g>
	<g id="XMLID_279_">
		
			<path id="XMLID_285_" style="fill:#002680;stroke:#D7F4F2;stroke-width:2;stroke-linecap:round;stroke-linejoin:round;stroke-miterlimit:10;" d="
			M40.4,51.1l29.5,8.6v49.8l-29.5-8.6c-3.3-1-5.5-4.2-5.5-7.5v-38C34.9,52,37.1,50.2,40.4,51.1z"/>
		
			<line id="XMLID_284_" style="fill:none;stroke:#D7F4F2;stroke-width:2.4;stroke-linecap:round;stroke-linejoin:round;stroke-miterlimit:10;" x1="64.1" y1="66.2" x2="47" y2="61.3"/>
		
			<line id="XMLID_283_" style="fill:none;stroke:#D7F4F2;stroke-width:2.4;stroke-linecap:round;stroke-linejoin:round;stroke-miterlimit:10;" x1="64.1" y1="74.3" x2="47" y2="69.4"/>
		
			<line id="XMLID_282_" style="fill:none;stroke:#D7F4F2;stroke-width:2.4;stroke-linecap:round;stroke-linejoin:round;stroke-miterlimit:10;" x1="64.1" y1="82.3" x2="52" y2="78.9"/>
		
			<line id="XMLID_281_" style="fill:none;stroke:#D7F4F2;stroke-width:2.4;stroke-linecap:round;stroke-linejoin:round;stroke-miterlimit:10;" x1="64.1" y1="90.4" x2="51.3" y2="86.7"/>
		
			<line id="XMLID_280_" style="fill:none;stroke:#D7F4F2;stroke-width:2.4;stroke-linecap:round;stroke-linejoin:round;stroke-miterlimit:10;" x1="64.1" y1="98.4" x2="51.1" y2="94.7"/>
	</g>
	
		<path id="XMLID_278_" style="fill:#002680;stroke:#D7F4F2;stroke-width:2.4;stroke-linecap:round;stroke-linejoin:round;stroke-miterlimit:10;" d="
		M39.2,91.7l-5.1-2.3c-0.2-0.1-0.3-0.2-0.5-0.3c0,0-7.6-2.5-7.6-9.9c0-9.5,8.9-13,8.9-13l0.1,5.2l5.9,2.6c1.2,0.5,2.1,1.9,2.1,3.1
		c0,1.2-1,1.7-2.1,1.2l-1.7-0.8V78l2.1,1c1.2,0.5,2.1,1.9,2.1,3.1s-1,1.7-2.1,1.2l-2.1-1v0.4l1.3,0.6c1.2,0.5,2.1,1.9,2.1,3.1
		c0,1.2-1,1.7-2.1,1.2L39.2,87v0.4c1.2,0.5,2.1,1.9,2.1,3.1C41.4,91.7,40.4,92.3,39.2,91.7z"/>
	
		<path id="XMLID_277_" style="fill:#002680;stroke:#D7F4F2;stroke-width:2.4;stroke-linecap:round;stroke-linejoin:round;stroke-miterlimit:10;" d="
		M100.7,90.3c0-1.2,1-2.4,2.1-2.8v-0.4l-1.3,0.4c-1.2,0.3-2.1-0.3-2.1-1.5c0-1.2,1-2.4,2.1-2.8l1.3-0.4v-0.4l-2.1,0.6
		c-1.2,0.3-2.1-0.3-2.1-1.5c0-1.2,1-2.4,2.1-2.8l2.1-0.6v-0.4l-10.7,3.1C91,81.1,90,80.5,90,79.3c0-1.2,1-2.4,2.1-2.8l14.9-4.3
		l0.1-5.2c0,0,9,2.2,9,12.2c0,8.7-7.6,10.9-7.6,10.9c-0.2,0.1-0.3,0.1-0.5,0.2l-5.1,1.5C101.7,92.2,100.7,91.5,100.7,90.3z"/>
	<g id="XMLID_271_">
		
			<line id="XMLID_276_" style="fill:none;stroke:#D7F4F2;stroke-width:2;stroke-linecap:round;stroke-linejoin:round;stroke-miterlimit:10;" x1="91.9" y1="90" x2="91.9" y2="86"/>
		
			<line id="XMLID_275_" style="fill:none;stroke:#D7F4F2;stroke-width:2.4;stroke-linecap:round;stroke-linejoin:round;stroke-miterlimit:10;" x1="82.9" y1="88.3" x2="86.1" y2="84.2"/>
		
			<line id="XMLID_274_" style="fill:none;stroke:#D7F4F2;stroke-width:2.4;stroke-linecap:round;stroke-linejoin:round;stroke-miterlimit:10;" x1="79.7" y1="81" x2="84.2" y2="79.7"/>
		
			<line id="XMLID_273_" style="fill:none;stroke:#D7F4F2;stroke-width:2.4;stroke-linecap:round;stroke-linejoin:round;stroke-miterlimit:10;" x1="83" y1="72" x2="86.2" y2="74.3"/>
		
			<line id="XMLID_272_" style="fill:none;stroke:#D7F4F2;stroke-width:2;stroke-linecap:round;stroke-linejoin:round;stroke-miterlimit:10;" x1="91.9" y1="68" x2="91.9" y2="72"/>
	</g>
	
		<path id="XMLID_270_" style="fill:#FFFFFF;stroke:#D7F4F2;stroke-width:2.4;stroke-linecap:round;stroke-linejoin:round;stroke-miterlimit:10;" d="
		M61.4,52.1c0.4,1,1.3,1.6,2.4,1.6c1.1,0,2-0.6,2.4-1.6"/>
	
		<path id="XMLID_269_" style="fill:#FFFFFF;stroke:#D7F4F2;stroke-width:2.4;stroke-linecap:round;stroke-linejoin:round;stroke-miterlimit:10;" d="
		M77,52.1c0.4,1,1.3,1.6,2.4,1.6c1.1,0,2-0.6,2.4-1.6"/>
</g>
</svg>
