<?xml version="1.0" encoding="utf-8"?>
<!-- Generator: Adobe Illustrator 19.0.0, SVG Export Plug-In . SVG Version: 6.00 Build 0)  -->
<svg version="1.1" xmlns="http://www.w3.org/2000/svg" xmlns:xlink="http://www.w3.org/1999/xlink" x="0px" y="0px"
	 viewBox="0 0 586.5 424.1" enable-background="new 0 0 586.5 424.1" xml:space="preserve">
<g id="Capa_14">
	<path id="XMLID_290_" fill="none" stroke="#B73CFF" stroke-miterlimit="10" d="M543.7,212.6C509.4,108,411,32.4,294.9,32.4
		c-114.2,0-211.2,73.1-247,175"/>
</g>
<g id="Capa_1_copia">
	<g id="XMLID_114_">
		<path id="circulo_1_" fill="#B73CFF" d="M75.6,184.1c0.3-6.1-3-11.8-8.7-14.6c-7.8-3.8-17.2-0.7-21,7.1c-3.8,7.8-0.5,17.2,7.3,21
			c0,0,0.3,0.1,0.3,0.1l6.6-13.5l6.3,3.1l-5.8,11.8c1,0,2.1-0.1,2.8-0.4l8.2-16.7L75.6,184.1z"/>
		<path id="XMLID_121_" fill="#FFB419" d="M53.3,198.1l6.3,3.1l1-2c-2.2,0.2-4.6-0.2-7.1-1.4L53.3,198.1z"/>
		<path id="XMLID_120_" fill="#FFB419" d="M75.6,184.1c0,2.1-0.5,4.3-1.5,6.4c-2.2,4.5-6.1,7.4-10.7,8.3l-1.6,3.3l6.7,3.3l9.9-20.1
			L75.6,184.1z"/>
		<path id="XMLID_119_" fill="#B73CFF" d="M60.1,184.3l-6.6,13.5c2.5,1.2,4.9,1.6,7.1,1.4l5.8-11.8L60.1,184.3z"/>
		<path id="XMLID_118_" d="M60.1,184.3l-6.6,13.5c2.5,1.2,4.9,1.6,7.1,1.4l5.8-11.8L60.1,184.3z"/>
		<path id="XMLID_117_" fill="#B73CFF" d="M74,190.5c1-2.1,1.6-4.3,1.5-6.4l-4.1-2l-8.2,16.7C67.9,197.9,71.8,195,74,190.5z"/>
		<path id="XMLID_116_" d="M74,190.5c1-2.1,1.6-4.3,1.5-6.4l-4.1-2l-8.2,16.7C67.9,197.9,71.8,195,74,190.5z"/>
		
			<rect id="XMLID_115_" x="76.4" y="178.8" transform="matrix(-0.8974 -0.4413 0.4413 -0.8974 66.3881 403.7914)" fill="#FFB419" width="7.5" height="30.8"/>
	</g>
	<g id="XMLID_106_">
		<path id="XMLID_111_" fill="#B73CFF" d="M314.6,28.3c-1.9-8.4-10.4-13.7-18.8-11.8c-8.4,1.9-13.7,10.4-11.8,18.8
			s10.4,13.7,18.8,11.8C311.3,45.2,316.6,36.7,314.6,28.3z M289.9,34c-1.2-5.2,2.1-10.5,7.3-11.7c5.2-1.2,10.5,2.1,11.7,7.3
			c1.2,5.2-2.1,10.5-7.3,11.7C296.3,42.5,291.1,39.2,289.9,34z"/>
		<path id="XMLID_110_" d="M297.1,22.1c-5.2,1.2-8.5,6.7-7.3,11.7l19-4.4C307.6,24.4,302.3,20.9,297.1,22.1z"/>
		<path id="XMLID_109_" fill="#FFB419" d="M314.6,28l-5.8,1.3l0,0.1c1.2,5.2-2.1,10.5-7.3,11.7c-5.2,1.2-10.5-2.1-11.7-7.4l0-0.1
			l-5.6,1.3l7.1,30.9l30.4-7L314.6,28z"/>
		<path id="XMLID_108_" fill="#35FF00" d="M301.5,41.3c5.2-1.2,8.5-6.5,7.3-11.8l0-0.1l-19,4.4l0,0.1
			C291,39.1,296.3,42.5,301.5,41.3z"/>
		<path id="XMLID_107_" d="M304.9,45.4c-0.3-1.3-1.6-2.1-2.8-1.8c-1.3,0.3-2.1,1.6-1.8,2.8c0.2,0.8,0.8,1.4,1.5,1.7l0.7,8l4.7-1.1
			l-2.9-7.5C304.8,47,305.1,46.2,304.9,45.4z"/>
	</g>
	<g id="XMLID_90_">
		<path id="XMLID_105_" d="M381.7,34.4c-5.5-6.7-15.4-7.7-22.1-2.2c-6.7,5.5-7.7,15.4-2.2,22.1s15.3,7.7,22,2.2
			S387.2,41.2,381.7,34.4"/>
		
			<polygon id="XMLID_104_" fill="none" stroke="#FFB419" stroke-width="3" stroke-miterlimit="10" stroke-dasharray="3,2,3,2,3,2" points="
			373.6,40.2 381.8,21.7 394.7,36.4 		"/>
		<path id="XMLID_103_" fill="#B73CFF" d="M377.2,25.3c-2-2.4-1.6-5.9,0.8-7.9l0.3-0.2c2.4-2,5.9-1.6,7.9,0.8l0.2,0.3
			c2,2.4,1.6,5.9-0.8,7.9l-0.3,0.2c-2.4,2-5.9,1.6-7.9-0.8L377.2,25.3z"/>
		<path id="XMLID_102_" fill="#B73CFF" d="M389.2,40c-2-2.4-1.6-5.9,0.8-7.9l0.3-0.2c2.4-2,5.9-1.6,7.9,0.8l0.2,0.3
			c2,2.4,1.6,5.9-0.8,7.9l-0.3,0.2c-2.4,2-5.9,1.6-7.9-0.8L389.2,40z"/>
		<path id="XMLID_101_" fill="#B73CFF" d="M366.1,46.3c-2.9-3.6-2.4-8.8,1.2-11.7l0.4-0.3c3.6-2.9,8.8-2.4,11.7,1.2l0.3,0.4
			c2.9,3.6,2.4,8.8-1.2,11.7l-0.4,0.3c-3.6,2.9-8.8,2.4-11.7-1.2L366.1,46.3z"/>
		<g id="XMLID_97_">
			<path id="XMLID_100_" fill="#35FF00" d="M366,43.8c-0.1-0.1-0.1-0.2-0.2-0.3c0.5-0.4,0.9-0.8,1.4-1.2c0.4,0.5,0.8,0.9,1.3,1.3
				c1.2,0.9,2.5,1.5,3.9,1.7c1.6,0.3,3.1,0,4.6-0.6c0.7-0.3,1.3-0.7,1.8-1.1c0.4,0.5,0.8,0.9,1.2,1.4c-0.1,0.1-0.2,0.2-0.3,0.2
				c0,0,0,0-0.1,0.1c-0.5,0.3-1,0.7-1.5,0.9c-1.3,0.6-2.6,1-4,1c-1.4,0.1-2.8-0.2-4.1-0.7c-1.3-0.5-2.4-1.2-3.4-2.2
				C366.3,44.1,366.2,43.9,366,43.8z"/>
			<path id="XMLID_99_" fill="#35FF00" d="M377.6,42.1c-0.8,0.7-1.7,1.1-2.7,1.3c-1.7,0.4-3.3,0.1-4.8-0.8c-0.6-0.3-1.1-0.8-1.5-1.3
				c0,0-0.1-0.1-0.1-0.1c0.5-0.4,0.9-0.8,1.4-1.2c0,0,0.1,0.1,0.1,0.1c0.2,0.2,0.4,0.4,0.6,0.6c1.3,1,2.6,1.2,4.1,0.8
				c0.6-0.2,1.1-0.5,1.6-0.8C376.8,41.1,377.3,41.6,377.6,42.1z"/>
			<path id="XMLID_98_" fill="#35FF00" d="M374.6,38.3c0.1,0.1,0.1,0.3,0.2,0.4c0.2,0.6-0.2,1.3-0.8,1.6c-0.6,0.3-1.3,0.1-1.7-0.4
				c-0.4-0.6-0.4-1.3,0.1-1.8l0,0c0.1-0.1,0.1-0.1,0.2-0.2l0,0c0.4-0.2,0.8-0.3,1.2-0.1c0.2,0.1,0.3,0.2,0.5,0.3
				C374.4,38.1,374.5,38.2,374.6,38.3z"/>
		</g>
		<g id="XMLID_94_">
			<path id="XMLID_96_" fill="#35FF00" d="M382.3,25.1c-0.1,0.1-0.1,0.1-0.2,0.1c-0.4,0.2-0.9,0.1-1.2-0.3c-0.3-0.4-0.6-0.8-0.7-1.3
				c-0.1-0.3-0.1-0.6,0-1c0.1-0.2,0.2-0.3,0.4-0.5c0,0,0.1-0.1,0.2-0.1c0.1,0,0.2,0,0.3,0c0.6-0.1,1-0.4,1.3-1c0-0.1,0-0.2,0.1-0.3
				c0-0.2,0.2-0.2,0.3-0.3c0.4-0.2,0.7-0.2,1.1-0.1c0.4,0.1,0.7,0.4,0.9,0.7c0.1,0.1,0.3,0.3,0.4,0.4c0.4,0.4,0.3,1-0.1,1.4l0,0
				C384.1,23.6,383.2,24.3,382.3,25.1z"/>
			<path id="XMLID_95_" fill="#35FF00" d="M379.6,18.9c0.1-0.1,0.2-0.1,0.2-0.1c0.5-0.2,1.3-0.1,1.7,0.3c0.3,0.3,0.5,0.6,0.5,1
				c0,0.5-0.1,1-0.5,1.3c-0.5,0.5-1.2,0.5-1.8,0.3c-0.5-0.2-0.9-0.8-0.9-1.4c0-0.4,0.1-0.7,0.4-1c0,0,0.1-0.1,0.1-0.2
				C379.5,19,379.6,19,379.6,18.9z"/>
		</g>
		<g id="XMLID_91_">
			<path id="XMLID_93_" fill="#35FF00" d="M394.4,39.8c-0.1,0.1-0.1,0.1-0.2,0.1c-0.4,0.2-0.9,0.1-1.2-0.3c-0.3-0.4-0.6-0.8-0.7-1.3
				c-0.1-0.3-0.1-0.6,0-1c0.1-0.2,0.2-0.3,0.4-0.5c0,0,0.1-0.1,0.2-0.1c0.1,0,0.2,0,0.3,0c0.6-0.1,1-0.4,1.3-1c0-0.1,0-0.2,0.1-0.3
				c0-0.2,0.2-0.2,0.3-0.3c0.4-0.2,0.7-0.2,1.1-0.1c0.4,0.1,0.7,0.4,0.9,0.7c0.1,0.1,0.3,0.3,0.4,0.4c0.4,0.4,0.3,1-0.1,1.4l0,0
				C396.2,38.3,395.3,39,394.4,39.8z"/>
			<path id="XMLID_92_" fill="#35FF00" d="M391.7,33.6c0.1-0.1,0.2-0.1,0.2-0.1c0.5-0.2,1.3-0.1,1.7,0.3c0.3,0.3,0.5,0.6,0.5,1
				c0,0.5-0.1,1-0.5,1.3c-0.5,0.5-1.2,0.5-1.8,0.3c-0.5-0.2-0.9-0.8-0.9-1.4c0-0.4,0.1-0.7,0.4-1c0,0,0.1-0.1,0.1-0.2
				C391.5,33.7,391.6,33.7,391.7,33.6z"/>
		</g>
	</g>
	<g id="XMLID_76_">
		<path id="XMLID_89_" fill="#B73CFF" d="M438.4,78.9c-3,0.6-5.9-1.6-6.6-4.6l-1.1-5.5c-0.6-3,1.3-5.7,4.3-6.4l11-2.3
			c-3.6-2.9-8.4-4.3-13.2-3.3c-8.5,1.8-14,10.1-12.2,18.6s10.1,14,18.6,12.2c5.2-1.1,9.2-4.6,11.2-9.1l-2.5-1.6L438.4,78.9z"/>
		<path id="XMLID_88_" fill="#35FF00" d="M454.4,58.5l-8.5,1.8c2.6,2.2,4.6,5.3,5.4,8.9c0.7,3.3,0.3,6.6-1,9.5l7.1,4.5l-1.6-7.8
			l2-0.4c3-0.6,4.7-3.8,4.1-6.8l-1.1-5.5C460.2,59.6,457.4,57.8,454.4,58.5z"/>
		<path id="XMLID_80_" fill="#FFB419" d="M445.9,60.2l-11,2.3c-3,0.6-4.9,3.4-4.3,6.4l1.1,5.5c0.6,3,3.6,5.2,6.6,4.6l9.4-1.9
			l2.6,1.6c1.3-2.9,1.7-6.2,1-9.5C450.6,65.5,448.6,62.4,445.9,60.2z"/>
		
			<rect id="XMLID_79_" x="436.7" y="65.3" transform="matrix(-0.9791 0.2032 -0.2032 -0.9791 895.2316 40.0407)" width="17.7" height="1.3"/>
		
			<rect id="XMLID_78_" x="437.4" y="69.2" transform="matrix(-0.9791 0.2032 -0.2032 -0.9791 887.8474 48.5099)" width="8.1" height="1.3"/>
		
			<rect id="XMLID_77_" x="437.9" y="71" transform="matrix(-0.9791 0.2032 -0.2032 -0.9791 898.7341 51.0908)" width="17.7" height="1.3"/>
	</g>
	<g id="XMLID_69_">
		<path id="XMLID_75_" fill="#FFB419" d="M160.1,83.9c8.2,2.7,17.1-1.8,19.8-10c2.6-8.2-1.8-17.1-10.1-19.8s-17.1,1.8-19.8,10
			C147.3,72.3,151.8,81.2,160.1,83.9"/>
		
			<rect id="XMLID_74_" x="158.5" y="75.5" transform="matrix(0.311 -0.9504 0.9504 0.311 30.9967 209.7443)" fill="#B73CFF" width="3.4" height="16"/>
		
			<rect id="XMLID_73_" x="157.2" y="81.6" transform="matrix(0.311 -0.9504 0.9504 0.311 26.1253 211.3961)" fill="#B73CFF" width="3.4" height="12.1"/>
		
			<rect id="XMLID_72_" x="156.1" y="87.5" transform="matrix(0.311 -0.9504 0.9504 0.311 21.2334 213.3419)" fill="#B73CFF" width="3.4" height="9"/>
		<polygon id="XMLID_71_" fill="#35FF00" points="163.6,82.8 170.6,71.9 164,69.7 160.2,81.7 		"/>
		<polygon id="XMLID_70_" fill="#35FF00" points="156.7,80.6 157.5,67.6 164.1,69.8 160.2,81.7 		"/>
	</g>
	<g id="XMLID_45_">
		<path id="XMLID_68_" fill="#B73CFF" d="M534.3,163.8c-2.4-1.6-5.1-2.5-7.8-2.7c2.3,4.9,2,10.8-1.3,15.5c-3.2,4.7-8.7,7.1-14,6.8
			c1.1,2.5,2.9,4.7,5.3,6.3c7.2,4.9,16.9,3.1,21.8-4.1C543.3,178.4,541.5,168.7,534.3,163.8z"/>
		<path id="XMLID_67_" fill="#35FF00" d="M525.3,176.6c3.2-4.7,3.5-10.6,1.3-15.5c-5.4-0.3-10.8,2-14,6.8
			c-3.2,4.7-3.5,10.6-1.3,15.5C516.6,183.7,522,181.3,525.3,176.6z"/>
		<g id="XMLID_55_">
			<g id="XMLID_60_">
				<path id="XMLID_66_" fill="#35FF00" d="M551.7,189c0.2,1.8-1.4,1.9-1.4,1.9l-6,1.4c0,0-0.1-0.3-0.2-0.8c-0.6-2-2.2-6.9-2.3-7.6
					c-0.1-0.9-0.5-1.2-2.2-1.2c-1.7,0-1.8-1-1.6-2.2c0.1-1.1,1.3-1,1.3-1s0.8,0,2.1,0c0.3,0,0.6,0,1,0c1.8-0.1,2.3,1.6,3,3
					c0.7,1.3,2.3,1.5,2.3,1.5s1.6,0,2.4,0.1c0.9,0,1.4,1.1,1.4,1.1l0.2,2.4C551.6,187.5,551.4,187.3,551.7,189z"/>
				<path id="XMLID_65_" fill="#35FF00" d="M532.5,188.4c0.6,0.7,0.6,1.3,0.6,1.3s0.1,0.8-0.9,1.1c-0.8,0.2-2.1,0.5-2.1,0.5
					s-1.3,0.3-1.7-0.9c-0.3-0.9,0.3-1.6,0.9-1.7c0.3,0,0.9-0.3,1.6-0.4C531.5,188.2,532.2,188.1,532.5,188.4z"/>
				<path id="XMLID_64_" fill="#35FF00" d="M532.5,185.9c0.3,0.7,0.5,1.9-0.9,2.2c-0.3,0-0.5,0.1-0.8,0.2c-1.3,0.3-2.3,0.5-2.3,0.5
					s-1.6,0.3-2-1.1c-0.3-1.1,0.5-1.7,1-1.8c0.6-0.1,1.3-0.2,1.9-0.3c1-0.2,1.7-0.3,1.7-0.3S532.1,185.1,532.5,185.9z"/>
				<path id="XMLID_63_" fill="#35FF00" d="M529.6,182.5c1-0.2,1.9-0.4,1.9-0.4s0.7,0,0.8,0.7c0.1,0.8,0.5,1.5-0.7,2.1
					c-0.5,0.3-1.5,0.5-2.3,0.6c-1.1,0.2-2.2,0.3-2.2,0.3s-1.5,0.4-1.9-0.9c-0.4-1.1,0.1-1.7,0.7-1.8
					C526.3,183.1,528.2,182.7,529.6,182.5z"/>
				<path id="XMLID_62_" fill="#FFB419" d="M531.5,182.1c0,0-0.8,0.2-1.9,0.4l0-0.1c0.9-0.2,1.7-0.4,1.9-0.6
					c0.3-0.4,0.5-0.5,0.1-1.7c-0.4-1.2-1.5-0.9-1.5-0.9l-1.4,0.3l-0.1-0.1l-1-3.2c0,0-0.5-1.4,0.8-1.9c1.4-0.4,3.9-1.1,3.9-1.1
					s1.3-0.4,2,0.7c0.7,1.1,0.4,1.5,1.7,2.3c1.2,0.8,2.2,0.6,2.6,0.7c0.4,0.1,2.3,0.6,2.8,2.2l-0.1,0.3c-1.3,0-2.1,0-2.1,0
					s-1.2,0-1.4,1.1c-0.1,1.1-0.1,2.1,1.6,2.2c1.7,0,2,0.3,2.2,1.2c0.1,0.8,1.7,5.7,2.3,7.6c0.1,0.2,0.4,1.4,0.6,2.1
					c0.3,0.8-0.6,2-2.1,1.1c-0.4-0.3-0.9-1.6-0.9-1.6l-1-4c0.2,0.8,1.1,5.2,1.3,5.8c0.2,0.7-0.4,1.5-1.6,1.5c-0.9,0-1.3-1.4-1.3-1.4
					l-1.1-4l-0.1-0.3c0,0.1,0.1,0.2,0.1,0.3c0.3,1.1,0.8,3.2,0.8,4c0,0.7-0.5,1.4-1.6,1.4s-1.4-1.7-1.4-1.7l-0.4-2
					c-0.2-1.1-0.4-1.8-0.4-1.9l0.4,1.9c0,0.1,0,0.3,0,0.4c0.2,1.5-1.5,1.4-2,1.2s-0.7-1.1-0.7-1.1l-0.5-2.2c1-0.3,0.9-1.1,0.9-1.1
					s0-0.7-0.6-1.5c-0.3-0.3-1-0.3-1.6-0.2l0,0c0.3,0,0.5-0.1,0.8-0.2c1.3-0.3,1.1-1.6,0.9-2.2c-0.4-0.8-1.4-0.6-1.4-0.6
					s-0.7,0.1-1.7,0.3l0,0c0.9-0.1,1.8-0.3,2.3-0.6c1.2-0.6,0.8-1.4,0.7-2.1C532.3,182.1,531.5,182.1,531.5,182.1z"/>
				<path id="XMLID_61_" fill="#35FF00" d="M531.6,180.1c0.4,1.2,0.2,1.3-0.1,1.7c-0.2,0.2-1,0.4-1.9,0.6c-1,0.2-2,0.3-2,0.3
					s-1.5,0.4-1.8-1.1c-0.2-1.2,0.4-1.3,1-1.6l2-0.5l1.4-0.3C530.2,179.2,531.3,178.9,531.6,180.1z"/>
			</g>
			<g id="XMLID_59_">
			</g>
		</g>
		<path id="XMLID_46_" fill="#B73CFF" d="M516.7,176.3c2.3,0.2,4.6,0.3,6.8,0.2c-1.8-0.6-3.8-1.1-5.8-1.5c0.6-0.7,1.1-1.5,1.7-2.3
			c0.4-0.6,0.8-1.2,1.1-1.8c1.5,0.1,3,0.1,4.4,0c-1.2-0.4-2.5-0.7-3.8-1c0.9-1.5,1.7-3.1,2.4-4.6c-1.2,1.2-2.3,2.5-3.4,3.8
			c-0.7-1.1-1.5-2.1-2.3-3.1c0.4,1.3,1,2.6,1.6,4c-0.4,0.6-0.9,1.2-1.2,1.7c-0.5,0.8-1,1.6-1.5,2.4c-1.1-1.7-2.2-3.2-3.4-4.7
			c0.6,2,1.6,4.1,2.5,6.1c-0.7,1.2-1.3,2.5-1.8,3.7C515,178.3,515.8,177.3,516.7,176.3z"/>
	</g>
	<g id="XMLID_28_">
		<path id="XMLID_44_" fill="#B73CFF" d="M485.5,118.4c-1-2.7,0.3-5.7,3-6.8l-3.5-9.7c-7.9,2.9-12.3,12-9.4,20.1
			c3,8.1,12.3,12.2,20.2,9.3l-3.5-9.7C489.4,122.5,486.5,121.1,485.5,118.4z"/>
		<path id="XMLID_42_" d="M485.5,118.4c1,2.8,4,4.2,6.7,3.3l-3.7-10.1C485.8,112.7,484.5,115.6,485.5,118.4z"/>
		<path id="XMLID_29_" fill="#FFB419" d="M513.6,102.3c-1.3,0.5-2.2,1.3-2.8,2.4l-4-10.9l-5.2,1.9c1.1,0.6,2,1.6,2.5,2.9
			c1,2.8-0.4,5.9-3.2,6.9c-2.8,1-5.9-0.4-6.9-3.2c-0.5-1.3-0.4-2.7,0-3.8l-5.2,1.9l4.2,11.3c-1.3-0.7-2.8-0.8-4.3-0.3
			c-0.1,0-0.1,0-0.2,0.1l3.7,10.1c0.1,0,0.1,0,0.2-0.1c1.5-0.5,2.6-1.6,3.1-3l4.1,11.1l5.4-2c-1.3-0.6-2.3-1.6-2.9-3.1
			c-1-2.8,0.4-5.9,3.2-6.9c2.8-1,5.9,0.4,6.9,3.2c0.5,1.4,0.4,2.9-0.2,4.2l5.4-2l-3.9-10.7c1.1,0.4,2.5,0.5,3.7,0
			c2.8-1,4.2-4.1,3.2-6.9C519.5,102.7,516.5,101.3,513.6,102.3z"/>
	</g>
	<g id="XMLID_22_">
		<path id="XMLID_27_" fill="#B73CFF" d="M226.8,57.1c8.2-2.9,12.5-11.8,9.6-20c-2.8-8.1-11.8-12.5-20-9.6s-12.5,11.8-9.6,20
			S218.6,60,226.8,57.1"/>
		<g id="g3518_2_" transform="translate(-252.40386,4.5157622)">
			<path id="path58241_2_" fill="#35FF00" d="M487.1,33.4c-0.3-0.9-0.7-1.8-1.2-2.5l-2,0.7c-0.7-1.1-1.5-2-2.4-2.7l0.9-2
				c-0.7-0.6-1.5-1-2.4-1.4c-0.8-0.4-1.7-0.7-2.6-1l-0.9,2c-1.2-0.3-2.4-0.3-3.7-0.2l-0.7-2c-0.9,0.1-1.8,0.3-2.7,0.7
				s-1.8,0.7-2.5,1.2l0.7,2c-1.1,0.7-2,1.5-2.7,2.4l-2-0.9c-0.6,0.7-1,1.5-1.4,2.4c-0.4,0.8-0.7,1.7-1,2.6l2,0.9
				c-0.3,1.2-0.3,2.4-0.2,3.7l-2,0.7c0.1,0.9,0.3,1.8,0.7,2.7s0.7,1.8,1.2,2.5l2-0.7c0.7,1.1,1.5,2,2.4,2.7l-0.9,2
				c0.7,0.6,1.5,1,2.4,1.4c0.8,0.4,1.7,0.7,2.6,1l0.9-2c1.2,0.3,2.4,0.3,3.7,0.2l0.7,2c0.9-0.1,1.8-0.3,2.7-0.7
				c0.9-0.3,1.8-0.7,2.5-1.2l-0.7-2c1.1-0.7,2-1.5,2.7-2.4l2,0.9c0.6-0.7,1-1.5,1.4-2.4c0.4-0.8,0.7-1.7,1-2.6l-2-0.9
				c0.3-1.2,0.3-2.4,0.2-3.7l2-0.7C487.6,35.2,487.4,34.3,487.1,33.4z M480.5,35.7c1.3,3.7-0.6,7.6-4.3,8.9
				c-3.7,1.3-7.6-0.6-8.9-4.3c-1.3-3.7,0.6-7.6,4.3-8.9C475.2,30.1,479.2,32.1,480.5,35.7z"/>
		</g>
		<polygon id="XMLID_24_" points="223.5,48.5 235.2,58.9 230,60.1 232.5,67.1 230.2,67.9 		"/>
		<polygon id="XMLID_23_" points="223.5,48.5 220.8,64 225.6,61.7 228,68.6 230.2,67.9 		"/>
	</g>
	<g id="XMLID_9_">
		<g id="XMLID_11_">
			<path id="XMLID_21_" d="M86.5,130.1c4.2,7.6,13.7,10.3,21.3,6.1l-15.2-27.4C85,113,82.3,122.6,86.5,130.1z"/>
			<path id="XMLID_20_" fill="#FFB419" d="M92.5,108.8c7.6-4.2,17.1-1.5,21.3,6c4.2,7.6,1.5,17-6.1,21.3l27.3-15.2l-15.2-27.3
				L92.5,108.8z"/>
			<path id="XMLID_19_" fill="#B73CFF" d="M113.9,114.9c-4.2-7.6-13.7-10.3-21.3-6.1l15.2,27.4C115.4,132,118.1,122.5,113.9,114.9z"
				/>
			
				<rect id="XMLID_15_" x="99.8" y="116" transform="matrix(-0.8741 0.4858 -0.4858 -0.8741 247.029 171.0423)" width="3" height="3"/>
			
				<rect id="XMLID_14_" x="103.4" y="122.5" transform="matrix(-0.8741 0.4858 -0.4858 -0.8741 256.9234 181.4332)" width="3" height="3"/>
			
				<rect id="XMLID_12_" x="107.1" y="129" transform="matrix(-0.8741 0.4858 -0.4858 -0.8741 266.8801 191.8895)" width="3" height="3"/>
		</g>
		
			<rect id="XMLID_10_" x="96.2" y="109.5" transform="matrix(-0.8741 0.4858 -0.4858 -0.8741 236.9944 160.5043)" width="3" height="3"/>
	</g>
</g>
<g id="Capa_7">
	<path id="XMLID_16_" fill="#B73CFF" d="M543.2,224.5l-3,2.6c-47.4,41.4-104.9,70.2-166.1,83.3l-0.3,0c-3.3-1.7-7.2-3.2-11.6-4.2
		v-70.6c0-36.7-29.7-66.3-66.3-66.3c-36.7,0-66.3,29.7-66.3,66.3v70.6c-4.3,1.1-8.1,2.6-11.4,4.3l-0.2,0
		c-62.1-13.3-120.2-42.7-168.1-85l-3-2.6l-31.6,35.8l3,2.6c50.3,44.5,111.2,76.6,176.2,92.8l0,0.6c-0.7,22,6.2,42.8,6.2,42.8
		s40.2,13.7,95.2,13.7c54.2,0,95.2-13.7,95.2-13.7s6.9-21.4,6.3-43.1l0-0.4c64.1-16,124.3-47.4,174.2-91l3-2.6L543.2,224.5z
		 M295.9,177c32.4,0,58.5,26.1,58.5,58.5v68.7c-5.5-1.6-19.9-3.9-19.9-3.9c-6.2-0.8-10.9-5.9-11.7-11.7c9.8-7.8,16-19.9,16-33.6V220
		h-14l-13.3-13.3L298.2,220h-45.3v35.1c0,13.3,5.9,25,15.6,32.8c-0.8,6.2-5.5,11.3-11.7,12.1c-6.2,0.8-13.4,2.3-19.2,3.9l-0.3-68.3
		C237.3,203.2,263.5,177,295.9,177z M275.2,292.5c6.2,3.5,13.3,5.5,20.7,5.5c7,0,14-2,19.9-5.1c2,5.9,6.6,10.9,12.5,13.3
		c-9.4,7-20.7,10.9-32.4,10.9c-12.1,0-23.4-3.9-32.8-11.3C268.9,303.9,273.2,298.8,275.2,292.5z M260.7,255.1v-27.3h40.6l10.1-10.1
		l10.1,10.1h9.4v27.3c0,19.5-15.6,35.1-35.1,35.1C276.3,290.2,260.7,274.6,260.7,255.1z M393,347l-3.9,0.8c0.3,2.7,0.4,5.4,0.5,8.1
		c0.2,18.1-4.8,35.3-4.8,35.3c-57.8,16.4-120.2,16.4-178,0c0,0-6.4-20.9-4.1-42.6l0.1-0.9l-4-0.8c-63.4-15.4-122.9-46.1-172.4-89
		l21.1-23.8c48.8,42.3,107.7,71.5,170.6,84.6l2,0.5c7.3-4.1,18.1-7.7,34-10.2c11.3,10.9,26.1,16.8,42.1,16.8
		c15.6,0,30.4-5.9,41.8-16.8c6.6,1.2,22.6,5.1,24.2,5.9c0,0,4.7,0.7,10.2,4l3.4-0.6c61.3-13.1,118.8-41.6,166.6-82.5l20.9,24
		C514.3,301.7,455.5,331.8,393,347z"/>
</g>
</svg>
