<?xml version="1.0" encoding="utf-8"?>
<!-- Generator: Adobe Illustrator 19.0.0, SVG Export Plug-In . SVG Version: 6.00 Build 0)  -->
<svg version="1.1" id="Capa_1" xmlns="http://www.w3.org/2000/svg" xmlns:xlink="http://www.w3.org/1999/xlink" x="0px" y="0px"
	 width="142px" height="77.2px" viewBox="0 0 142 77.2" style="enable-background:new 0 0 142 77.2;" xml:space="preserve">
<g id="XMLID_620_">
	<path id="XMLID_644_" style="fill:#33C4A1;" d="M74.4,21.1v29.8h-6.9V21.1c0-4.3,1.3-8.2,3.4-11.5C73.2,12.9,74.4,16.8,74.4,21.1z"
		/>
	<path id="XMLID_641_" style="fill:#229BFF;" d="M53.3,0c-6.5,0-12.3,2.9-16.1,7.5c3.1,3.7,5,8.4,5,13.6V39c3.2,2,7.1,3.2,11.2,3.2
		c2.1,0,4.1-0.3,5.9-0.9v1.2c0,4.6,3.7,8.3,8.3,8.3V21.1c0-4.3,1.3-8.2,3.4-11.5C67.2,3.8,60.7,0,53.3,0z M53.3,27
		c-3.3,0-5.9-2.7-5.9-5.9c0-3.3,2.7-5.9,5.9-5.9c3.3,0,5.9,2.7,5.9,5.9C59.3,24.4,56.6,27,53.3,27z"/>
	<path id="XMLID_629_" style="fill:#FFB419;" d="M121.9,0c-5.5-0.3-10.6,1.6-14.5,4.9c-0.9,0.8-1.8,1.7-2.6,2.6
		c3.1,3.7,5,8.4,5,13.6c0,7.5-4,14.2-9.9,17.9v22.4h6.9c4.6,0,8.3-3.7,8.3-8.3V41.3c1.9,0.6,3.9,0.9,5.9,0.9
		c12,0,21.7-10.1,21.1-22.2C141.4,9.2,132.6,0.5,121.9,0z M120.9,27c-3.3,0-5.9-2.7-5.9-5.9c0-3.3,2.7-5.9,5.9-5.9
		c3.3,0,5.9,2.7,5.9,5.9C126.8,24.4,124.2,27,120.9,27z"/>
	<path id="XMLID_628_" style="fill:#3376C4;" d="M42.2,21.1V39c-6-3.7-9.9-10.4-9.9-17.9c0-5.2,1.9-9.9,5-13.6
		C40.3,11.2,42.2,15.9,42.2,21.1z"/>
	<path id="XMLID_625_" style="fill:#B73CFF;" d="M32.2,21.1c0-5.2,1.9-9.9,5-13.6c-4-4.8-10.1-7.7-16.9-7.5C9.5,0.4,0.6,9.1,0,19.9
		c-0.7,12.2,9,22.2,21.1,22.2c2.1,0,4.1-0.3,5.9-0.9V56c0,3.2-2.5,6-5.7,6.1c-3.4,0.1-6.2-2.6-6.2-5.9c0-5.8-4.7-10.5-10.5-10.5H0
		v10.3c0,11.6,9.3,21.2,20.9,21.4c11.7,0.1,21.3-9.4,21.3-21.1V39C36.2,35.3,32.2,28.6,32.2,21.1z M21.1,27c-3.3,0-5.9-2.7-5.9-5.9
		c0-3.3,2.7-5.9,5.9-5.9c3.3,0,5.9,2.7,5.9,5.9C27,24.4,24.4,27,21.1,27z"/>
	<path id="XMLID_622_" style="fill:#35FF00;" d="M102.2,4.9C98.5,1.8,93.8,0,88.6,0C81.3,0,74.8,3.8,71,9.6
		c2.2,3.3,3.4,7.3,3.4,11.5v29.8h-6.9v10.5h6.9c4.6,0,8.3-3.7,8.3-8.3V41.3c1.9,0.6,3.9,0.9,5.9,0.9c2.1,0,4.1-0.3,5.9-0.9
		c1.9-0.5,3.6-1.3,5.2-2.3V21.1c0-5.2,1.9-9.9,5-13.6C104,6.6,103.1,5.7,102.2,4.9z M88.6,27c-3.3,0-5.9-2.7-5.9-5.9
		c0-3.3,2.7-5.9,5.9-5.9c3.3,0,5.9,2.7,5.9,5.9C94.6,24.4,91.9,27,88.6,27z"/>
	<path id="XMLID_621_" style="fill:#FFDA19;" d="M109.7,21.1c0,7.5-4,14.2-9.9,17.9V21.1c0-5.2,1.9-9.9,5-13.6
		C107.9,11.2,109.7,15.9,109.7,21.1z"/>
</g>
</svg>
