<?xml version="1.0" encoding="utf-8"?>
<!-- Generator: Adobe Illustrator 19.0.0, SVG Export Plug-In . SVG Version: 6.00 Build 0)  -->
<svg version="1.1" id="Capa_1" xmlns="http://www.w3.org/2000/svg" xmlns:xlink="http://www.w3.org/1999/xlink" x="0px" y="0px"
	 viewBox="-291 415.4 11.6 11.5" enable-background="new -291 415.4 11.6 11.5" xml:space="preserve">
<g id="moretext" transform="rotate(0, 0, 0)">
	<circle id="XMLID_4_" fill="#229BFF" cx="-285.2" cy="421.2" r="5.8"/>
	<g id="more">
		<path id="XMLID_8_" fill="#D7F4F2" d="M-281.6,420.5c0,0,0.1,0.1,0.1,0.2v0.9c0,0.1,0,0.1-0.1,0.2c0,0-0.1,0.1-0.2,0.1h-2.6
			c-0.1,0-0.1,0-0.1,0.1v2.6c0,0.1,0,0.1-0.1,0.2c0,0-0.1,0.1-0.2,0.1h-0.9c-0.1,0-0.1,0-0.2-0.1c-0.1,0-0.1-0.1-0.1-0.1V422
			c0-0.1,0-0.1-0.1-0.1h-2.7c-0.1,0-0.1,0-0.2-0.1c0,0,0,0,0-0.1v-1c0-0.1,0-0.1,0.1-0.2c0,0,0.1-0.1,0.2-0.1h2.7c0,0.1,0,0,0,0
			v-2.8c0-0.1,0-0.1,0.1-0.2c0,0,0.1,0,0.2,0h0.9c0.1,0,0.1,0,0.2,0.1c0,0,0.1,0.1,0.1,0.2v2.7c0,0.1,0,0.1,0.1,0.1h2.7H-281.6z"/>
	</g>
</g>
</svg>
