<?xml version="1.0" encoding="utf-8"?>
<!-- Generator: Adobe Illustrator 19.0.0, SVG Export Plug-In . SVG Version: 6.00 Build 0)  -->
<svg version="1.1" xmlns="http://www.w3.org/2000/svg" xmlns:xlink="http://www.w3.org/1999/xlink" x="0px" y="0px" width="313px"
	 height="307.3px" viewBox="0 0 313 307.3" style="enable-background:new 0 0 313 307.3;" xml:space="preserve">
<g id="Capa_5">
	<path id="XMLID_6_" style="opacity:0.24;" d="M243,106H75c-6.6,0-12,5.4-12,12v79c0,6.6,5.4,12,12,12h168c6.6,0,12-5.4,12-12v-79
		C255,111.4,249.6,106,243,106z M82,175h-8v-34h8V175z M234,201H93v-87h141V201z M244,200c-2.4,0-4.3-1.9-4.3-4.3
		c0-2.4,1.9-4.3,4.3-4.3s4.3,1.9,4.3,4.3C248.3,198.1,246.4,200,244,200z" style="fill:#229bff" />
</g>
<g id="Capa_1">
	<path id="XMLID_36_" d="M210,74c0-6.6-5.4-12-12-12h-79c-6.6,0-12,5.4-12,12v168c0,6.6,5.4,12,12,12h79c6.6,0,12-5.4,12-12V74z
		 M176,235v8h-34v-8H176z M202,83v141h-87V83H202z M201.5,72.5c0,2.4-1.9,4.3-4.3,4.3c-2.4,0-4.3-1.9-4.3-4.3s1.9-4.3,4.3-4.3
		C199.6,68.2,201.5,70.1,201.5,72.5z" style="fill:#229bff" />
	<rect id="XMLID_35_" x="115" y="83" style="fill:#FFFFFF;" width="87" height="141"/>
</g>
<g id="Capa_4" style="display:none;">
	<path id="XMLID_15_" style="display:inline;fill:none;stroke:#229bff;stroke-width:6;stroke-miterlimit:10;" d="M298.3,153.5
		c0-77.2-62.6-139.8-139.8-139.8"/>
	<path id="XMLID_13_" style="display:inline;fill:none;stroke:#229bff;stroke-width:6;stroke-miterlimit:10;" d="M18.7,153.5
		c0,77.2,62.6,139.8,139.8,139.8"/>
</g>
<g id="Capa_3">
	<g id="XMLID_16_">
		<g id="XMLID_25_">
			<path id="XMLID_28_" style="fill:none;stroke:#229bff;stroke-width:4;stroke-miterlimit:10;" d="M298.3,153.5
				c0-70-51.5-128-118.6-138.2"/>
			<g id="XMLID_26_">
				<polygon id="XMLID_27_" points="185,8.9 158.5,13.7 183.8,22.8"/>
			</g>
		</g>
	</g>
	<g id="XMLID_2_">
		<g id="XMLID_21_">
			<path id="XMLID_24_" style="fill:none;stroke:#229bff;stroke-width:4;stroke-miterlimit:10;" d="M18.7,153.5
				c0,70,51.5,128,118.6,138.2"/>
			<g id="XMLID_22_">
				<polygon id="XMLID_23_" points="132,298.1 158.5,293.3 133.2,284.2"/>
			</g>
		</g>
	</g>
</g>
</svg>
