<?xml version="1.0" encoding="utf-8"?>
<!-- Generator: Adobe Illustrator 19.0.0, SVG Export Plug-In . SVG Version: 6.00 Build 0)  -->
<svg version="1.1" id="Capa_3" xmlns="http://www.w3.org/2000/svg" xmlns:xlink="http://www.w3.org/1999/xlink" x="0px" y="0px"
	 width="400px" height="400px" viewBox="0 0 400 400" style="enable-background:new 0 0 400 400;" xml:space="preserve">
<path id="XMLID_11_" style="fill:none;stroke:#000000;stroke-width:8;stroke-miterlimit:10;" d="M133,247v36c0,8.8,8.2,17,17,17h112
	c8.8,0,15-8.2,15-17V158l-55-55h-72c-8.8,0-17,6.2-17,15v59"/>
<path id="XMLID_4_" style="fill:none;stroke:#000000;stroke-width:8;stroke-miterlimit:10;" d="M276,160h-49.5c-2.5,0-5.5-3-5.5-5.5
	V105"/>
<path id="XMLID_14_" style="fill:none;stroke:#000000;stroke-width:8;stroke-miterlimit:10;" d="M134,248h74c3.6,0,5-4.4,5-8v-57
	c0-3.6-1.4-5-5-5h-74"/>
<path id="XMLID_15_" style="fill:none;stroke:#000000;stroke-width:8;stroke-miterlimit:10;" d="M134,178h-31c-3.6,0-8,1.4-8,5v57
	c0,3.6,4.4,8,8,8h31"/>
<g id="XMLID_1_">
	<path id="XMLID_2_" d="M133.5,197.1c1.7,0.9,3,2.2,3.9,3.8c0.9,1.6,1.4,3.5,1.4,5.7c0,2.1-0.5,4-1.4,5.6c-1,1.6-2.3,2.9-4.1,3.7
		c-1.8,0.9-3.8,1.3-6.1,1.3h-5.9c-0.2,0-0.2,0.1-0.2,0.2v11.7c0,0.2-0.1,0.3-0.2,0.4c-0.1,0.1-0.3,0.2-0.4,0.2h-6.9
		c-0.2,0-0.3-0.1-0.4-0.2c-0.1-0.1-0.2-0.3-0.2-0.4v-32.9c0-0.2,0.1-0.3,0.2-0.4c0.1-0.1,0.3-0.2,0.4-0.2h14.1
		C129.8,195.7,131.8,196.2,133.5,197.1z M129.5,209.7c0.8-0.7,1.2-1.7,1.2-2.9c0-1.2-0.4-2.2-1.2-3c-0.8-0.8-1.9-1.1-3.2-1.1h-5
		c-0.2,0-0.2,0.1-0.2,0.2v7.7c0,0.2,0.1,0.2,0.2,0.2h5C127.6,210.8,128.7,210.4,129.5,209.7z"/>
	<path id="XMLID_7_" d="M142.4,229.6c-0.1-0.1-0.2-0.3-0.2-0.4v-32.9c0-0.2,0.1-0.3,0.2-0.4c0.1-0.1,0.3-0.2,0.4-0.2h12.4
		c2.5,0,4.8,0.4,6.7,1.3c1.9,0.9,3.5,2.1,4.5,3.7c1.1,1.6,1.6,3.5,1.6,5.6v12.7c0,2.1-0.5,4-1.6,5.6c-1.1,1.6-2.6,2.9-4.5,3.7
		c-1.9,0.9-4.2,1.3-6.7,1.3h-12.4C142.6,229.8,142.5,229.7,142.4,229.6z M150.5,222.9h5c1.3,0,2.4-0.5,3.2-1.4
		c0.8-0.9,1.2-2.2,1.3-3.7v-10c0-1.6-0.4-2.8-1.2-3.7c-0.8-0.9-1.9-1.4-3.2-1.4h-5c-0.2,0-0.2,0.1-0.2,0.2v19.7
		C150.3,222.8,150.4,222.9,150.5,222.9z"/>
	<path id="XMLID_10_" d="M196.2,202.5c-0.1,0.1-0.3,0.2-0.4,0.2h-15.2c-0.2,0-0.2,0.1-0.2,0.2v6c0,0.2,0.1,0.2,0.2,0.2h9.8
		c0.2,0,0.3,0.1,0.4,0.2c0.1,0.1,0.2,0.3,0.2,0.4v5.7c0,0.2-0.1,0.3-0.2,0.4c-0.1,0.1-0.3,0.2-0.4,0.2h-9.8c-0.2,0-0.2,0.1-0.2,0.2
		v13c0,0.2-0.1,0.3-0.2,0.4c-0.1,0.1-0.3,0.2-0.4,0.2h-6.9c-0.2,0-0.3-0.1-0.4-0.2c-0.1-0.1-0.2-0.3-0.2-0.4v-32.9
		c0-0.2,0.1-0.3,0.2-0.4c0.1-0.1,0.3-0.2,0.4-0.2h22.9c0.2,0,0.3,0.1,0.4,0.2c0.1,0.1,0.2,0.3,0.2,0.4v5.7
		C196.4,202.2,196.3,202.3,196.2,202.5z"/>
</g>
</svg>
