<?xml version="1.0" encoding="utf-8"?>
<!-- Generator: Adobe Illustrator 19.0.0, SVG Export Plug-In . SVG Version: 6.00 Build 0)  -->
<svg version="1.1" id="Capa_1" xmlns="http://www.w3.org/2000/svg" xmlns:xlink="http://www.w3.org/1999/xlink" x="0px" y="0px"
	 width="189.1px" height="38.7px" viewBox="0 0 189.1 38.7" style="enable-background:new 0 0 189.1 38.7;" xml:space="preserve">
<g id="XMLID_3583_">
	<path id="XMLID_4246_" style="fill:#33C4A1;" d="M155.2,10.6v14.9h-3.5V10.6c0-2.1,0.6-4.1,1.7-5.8C154.6,6.5,155.2,8.4,155.2,10.6
		z"/>
	<path id="XMLID_4243_" style="fill:#229BFF;" d="M144.6,0c-3.2,0-6.1,1.5-8.1,3.8c1.6,1.8,2.5,4.2,2.5,6.8v9c1.6,1,3.5,1.6,5.6,1.6
		c1,0,2-0.1,3-0.4v0.6c0,2.3,1.9,4.1,4.1,4.1V10.6c0-2.1,0.6-4.1,1.7-5.8C151.6,1.9,148.3,0,144.6,0z M144.6,13.6c-1.6,0-3-1.3-3-3
		c0-1.6,1.3-3,3-3c1.6,0,3,1.3,3,3C147.6,12.2,146.3,13.6,144.6,13.6z"/>
	<path id="XMLID_4240_" style="fill:#FFB419;" d="M179,0c-2.8-0.1-5.3,0.8-7.3,2.5c-0.5,0.4-0.9,0.8-1.3,1.3
		c1.6,1.8,2.5,4.2,2.5,6.8c0,3.8-2,7.1-5,9v11.2h3.5c2.3,0,4.1-1.9,4.1-4.1v-5.9c0.9,0.3,1.9,0.4,3,0.4c6,0,10.9-5.1,10.6-11.1
		C188.8,4.6,184.4,0.3,179,0z M178.5,13.6c-1.6,0-3-1.3-3-3c0-1.6,1.3-3,3-3c1.6,0,3,1.3,3,3C181.5,12.2,180.2,13.6,178.5,13.6z"/>
	<path id="XMLID_4239_" style="fill:#3376C4;" d="M139.1,10.6v9c-3-1.9-5-5.2-5-9c0-2.6,0.9-5,2.5-6.8C138.1,5.6,139.1,8,139.1,10.6
		z"/>
	<path id="XMLID_3636_" style="fill:#B73CFF;" d="M134.1,10.6c0-2.6,0.9-5,2.5-6.8c-2-2.4-5.1-3.9-8.5-3.8c-5.4,0.2-9.9,4.6-10.2,10
		c-0.3,6.1,4.5,11.2,10.6,11.2c1,0,2-0.1,3-0.4v7.3c0,1.6-1.3,3-2.9,3c-1.7,0.1-3.1-1.3-3.1-3c0-2.9-2.4-5.3-5.3-5.3h-2.3V28
		c0,5.8,4.6,10.7,10.5,10.7c5.9,0.1,10.7-4.7,10.7-10.6v-8.6C136.1,17.7,134.1,14.4,134.1,10.6z M128.5,13.6c-1.6,0-3-1.3-3-3
		c0-1.6,1.3-3,3-3c1.6,0,3,1.3,3,3C131.5,12.2,130.1,13.6,128.5,13.6z"/>
	<path id="XMLID_3631_" style="fill:#35FF00;" d="M169.1,2.5c-1.8-1.5-4.2-2.5-6.8-2.5c-3.7,0-7,1.9-8.8,4.8
		c1.1,1.7,1.7,3.7,1.7,5.8v14.9h-3.5v5.3h3.5c2.3,0,4.1-1.9,4.1-4.1v-5.9c0.9,0.3,1.9,0.4,3,0.4s2-0.1,3-0.4
		c0.9-0.3,1.8-0.7,2.6-1.2v-9c0-2.6,0.9-5,2.5-6.8C170,3.3,169.6,2.9,169.1,2.5z M162.3,13.6c-1.6,0-3-1.3-3-3c0-1.6,1.3-3,3-3
		c1.6,0,3,1.3,3,3C165.3,12.2,164,13.6,162.3,13.6z"/>
	<path id="XMLID_3584_" style="fill:#FFDA19;" d="M172.9,10.6c0,3.8-2,7.1-5,9v-9c0-2.6,0.9-5,2.5-6.8C172,5.6,172.9,8,172.9,10.6z"
		/>
</g>
<g id="XMLID_1990_">
	
		<text id="XMLID_41_" transform="matrix(1 0 0 1 -2.288818e-004 23.8253)" style="fill:#FF6C2C; font-family:'Barlow'; font-size:18px;">POWERED BY</text>
</g>
</svg>
