<?xml version="1.0" encoding="utf-8"?>
<!-- Generator: Adobe Illustrator 19.0.0, SVG Export Plug-In . SVG Version: 6.00 Build 0)  -->
<svg version="1.1" id="Capa_1" xmlns="http://www.w3.org/2000/svg" xmlns:xlink="http://www.w3.org/1999/xlink" x="0px" y="0px"
	 width="30px" height="203.9px" viewBox="0 0 30 203.9" style="enable-background:new 0 0 30 203.9;" xml:space="preserve">
<g id="XMLID_1315_" style="opacity:0.62;">
	<g id="XMLID_1322_">
		<g id="XMLID_21_">
			<line id="XMLID_24_" style="fill:none;stroke:#229BFF;stroke-miterlimit:10;" x1="16.5" y1="193.5" x2="16.5" y2="143.5"/>
			<g id="XMLID_22_">
				<polygon id="XMLID_23_" style="fill:#229BFF;" points="19.4,191.5 16,203.9 12.7,191.5 				"/>
			</g>
		</g>
	</g>
	<g id="XMLID_1321_">
		<g id="XMLID_16_">
			<line id="XMLID_19_" style="fill:none;stroke:#229BFF;stroke-miterlimit:10;" x1="16.5" y1="10.5" x2="16.5" y2="60.5"/>
			<g id="XMLID_17_">
				<polygon id="XMLID_18_" style="fill:#229BFF;" points="12.7,12.5 16,0 19.4,12.5 				"/>
			</g>
		</g>
	</g>
	<path id="XMLID_1316_" style="fill:#229BFF;" d="M30,99.8v6.4c0,0.2,0,0.4-0.1,0.6l-2.1,9.1c-0.3,1.2-1.4,2.1-2.6,2.1H11.3
		c-0.9,0-1.7-0.4-2.2-1.1l-8.6-11.8c-0.9-1.2-0.6-2.9,0.6-3.7c1.2-0.9,2.9-0.6,3.7,0.6l2.1,2.9V86.4c0-1.5,1.2-2.7,2.7-2.7
		s2.7,1.2,2.7,2.7v13.4h0.5v-2.7c0-1.5,1.2-2.7,2.7-2.7s2.7,1.2,2.7,2.7v2.7h0.5v-1.6c0-1.5,1.2-2.7,2.7-2.7s2.7,1.2,2.7,2.7v1.6
		h0.5c0-1.5,1.2-2.7,2.7-2.7S30,98.3,30,99.8z M12.9,105.1h-0.5v6.4h0.5V105.1z M18.8,105.1h-0.5v6.4h0.5V105.1z M24.6,105.1h-0.5
		v6.4h0.5V105.1z"/>
</g>
</svg>
