<?xml version="1.0" encoding="utf-8"?>
<svg version="1.1" id="c2" xmlns="http://www.w3.org/2000/svg" xmlns:xlink="http://www.w3.org/1999/xlink" x="0px" y="0px" viewBox="0 0 631 86" style="enable-background:new 0 0 631 86;" xml:space="preserve">
	<g id="XMLID_681_">
		<text id="XMLID_42_" transform="matrix(1 0 0 1 115.666 34.5678)">
			<tspan class="p1" x="0" y="0" style="font-family:'Barlow'; font-size:35px;" data-es="Comunicaci贸n " data-en="Communication">Comunicaci贸n </tspan>
			<tspan class="p2" x="0" y="34" style="font-family:'Barlow'; font-size:35px;" data-es="y colaboraci贸n" data-en="and collaboration">y colaboraci贸n</tspan>
		</text>
	</g>
	<path id="XMLID_56_" style="fill:#B73CFF;" d="M45.8,57C39.2,57,34,51.1,34,44.5v-12C34,25.9,39.2,21,45.8,21h24
	C63.6,13.3,54.1,8.3,43.5,8.3C24.9,8.3,9.8,23.4,9.8,42c0,18.6,15.1,33.7,33.7,33.7c11.3,0,21.3-5.6,27.4-14.2L66.3,57H45.8z"/>
	<path id="XMLID_57_" style="fill:#35FF00;" d="M88.4,21H69.8c4.6,5.8,7.4,13.1,7.4,21c0,7.3-2.3,14-6.2,19.5L84,74V57h4.4
		C95,57,100,51.1,100,44.5v-12C100,25.9,95,21,88.4,21z"/>
	<path id="XMLID_58_" style="fill:#FFB419;" d="M69.8,21h-24C39.2,21,34,25.9,34,32.5v12C34,51.1,39.2,57,45.8,57h20.5l4.7,4.5
		c3.9-5.5,6.2-12.2,6.2-19.5C77.2,34.1,74.4,26.8,69.8,21z"/>
	<rect id="XMLID_43_" x="47.5" y="31.5" width="38" height="2.8"/>
	<rect id="XMLID_1_" x="47.5" y="37.8" width="17.3" height="2.8"/>
	<rect id="XMLID_41_" x="47.5" y="44" width="38" height="2.8"/>
	<path id="trazobase" style="fill:none;stroke:#000000;stroke-width:6;stroke-miterlimit:10;" d="M47.7,81.7
		c19.6-2.3,34.8-19,34.8-39.2C82.5,20.7,64.8,3,43,3S3.5,20.7,3.5,42.5S21.2,82,43,82h582"/>
	<g transform="translate(0,0)">
		<polygon id="e1" style="display:none;" points="614.2,68.4 607,73.7 609.8,65.2 602.6,59.9 611.5,60 614.2,51.5 617,60 625.9,59.9 618.7,65.2 621.5,73.7 "/>
		<polygon id="e2" style="display:none;" points="614.2,45.5 607,50.7 609.8,42.2 602.6,37 611.5,37 614.2,28.5 617,37 625.9,37 618.7,42.2 621.5,50.7 "/>
		<polygon id="e3" style="display:none;" points="614.2,22.5 607,27.8 609.8,19.3 602.6,14.1 611.5,14.1 614.2,5.6 617,14.1 625.9,14.1 618.7,19.3 621.5,27.8 "/>
	</g>
	<text id="p" class="porcientocompetencia" x="555" y="55" style="display: none; font-family: Barlow; font-size: 30px;" text-anchor="end">0%</text>
	<g transform="translate(80,0)"><path id="flechalinea" style="display: none;fill:none;stroke:#000000;stroke-width:6;stroke-linecap:round;stroke-linejoin:round;stroke-miterlimit:10;" d="M525.1,21.5l14.7,14.7c3.1,3.1,3.1,8.2,0,11.3l-14.7,14.7"/></g>
</svg>