<?xml version="1.0" encoding="utf-8"?>
<svg version="1.1" id="c3" xmlns="http://www.w3.org/2000/svg" xmlns:xlink="http://www.w3.org/1999/xlink" x="0px" y="0px" viewBox="0 0 631 86" style="enable-background:new 0 0 631 86;" xml:space="preserve">
	<g id="XMLID_681_">
		<text id="XMLID_42_" transform="matrix(1 0 0 1 115.666 34.5678)">
			<tspan class="p1" x="0" y="0" style="font-family:'Barlow'; font-size:35px;" data-es="Creación" data-en="Digital">Creación </tspan>
			<tspan class="p2" x="0" y="34" style="font-family:'Barlow'; font-size:35px;" data-es="de contenido digital" data-en="content creation">de contenido digital</tspan>
		</text>
	</g>
	<path class="iconoc" id="XMLID_37_" d="M9.4,42.8c0,18.6,15,33.6,33.6,33.6V9.1C24.4,9.1,9.4,24.2,9.4,42.8z"/>
	<path class="iconoc" id="XMLID_36_" style="fill:#FFB419;" d="M43,9c18.6,0,33.6,14.9,33.6,33.5S61.6,76,43,76h67V9H43z"/>
	<path class="iconoc" id="XMLID_35_" style="fill:#B73CFF;" d="M76.6,42.8c0-18.6-15-33.6-33.6-33.6v67.2C61.6,76.3,76.6,61.3,76.6,42.8z"/>
	<rect class="iconoc" id="XMLID_100_" x="47.1" y="15.5" width="6.5" height="6.5"/>
	<rect class="iconoc" id="XMLID_50_" x="47.1" y="31.4" width="6.5" height="6.5"/>
	<rect class="iconoc" id="XMLID_48_" x="47.1" y="47.3" width="6.5" height="6.5"/>
	<rect class="iconoc" id="XMLID_1_" x="47.1" y="63.3" width="6.5" height="6.5"/>
	<rect class="iconoc" id="XMLID_34_" x="98.1" y="15.5" width="6.5" height="6.5"/>
	<rect class="iconoc" id="XMLID_33_" x="98.1" y="31.4" width="6.5" height="6.5"/>
	<rect class="iconoc" id="XMLID_32_" x="98.1" y="47.3" width="6.5" height="6.5"/>
	<rect class="iconoc" id="XMLID_31_" x="98.1" y="63.3" width="6.5" height="6.5"/>
	<path id="trazobase" style="fill:none;stroke:#000000;stroke-width:6;stroke-miterlimit:10;" d="M47.7,81.7
		c19.6-2.3,34.8-19,34.8-39.2C82.5,20.7,64.8,3,43,3S3.5,20.7,3.5,42.5S21.2,82,43,82h582"/>
	<g transform="translate(0,0)">
		<polygon id="e1" style="display:none;" points="614.2,68.4 607,73.7 609.8,65.2 602.6,59.9 611.5,60 614.2,51.5 617,60 625.9,59.9 618.7,65.2 621.5,73.7 "/>
		<polygon id="e2" style="display:none;" points="614.2,45.5 607,50.7 609.8,42.2 602.6,37 611.5,37 614.2,28.5 617,37 625.9,37 618.7,42.2 621.5,50.7 "/>
		<polygon id="e3" style="display:none;" points="614.2,22.5 607,27.8 609.8,19.3 602.6,14.1 611.5,14.1 614.2,5.6 617,14.1 625.9,14.1 618.7,19.3 621.5,27.8 "/>
	</g>
	<text id="p" class="porcientocompetencia" x="555" y="55" style="display: none; font-family: Barlow; font-size: 30px;" text-anchor="end">0%</text>
	<g transform="translate(80,0)"><path id="flechalinea" style="display: none;fill:none;stroke:#000000;stroke-width:6;stroke-linecap:round;stroke-linejoin:round;stroke-miterlimit:10;" d="M525.1,21.5l14.7,14.7c3.1,3.1,3.1,8.2,0,11.3l-14.7,14.7"/></g>
</svg>