<?xml version="1.0" encoding="utf-8"?>
<svg version="1.1" id="c8" xmlns="http://www.w3.org/2000/svg" xmlns:xlink="http://www.w3.org/1999/xlink" x="0px" y="0px" viewBox="0 0 631 86" style="enable-background:new 0 0 631 86;" xml:space="preserve">
	<g id="XMLID_681_">
		<text id="XMLID_42_" transform="matrix(1 0 0 1 115.666 34.5678)">
			<tspan class="p1" x="0" y="0" style="font-family:'Barlow'; font-size:35px;" data-es="Formas" data-en="Ways">Formas</tspan>
			<tspan class="p2" x="0" y="34" style="font-family:'Barlow'; font-size:35px;" data-es="de trabajo" data-en="of working">de trabajo</tspan>
		</text>
	</g>
	<path id="XMLID_42_" d="M76.7,42.4C76.7,23.8,61.6,8.7,43,8.7C24.4,8.7,9.4,23.8,9.4,42.4C9.4,61,24.4,76,43,76
		C61.6,76,76.7,61,76.7,42.4"/>
	<polygon id="XMLID_41_" style="fill:none;stroke:#FFB419;stroke-width:3;stroke-miterlimit:10;stroke-dasharray:3,2,3,2,3,2;" points="
		55.4,40.8 94.2,21.3 95.7,63.3 "/>
	<path id="XMLID_40_" style="fill:#B73CFF;" d="M81.6,21c0-6.6,5.4-12,12-12h0.7c6.6,0,12,5.4,12,12v0.7c0,6.6-5.4,12-12,12h-0.7
		c-6.6,0-12-5.4-12-12V21z"/>
	<path id="XMLID_39_" style="fill:#B73CFF;" d="M81.6,61.7c0-6.6,5.4-12,12-12h0.7c6.6,0,12,5.4,12,12v0.7c0,6.6-5.4,12-12,12h-0.7
		c-6.6,0-12-5.4-12-12V61.7z"/>
	<path id="XMLID_38_" style="fill:#B73CFF;" d="M34.6,40.9c0-9.9,8-17.8,17.8-17.8h1c9.9,0,17.8,8,17.8,17.8v1
		c0,9.9-8,17.8-17.8,17.8h-1c-9.9,0-17.8-8-17.8-17.8V40.9z"/>
	<g id="XMLID_34_">
		<path id="XMLID_37_" style="fill:#35FF00;" d="M38,36.5c0-0.3,0-0.5,0-0.8c1.3,0,2.6,0,3.9,0c0,1.3,0.1,2.6,0.4,3.8
			c0.7,3.1,2.1,5.8,4.2,8.1c2.3,2.6,5.2,4.3,8.5,5.2c1.5,0.4,3,0.6,4.5,0.6c0,1.3,0,2.6,0,3.9c-0.3,0-0.6,0-0.8,0c-0.1,0-0.1,0-0.2,0
			c-1.3-0.1-2.6-0.2-3.8-0.5c-3-0.7-5.7-1.9-8.1-3.8c-2.4-1.8-4.4-4.1-5.9-6.8c-1.4-2.6-2.3-5.3-2.6-8.2C38.1,37.5,38,37,38,36.5z"/>
		<path id="XMLID_36_" style="fill-rule:evenodd;clip-rule:evenodd;fill:#35FF00;" d="M59.6,49.5c-2.2,0-4.3-0.5-6.2-1.5
			c-3.3-1.7-5.6-4.4-6.8-7.9c-0.5-1.3-0.7-2.7-0.7-4.1c0-0.1,0-0.2,0-0.2c1.3,0,2.6,0,3.9,0c0,0.1,0,0.3,0,0.4
			c0.1,0.6,0.1,1.2,0.2,1.8c0.8,3.3,2.7,5.6,5.8,6.9c1.2,0.5,2.5,0.8,3.8,0.8C59.6,46.8,59.6,48.2,59.6,49.5z"/>
		<path id="XMLID_35_" style="fill-rule:evenodd;clip-rule:evenodd;fill:#35FF00;" d="M59.6,39.1c-0.1,0.3-0.2,0.7-0.3,1
			c-0.6,1.3-2.1,2-3.4,1.6c-1.4-0.4-2.4-1.6-2.3-3.1c0.1-1.5,1.1-2.6,2.6-2.9c0,0,0.1,0,0.1,0c0.2,0,0.4,0,0.6,0c0,0,0.1,0,0.1,0
			c0.9,0.1,1.7,0.6,2.2,1.4c0.2,0.4,0.3,0.8,0.4,1.2C59.6,38.6,59.6,38.9,59.6,39.1z"/>
	</g>
	<g id="XMLID_31_">
		<path id="XMLID_33_" style="fill-rule:evenodd;clip-rule:evenodd;fill:#35FF00;" d="M90.5,27.7c-0.2,0-0.3-0.1-0.5-0.1
			c-1-0.3-1.6-1-1.7-2.1c0-1.1,0.1-2.1,0.5-3.1c0.3-0.6,0.6-1.2,1.3-1.6c0.4-0.2,0.8-0.3,1.3-0.3c0.1,0,0.3,0.1,0.4,0.1
			c0.2,0.1,0.4,0.3,0.6,0.4c1.2,0.7,2.3,0.7,3.5,0c0.2-0.1,0.3-0.2,0.5-0.3c0.3-0.2,0.6-0.2,0.9-0.2c0.9,0.1,1.5,0.6,2,1.4
			c0.4,0.7,0.6,1.5,0.6,2.3c0,0.4,0.1,0.8,0.1,1.2c0,1.2-0.8,2.1-2.1,2.2c0,0-0.1,0-0.1,0C95.4,27.7,93,27.7,90.5,27.7z"/>
		<path id="XMLID_32_" style="fill-rule:evenodd;clip-rule:evenodd;fill:#35FF00;" d="M94.4,13.8c0.2,0,0.4,0.1,0.5,0.1
			c1.2,0.3,2.3,1.5,2.4,2.7c0.1,0.8,0,1.6-0.5,2.3c-0.6,0.9-1.5,1.5-2.6,1.5c-1.5,0.1-2.7-0.8-3.3-2c-0.5-1.1-0.3-2.6,0.5-3.5
			c0.5-0.6,1.1-1,1.9-1.1c0.1,0,0.3,0,0.4-0.1C94,13.8,94.2,13.8,94.4,13.8z"/>
	</g>
	<g id="XMLID_13_">
		<path id="XMLID_30_" style="fill-rule:evenodd;clip-rule:evenodd;fill:#35FF00;" d="M90.5,68.5c-0.2,0-0.3-0.1-0.5-0.1
			c-1-0.3-1.6-1-1.7-2.1c0-1.1,0.1-2.1,0.5-3.1c0.3-0.6,0.6-1.2,1.3-1.6c0.4-0.2,0.8-0.3,1.3-0.3c0.1,0,0.3,0.1,0.4,0.1
			c0.2,0.1,0.4,0.3,0.6,0.4c1.2,0.7,2.3,0.7,3.5,0c0.2-0.1,0.3-0.2,0.5-0.3c0.3-0.2,0.6-0.2,0.9-0.2c0.9,0.1,1.5,0.6,2,1.4
			c0.4,0.7,0.6,1.5,0.6,2.3c0,0.4,0.1,0.8,0.1,1.2c0,1.2-0.8,2.1-2.1,2.2c0,0-0.1,0-0.1,0C95.4,68.5,93,68.5,90.5,68.5z"/>
		<path id="XMLID_16_" style="fill-rule:evenodd;clip-rule:evenodd;fill:#35FF00;" d="M94.4,54.6c0.2,0,0.4,0.1,0.5,0.1
			c1.2,0.3,2.3,1.5,2.4,2.7c0.1,0.8,0,1.6-0.5,2.3c-0.6,0.9-1.5,1.5-2.6,1.5c-1.5,0.1-2.7-0.8-3.3-2c-0.5-1.1-0.3-2.6,0.5-3.5
			c0.5-0.6,1.1-1,1.9-1.1c0.1,0,0.3,0,0.4-0.1C94,54.6,94.2,54.6,94.4,54.6z"/>
	</g>
	<path id="trazobase" style="fill:none;stroke:#000000;stroke-width:6;stroke-miterlimit:10;" d="M47.7,81.7
		c19.6-2.3,34.8-19,34.8-39.2C82.5,20.7,64.8,3,43,3S3.5,20.7,3.5,42.5S21.2,82,43,82h582"/>
	<g transform="translate(0,0)">
		<polygon id="e1" style="display:none;" points="614.2,68.4 607,73.7 609.8,65.2 602.6,59.9 611.5,60 614.2,51.5 617,60 625.9,59.9 618.7,65.2 621.5,73.7 "/>
		<polygon id="e2" style="display:none;" points="614.2,45.5 607,50.7 609.8,42.2 602.6,37 611.5,37 614.2,28.5 617,37 625.9,37 618.7,42.2 621.5,50.7 "/>
		<polygon id="e3" style="display:none;" points="614.2,22.5 607,27.8 609.8,19.3 602.6,14.1 611.5,14.1 614.2,5.6 617,14.1 625.9,14.1 618.7,19.3 621.5,27.8 "/>
	</g>
	<text id="p" class="porcientocompetencia" x="555" y="55" style="display: none; font-family: Barlow; font-size: 30px;" text-anchor="end">0%</text>
	<g transform="translate(80,0)"><path id="flechalinea" style="display: none;fill:none;stroke:#000000;stroke-width:6;stroke-linecap:round;stroke-linejoin:round;stroke-miterlimit:10;" d="M525.1,21.5l14.7,14.7c3.1,3.1,3.1,8.2,0,11.3l-14.7,14.7"/></g>
</svg>