<?xml version="1.0" encoding="utf-8"?>
<svg version="1.1" id="c4" xmlns="http://www.w3.org/2000/svg" xmlns:xlink="http://www.w3.org/1999/xlink" x="0px" y="0px" viewBox="0 0 631 86" style="enable-background:new 0 0 631 86;" xml:space="preserve">
	<g id="XMLID_681_">
		<text id="XMLID_42_" transform="matrix(1 0 0 1 115.666 34.5678)">
			<tspan class="p1" x="0" y="0" style="font-family:'Barlow'; font-size:35px;" data-es="Gestión" data-en="Security">Gestión </tspan>
			<tspan class="p2" x="0" y="34" style="font-family:'Barlow'; font-size:35px;" data-es="de seguridad" data-en="Managment">de seguridad</tspan>
		</text>
	</g>
	<path id="XMLID_950_" style="fill:#B73CFF;" d="M42.5,9.1C23.9,9.1,8.8,24.2,8.8,42.7c0,18.6,15.1,33.7,33.7,33.7
		s33.7-15.1,33.7-33.7C76.2,24.2,61.1,9.1,42.5,9.1z M42.5,63.6c-11.5,0-20.9-9.4-20.9-20.9c0-11.5,9.4-20.9,20.9-20.9
		s20.9,9.4,20.9,20.9C63.4,54.3,54,63.6,42.5,63.6z"/>
	<path id="XMLID_949_" d="M21.1,42.7c0,11.5,9.9,20.9,20.9,20.9V21.8C31,21.9,21.1,31.2,21.1,42.7z"/>
	<path id="XMLID_573_" style="fill:#FFB419;" d="M42,9v12.8c0,0,0.3,0,0.3,0c11.5,0,21,9.4,21,20.9c0,11.5-9.5,20.9-21.1,20.9
		c0,0-0.2,0-0.2,0V76h68V9H42z"/>
	<path id="XMLID_572_" style="fill:#35FF00;" d="M63.4,42.7c0-11.5-9.6-20.9-21.1-20.9c0,0-0.3,0-0.3,0v41.8c0,0,0.3,0,0.3,0
		C53.8,63.6,63.4,54.3,63.4,42.7z"/>
	<path id="XMLID_571_" d="M73.6,37.6c-2.8,0-5.1,2.3-5.1,5.1c0,2.8,2.3,5.1,5.1,5.1c1.8,0,3.4-1,4.3-2.4L95,47.9V37.6L77.9,40
		C77,38.6,75.4,37.6,73.6,37.6z"/>
	<path id="trazobase" style="fill:none;stroke:#000000;stroke-width:6;stroke-miterlimit:10;" d="M47.7,81.7
		c19.6-2.3,34.8-19,34.8-39.2C82.5,20.7,64.8,3,43,3S3.5,20.7,3.5,42.5S21.2,82,43,82h582"/>
	<g transform="translate(0,0)">
		<polygon id="e1" style="display:none;" points="614.2,68.4 607,73.7 609.8,65.2 602.6,59.9 611.5,60 614.2,51.5 617,60 625.9,59.9 618.7,65.2 621.5,73.7 "/>
		<polygon id="e2" style="display:none;" points="614.2,45.5 607,50.7 609.8,42.2 602.6,37 611.5,37 614.2,28.5 617,37 625.9,37 618.7,42.2 621.5,50.7 "/>
		<polygon id="e3" style="display:none;" points="614.2,22.5 607,27.8 609.8,19.3 602.6,14.1 611.5,14.1 614.2,5.6 617,14.1 625.9,14.1 618.7,19.3 621.5,27.8 "/>
	</g>
	<text id="p" class="porcientocompetencia" x="555" y="55" style="display: none; font-family: Barlow; font-size: 30px;" text-anchor="end">0%</text>
	<g transform="translate(80,0)"><path id="flechalinea" style="display: none;fill:none;stroke:#000000;stroke-width:6;stroke-linecap:round;stroke-linejoin:round;stroke-miterlimit:10;" d="M525.1,21.5l14.7,14.7c3.1,3.1,3.1,8.2,0,11.3l-14.7,14.7"/></g>
</svg>