<?xml version="1.0" encoding="utf-8"?>
<svg version="1.1" id="c9" xmlns="http://www.w3.org/2000/svg" xmlns:xlink="http://www.w3.org/1999/xlink" x="0px" y="0px" viewBox="0 0 631 86" style="enable-background:new 0 0 631 86;" xml:space="preserve">
	<g id="XMLID_681_">
		<text id="XMLID_42_" transform="matrix(1 0 0 1 115.666 34.5678)">
			<tspan class="p1" x="0" y="0" style="font-family:'Barlow'; font-size:35px;fill: #000000;" data-es="Madurez" data-en="Maturity">Madurez</tspan>
			<tspan class="p2" x="0" y="34" style="font-family:'Barlow'; font-size:35px; fill: #000000;" data-es="y responsabilidad" data-en="and responsibility">y responsabilidad</tspan>
		</text>
	</g>
	<path id="XMLID_84_" style="fill:#B73CFF;" d="M43.3,8.8c-6.2,0-12.1,1.7-17.1,4.7c9.9,5.9,16.6,16.6,16.6,29
		c0,12.3-6.7,23.1-16.6,29c5,3,10.8,4.7,17.1,4.7c18.6,0,33.7-15.1,33.7-33.7C76.9,23.9,61.9,8.8,43.3,8.8z"/>
	<path id="XMLID_83_" style="fill:#35FF00;" d="M42.8,42.5c0-12.3-6.7-23.1-16.6-29c-9.9,5.9-16.6,16.6-16.6,29
		c0,12.3,6.7,23.1,16.6,29C36.1,65.6,42.8,54.8,42.8,42.5z"/>
	<g id="XMLID_1_">
		<g id="XMLID_76_">
			<path id="XMLID_33_" style="fill:#35FF00;" d="M104.6,32.5c2.6,2.9-0.2,5-0.2,5l-8.9,9.8c0,0-0.5-0.4-1.4-1.1
				c-3.5-2.7-12.2-9.5-13.3-10.7C79.4,34,78.6,34,75.5,36c-3.1,2-4.4,0.3-5.5-1.9c-1.1-2.1,1.1-3.4,1.1-3.4s1.5-1,3.7-2.6
				c0.5-0.4,1.1-0.8,1.7-1.2c3.1-2.4,6,0.1,8.9,1.6c2.9,1.5,5.9-0.1,5.9-0.1s2.8-1.8,4.4-2.8c1.6-1,3.8,0.3,3.8,0.3l3.2,4
				C102.6,29.9,102,29.7,104.6,32.5z"/>
			<path id="XMLID_32_" style="fill:#35FF00;" d="M70,54.7c2,0.5,2.6,1.7,2.6,1.7s1.1,1.3-0.3,3c-1.2,1.4-3.1,3.3-3.1,3.3
				s-1.9,2.2-4.1,0.4c-1.6-1.3-1.3-3.2-0.5-4c0.4-0.4,1.3-1.6,2.4-2.7C68,55.4,69.1,54.5,70,54.7z"/>
			<path id="XMLID_31_" style="fill:#35FF00;" d="M66.9,50.3c1.3,0.8,3.1,2.8,1.1,4.9c-0.4,0.4-0.8,0.9-1.2,1.3
				c-1.9,2.1-3.5,3.7-3.5,3.7s-2.5,2.4-4.8,0.5c-2-1.6-1.2-3.5-0.4-4.3c1-1,2-2,2.9-2.8c1.5-1.5,2.6-2.5,2.6-2.5S65.3,49.3,66.9,50.3
				z"/>
			<path id="XMLID_30_" style="fill:#35FF00;" d="M57.7,47.6c1.6-1.6,2.9-2.9,2.9-2.9s1.3-0.8,2.4,0.3c1.1,1.2,2.8,2.1,1.4,4.6
				c-0.6,1.1-2,2.6-3.4,3.9c-1.8,1.7-3.5,3.1-3.5,3.1s-2.3,2.5-4.5,0.8c-2-1.5-1.8-3.1-1-4C52.5,52.8,55.4,49.9,57.7,47.6z"/>
			<path id="XMLID_16_" style="fill:#FFB419;" d="M60.6,44.6c0,0-1.3,1.3-2.9,2.9l-0.2-0.2c1.3-1.4,2.6-2.8,2.7-3.3
				c0.1-1,0.3-1.4-1.8-3.1c-2.1-1.7-3.7,0.2-3.7,0.2l-2.1,2.3l-0.2-0.1l-5.6-4.5c0,0-2.6-1.9-0.8-4.3c1.9-2.4,5.5-6.7,5.5-6.7
				s1.8-2.4,4.4-1.3c2.6,1.1,2.6,2.1,5.8,2.1c3.1,0,4.6-1.5,5.4-1.8c0.8-0.3,4.8-1.6,7.6,0.6l0.1,0.6c-2.2,1.6-3.7,2.6-3.7,2.6
				S68.9,32,70,34.2c1.1,2.1,2.4,3.9,5.5,1.9c3.1-2,3.9-2,5.3-0.5c1.1,1.2,9.9,8,13.3,10.7c0.3,0.2,2.4,2,3.7,3
				c1.4,1,1.3,4.3-2.3,4.5c-1.1,0.1-3.6-1.8-3.6-1.8l-6.6-6c1.3,1.2,8.3,7.9,9.3,8.8c1.1,1,1.1,3.2-1,4.5c-1.6,1-4-1-4-1l-6.9-5.8
				L82.2,52c0.1,0.1,0.3,0.2,0.5,0.4c1.9,1.6,5.3,4.7,6.3,6c0.9,1.3,0.9,3.1-1.1,4.5c-2,1.4-4.6-1.3-4.6-1.3l-3.1-3
				c-1.7-1.8-2.8-2.7-3-2.8l3,2.8c0.2,0.2,0.4,0.5,0.6,0.7c2.1,2.4-1,4.4-2.1,4.6c-1.1,0.2-2.6-1-2.6-1l-3.6-3.3c1.4-1.7,0.3-3,0.3-3
				S72,55.3,70,54.7c-0.9-0.2-2,0.7-3.1,1.7l-0.1,0c0.4-0.4,0.8-0.8,1.2-1.3c2-2.1,0.1-4.1-1.1-4.9c-1.6-1-3.3,0.6-3.3,0.6
				s-1.1,1-2.6,2.5l0,0c1.4-1.3,2.8-2.8,3.4-3.9c1.5-2.5-0.3-3.4-1.4-4.6C61.9,43.8,60.6,44.6,60.6,44.6z"/>
			<path id="XMLID_13_" style="fill:#35FF00;" d="M58.4,41c2.1,1.7,1.9,2.1,1.8,3.1c-0.1,0.5-1.3,1.9-2.7,3.3c-1.5,1.5-3.1,3-3.1,3
				s-2.3,2.5-4.6,0.2c-1.9-1.9-0.8-2.8-0.2-3.9l3-3.3l2.1-2.3C54.7,41.2,56.3,39.3,58.4,41z"/>
		</g>
		<g id="XMLID_65_">
		</g>
	</g>
	<path id="XMLID_52_" style="fill:#B73CFF;" d="M27.3,52.3c4.4-2.4,8.5-5.1,12.2-7.9c-3.9,1.2-8,2.6-12,4.4c0.1-2,0.2-4,0.2-6.1
		c0-1.5,0-3-0.1-4.5c2.8-1.7,5.4-3.5,7.9-5.3c-2.7,0.8-5.3,1.7-8,2.8c-0.3-3.8-0.7-7.5-1.4-11c-0.6,3.5-1.1,7.2-1.3,10.9
		c-2.6-1-5.2-1.9-7.8-2.7c2.4,1.8,4.9,3.5,7.6,5.2c-0.1,1.5-0.1,3.1-0.1,4.6c0,2,0.1,4,0.2,6c-3.9-1.7-7.8-3.1-11.7-4.3
		c3.6,2.8,7.7,5.3,11.9,7.7c0.3,3,0.7,5.9,1.2,8.7C26.7,58,27,55.2,27.3,52.3z"/>
	<path id="trazobase" style="fill:none;stroke:#000000;stroke-width:6;stroke-miterlimit:10;" d="M47.7,81.7
		c19.6-2.3,34.8-19,34.8-39.2C82.5,20.7,64.8,3,43,3S3.5,20.7,3.5,42.5S21.2,82,43,82h582"/>
	<g transform="translate(0,0)">
		<polygon id="e1" style="display:none;" points="614.2,68.4 607,73.7 609.8,65.2 602.6,59.9 611.5,60 614.2,51.5 617,60 625.9,59.9 618.7,65.2 621.5,73.7 "/>
		<polygon id="e2" style="display:none;" points="614.2,45.5 607,50.7 609.8,42.2 602.6,37 611.5,37 614.2,28.5 617,37 625.9,37 618.7,42.2 621.5,50.7 "/>
		<polygon id="e3" style="display:none;" points="614.2,22.5 607,27.8 609.8,19.3 602.6,14.1 611.5,14.1 614.2,5.6 617,14.1 625.9,14.1 618.7,19.3 621.5,27.8 "/>
	</g>
	<text id="p" class="porcientocompetencia" x="555" y="55" style="display: none; font-family: Barlow; font-size: 30px;" text-anchor="end">0%</text>
	<g transform="translate(80,0)"><path id="flechalinea" style="display: none;fill:none;stroke:#000000;stroke-width:6;stroke-linecap:round;stroke-linejoin:round;stroke-miterlimit:10;" d="M525.1,21.5l14.7,14.7c3.1,3.1,3.1,8.2,0,11.3l-14.7,14.7"/></g>
</svg>