<?xml version="1.0" encoding="utf-8"?>
<svg version="1.1" id="c5" xmlns="http://www.w3.org/2000/svg" xmlns:xlink="http://www.w3.org/1999/xlink" x="0px" y="0px" viewBox="0 0 631 86" style="enable-background:new 0 0 631 86;" xml:space="preserve">
	<g id="XMLID_681_">
		<text id="XMLID_42_" transform="matrix(1 0 0 1 115.666 34.5678)">
			<tspan class="p1" x="0" y="0" style="font-family:'Barlow'; font-size:35px;" data-es="Resolución" data-en="Problem">Resolución </tspan>
			<tspan class="p2" x="0" y="34" style="font-family:'Barlow'; font-size:35px;" data-es="de problemas" data-en="resolution">de problemas</tspan>
		</text>
	</g>
	<path id="XMLID_548_" style="fill:#B73CFF;" d="M31.9,42.7c0-6.2,4.9-11.3,11.1-11.5V9.1C25,9.1,9.3,24.2,9.3,42.7
		C9.3,61.3,25,76.4,43,76.4V54.3C36.8,54,31.9,49,31.9,42.7z"/>
	<path id="XMLID_547_" d="M31.9,42.7C31.9,49,36.8,54,43,54.3V31.2C36.8,31.5,31.9,36.5,31.9,42.7z"/>
	<path id="XMLID_546_" style="fill:#FFB419;" d="M100.5,31.2c-2.9,0-5.5,1-7.5,2.8V9H81.2c1.8,2,2.9,4.8,2.9,7.7
		c0,6.4-5.2,11.6-11.6,11.6s-11.6-5.2-11.6-11.6c0-2.9,1.1-5.7,2.9-7.7H52v25.9c-2.1-2.3-5.1-3.7-8.5-3.7c-0.2,0-0.3,0-0.5,0v23.1
		c0.2,0,0.3,0,0.5,0c3.4,0,6.4-1.4,8.5-3.7V76h12.4c-2.1-2.1-3.5-5-3.5-8.3c0-6.4,5.2-11.6,11.6-11.6s11.6,5.2,11.6,11.6
		c0,3.2-1.3,6.2-3.5,8.3H93V51.5c2,1.7,4.6,2.8,7.5,2.8c6.4,0,11.6-5.2,11.6-11.6S106.9,31.2,100.5,31.2z"/>
	<path id="trazobase" style="fill:none;stroke:#000000;stroke-width:6;stroke-miterlimit:10;" d="M47.7,81.7
		c19.6-2.3,34.8-19,34.8-39.2C82.5,20.7,64.8,3,43,3S3.5,20.7,3.5,42.5S21.2,82,43,82h582"/>
	<g transform="translate(0,0)">
		<polygon id="e1" style="display:none;" points="614.2,68.4 607,73.7 609.8,65.2 602.6,59.9 611.5,60 614.2,51.5 617,60 625.9,59.9 618.7,65.2 621.5,73.7 "/>
		<polygon id="e2" style="display:none;" points="614.2,45.5 607,50.7 609.8,42.2 602.6,37 611.5,37 614.2,28.5 617,37 625.9,37 618.7,42.2 621.5,50.7 "/>
		<polygon id="e3" style="display:none;" points="614.2,22.5 607,27.8 609.8,19.3 602.6,14.1 611.5,14.1 614.2,5.6 617,14.1 625.9,14.1 618.7,19.3 621.5,27.8 "/>
	</g>
	<text id="p" class="porcientocompetencia" x="555" y="55" style="display: none; font-family: Barlow; font-size: 30px;" text-anchor="end">0%</text>
	<g transform="translate(80,0)"><path id="flechalinea" style="display: none;fill:none;stroke:#000000;stroke-width:6;stroke-linecap:round;stroke-linejoin:round;stroke-miterlimit:10;" d="M525.1,21.5l14.7,14.7c3.1,3.1,3.1,8.2,0,11.3l-14.7,14.7"/></g>
</svg>