<?xml version="1.0" encoding="utf-8"?>
<svg version="1.1" id="c7" xmlns="http://www.w3.org/2000/svg" xmlns:xlink="http://www.w3.org/1999/xlink" x="0px" y="0px" viewBox="0 0 631 86" style="enable-background:new 0 0 631 86;" xml:space="preserve">
	<g id="XMLID_681_">
		<text id="XMLID_42_" transform="matrix(1 0 0 1 115.666 34.5678)">
			<tspan class="p1" x="0" y="0" style="font-family:'Barlow'; font-size:35px;" data-es="Tecnología" data-en="Technology">Tecnología</tspan>
		</text>
	</g>
	<path id="XMLID_32_" style="fill:#B73CFF;" d="M76.8,42.4c0-18.6-15.1-33.7-33.7-33.7C24.6,8.7,9.5,23.8,9.5,42.4
		C9.5,61,24.6,76,43.2,76C61.8,76,76.8,61,76.8,42.4"/>
	<g id="g3518" transform="translate(-252.40386,4.5157622)">
		<path id="path58241" style="fill:#35FF00;" d="M295.9,8.3c-2.1,0-4.1,0.2-6,0.6v4.6c-2.6,0.6-5,1.6-7.3,3l-3.3-3.3
			c-1.7,1.1-3.2,2.4-4.6,3.8c-1.4,1.4-2.7,3-3.8,4.6l3.3,3.3c-1.4,2.2-2.4,4.7-3,7.3h-4.6c-0.4,1.9-0.6,3.9-0.6,6s0.2,4.1,0.6,6h4.6
			c0.6,2.6,1.6,5,3,7.3l-3.3,3.3c1.1,1.7,2.4,3.2,3.8,4.6c1.4,1.4,3,2.7,4.6,3.8l3.3-3.3c2.2,1.4,4.7,2.4,7.3,3v4.6
			c1.9,0.4,3.9,0.6,6,0.6c2.1,0,4.1-0.2,6-0.6v-4.6c2.6-0.6,5-1.6,7.3-3l3.3,3.3c1.7-1.1,3.2-2.4,4.6-3.8c1.4-1.4,2.7-3,3.8-4.6
			l-3.3-3.3c1.4-2.2,2.4-4.7,3-7.3h4.6c0.4-1.9,0.6-3.9,0.6-6s-0.2-4.1-0.6-6h-4.6c-0.6-2.6-1.6-5-3-7.3l3.3-3.3
			c-1.1-1.7-2.4-3.2-3.8-4.6c-1.4-1.4-3-2.7-4.6-3.8l-3.3,3.3c-2.2-1.4-4.7-2.4-7.3-3V8.9C300,8.5,298,8.3,295.9,8.3z M295.9,23.3
			c8.3,0,15,6.7,15,15s-6.7,15-15,15c-8.3,0-15-6.7-15-15S287.7,23.3,295.9,23.3z"/>
	</g>
	<polygon id="XMLID_16_" points="57,43 86.4,26.7 85.2,38 101,38 101,43.1 "/>
	<polygon id="XMLID_13_" points="57,43 86.5,59.3 85.2,48.1 101,48.1 101,43.1 "/>
	<path id="trazobase" style="fill:none;stroke:#000000;stroke-width:6;stroke-miterlimit:10;" d="M47.7,81.7
		c19.6-2.3,34.8-19,34.8-39.2C82.5,20.7,64.8,3,43,3S3.5,20.7,3.5,42.5S21.2,82,43,82h582"/>
	<g transform="translate(0,0)">
		<polygon id="e1" style="display:none;" points="614.2,68.4 607,73.7 609.8,65.2 602.6,59.9 611.5,60 614.2,51.5 617,60 625.9,59.9 618.7,65.2 621.5,73.7 "/>
		<polygon id="e2" style="display:none;" points="614.2,45.5 607,50.7 609.8,42.2 602.6,37 611.5,37 614.2,28.5 617,37 625.9,37 618.7,42.2 621.5,50.7 "/>
		<polygon id="e3" style="display:none;" points="614.2,22.5 607,27.8 609.8,19.3 602.6,14.1 611.5,14.1 614.2,5.6 617,14.1 625.9,14.1 618.7,19.3 621.5,27.8 "/>
	</g>
	<text id="p" class="porcientocompetencia" x="555" y="55" style="display: none; font-family: Barlow; font-size: 30px;" text-anchor="end">0%</text>
	<g transform="translate(80,0)"><path id="flechalinea" style="display: none;fill:none;stroke:#000000;stroke-width:6;stroke-linecap:round;stroke-linejoin:round;stroke-miterlimit:10;" d="M525.1,21.5l14.7,14.7c3.1,3.1,3.1,8.2,0,11.3l-14.7,14.7"/></g>
</svg>