<?xml version="1.0" encoding="utf-8"?>
<!-- Generator: Adobe Illustrator 23.0.3, SVG Export Plug-In . SVG Version: 6.00 Build 0)  -->
<svg version="1.1" id="Capa_1" xmlns="http://www.w3.org/2000/svg" xmlns:xlink="http://www.w3.org/1999/xlink" x="0px" y="0px"
	 viewBox="0 0 1007 178.6" enable-background="new 0 0 1007 178.6" xml:space="preserve">
<g>
	<g>
		<path fill="none" stroke="#DCF4F8" stroke-width="1.5" stroke-miterlimit="10" d="M430.9,62.2c0,0-2.7,1.3-8.7,3.3s-12,6-13,14"/>
		<path fill="none" stroke="#DCF4F8" stroke-width="1.5" stroke-miterlimit="10" d="M454.1,62.2c0,0,2.7,1.3,8.7,3.3s12,6,13,14"/>
	</g>
	<path fill="none" stroke="#DCF4F8" stroke-width="1.5" stroke-miterlimit="10" d="M450.5,64.3c-1.9,0.8-4,1.2-6.2,1.2h-3.6
		c-2.2,0-4.3-0.4-6.2-1.2"/>
	<path fill="none" stroke="#DCF4F8" stroke-width="1.5" stroke-miterlimit="10" d="M450.5,64.3c6.2-2.5,10.5-8.5,10.5-15.5V32.2
		c0-9.2-7.5-16.7-16.7-16.7h-3.6c-9.2,0-16.7,7.5-16.7,16.7v16.6c0,7,4.4,13,10.5,15.5"/>
	<path fill="none" stroke="#DCF4F8" stroke-width="1.5" stroke-miterlimit="10" d="M450.5,64.3c-0.4,4-3.8,7.2-8,7.2s-7.6-3.2-8-7.2
		"/>
	<g>
		
			<path fill="none" stroke="#DCF4F8" stroke-width="1.5" stroke-linecap="round" stroke-linejoin="round" stroke-miterlimit="10" d="
			M438.3,45.5c-0.9,0.6-2.1,1-3.3,1s-2.4-0.4-3.3-1"/>
		
			<path fill="none" stroke="#DCF4F8" stroke-width="1.5" stroke-linecap="round" stroke-linejoin="round" stroke-miterlimit="10" d="
			M453.3,45.5c-0.9,0.6-2.1,1-3.3,1s-2.4-0.4-3.3-1"/>
	</g>
	<g>
		
			<path fill="none" stroke="#DCF4F8" stroke-width="1.5" stroke-linecap="round" stroke-linejoin="round" stroke-miterlimit="10" d="
			M445.8,57.5c-0.9,0.6-2.1,1-3.3,1s-2.4-0.4-3.3-1"/>
	</g>
	<path fill="none" stroke="#DCF4F8" stroke-width="1.5" stroke-miterlimit="10" d="M433.5,17.1c0.4-4.6,4.3-8.1,9-8.1s8.5,3.6,9,8.2
		"/>
	<path fill="none" stroke="#DCF4F8" stroke-width="1.5" stroke-linecap="round" stroke-linejoin="round" stroke-miterlimit="10" d="
		M424,44.1c3-1.8,5.3-4.6,6.6-7.9c6.7-2.3,11.2-6.1,11.9-10.5c0.7,4.4,5.3,8.2,11.9,10.5c1.3,3.3,3.6,6.1,6.6,7.9"/>
</g>
<g>
	<g>
		<path fill="none" stroke="#DCF4F8" stroke-width="1.5" stroke-miterlimit="10" d="M526.8,64.2c0,0-2.7,1.3-8.7,3.3s-12,6-13,14"/>
		<path fill="none" stroke="#DCF4F8" stroke-width="1.5" stroke-miterlimit="10" d="M550.1,64.2c0,0,2.7,1.3,8.7,3.3s12,6,13,14"/>
	</g>
	<path fill="none" stroke="#DCF4F8" stroke-width="1.5" stroke-miterlimit="10" d="M546.4,66.3c-1.9,0.8-4,1.2-6.2,1.2h-3.6
		c-2.2,0-4.3-0.4-6.2-1.2"/>
	<path fill="none" stroke="#DCF4F8" stroke-width="1.5" stroke-miterlimit="10" d="M546.4,66.3c6.2-2.5,10.5-8.5,10.5-15.5V34.2
		c0-9.2-7.5-16.7-16.7-16.7h-3.6c-9.2,0-16.7,7.5-16.7,16.7v16.6c0,7,4.4,13,10.5,15.5"/>
	<path fill="none" stroke="#DCF4F8" stroke-width="1.5" stroke-miterlimit="10" d="M546.4,66.3c-0.4,4-3.8,7.2-8,7.2s-7.6-3.2-8-7.2
		"/>
	<g>
		
			<path fill="none" stroke="#DCF4F8" stroke-width="1.5" stroke-linecap="round" stroke-linejoin="round" stroke-miterlimit="10" d="
			M534.3,46.5c-0.9,0.6-2.1,1-3.3,1s-2.4-0.4-3.3-1"/>
		
			<path fill="none" stroke="#DCF4F8" stroke-width="1.5" stroke-linecap="round" stroke-linejoin="round" stroke-miterlimit="10" d="
			M549.3,46.5c-0.9,0.6-2.1,1-3.3,1s-2.4-0.4-3.3-1"/>
	</g>
	<g>
		
			<path fill="none" stroke="#DCF4F8" stroke-width="1.5" stroke-linecap="round" stroke-linejoin="round" stroke-miterlimit="10" d="
			M534.3,42.5c-0.9-0.6-2.1-1-3.3-1s-2.4,0.4-3.3,1"/>
		
			<path fill="none" stroke="#DCF4F8" stroke-width="1.5" stroke-linecap="round" stroke-linejoin="round" stroke-miterlimit="10" d="
			M549.3,42.5c-0.9-0.6-2.1-1-3.3-1s-2.4,0.4-3.3,1"/>
	</g>
	<path fill="none" stroke="#DCF4F8" stroke-width="1.5" stroke-miterlimit="10" d="M519.9,42.3v-8.1c0-3.7,1.3-7.2,3.3-10"/>
	<path fill="none" stroke="#DCF4F8" stroke-width="1.5" stroke-miterlimit="10" d="M553.6,24.2c2.1,2.8,3.3,6.2,3.3,10v8.1"/>
	<path fill="none" stroke="#DCF4F8" stroke-width="1.5" stroke-miterlimit="10" d="M523.3,24.2c-4.5,1-7.8,5-7.8,9.8
		c0,3.5,1.8,6.6,4.5,8.3"/>
	<path fill="none" stroke="#DCF4F8" stroke-width="1.5" stroke-miterlimit="10" d="M553.6,24.2c4.5,1,7.8,5,7.8,9.8
		c0,3.5-1.8,6.6-4.5,8.3"/>
	<g>
		
			<path fill="none" stroke="#DCF4F8" stroke-width="1.5" stroke-linecap="round" stroke-linejoin="round" stroke-miterlimit="10" d="
			M541.8,58.5c-0.9,0.6-2.1,1-3.3,1s-2.4-0.4-3.3-1"/>
	</g>
</g>
<g>
	<g>
		<path fill="none" stroke="#DCF4F8" stroke-width="1.5" stroke-miterlimit="10" d="M629.9,62.2c0,0-2.7,1.3-8.7,3.3s-12,6-13,14"/>
		<path fill="none" stroke="#DCF4F8" stroke-width="1.5" stroke-miterlimit="10" d="M653.1,62.2c0,0,2.7,1.3,8.7,3.3s12,6,13,14"/>
	</g>
	<path fill="none" stroke="#DCF4F8" stroke-width="1.5" stroke-miterlimit="10" d="M649.5,64.3c-1.9,0.8-4,1.2-6.2,1.2h-3.6
		c-2.2,0-4.3-0.4-6.2-1.2"/>
	<path fill="none" stroke="#DCF4F8" stroke-width="1.5" stroke-miterlimit="10" d="M649.5,64.3c6.2-2.5,10.5-8.5,10.5-15.5V32.2
		c0-9.2-7.5-16.7-16.7-16.7h-3.6c-9.2,0-16.7,7.5-16.7,16.7v16.6c0,7,4.4,13,10.5,15.5"/>
	<path fill="none" stroke="#DCF4F8" stroke-width="1.5" stroke-miterlimit="10" d="M649.5,64.3c-0.4,4-3.8,7.2-8,7.2s-7.6-3.2-8-7.2
		"/>
	<g>
		
			<path fill="none" stroke="#DCF4F8" stroke-width="1.5" stroke-linecap="round" stroke-linejoin="round" stroke-miterlimit="10" d="
			M637.3,45.5c-0.9,0.6-2.1,1-3.3,1s-2.4-0.4-3.3-1"/>
		
			<path fill="none" stroke="#DCF4F8" stroke-width="1.5" stroke-linecap="round" stroke-linejoin="round" stroke-miterlimit="10" d="
			M652.3,45.5c-0.9,0.6-2.1,1-3.3,1s-2.4-0.4-3.3-1"/>
	</g>
	<g>
		
			<path fill="none" stroke="#DCF4F8" stroke-width="1.5" stroke-linecap="round" stroke-linejoin="round" stroke-miterlimit="10" d="
			M644.8,57.5c-0.9,0.6-2.1,1-3.3,1s-2.4-0.4-3.3-1"/>
	</g>
	<path fill="none" stroke="#DCF4F8" stroke-width="1.5" stroke-miterlimit="10" d="M632.5,17.1c0.4-4.6,4.3-8.1,9-8.1s8.5,3.6,9,8.2
		"/>
	<path fill="none" stroke="#DCF4F8" stroke-width="1.5" stroke-linecap="round" stroke-linejoin="round" stroke-miterlimit="10" d="
		M623,44.1c3-1.8,5.3-4.6,6.6-7.9c6.7-2.3,11.2-6.1,11.9-10.5c0.7,4.4,5.3,8.2,11.9,10.5c1.3,3.3,3.6,6.1,6.6,7.9"/>
</g>
<g>
	<g>
		<path fill="none" stroke="#DCF4F8" stroke-width="1.5" stroke-miterlimit="10" d="M725.8,64.2c0,0-2.7,1.3-8.7,3.3s-12,6-13,14"/>
		<path fill="none" stroke="#DCF4F8" stroke-width="1.5" stroke-miterlimit="10" d="M749.1,64.2c0,0,2.7,1.3,8.7,3.3s12,6,13,14"/>
	</g>
	<path fill="none" stroke="#DCF4F8" stroke-width="1.5" stroke-miterlimit="10" d="M745.4,66.3c-1.9,0.8-4,1.2-6.2,1.2h-3.6
		c-2.2,0-4.3-0.4-6.2-1.2"/>
	<path fill="none" stroke="#DCF4F8" stroke-width="1.5" stroke-miterlimit="10" d="M745.4,66.3c6.2-2.5,10.5-8.5,10.5-15.5V34.2
		c0-9.2-7.5-16.7-16.7-16.7h-3.6c-9.2,0-16.7,7.5-16.7,16.7v16.6c0,7,4.4,13,10.5,15.5"/>
	<path fill="none" stroke="#DCF4F8" stroke-width="1.5" stroke-miterlimit="10" d="M745.4,66.3c-0.4,4-3.8,7.2-8,7.2s-7.6-3.2-8-7.2
		"/>
	<g>
		
			<path fill="none" stroke="#DCF4F8" stroke-width="1.5" stroke-linecap="round" stroke-linejoin="round" stroke-miterlimit="10" d="
			M733.3,46.5c-0.9,0.6-2.1,1-3.3,1s-2.4-0.4-3.3-1"/>
		
			<path fill="none" stroke="#DCF4F8" stroke-width="1.5" stroke-linecap="round" stroke-linejoin="round" stroke-miterlimit="10" d="
			M748.3,46.5c-0.9,0.6-2.1,1-3.3,1s-2.4-0.4-3.3-1"/>
	</g>
	<g>
		
			<path fill="none" stroke="#DCF4F8" stroke-width="1.5" stroke-linecap="round" stroke-linejoin="round" stroke-miterlimit="10" d="
			M733.3,42.5c-0.9-0.6-2.1-1-3.3-1s-2.4,0.4-3.3,1"/>
		
			<path fill="none" stroke="#DCF4F8" stroke-width="1.5" stroke-linecap="round" stroke-linejoin="round" stroke-miterlimit="10" d="
			M748.3,42.5c-0.9-0.6-2.1-1-3.3-1s-2.4,0.4-3.3,1"/>
	</g>
	<path fill="none" stroke="#DCF4F8" stroke-width="1.5" stroke-miterlimit="10" d="M718.9,42.3v-8.1c0-3.7,1.3-7.2,3.3-10"/>
	<path fill="none" stroke="#DCF4F8" stroke-width="1.5" stroke-miterlimit="10" d="M752.6,24.2c2.1,2.8,3.3,6.2,3.3,10v8.1"/>
	<path fill="none" stroke="#DCF4F8" stroke-width="1.5" stroke-miterlimit="10" d="M722.3,24.2c-4.5,1-7.8,5-7.8,9.8
		c0,3.5,1.8,6.6,4.5,8.3"/>
	<path fill="none" stroke="#DCF4F8" stroke-width="1.5" stroke-miterlimit="10" d="M752.6,24.2c4.5,1,7.8,5,7.8,9.8
		c0,3.5-1.8,6.6-4.5,8.3"/>
	<g>
		
			<path fill="none" stroke="#DCF4F8" stroke-width="1.5" stroke-linecap="round" stroke-linejoin="round" stroke-miterlimit="10" d="
			M740.8,58.5c-0.9,0.6-2.1,1-3.3,1s-2.4-0.4-3.3-1"/>
	</g>
</g>
<g>
	<g>
		<path fill="none" stroke="#DCF4F8" stroke-width="1.5" stroke-miterlimit="10" d="M828.9,62.2c0,0-2.7,1.3-8.7,3.3s-12,6-13,14"/>
		<path fill="none" stroke="#DCF4F8" stroke-width="1.5" stroke-miterlimit="10" d="M852.1,62.2c0,0,2.7,1.3,8.7,3.3s12,6,13,14"/>
	</g>
	<path fill="none" stroke="#DCF4F8" stroke-width="1.5" stroke-miterlimit="10" d="M848.5,64.3c-1.9,0.8-4,1.2-6.2,1.2h-3.6
		c-2.2,0-4.3-0.4-6.2-1.2"/>
	<path fill="none" stroke="#DCF4F8" stroke-width="1.5" stroke-miterlimit="10" d="M848.5,64.3c6.2-2.5,10.5-8.5,10.5-15.5V32.2
		c0-9.2-7.5-16.7-16.7-16.7h-3.6c-9.2,0-16.7,7.5-16.7,16.7v16.6c0,7,4.4,13,10.5,15.5"/>
	<path fill="none" stroke="#DCF4F8" stroke-width="1.5" stroke-miterlimit="10" d="M848.5,64.3c-0.4,4-3.8,7.2-8,7.2s-7.6-3.2-8-7.2
		"/>
	<g>
		
			<path fill="none" stroke="#DCF4F8" stroke-width="1.5" stroke-linecap="round" stroke-linejoin="round" stroke-miterlimit="10" d="
			M836.3,45.5c-0.9,0.6-2.1,1-3.3,1s-2.4-0.4-3.3-1"/>
		
			<path fill="none" stroke="#DCF4F8" stroke-width="1.5" stroke-linecap="round" stroke-linejoin="round" stroke-miterlimit="10" d="
			M851.3,45.5c-0.9,0.6-2.1,1-3.3,1s-2.4-0.4-3.3-1"/>
	</g>
	<g>
		
			<path fill="none" stroke="#DCF4F8" stroke-width="1.5" stroke-linecap="round" stroke-linejoin="round" stroke-miterlimit="10" d="
			M843.8,57.5c-0.9,0.6-2.1,1-3.3,1s-2.4-0.4-3.3-1"/>
	</g>
	<path fill="none" stroke="#DCF4F8" stroke-width="1.5" stroke-miterlimit="10" d="M831.5,17.1c0.4-4.6,4.3-8.1,9-8.1s8.5,3.6,9,8.2
		"/>
	<path fill="none" stroke="#DCF4F8" stroke-width="1.5" stroke-linecap="round" stroke-linejoin="round" stroke-miterlimit="10" d="
		M822,44.1c3-1.8,5.3-4.6,6.6-7.9c6.7-2.3,11.2-6.1,11.9-10.5c0.7,4.4,5.3,8.2,11.9,10.5c1.3,3.3,3.6,6.1,6.6,7.9"/>
</g>
<g>
	<g>
		<path fill="none" stroke="#DCF4F8" stroke-width="1.5" stroke-miterlimit="10" d="M924.8,64.2c0,0-2.7,1.3-8.7,3.3s-12,6-13,14"/>
		<path fill="none" stroke="#DCF4F8" stroke-width="1.5" stroke-miterlimit="10" d="M948.1,64.2c0,0,2.7,1.3,8.7,3.3s12,6,13,14"/>
	</g>
	<path fill="none" stroke="#DCF4F8" stroke-width="1.5" stroke-miterlimit="10" d="M944.4,66.3c-1.9,0.8-4,1.2-6.2,1.2h-3.6
		c-2.2,0-4.3-0.4-6.2-1.2"/>
	<path fill="none" stroke="#DCF4F8" stroke-width="1.5" stroke-miterlimit="10" d="M944.4,66.3c6.2-2.5,10.5-8.5,10.5-15.5V34.2
		c0-9.2-7.5-16.7-16.7-16.7h-3.6c-9.2,0-16.7,7.5-16.7,16.7v16.6c0,7,4.4,13,10.5,15.5"/>
	<path fill="none" stroke="#DCF4F8" stroke-width="1.5" stroke-miterlimit="10" d="M944.4,66.3c-0.4,4-3.8,7.2-8,7.2s-7.6-3.2-8-7.2
		"/>
	<g>
		
			<path fill="none" stroke="#DCF4F8" stroke-width="1.5" stroke-linecap="round" stroke-linejoin="round" stroke-miterlimit="10" d="
			M932.3,46.5c-0.9,0.6-2.1,1-3.3,1s-2.4-0.4-3.3-1"/>
		
			<path fill="none" stroke="#DCF4F8" stroke-width="1.5" stroke-linecap="round" stroke-linejoin="round" stroke-miterlimit="10" d="
			M947.3,46.5c-0.9,0.6-2.1,1-3.3,1s-2.4-0.4-3.3-1"/>
	</g>
	<g>
		
			<path fill="none" stroke="#DCF4F8" stroke-width="1.5" stroke-linecap="round" stroke-linejoin="round" stroke-miterlimit="10" d="
			M932.3,42.5c-0.9-0.6-2.1-1-3.3-1s-2.4,0.4-3.3,1"/>
		
			<path fill="none" stroke="#DCF4F8" stroke-width="1.5" stroke-linecap="round" stroke-linejoin="round" stroke-miterlimit="10" d="
			M947.3,42.5c-0.9-0.6-2.1-1-3.3-1s-2.4,0.4-3.3,1"/>
	</g>
	<path fill="none" stroke="#DCF4F8" stroke-width="1.5" stroke-miterlimit="10" d="M917.9,42.3v-8.1c0-3.7,1.3-7.2,3.3-10"/>
	<path fill="none" stroke="#DCF4F8" stroke-width="1.5" stroke-miterlimit="10" d="M951.6,24.2c2.1,2.8,3.3,6.2,3.3,10v8.1"/>
	<path fill="none" stroke="#DCF4F8" stroke-width="1.5" stroke-miterlimit="10" d="M921.3,24.2c-4.5,1-7.8,5-7.8,9.8
		c0,3.5,1.8,6.6,4.5,8.3"/>
	<path fill="none" stroke="#DCF4F8" stroke-width="1.5" stroke-miterlimit="10" d="M951.6,24.2c4.5,1,7.8,5,7.8,9.8
		c0,3.5-1.8,6.6-4.5,8.3"/>
	<g>
		
			<path fill="none" stroke="#DCF4F8" stroke-width="1.5" stroke-linecap="round" stroke-linejoin="round" stroke-miterlimit="10" d="
			M939.8,58.5c-0.9,0.6-2.1,1-3.3,1s-2.4-0.4-3.3-1"/>
	</g>
</g>
<g>
	<g>
		<path fill="none" stroke="#DCF4F8" stroke-width="1.5" stroke-miterlimit="10" d="M53.8,150.2c0,0-2.7,1.3-8.7,3.3s-12,6-13,14"/>
		<path fill="none" stroke="#DCF4F8" stroke-width="1.5" stroke-miterlimit="10" d="M77.1,150.2c0,0,2.7,1.3,8.7,3.3s12,6,13,14"/>
	</g>
	<path fill="none" stroke="#DCF4F8" stroke-width="1.5" stroke-miterlimit="10" d="M73.4,152.3c-1.9,0.8-4,1.2-6.2,1.2h-3.6
		c-2.2,0-4.3-0.4-6.2-1.2"/>
	<path fill="none" stroke="#DCF4F8" stroke-width="1.5" stroke-miterlimit="10" d="M73.4,152.3c6.2-2.5,10.5-8.5,10.5-15.5v-16.6
		c0-9.2-7.5-16.7-16.7-16.7h-3.6c-9.2,0-16.7,7.5-16.7,16.7v16.6c0,7,4.4,13,10.5,15.5"/>
	<path fill="none" stroke="#DCF4F8" stroke-width="1.5" stroke-miterlimit="10" d="M73.4,152.3c-0.4,4-3.8,7.2-8,7.2s-7.6-3.2-8-7.2
		"/>
	<g>
		
			<path fill="none" stroke="#DCF4F8" stroke-width="1.5" stroke-linecap="round" stroke-linejoin="round" stroke-miterlimit="10" d="
			M61.2,133.5c-0.9,0.6-2.1,1-3.3,1s-2.4-0.4-3.3-1"/>
		
			<path fill="none" stroke="#DCF4F8" stroke-width="1.5" stroke-linecap="round" stroke-linejoin="round" stroke-miterlimit="10" d="
			M76.2,133.5c-0.9,0.6-2.1,1-3.3,1s-2.4-0.4-3.3-1"/>
	</g>
	<path fill="none" stroke="#DCF4F8" stroke-width="1.5" stroke-miterlimit="10" d="M56.5,105.1c0.4-4.6,4.3-8.1,9-8.1s8.5,3.6,9,8.2
		"/>
	
		<line fill="none" stroke="#DCF4F8" stroke-width="1.5" stroke-linecap="round" stroke-linejoin="round" stroke-miterlimit="10" x1="61" y1="145.5" x2="70" y2="145.5"/>
	<path fill="none" stroke="#DCF4F8" stroke-width="1.5" stroke-linecap="round" stroke-linejoin="round" stroke-miterlimit="10" d="
		M46.9,132.1c3-1.8,5.3-4.6,6.6-7.9c6.7-2.3,11.2-6.1,11.9-10.5c0.7,4.4,5.3,8.2,11.9,10.5c1.3,3.3,3.6,6.1,6.6,7.9"/>
</g>
<g>
	<g>
		<path fill="none" stroke="#DCF4F8" stroke-width="1.5" stroke-miterlimit="10" d="M149.8,152.2c0,0-2.7,1.3-8.7,3.3s-12,6-13,14"
			/>
		<path fill="none" stroke="#DCF4F8" stroke-width="1.5" stroke-miterlimit="10" d="M173.1,152.2c0,0,2.7,1.3,8.7,3.3s12,6,13,14"/>
	</g>
	<path fill="none" stroke="#DCF4F8" stroke-width="1.5" stroke-miterlimit="10" d="M169.4,154.3c-1.9,0.8-4,1.2-6.2,1.2h-3.6
		c-2.2,0-4.3-0.4-6.2-1.2"/>
	<path fill="none" stroke="#DCF4F8" stroke-width="1.5" stroke-miterlimit="10" d="M169.4,154.3c6.2-2.5,10.5-8.5,10.5-15.5v-16.6
		c0-9.2-7.5-16.7-16.7-16.7h-3.6c-9.2,0-16.7,7.5-16.7,16.7v16.6c0,7,4.4,13,10.5,15.5"/>
	<path fill="none" stroke="#DCF4F8" stroke-width="1.5" stroke-miterlimit="10" d="M169.4,154.3c-0.4,4-3.8,7.2-8,7.2
		s-7.6-3.2-8-7.2"/>
	<g>
		
			<path fill="none" stroke="#DCF4F8" stroke-width="1.5" stroke-linecap="round" stroke-linejoin="round" stroke-miterlimit="10" d="
			M157.3,134.5c-0.9,0.6-2.1,1-3.3,1s-2.4-0.4-3.3-1"/>
		
			<path fill="none" stroke="#DCF4F8" stroke-width="1.5" stroke-linecap="round" stroke-linejoin="round" stroke-miterlimit="10" d="
			M172.3,134.5c-0.9,0.6-2.1,1-3.3,1s-2.4-0.4-3.3-1"/>
	</g>
	<g>
		
			<path fill="none" stroke="#DCF4F8" stroke-width="1.5" stroke-linecap="round" stroke-linejoin="round" stroke-miterlimit="10" d="
			M157.3,130.5c-0.9-0.6-2.1-1-3.3-1s-2.4,0.4-3.3,1"/>
		
			<path fill="none" stroke="#DCF4F8" stroke-width="1.5" stroke-linecap="round" stroke-linejoin="round" stroke-miterlimit="10" d="
			M172.3,130.5c-0.9-0.6-2.1-1-3.3-1s-2.4,0.4-3.3,1"/>
	</g>
	
		<line fill="none" stroke="#DCF4F8" stroke-width="1.5" stroke-linecap="round" stroke-linejoin="round" stroke-miterlimit="10" x1="156.9" y1="147.5" x2="165.9" y2="147.5"/>
	<path fill="none" stroke="#DCF4F8" stroke-width="1.5" stroke-miterlimit="10" d="M142.9,130.3v-8.1c0-3.7,1.3-7.2,3.3-10"/>
	<path fill="none" stroke="#DCF4F8" stroke-width="1.5" stroke-miterlimit="10" d="M176.6,112.2c2.1,2.8,3.3,6.2,3.3,10v8.1"/>
	<path fill="none" stroke="#DCF4F8" stroke-width="1.5" stroke-miterlimit="10" d="M146.3,112.2c-4.5,1-7.8,5-7.8,9.8
		c0,3.5,1.8,6.6,4.5,8.3"/>
	<path fill="none" stroke="#DCF4F8" stroke-width="1.5" stroke-miterlimit="10" d="M176.6,112.2c4.5,1,7.8,5,7.8,9.8
		c0,3.5-1.8,6.6-4.5,8.3"/>
</g>
<g>
	<g>
		<path fill="none" stroke="#DCF4F8" stroke-width="1.5" stroke-miterlimit="10" d="M334.8,152.2c0,0-2.7,1.3-8.7,3.3s-12,6-13,14"
			/>
		<path fill="none" stroke="#DCF4F8" stroke-width="1.5" stroke-miterlimit="10" d="M358.1,152.2c0,0,2.7,1.3,8.7,3.3s12,6,13,14"/>
	</g>
	<path fill="none" stroke="#DCF4F8" stroke-width="1.5" stroke-miterlimit="10" d="M354.4,154.3c-1.9,0.8-4,1.2-6.2,1.2h-3.6
		c-2.2,0-4.3-0.4-6.2-1.2"/>
	<path fill="none" stroke="#DCF4F8" stroke-width="1.5" stroke-miterlimit="10" d="M354.4,154.3c6.2-2.5,10.5-8.5,10.5-15.5v-16.6
		c0-9.2-7.5-16.7-16.7-16.7h-3.6c-9.2,0-16.7,7.5-16.7,16.7v16.6c0,7,4.4,13,10.5,15.5"/>
	<path fill="none" stroke="#DCF4F8" stroke-width="1.5" stroke-miterlimit="10" d="M354.4,154.3c-0.4,4-3.8,7.2-8,7.2
		s-7.6-3.2-8-7.2"/>
	<g>
		
			<path fill="none" stroke="#DCF4F8" stroke-width="1.5" stroke-linecap="round" stroke-linejoin="round" stroke-miterlimit="10" d="
			M342.3,134.5c-0.9,0.6-2.1,1-3.3,1s-2.4-0.4-3.3-1"/>
		
			<path fill="none" stroke="#DCF4F8" stroke-width="1.5" stroke-linecap="round" stroke-linejoin="round" stroke-miterlimit="10" d="
			M357.3,134.5c-0.9,0.6-2.1,1-3.3,1s-2.4-0.4-3.3-1"/>
	</g>
	<g>
		
			<path fill="none" stroke="#DCF4F8" stroke-width="1.5" stroke-linecap="round" stroke-linejoin="round" stroke-miterlimit="10" d="
			M342.3,130.5c-0.9-0.6-2.1-1-3.3-1s-2.4,0.4-3.3,1"/>
		
			<path fill="none" stroke="#DCF4F8" stroke-width="1.5" stroke-linecap="round" stroke-linejoin="round" stroke-miterlimit="10" d="
			M357.3,130.5c-0.9-0.6-2.1-1-3.3-1s-2.4,0.4-3.3,1"/>
	</g>
	
		<line fill="none" stroke="#DCF4F8" stroke-width="1.5" stroke-linecap="round" stroke-linejoin="round" stroke-miterlimit="10" x1="341.9" y1="147.5" x2="350.9" y2="147.5"/>
	<path fill="none" stroke="#DCF4F8" stroke-width="1.5" stroke-miterlimit="10" d="M327.9,130.3v-8.1c0-3.7,1.3-7.2,3.3-10"/>
	<path fill="none" stroke="#DCF4F8" stroke-width="1.5" stroke-miterlimit="10" d="M361.6,112.2c2.1,2.8,3.3,6.2,3.3,10v8.1"/>
	<path fill="none" stroke="#DCF4F8" stroke-width="1.5" stroke-miterlimit="10" d="M331.3,112.2c-4.5,1-7.8,5-7.8,9.8
		c0,3.5,1.8,6.6,4.5,8.3"/>
	<path fill="none" stroke="#DCF4F8" stroke-width="1.5" stroke-miterlimit="10" d="M361.6,112.2c4.5,1,7.8,5,7.8,9.8
		c0,3.5-1.8,6.6-4.5,8.3"/>
</g>
<g>
	<g>
		<path fill="none" stroke="#DCF4F8" stroke-width="1.5" stroke-miterlimit="10" d="M238.8,150.2c0,0-2.7,1.3-8.7,3.3s-12,6-13,14"
			/>
		<path fill="none" stroke="#DCF4F8" stroke-width="1.5" stroke-miterlimit="10" d="M262.1,150.2c0,0,2.7,1.3,8.7,3.3s12,6,13,14"/>
	</g>
	<path fill="none" stroke="#DCF4F8" stroke-width="1.5" stroke-miterlimit="10" d="M258.4,152.3c-1.9,0.8-4,1.2-6.2,1.2h-3.6
		c-2.2,0-4.3-0.4-6.2-1.2"/>
	<path fill="none" stroke="#DCF4F8" stroke-width="1.5" stroke-miterlimit="10" d="M258.4,152.3c6.2-2.5,10.5-8.5,10.5-15.5v-16.6
		c0-9.2-7.5-16.7-16.7-16.7h-3.6c-9.2,0-16.7,7.5-16.7,16.7v16.6c0,7,4.4,13,10.5,15.5"/>
	<path fill="none" stroke="#DCF4F8" stroke-width="1.5" stroke-miterlimit="10" d="M258.4,152.3c-0.4,4-3.8,7.2-8,7.2
		s-7.6-3.2-8-7.2"/>
	<g>
		
			<path fill="none" stroke="#DCF4F8" stroke-width="1.5" stroke-linecap="round" stroke-linejoin="round" stroke-miterlimit="10" d="
			M246.2,133.5c-0.9,0.6-2.1,1-3.3,1s-2.4-0.4-3.3-1"/>
		
			<path fill="none" stroke="#DCF4F8" stroke-width="1.5" stroke-linecap="round" stroke-linejoin="round" stroke-miterlimit="10" d="
			M261.2,133.5c-0.9,0.6-2.1,1-3.3,1s-2.4-0.4-3.3-1"/>
	</g>
	
		<line fill="none" stroke="#DCF4F8" stroke-width="1.5" stroke-linecap="round" stroke-linejoin="round" stroke-miterlimit="10" x1="246" y1="145.5" x2="255" y2="145.5"/>
	<path fill="none" stroke="#DCF4F8" stroke-width="1.5" stroke-linecap="round" stroke-linejoin="round" stroke-miterlimit="10" d="
		M231.9,132.1c3-1.8,5.3-4.6,6.6-7.9c6.7-2.3,11.2-6.1,11.9-10.5c0.7,4.4,5.3,8.2,11.9,10.5c1.3,3.3,3.6,6.1,6.6,7.9"/>
	<path fill="none" stroke="#DCF4F8" stroke-width="1.5" stroke-miterlimit="10" d="M266.6,112.2c4.5,1,7.8,5,7.8,9.8
		c0,3.5-1.8,6.6-4.5,8.3"/>
</g>
<line fill="none" stroke="#DCF4F8" stroke-width="1.5" stroke-miterlimit="10" x1="6" y1="91.5" x2="1000" y2="91.5"/>
</svg>
