<?xml version="1.0" encoding="utf-8"?>
<!-- Generator: Adobe Illustrator 19.0.0, SVG Export Plug-In . SVG Version: 6.00 Build 0)  -->
<svg version="1.1" id="Capa_1" xmlns="http://www.w3.org/2000/svg" xmlns:xlink="http://www.w3.org/1999/xlink" x="0px" y="0px"
	 viewBox="-403 499 559 366.2" enable-background="new -403 499 559 366.2" xml:space="preserve">
<text transform="matrix(1 0 0 1 -5.3856 687.5497)" fill="#6E3589" font-family="'Bitter-SemiBold'" font-size="67.375px" font-weight="600">92%</text>
<rect x="0.3" y="702.5" fill="none" width="154.7" height="138.1"/>
<text transform="matrix(1 0 0 1 0.2686 711.1077)" enable-background="new    "><tspan x="0" y="0" fill="#6E3589" font-family="'Bitter-Regular'" font-size="10.2048px">DE LAS PERSONAS LGBTi  </tspan><tspan x="0" y="12.2" fill="#6E3589" font-family="'Bitter-Regular'" font-size="10.2048px">EN MÉXICO ESCONDIERON  </tspan><tspan x="0" y="24.5" fill="#6E3589" font-family="'Bitter-Regular'" font-size="10.2048px">SU ORIENTACIÓN SEXUAL  </tspan><tspan x="0" y="36.7" fill="#6E3589" font-family="'Bitter-Regular'" font-size="10.2048px">O IDENTIDAD DE GÉNERO  </tspan><tspan x="0" y="49" fill="#6E3589" font-family="'Bitter-Regular'" font-size="10.2048px">A EDADES TEMPRANAS</tspan></text>
<g>
	<circle fill="#6E3589" cx="-213.7" cy="734.8" r="11.9"/>
	<circle fill="#6E3589" cx="-177.8" cy="734.8" r="11.9"/>
	<circle fill="#6E3589" cx="-141.8" cy="734.8" r="11.9"/>
	<circle fill="#6E3589" cx="-105.9" cy="734.8" r="11.9"/>
	<circle fill="#6E3589" cx="-70" cy="734.8" r="11.9"/>
	<circle fill="#6E3589" cx="-34.1" cy="734.8" r="11.9"/>
	<circle fill="#6E3589" cx="-357.4" cy="734.8" r="11.9"/>
	<circle fill="#6E3589" cx="-321.5" cy="734.8" r="11.9"/>
	<circle fill="#6E3589" cx="-285.6" cy="734.8" r="11.9"/>
	<circle fill="#6E3589" cx="-249.6" cy="734.8" r="11.9"/>
</g>
<g>
	<circle fill="#6E3589" cx="-213.7" cy="770.1" r="11.9"/>
	<circle fill="#6E3589" cx="-177.8" cy="770.1" r="11.9"/>
	<circle fill="#6E3589" cx="-141.8" cy="770.1" r="11.9"/>
	<circle fill="#6E3589" cx="-105.9" cy="770.1" r="11.9"/>
	<circle fill="#6E3589" cx="-70" cy="770.1" r="11.9"/>
	<circle fill="#6E3589" cx="-34.1" cy="770.1" r="11.9"/>
	<circle fill="#6E3589" cx="-357.4" cy="770.1" r="11.9"/>
	<circle fill="#6E3589" cx="-321.5" cy="770.1" r="11.9"/>
	<circle fill="#6E3589" cx="-285.6" cy="770.1" r="11.9"/>
	<circle fill="#6E3589" cx="-249.6" cy="770.1" r="11.9"/>
</g>
<g>
	<circle fill="#6E3589" cx="-213.7" cy="805.4" r="11.9"/>
	<circle fill="#6E3589" cx="-177.8" cy="805.4" r="11.9"/>
	<circle fill="#6E3589" cx="-141.8" cy="805.4" r="11.9"/>
	<circle fill="#6E3589" cx="-105.9" cy="805.4" r="11.9"/>
	<circle fill="#6E3589" cx="-70" cy="805.4" r="11.9"/>
	<circle fill="#6E3589" cx="-34.1" cy="805.4" r="11.9"/>
	<circle fill="#6E3589" cx="-357.4" cy="805.4" r="11.9"/>
	<circle fill="#6E3589" cx="-321.5" cy="805.4" r="11.9"/>
	<circle fill="#6E3589" cx="-285.6" cy="805.4" r="11.9"/>
	<circle fill="#6E3589" cx="-249.6" cy="805.4" r="11.9"/>
</g>
<g>
	<circle fill="#6E3589" cx="-213.7" cy="840.7" r="11.9"/>
	<circle fill="#6E3589" cx="-177.8" cy="840.7" r="11.9"/>
	<circle fill="#6E3589" cx="-141.8" cy="840.7" r="11.9"/>
	<circle fill="#6E3589" cx="-105.9" cy="840.7" r="11.9"/>
	<circle fill="#6E3589" cx="-70" cy="840.7" r="11.9"/>
	<circle fill="#6E3589" cx="-34.1" cy="840.7" r="11.9"/>
	<circle fill="#6E3589" cx="-357.4" cy="840.7" r="11.9"/>
	<circle fill="#6E3589" cx="-321.5" cy="840.7" r="11.9"/>
	<circle fill="#6E3589" cx="-285.6" cy="840.7" r="11.9"/>
	<circle fill="#6E3589" cx="-249.6" cy="840.7" r="11.9"/>
</g>
<g>
	<circle fill="#6E3589" cx="-213.7" cy="593.6" r="11.9"/>
	<circle fill="#6E3589" cx="-177.8" cy="593.6" r="11.9"/>
	<circle fill="#6E3589" cx="-141.8" cy="593.6" r="11.9"/>
	<circle fill="#6E3589" cx="-105.9" cy="593.6" r="11.9"/>
	<circle fill="#6E3589" cx="-70" cy="593.6" r="11.9"/>
	<circle fill="#6E3589" cx="-34.1" cy="593.6" r="11.9"/>
	<circle fill="#6E3589" cx="-357.4" cy="593.6" r="11.9"/>
	<circle fill="#6E3589" cx="-321.5" cy="593.6" r="11.9"/>
	<circle fill="#6E3589" cx="-285.6" cy="593.6" r="11.9"/>
	<circle fill="#6E3589" cx="-249.6" cy="593.6" r="11.9"/>
</g>
<g>
	<circle fill="#6E3589" cx="-213.7" cy="628.9" r="11.9"/>
	<circle fill="#6E3589" cx="-177.8" cy="628.9" r="11.9"/>
	<circle fill="#6E3589" cx="-141.8" cy="628.9" r="11.9"/>
	<circle fill="#6E3589" cx="-105.9" cy="628.9" r="11.9"/>
	<circle fill="#6E3589" cx="-70" cy="628.9" r="11.9"/>
	<circle fill="#6E3589" cx="-34.1" cy="628.9" r="11.9"/>
	<circle fill="#6E3589" cx="-357.4" cy="628.9" r="11.9"/>
	<circle fill="#6E3589" cx="-321.5" cy="628.9" r="11.9"/>
	<circle fill="#6E3589" cx="-285.6" cy="628.9" r="11.9"/>
	<circle fill="#6E3589" cx="-249.6" cy="628.9" r="11.9"/>
</g>
<g>
	<circle fill="#F29100" cx="-213.7" cy="523" r="11.9"/>
	<circle fill="#F29100" cx="-177.8" cy="523" r="11.9"/>
	<circle fill="#F29100" cx="-141.8" cy="523" r="11.9"/>
	<circle fill="#F29100" cx="-105.9" cy="523" r="11.9"/>
	<circle fill="#6E3589" cx="-70" cy="523" r="11.9"/>
	<circle fill="#6E3589" cx="-34.1" cy="523" r="11.9"/>
	<circle fill="#F29100" cx="-357.4" cy="523" r="11.9"/>
	<circle fill="#F29100" cx="-321.5" cy="523" r="11.9"/>
	<circle fill="#F29100" cx="-285.6" cy="523" r="11.9"/>
	<circle fill="#F29100" cx="-249.6" cy="523" r="11.9"/>
</g>
<g>
	<circle fill="#6E3589" cx="-213.7" cy="558.3" r="11.9"/>
	<circle fill="#6E3589" cx="-177.8" cy="558.3" r="11.9"/>
	<circle fill="#6E3589" cx="-141.8" cy="558.3" r="11.9"/>
	<circle fill="#6E3589" cx="-105.9" cy="558.3" r="11.9"/>
	<circle fill="#6E3589" cx="-70" cy="558.3" r="11.9"/>
	<circle fill="#6E3589" cx="-34.1" cy="558.3" r="11.9"/>
	<circle fill="#6E3589" cx="-357.4" cy="558.3" r="11.9"/>
	<circle fill="#6E3589" cx="-321.5" cy="558.3" r="11.9"/>
	<circle fill="#6E3589" cx="-285.6" cy="558.3" r="11.9"/>
	<circle fill="#6E3589" cx="-249.6" cy="558.3" r="11.9"/>
</g>
<g>
	<circle fill="#6E3589" cx="-213.7" cy="664.2" r="11.9"/>
	<circle fill="#6E3589" cx="-177.8" cy="664.2" r="11.9"/>
	<circle fill="#6E3589" cx="-141.8" cy="664.2" r="11.9"/>
	<circle fill="#6E3589" cx="-105.9" cy="664.2" r="11.9"/>
	<circle fill="#6E3589" cx="-70" cy="664.2" r="11.9"/>
	<circle fill="#6E3589" cx="-34.1" cy="664.2" r="11.9"/>
	<circle fill="#6E3589" cx="-357.4" cy="664.2" r="11.9"/>
	<circle fill="#6E3589" cx="-321.5" cy="664.2" r="11.9"/>
	<circle fill="#6E3589" cx="-285.6" cy="664.2" r="11.9"/>
	<circle fill="#6E3589" cx="-249.6" cy="664.2" r="11.9"/>
</g>
<g>
	<circle fill="#6E3589" cx="-213.7" cy="699.5" r="11.9"/>
	<circle fill="#6E3589" cx="-177.8" cy="699.5" r="11.9"/>
	<circle fill="#6E3589" cx="-141.8" cy="699.5" r="11.9"/>
	<circle fill="#6E3589" cx="-105.9" cy="699.5" r="11.9"/>
	<circle fill="#6E3589" cx="-70" cy="699.5" r="11.9"/>
	<circle fill="#6E3589" cx="-34.1" cy="699.5" r="11.9"/>
	<circle fill="#6E3589" cx="-357.4" cy="699.5" r="11.9"/>
	<circle fill="#6E3589" cx="-321.5" cy="699.5" r="11.9"/>
	<circle fill="#6E3589" cx="-285.6" cy="699.5" r="11.9"/>
	<circle fill="#6E3589" cx="-249.6" cy="699.5" r="11.9"/>
</g>
</svg>
