<?xml version="1.0" encoding="utf-8"?>
<!-- Generator: Adobe Illustrator 19.0.0, SVG Export Plug-In . SVG Version: 6.00 Build 0)  -->
<svg version="1.1" id="Capa_1" xmlns="http://www.w3.org/2000/svg" xmlns:xlink="http://www.w3.org/1999/xlink" x="0px" y="0px"
	 viewBox="-18 495.9 559 181.7" enable-background="new -18 495.9 559 181.7" xml:space="preserve">
<text transform="matrix(1 0 0 1 299.4987 557.9771)" fill="#6E3589" font-family="'Bitter-SemiBold'" font-size="36px" font-weight="600" >5.7%</text>
<rect x="301.3" y="569.7" fill="none" width="145.8" height="67.5"/>
<text transform="matrix(1 0 0 1 301.3397 578.3646)" enable-background="new    "><tspan x="0" y="0" fill="#6E3589" font-family="'Bitter-Regular'" font-size="10.2048px">DE LAS PERSONAS ADULTAS </tspan><tspan x="0" y="12.2" fill="#6E3589" font-family="'Bitter-Regular'" font-size="10.2048px">MAYORES ENCUESTADAS </tspan><tspan x="0" y="24.5" fill="#6E3589" font-family="'Bitter-Regular'" font-size="10.2048px">CONSIDERAN QUE CARECEN </tspan><tspan x="0" y="36.7" fill="#6E3589" font-family="'Bitter-Regular'" font-size="10.2048px">DE ACCESO A LA SALUD</tspan></text>
<g>
	<g>
		<g>
			<g>
				<path fill="#F29100" d="M233.1,555l17.1-46.9c25.9,9.4,39.2,38,29.8,63.9s-38,39.2-63.9,29.8s-39.2-38-29.8-63.9
					c7.3-20,25.6-32.8,46.9-32.8V555z"/>
			</g>
		</g>
		<g>
			<g>
				<path fill-rule="evenodd" clip-rule="evenodd" fill="#6E3589" d="M233.1,555v-49.9c6.3,0,11.2,0.9,17.1,3L233.1,555z"/>
			</g>
		</g>
	</g>
	<g>
		<g>
		</g>
		<g>
		</g>
	</g>
</g>
<path fill="#F29100" d="M233.3,610.9c-30.6,0-55.5-24.8-55.5-55.5c0-12.8,4.3-24.5,11.6-33.9c-9.2-10.1-22.4-16.4-37.1-16.4
	c-27.8,0-50.3,22.5-50.3,50.3c0,9.2,2,18.2,6.8,25.3c12,17.7,26.2,38.4,84,87.7l0,0v0c35.1-30,54.1-49.4,66.3-63.9
	C251.4,608.5,242.6,610.9,233.3,610.9z"/>
<polygon fill="#6E3589" points="181,605.3 157,605.3 157,581.3 132,581.3 132,605.3 108,605.3 108,630.3 132,630.3 132,654.3 
	157,654.3 157,630.3 181,630.3 "/>
</svg>
