<?xml version="1.0" encoding="utf-8"?>
<!-- Generator: Adobe Illustrator 19.0.0, SVG Export Plug-In . SVG Version: 6.00 Build 0)  -->
<svg version="1.1" xmlns="http://www.w3.org/2000/svg" xmlns:xlink="http://www.w3.org/1999/xlink" x="0px" y="0px"
	 viewBox="-282 85 657 441" enable-background="new -282 85 657 441" xml:space="preserve">
<g id="Capa_1">
	<g>
		<path fill="#6E3589" stroke="#6E3589" stroke-width="0.75" d="M103.1,404.2l0.6,0.2l0.3,1.1l-0.1,0.6l-0.1,0.5l1.4,0.7l0.4,0.7
			l0.3,0.3l-0.3,1.6l0.6,0.6l-0.5,0.3l0.3,0.8l-0.1,1.1l-0.4,1.1l-1.1-0.2l-0.7,0.8l-1.3-0.3l-0.2-0.6h0l-1.9-0.1l-1.1-0.8l-0.6-1.8
			l-0.1-0.2l0-0.2l-0.1-0.1h0l-0.3-0.8l-0.5-0.2l0.2-0.6l0.6-1.1l1.5-1.1l0.3-0.2l0.7-1.3l0,0l-0.1-0.6l0.2-0.4l1,0.3l-0.4-0.6
			l0.7-0.9l0.4-0.5l0.1,0l0.1,0.4l-0.4,0.8L103.1,404.2z"/>
		<path fill="none" stroke="#6E3589" stroke-width="0.75" d="M72.7,419l0.8,0.3l0.4,0.7l1.1,0.3l0.2,0.4l-0.5,1.4l-0.5,0.2l-0.3,1.1
			l0.3,0.5l0.9,0.4l-0.4,1l0.4,0.9l0.7-0.7l0.7,1l-0.5,1.6l0.5,0.1l1.1,1.2l0.3-0.3l0.5,0.1l0.2-1.1l0.7,0l0.9-0.5l0.6-0.8l1.5-0.7
			l0.3-0.6l0.2-0.9l1-0.3l1.3,1.1l0.4-0.8l1.1-0.6l0.6,0.1l1.5-0.6l0.3-1l0.7-1.1l1.4,0.5l-0.8-1.2l0.3-0.4l0.8,0.3l0.6,1.1l0.2-0.4
			l0.9,0.2L93,422l0.8,0.3l0.8-0.6l0.3,0.8l0.3,0.9l0,0l0.2,0.7l0.7,0.4l-0.1,0.6l0.9,0.9l0.5,1.2l0.6-0.5v0.6l1.2,0.1l1.3,0
			l1.4-0.2l0.3,0.8l1.3,1.3l-0.1,0.7l0.1,0.1l0.2,1.8l0.5-0.4l0.2,0.5l0.7,0l-0.2,1.3l0.9,0l1.5,0.5l0.5,0.8l0,0.8l-0.2,0.8l1.2-0.2
			l1.6,0.5l-1.6,0.7l2.7,1l0.9,0.6l1.3-0.9l1.2,0l0.1-0.4l0.8,0.1l1.1,0.2l0.2,0.9l-0.4,0.4l0.3,1.3v0.6l-1,1.1l-0.5,0.3l0.1,1.5
			l0.4,0.6l0.2,1l1,0.6l0.7-0.1l1,1.6l0,0.3l0.4,0.9l-0.4,0.1l-0.1,0.3l0.6,1.4l0.4,1.4l-0.4,0l-0.4,1.2l0.7,0.8l1-0.3l0.8,0.8
			l-0.3,0.6l-0.1,1.4l0.8,0.1l1.8,0.7l0.4,0.4l0.2,0.1l1.4,0.5l-0.4,0.5l-0.1,0.1l-0.6-0.2l-0.8,1.2l-0.3,0.2l0.6,1.6l0.2,0.3
			l-0.7,2.4l-0.6,0.1l-0.1,0.7l-2.1,0.4l0.5,1.9l0.4-0.1l-0.3,0.8l-1.8,0.6l-0.5-0.3l-1.6,0.5l0.8,1.5l0.2,0.7l-0.3,0.5l-0.7,0.9
			l-1.1-0.1l-1.8,0.8l-0.3,0.7L114,474l-2.8-2.7l-0.4-0.6l-1.1-1.3l-0.8,0l-0.9,0.6l-1.1-0.1l-3.6-1.3l-3.2-0.9l-4.7-1l-2.4-0.2
			l-0.9,0.1l-1.2-0.3l-1.8-0.9l-1.2-1l-1.1-0.5l0.3-0.8l-0.7-0.3l-0.7,0.3l-0.9-1l-0.9-0.4l-2.5-0.8l-2.3-0.9l-4.3-1.6l-3.8-1.3
			l-1.2-0.3l-2-0.8l-3.1-1l-2.5-1l-0.6,0l0.3-0.5l-0.6-0.8l-1.8-1.3l-0.8-0.9l-1.2-0.6l-3.8-1.5l0.1-0.6l-0.3-0.5l-1.3-1l-0.5,0.1
			l-1.1-0.4l-0.1-0.5l-0.8-0.2l-0.1-0.8l-0.7-1l-0.7-0.6l-0.7-0.4l-0.8-1.6l-0.9-0.7l-3-1.6l-1.5-0.4L40,438l-0.8,0.9l0-0.7
			l-0.7-0.4l-0.2-1.6l0.5-2.3l0.6-0.5l1.5-0.1l0.4-0.3l1.3,0l0.2-0.6l0.8,0l0.5-0.4l0.2-0.6l0.7-0.2l0-1.5l-0.6-1.2l0.6-0.8
			l-0.6-0.7l0.2-1.4l0.5-0.4l0.3-0.3l1.5-0.7l1.2-0.1l0.2,0.5l1.3-0.3l0.7,0.6l0.4,1.1l1.8,0.9l0.4-0.1l0.9,0l0.6-0.4l0.9,0.2
			l0.1-0.4l1.7-0.6l1.4,0.2l0.5,0.4l2.1,0.3l1.7-0.4l0.1,0.8l0.6,0.2l0.2,0.7l1,0.2l1-1l1,0.4l0.7-0.1l0.4,0.9l0.8,0.2l0.4,0.6
			l0.6-0.2l0.1,0.5l0.9,0.9l1.1-1.5l-1-1l-2.2-1.3l-0.4-0.9l0.3-1.6l-0.2-1l-0.5-0.2l0.2-1l-0.5-0.3l0.1-1.7l0.3-0.8l0.6-0.2l0.9,1
			l0,0.6l1.7-1.6l0.2-0.4l0.6,0.6L72.7,419z"/>
		<path fill="none" stroke="#6E3589" stroke-width="0.75" d="M87,387.3L87,387.3l0.4-0.3l1.1,1.3l1.4,1.2l0.5-0.1l0.8-0.2l0.6,0.8
			l2.5-0.7l0.2,0.3l-0.3,0.3l0.7,1l1,2l-0.1,0.6l-0.6,0.7l-0.2,1.1l1,0l0.1,0.6l0.1,0.1l0.3,0.5l0.9,0l-0.3,1.7l0.9-0.1l1.5-1.7
			l0.7-0.3l0.4-0.3l0.1-1.5l0.5-0.9l1-0.8l0.5,0l1,0.2l0.1,0.7l0.8-0.7l-0.1,1l0.4-0.2l0.2-1.6l0.3-0.3l0.6,0.6l0.3,0.3l0,1.2
			l-1.1,0.4l0.9,1.1l-0.8,0.6l-0.7,0.3l1,1.3l0.5,0.1l0.7-1.6l0.9-0.4l1.2,0.6l0.4,0.3l0.3-0.6l0.5,0.2l0.5,0.3l1.2,0.3l-0.6,0.5
			l0.4,0.4l0.4-0.5l0.4,0.5l0.9,1l-0.2,0.9l-0.5,0.1l0.3,1.4l-0.9,0l0,1.2l-0.1,0.2l-0.2,0l-0.6,1l1.2,2l0.4,0.8l-0.5,0l0.1,0.8
			l0.3,1l-0.4,0.6l0.7,1.4l0.1,0.1l-0.3,0.4l0.1,1.6l0,0.1l0.1,0.2l0.2,0.6l-0.3,1l0.3,0.2l-0.1,1l-0.1,0.1l-0.7,0.3l-1,1.3l-0.2,0
			l-1.4,0.2l-0.2-0.1l-0.5-0.3l-0.2,0.1l-0.1-0.1l-0.6-1l-0.1-0.6l-0.7-0.3l-0.2-0.6l-1.3-0.2l0.4-1.1l0.1-1.1l-0.3-0.8l0.5-0.3
			l-0.6-0.6l0.3-1.6l-0.3-0.3l-0.4-0.7l-1.4-0.7l0.1-0.5l0.1-0.6l-0.3-1.1l-0.6-0.2l-0.8-0.6l0.4-0.8l-0.1-0.4l-0.1,0l-0.4,0.5
			l-0.7,0.9l0.4,0.6l-1-0.3l-0.2,0.4l0.1,0.6l0,0l-0.7,1.3l-0.3,0.2l-1.5,1.1l-0.6,1.1l-0.2,0.6l0.5,0.2l0.3,0.8h0l0.1,0.1l0,0.2
			l0.1,0.2l0.6,1.8l-0.3,0.2l-0.4,0.5l0,1.6l0,1.7l-0.6,0.6l-0.5,0.5l-1.3,0.5l0.1,1.2l-0.8,1.4l0,0.1l-0.6,0.7l-0.8,0.6L93,422
			l-0.2-0.5l-0.9-0.2l-0.2,0.4l-0.6-1.1l-0.8-0.3l-0.3,0.4l0.8,1.2l-1.4-0.5l-0.7,1.1l-0.3,1l-1.5,0.6l-0.6-0.1l-1.1,0.6l-0.4,0.8
			l-1.3-1.1l-1,0.3l-0.2,0.9l-0.3,0.6l-1.5,0.7l-0.6,0.8l-0.9,0.5l-0.7,0l-0.2,1.1l-0.5-0.1l-0.3,0.3l-1.1-1.2l-0.5-0.1l0.5-1.6
			l-0.7-1l-0.7,0.7l-0.4-0.9l0.4-1l-0.9-0.4l-0.3-0.5l0.3-1.1l0.5-0.2l0.5-1.4l-0.2-0.4l-1.1-0.3l-0.4-0.7l-0.8-0.3l-1-0.3l-0.6-0.6
			l1.5-1.1l0.3-1.6l1-0.5l1.4-0.7l0.1-0.3l0.4-1.5l0.6-0.3l-0.2-0.9l0.7-0.8l0.4-0.8l0-1.2l0.2-0.2l-0.1-0.8l0.4-0.7l1.2-0.2
			l0.9-0.9l-0.1-1h0.5l-0.5-0.1l0.1-0.7l-0.6-0.6l-0.4-0.9l-0.4-1.4l0.1-0.8l1.4,0l0.8-0.6l0.1-0.8l0.2-1.8l0.9-0.3l-0.8-1.3l0-1.5
			l0.3-0.5l-0.8,0l0-1.1l0.3,0.2l1.3,0.3l0.7-0.2l0.9-0.9l0.4,0.4l1.1-0.1l-0.3-1.2l0.2-1.2l-0.7-0.6l-0.2-0.8l0.4-0.3l0.1,0.8
			l0.7,0l-0.1-0.3l-0.2-0.4l0.4-0.8L87,387.3z"/>
		<path fill="none" stroke="#6E3589" stroke-width="0.75" d="M103.7,414.5l0.7-0.8l1.1,0.2l1.3,0.2l0.2,0.6l0.7,0.3l0.1,0.6l0.6,1
			l0.1,0.1l0.2-0.1l0.5,0.3l0.2,0.1l1.4-0.2l0.2,0l1-1.3l0.7-0.3l-0.3,0.3l-0.6,1.7l0.1,1l-0.4,0.5v0v0l0,0.1l-0.1,0.2l-0.7,0.9
			l-0.4,1.1l-0.1,0.3l0.8,0.1l-0.5,0.8l0.3,0.8l0.2,1.4l0.1,0.4l0.1,1.9l0,1.2l-0.4,0.1l-0.6-0.4l-1.2-1.4l-0.6,0.3l-0.2,0.6
			l-1.4,0.5l-0.5,0.8l-1,0l-1.7,1.9l-0.1-0.1l0.1-0.7l-1.3-1.3l-0.3-0.8l-1.4,0.2l-1.3,0l-1.2-0.1v-0.6l-0.6,0.5l-0.5-1.2l-0.9-0.9
			l0.1-0.6l-0.7-0.4l-0.2-0.7l0,0l-0.3-0.9l-0.3-0.8l0.6-0.7l0-0.1l0.8-1.4l-0.1-1.2l1.3-0.5l0.5-0.5l0.6-0.6l0-1.7l0-1.6l0.4-0.5
			l0.3-0.2l1.1,0.8l1.9,0.1h0l0.2,0.6L103.7,414.5z"/>
		<path fill="none" stroke="#6E3589" stroke-width="0.75" d="M-93.4,232.5l1,0.3l1.5,0l0.4,0.4l0.6-0.8l0.5,0.6l0.7-0.7l1.2,0.2
			l0.3,0.7l-1.1,1l0.1,1.2l1.1,0.6l0.7-0.6l0,0.9l1-0.1l1.2,1.4l0,0.9l0.7,0.2l0,1.3l-0.2,0.5l-1.4,1l0.6,0.3l1.9,2.4l0.1,0.8
			l-0.9,1.1l-0.3,0.2l2.4,3.6l0.9,1.4l0,0.7l1.4,0.7l0.2,0.7l0.5,0.1l0.4-0.8l3.8,0.2l0.7,1.3l1.2-0.8l1-0.1l1.5,0.7l0.9,0.8l0,0.6
			l0.6,1.1l-0.4,1.8l1.1,0.8l-0.1,0.3l1.1,0.6l2.9,2.2l-0.1,0.9l1.1,0.6l0.4-0.5l0.5,0.4l0,0.7l-0.6,0.1l0.4,0.8l-3.3,1.8l-0.8-0.2
			l-0.2,1l0.6,0.2l-0.2,1.4l-1.1,0.7l0.8,2.1l-0.8-0.1l1.3,1.7l0.6,0.4l-0.6,0.4l0.5,0.9l-0.1,3.1l1.3,0.5l1,2.2l1.9,1.5l-0.4,0.2
			l0.3,0.9l0.9-0.1l0.5,0.2l3.2,3.5l0.5,1.5l1.1,2.1l1.3,0.7l-0.1,0.9l-0.7,0.5l0.3,0.8l1.4,2.1l0.2-0.1l0.8,0.3l2.2-0.6l0.7-1.3
			l1.2-0.3l2.4,0.8l1.6,1.6l0.1,1.1l0.5,0l0.9,1.7l0.3,1l-0.2,1.3l1.8,1.1l0.1,0.4l-0.8,0.8l1,0.1l0.9,1l-0.2,0.6l-1.8-0.8l-0.2,1.5
			l0.2,0.5l0.5,1.3l0.4,0.5l-0.4,1.3l0.4,2.1l0.3,0.9l0.2-0.9l1.5-0.5l0.4,0.7l0.6,0.6l0.2,1.2l0.8,0.6l-0.3,0.7l0.8,0.6l-0.6,1
			l0.3,0.1l0.7,1.9l0.9,0.2l0.3,1.7l-0.3,1.4l1,0.8l0.9,0.2l1.1-0.7l1.8,0.2l0.5,0.7l-0.4,0.2l0.1,1.1l-0.5,0l-0.4,1.1l-1,0.4
			l0.6,1.7l-0.5,1.6l-0.1,0l-0.4,0.8l0,1.1l0.5,1.7l0.7-0.2l0.5,1.6l-0.1,1.4l-0.5,0.4l-0.8-0.5l-0.6,0.3l-0.2-0.5h-1.2l0-0.5
			l-1.2-0.6l-0.5,0.3l-0.4,0.3l0.5,1v1l-0.5,0l-1.2-1.6l-1.2-2.4l-1.2-1.5l-1.4-1.4l-1.3-1l-0.8-0.4l-2.4-3l-2.3-2.4l-2.6-2.4
			l-0.9-0.1l0.1-0.8l-0.7-0.6l-0.8-1.5l0.3-0.4l-1-1.5l-1.9-1.9l-0.2-0.5l-1.2-1l-0.1-0.4l-2.6-2.1l0.3-0.7l-1.1-1.3l-0.3-0.8
			l-0.7-1.5l-2.4-2.4l-2.3-2l-1.6-1.5l-4.2-2.8l-1.7-1.5l-4-2.9l-2.7-1.6l-0.6-0.8l-0.4-0.8l-2-1.2l-1.3-1.1l-0.4-0.6L-84,286
			l-1-1.1l-1.1-1l-0.3-1l-2-3.6l-2-1.7L-91,276l-0.6-0.4L-93,274l-2.5-1.4l-1.7-0.7l-2.1-0.6l-1,0l-2.4-1.2l-2.4-0.5l-1.9-2.3
			l-0.9-0.4l-1.2-1.4l-1.6-0.5l-2,0.2l-0.4-2.8l-0.5-1.2l0.3-2l-0.6-1.3l0.8-2.6l2.1-3.4l0.5-1.8l0.6-0.9l1.2-0.6l0.3,0.3v0v0
			l0.5,0.6l0.8,0.2h0l0.6-0.3l0.6-1l1.3-1.1l1.2,0.2l0.9-0.6l0.6,0.2l0.1-1l0.8-0.6l-1.6-0.2l0.5-0.2l0.4-1.4l2-0.5l0.9-0.5l1.2,0.1
			l0-1.3l0.3-0.4l0.7-0.4l0-1l0.6-0.2l0.5-1.5l0.8-0.2l-0.4-0.5l0.8-1.3l1.1-2.1l0.9-0.1l-1.6-0.3L-93.4,232.5z"/>
		<path fill="none" stroke="#6E3589" stroke-width="0.75" d="M-234.6,200.8l1,2.5l-0.2,1.4l0.3,0.4l0.1,1.2l-0.6,0.8l0,1.7l-1.5-0.2
			l-0.1-0.7l-0.9-0.7l-1,0.4l0.1-0.9l0.8-0.5l1.5-2l-0.4-1.7l0.4-1.4L-234.6,200.8z M-186,193.6l0.8,0.2l2.1,1.9l-0.4,0.4l-0.8-1
			l-1.2-0.7L-186,193.6z M-199.2,183.6l0.5,0.1l-0.1,1.1L-199.2,183.6z M-199,172.6l1.9,1.4l0.8,0.8l0.9,1.9l-0.5,0.7l0.2,1.1
			l0.4,0.3l2,0.3l1.6-0.1l0.1,1.5l-0.1,2.4l0.6,1.5l1,0.3l-0.3,1.6l-1.5-1l-1.3-1.1l-1.1-1.7l-2.2-1.5l-0.9-1.7l-1-0.1l-1.6-2.8
			l-0.4-0.2l-0.1-1.1l0.6-1.4l-0.2-0.6L-199,172.6z M-299.8,181.7l-0.2,0.5l0.4,1.1l1.2,0.9l0.3,1.3l0,2.2l-0.4,0.8l-1,0.4l0.2-0.6
			l-0.3-1.4l-0.8-2.1l-0.9-0.6l0-2L-299.8,181.7z M-224.8,117.8l0.7,1.3l0.9,0.7l0.4,0.9l-1.4,0l-1.6-1.2l-0.2-2L-224.8,117.8z
			 M-265.6,98.8l17-1.6l24.3-2.1l-1.7,3.3l-0.2,2.3l-0.7,0.5l-0.8-0.5l-1.1,0.4l0.2,0.9l-0.8,1.2l0.1,1l-1.3,1.5l-0.6,1.1l1.6,1.7
			l-0.3,0.8l0.7,2.7l-0.2,1l0,1.9l1.1,1.3l1.5,0.2l0.7,1.1l-0.2,2.2l0.6,1.4l0,1.4l-0.9,0.9l-0.5,1.9l0,1.8l-0.4,0.9l-0.1,3.4
			l-0.2,2.5l0.5,1.5l1.2,1.1l-0.5,1l0.5,0.6l1.9,1l0.4,1.7l0.2,1.2l-0.2,2.5l0.1,2l1,1.9l0.4,1.4l0.1,2l-0.5,3.4l0.3,0.5l-0.6,1.4
			l1.8,3.1l0.4,1.4l0.6,1l0.9,0.4l0.4,0.8l1.3,0.6l0,0.8l0.6,1.9l1.1,0.8l0.8,0.1l0.5-0.7l1.3,0.7l1.1,1.3l1.8,1.3l0.5,0.9l1.1,0.5
			l1.1,1.3l2.3,2.1l1.2,0.6l1.7,2.1l1.2,1l0.3,0.7l-0.7,0.9l0.3,0.8l1.6,1.8l0.6,1.7l-0.5,0.3l0.3,1.4l-0.2,0.4l0.9,1.3l0.6-0.1
			l0.1-1.3l1.2-0.1l0.2,0.6l1,0.5l-0.1,1.5l0.5,0.9l0.5,0l1.4-1l0.5,0.1l0.8,1l0,1.1l0.8,2.1l0.6,0.6l0,0.9l0.5,2.1l1.8,1.2l0.7,0.1
			l1.7-0.5l0.7,1l0.5-0.2l-0.1,1.4l-0.4,1.1l-0.1,1.3l1.8,2l-0.5,1.4l0.5,1.6l-0.3,1l0.8,0.6h-9.1h-13.8h-7.3l1.4-1.9l1.2-2l0.5-1.1
			l-0.4-0.8l-0.9-0.2l1.3-3.3l0.3-1.5l-0.5-1.3l-1-1l-0.9-0.3l0-1.7l-0.4-0.4l-1.8-0.1l0-0.7l-0.9-0.9l-0.7-0.1l0.1-0.6l-0.7-1.4
			l-0.5-0.2l-0.2-1.1l-1.7-1.5l-0.9,0.2l-0.3-0.6l-1.2-0.8l-0.1-1.7l-0.6-0.9l-1.7-0.3l-0.6-1.7l-1.4-0.7l-1.1-1.5l-1.8-2.1
			l-2.7-1.4l-2.3-0.3l-0.9-1.7l-1.3-1l-1.7-0.4l-1.4-1.5l-1.3,0l-1.8-1.9l-0.6,0l-1.7-1.4l0.3-1.7l-0.4-1.8l-0.9-1.2l-1.4-0.1
			l0.6-3.4l-0.4-1.4l0.2-1l-0.2-2.1l-0.7-1.4l-1.6-1.4l-0.9-0.1l-1.2,0.9l-0.2-1.5l-0.7-1l0.4-4.3l-0.4-1.7l-0.1-1.5l-0.4-0.8
			l-0.8-0.2l-0.7-0.8l-0.7-0.2l-1.9-2.5l-1.1,0.2l-0.4-0.5l0.6-3.2l0-1l-1.8-3.3l-1.3-1.1l-0.7-1l-0.3-1l-1.5-1.3l-0.7,0l-0.1-0.8
			l-0.8-0.4l-0.9-1.4l0.8-0.4l-0.4-0.8l0.4-1.1l-1.7-2.1l1.5,0.8l0.4-0.4l0.7-2l-0.4-1.1l-0.9,0l-0.6-0.8l-1-0.2l-0.4-1.6l-1.8-0.5
			l-0.6-0.8l-0.1-1.7l-0.1-0.8l-0.8-2.6l-0.4-0.5l-1.7-0.6l-1.5-3.6l-0.6-1.8l0-1.2L-265.6,98.8z"/>
		<path fill="none" stroke="#6E3589" stroke-width="0.75" d="M-178.9,192.3l0,1.4l-1,0l-0.2-1.3L-178.9,192.3z M-173.4,180.5
			l0.6,0.8l-0.3,1.3l1.1,1.6l0.4,1.3l-0.8,3.4l-0.7,1.1l-0.1,1.3l-0.7,0.5l-1.1-0.3l-0.9-0.8l-1.2-0.1l-0.2-0.4l-2.4-1.4l1.5-1
			l0.5-0.7l-0.3-1.6l0.6-3.7l0.6-0.8l0.8,0.3l1.1-0.8L-173.4,180.5z M-223.4,119l1.5,0.1l-0.3,0.6L-223.4,119z M-226.2,100.7
			l25.9,9.4l2.9,1.1l4.7,1.8l18.1,6.5l4.7,1.7l9.7,3.6l9.3,3.5l2.9,1.1l7.8,0l7.6,0l12.4,0l16.2,0l4.5,0l-1.3,2.3l-1.3,0l-0.4,0.9
			l0.8-0.4l0.3,0.6l0.9,0.1l-0.9,1.4l1.6,0.8l0.1,0.7l0.7,0.5l-0.4,0.5l1.4,0l0,0.7l-2.5,0l0,2.5l-2.9-0.1l0.2,1l-0.1,2.3l-0.3,0.9
			l0.6-0.1l1.1,1.2l-0.1,1.6l0.9,0.5l2.2,0.5l1,0.6l0.3,0.9l-0.1,1.3l1.3,0.1l-0.2,0.7l-0.7,0.5l0.6,1l0,0.8l0.9,0.1l0.8,1.3
			l-0.2,0.4l-1.5-0.8l0.1,1.5l0.1,4.7l-0.1,1.8l-0.3,0.3l0.3,1.7l0.2,0.9l-0.6,0.4l0.1,0.6l1.9,0.2l0,1.4l-1.1,0.4l-1.4,0l0.9,1.3
			l-0.8,0.3l0.3,2.2l-0.5,0.3l0.4,1.3l-1.5,0.6l1,3.8l-0.3,1l-1,0l-0.3,2.6l0.3-0.2l0.6,1.1l-0.7,0.7l0.7,3.8l-0.2,1.2l0.4,0.2
			l0.9,2.7l1.2,0.6v0.6l0.1,2l0.6,1.3l0.4,0.5l0.2,1.2l0.4,0.3l-0.2,1.6l0.7,1.3l-0.9,0.1l0,0.7l-0.7,0.4l-1.1-0.7l-0.7,0.3l-0.1,1
			l-1-0.3l-1.3,0.8l-4.4,0.2l-0.5-0.4l-0.2,0.5l-0.5-0.5l-1.1,0.1l0.2,2.1l0,1.3l0.8,2.6l1.1,0.9l1.1,0.9l0.1,1.7l1,0.7l-0.9,0.7
			l-0.1,0.8l0.4,0.7l1.3,0l1.4,0.9l0.5,2.5l0.6,0.8l1.2,0.5l-0.1,1.9l0.6,0.9l0.1,1.1l0.8,1.5l-1.5,1.9l0.4,1.4l0.7,0.6l0.3,1.8
			l-0.1,0.9l0.8-0.2l-0.2,0.8l1.5,0.6l1.6,0.3l-0.9,0.1l-1.1,2.1l-0.8,1.3l0.4,0.5l-0.8,0.2l-0.5,1.5l-0.6,0.2l0,1l-0.7,0.4
			l-0.3,0.4l0,1.3l-1.2-0.1l-0.9,0.5l-2,0.5l-0.4,1.4l-0.5,0.2l1.6,0.2l-0.8,0.6l-0.1,1l-0.6-0.2l-0.9,0.6l-1.2-0.2l-1.3,1.1l-0.6,1
			l-0.6,0.3h0l-0.8-0.2l-0.5-0.6v0v0l-0.3-0.3l-1.2,0.6l0.1-2.9l-0.2-1.1l-1-1.8l-0.9-0.7l-1.2-1.5l-1.7-0.2l-1.4-0.5l-1.5-0.1
			l-1.1,0.5l-1.8-0.8l-1.3-1.3l-0.4-0.8l-0.6-2.5l-1.2-2l0.1-0.5l0-0.2l-0.9-1.1l-2.2-0.9l-2.7-0.7l-1.5-0.3l-0.9-0.6l-1.5-1.7
			l-1.4-1l-1.3,0l-1.4-0.7l0.3-4.7l-0.8-2.2l0.5-2.2l-0.3-1.9l0.6-1.2l1.4-0.3l-1.5-1l-0.8,0.1l-3.8-1l-0.3-0.7l-1.3,0.8l-0.3,0.7
			l1.1-0.2l-0.6,1.5l-1.6-1.5l-0.4-1.2l-0.9-0.2l-0.9,0.6l-1.6-1.1l-0.7-0.2l-0.8-1.1l-1.4-0.9l-0.2-0.8l-0.9-1.1l-0.1-0.8l-0.8-0.5
			l-0.2-1l-1.5-1.4l-0.1-1.2l-0.6-0.5l-1.9-0.7l-1.3-0.7l-1.4-0.4l-1.1-3.2l-0.8-0.9l-1.4-1l-1.2-1.1l-0.5-0.9l1-0.7l-1.8-1.5
			l-0.9-0.2l-0.3-1l-1.4-1.5l-1.3-0.2l0.5-0.4l-0.4-0.9l0.1-2.2l-0.8-1.5l-0.6,0l0.4-1.5l-0.7-1.8l-0.9-0.4l-1.1,0.3l-1.3-0.4
			l-0.4-0.9l0.8-1.8l0.1-0.8l-1.1-0.9l-0.2-1l-1.5-1.4l-0.4-1.1l-1.1-1.1l-0.6-1.7l-0.9-1.3l-0.3-1.4l-1.7-0.6l0.3-2.1l-0.6-1.4
			l0.1-2.8l-0.5-1.2l-1-1l-0.8-0.1l0.3-0.9l-0.1-1.9l-0.3-0.9l-1.6-2l-0.9-0.8l-1.9-3.1l-1.1-3.6l0.6-2l0.1-1.5l-0.1-0.8l-0.6-1.8
			l0.8,1.6l0.6-0.9l0.1-1l-0.9-2.9l-1.8-0.8l-0.4-0.4h-1l-2.1-0.6l-4-0.8l-0.3-0.5l-1.3-0.2l0.3-1l-0.6-1.6l-0.1-1.1l-1-1l-2.4-1.1
			l-1-0.8l-1.8-0.2l-0.8-0.6l0.1,1.3l0.4,0.4l-1,0.9l-0.4,0.8l-2.6-0.1l-1.2-0.5l-2-1.2l-0.8-1l-3.2-1.9l-1.3-1.5l-1.4-0.7l-1.2,0.1
			l-0.9-0.4l-0.7-1l-1,0l-0.7-1.1l-1.5-0.2l-1.1-1.3l0-1.9l0.2-1l-0.7-2.7l0.3-0.8l-1.6-1.7l0.6-1.1l1.3-1.5l-0.1-1l0.8-1.2
			l-0.2-0.9l1.1-0.4l0.8,0.5L-226.2,100.7z"/>
		<path fill="none" stroke="#6E3589" stroke-width="0.75" d="M-121.2,299.5l0,0.3l-1.5-0.4l-1-2.5l0.1-0.7l-0.4-0.8l0.2-1.2
			L-121.2,299.5z M-132.8,290.7l1.4,1.3l-0.4,1.1l-0.9,0.5l0-0.7l-0.7-0.4l-0.4-1.4L-132.8,290.7z M-133.6,289.4l0.6,0.8l-1-0.4
			L-133.6,289.4z M-140.2,277.5l0.8,1.2l1.4,0.3l0.6,0.5l0.1,1.4l0.9,1.8l-1.2,0.3l0.2-0.5l-1.7-1.3l-0.6-1.7l-0.7-0.2L-140.2,277.5
			z M-139.8,272.9l-0.4,0.9l-0.5-0.3L-139.8,272.9z M-141.6,263.4l0.3,2.8l-0.9-1.1l0.1-1L-141.6,263.4z M-147.1,263.4l0.4,1
			l-0.7,0.1l-0.3-1L-147.1,263.4z M-147.6,255.1l-0.4,0.9l0.3,1.6l-0.8-0.8l-1.5,2.2l-0.1,0.9l-0.4,0.4l0,0.9l-0.6-0.3l0.4-2.5
			l0.9-1.4l-0.2-1.2l1-0.6l0.5,0.3L-147.6,255.1z M-169,227.4l0.8,1l-0.3,0.7l-0.5-0.2l-0.5-1.2L-169,227.4z M-166.2,223.1l0.3,0.6
			l-0.7-0.1L-166.2,223.1z M-234.2,212.4l0.7,0.5l-0.3,0.4L-234.2,212.4z M-158.1,243.7l2.3,0.9l-0.5,1.4l0.1,1l1.5,1.7l0.3,1.4
			l-0.3,0.7l1.1,3.2l0.5,0.8l-0.6,1.2l0.2,0.5l-0.4,0.8l0.4,1.4l0.1,1.7l0.3,0l0.3,1.5l1.6,1l0.7,2.6l1.6,2.1l2.1,0.2l-0.2,1.5
			l0.5,0.8l0.5,1.7l1,1.2l-0.2,0.9l0.5,1.1l0.3,1.3l0.8,1l1.2,1.6l1.1,0.4l0.2,1.1l1.3,1.9l0.6,1.8l-0.8,2.4l-0.7,0.7l-0.3,1.2
			l0.2,2.4l0.9,1.2l-0.1,1.3l0.3,1.3l0.8,0.8l0.7,1.5l1.2,1l3.2,0.8l2-0.2l-0.1-1.2l-0.6-0.5l-0.1-1.3l0.9-0.9l1.3,0.2l-0.1,0.6
			l0.9,0.6l0.4,0.9l2,1l1.5,1.1l0.4,2.5l1.2,0.5l2.1-0.8l0.5,0.9l-0.7,1.1l0.4,1.5l1,0.7l1.6,1.8l-0.3,1.5l0.3,1.4l0.2,0.4l3.5,1.6
			l1,0.6l-0.2,0.6l0.4,0.9l0.8,0.8l-0.1,0.7l0.4,0.7l-0.4,0.3l0.1,1.6l-0.6,2.4l-1.6,2l-0.9,0.6l-1.9,0.5l-0.9,0.7l-0.4,0.9
			l-1.2,0.5l-0.4,0.8l-0.9,0.8l-1,0.2l0.2,0.3l-1.4,0.1l-1.1-0.8l-0.7-0.8l-1-1.7l-0.4-2.2l-0.7-2.6l-0.1-1.3l-2.2-4.3l-0.9-1.4
			l-1.4-1.3l-3.7-1.8l-1-0.7l-1.7-1.6l-2.9-3.4l-4.1-4l-2.2-1.5l-2.6-1.6l-3.3-1.8l-2.7-1.1l-1.1-0.2l-2.3,0.4l-0.4,0.9l-0.8-1l-4-3
			l-3.4-1.7l0-0.6l-1.5-1.6l0.8-0.7l-0.1-1l-0.9-1l-1.1-0.4l-0.8,0.4l-0.6-0.5l0.5-0.9l1.7-4.7l0.9-3.5l0.4-2.6l0.5-1.5l0.4-2.9
			l-0.1-6.1l-0.6-1.5l-1.3-4l-0.8-1.1l-1.6-0.9l0-0.6l-0.7-1.8l-1.3-1.5l-1.4-0.3l-0.5,0.6l-3.3-2.2l-0.5,0.2l-0.7-1l-1.6-1.1
			l-1.7-1.5l-2.3-1.5l-1.8-1.7l-1.2-0.7l-0.3-0.5l-1.3-0.7l-1.3-0.2l-0.4-1.2l-1.9-1.1l-1.9-0.2l-1,0.4l-0.8,1.6l-0.6,0.4l-1.3-0.6
			l-0.9-1.1l-1.1-0.5l-0.9-2.5l-1.1-1.1l-0.9-0.6l-1.5-0.4l-1.2,0.6l-1-1.2l-0.2-0.7l-1.4-1.5l-1.2-0.6l-1.8-0.2l-0.4,0.5l-2-1.3
			l-1,0.1l0.1-0.7l-1.2-0.5l0-2.5l-0.4-1.7l-1.4-1l-0.5-0.6l-1.5-0.7l-1.5-0.5l-0.8-1.7l-0.7-0.7l-1,0l-0.2-0.5l-1.2-0.6l-0.2-0.7
			l-0.9-0.5l-0.3,0.3l-0.7-1l-0.5-1.5l-0.5-0.6l0.6-0.3l0.9,0.7l1.9-0.1l1.5,0.2l0.3,0.4l2.1,0l0.9,0.5l1.8,0.3l1.5-0.3l0.7,0.3
			l1.2-0.6l2.4-1.8l0.7,0.2l0.6-0.6l0-1.3l1.3-1.4h7.3h13.8h9.1l0.2,0.8l-0.3,2.4l1.1,0.9l0.3,1.7l0.9,1.1l0.4,0l1,1.4l1.4,0.3
			l2.2,1.1l1.3,0.9l0.8,1.4l0.4,2.5l1.3,1.5l0.9,1.7l-0.3,1l1.2,1.1l1.5,0.7l1.7,0.3l1.2,0.5l-1.1,1.5l-0.1,1.7l0.7,0.6l0.5,1.1
			l1,0.9l1.7-1l1.6,1.2l0.5,0.9l1.2,0.9l0.4,0.6l1.8,1.2l-0.2,2.9L-158.1,243.7z"/>
		<path fill="none" stroke="#6E3589" stroke-width="0.75" d="M50.5,285.6L50.5,285.6l2.9,0.4l0.3-0.2l1-1l1.3-0.6l2.9,1.1l0.8,1.9
			l0.8,1.3l1,0.7l2.5,1.1l1.2-1l1.1,0.7l1,0l1.2,2.2l-2.3,2.7l-2,1.4l-1.3-1.2l-0.1-1.1l0.5-1.1l-0.5,1l-1.1,4.2l-2.3,1l-0.9,0.1
			l0.2,1.7l0.3,3.9l-3.1,2.8l-2.6,2.4l-6.5,5.6l-5,1.7l-2.3,0.4l-1-0.2v-0.9l-0.5-0.1l0-1.1l-0.9,0l-0.3,1.9l-0.9,1l0.9,0.9
			l-0.7,0.2l-0.1,0.9l1,0.5l0,0.9l0.6,0.9l-1,1.9l0.5,0.5l0.8,3.2l0.1,0.4l1.4,1.9l3.7,3l0,0l1.9-0.1l-0.4,2.1l1.1,0.3l-0.4,1.2
			l0.8,0.7l0,0l0.6-0.4l0.8,0.2l-0.2-0.6l1-0.3l0.8,0.1l1.7-2.2l0.1-1l1.5-1l0.1-0.9l1.7-0.1l1.3,0.8l-0.3,0.5l-0.3,0.4l0.9,0.4
			l0.9,1.7l0.2,1.7l-0.6,1.2l-1.3-0.1l-0.2,2.2l-1.1-0.1l0.3,1.1l0.6,0.3l-0.5,0.7l1,0.3l0.9,1l-0.6,0.7l0.2,0.6l0.2,0.4l-0.4,1.1
			l-0.1,1l0.6,1.1l-1,0.2l-1.2,1.3l0.4,0.5l-1.5,0.9l-0.3,1.3l-0.3,0.3l-0.6-0.3l-0.5-1l-0.2-1.4l-1.7,0.2l-0.2-0.8l-1.1-0.7
			l-0.8-0.9l-0.6,0.2l-0.5-0.5l-1.3,0l-0.1-0.3l-2.2-1.6l-1.2-0.4l0.5-0.9l0-1.2l-0.5-0.5l-0.3-1.3l-0.8-0.2l-1,0.4l-0.6-0.1
			l-0.2-1.3l-0.6-0.3l-1.3-0.3l-0.8-1l-0.2-0.9l-0.3,0.1l-0.2,1.5l-0.8,0.1l-0.4,0.5l-1.9,0.2l-0.1,0.4l0.2,0.3l-1.3,0.7l-1.8,0
			l-1.2,0l0,1l0.6,0.4l-1.1,2.8l-1.1,0.5l-1.3,1.9l-0.8,1.6l-0.5,1.5l0.4,0.6l-0.1,0.8l2.3,1.8l-0.1,0.1l-0.3,0.5l-0.9,0.5l0,0.1
			l0.8,1.6l1,0.6l0.4,0.6l1.4,0.2l0.1,0.7l-0.6,1.2l-0.1,0.9l0.3,0.9l-0.8,0.6l-1-1.1l0,0.7l-0.9,0.9l-0.4-0.3l-0.5,0.8l-0.4-0.2
			l-0.6,1.1l-0.7,0.3l-0.2,0.7l-0.8-0.2l-1-1l-0.6,0.4l-0.5-0.5l-0.7,1.6l0.3,0.9l-0.6,0.5l0.8,0.7l0,0l-0.4,0.6l-1.1,0.4l-1.8-0.9
			l-1,0.2l-0.4,0.7l-0.4-0.3l-1,0.4l-0.5-0.2l-1-1.4l0-0.5l-1.1-0.1l-0.7,0.4l-0.1-0.4l-0.9,0.7L8.7,368l-0.4-0.6l-0.2-0.8l-0.2-0.1
			l-0.1-2l-0.5-0.1l-1.1,0.5l-0.1-0.9l1.2-0.7l3.2-0.4l-0.1-0.9L9.9,361l-0.7,0.1l-0.3,1.1l-0.8-0.6L7.3,361l0-0.5l-0.9-0.1l0.6-0.9
			l-0.5-0.5l0.2-0.6l0.8-0.4l1.1,0.4l0-0.7l0.8,0.3l0.1-1.6l0.5-0.6l0.4-1.4l-0.4-0.8l-0.9-0.7l1,0l0.5-0.6l0.7,0.4l0-0.6l1.1-1.3
			l0.6-0.1l0.9-0.3l0.1-0.6l1.2-1.1l0.3,0.4l1.5,0.1l-0.2-0.6l0.6,0l1.3-0.4l0.1-0.7l0-0.4l-1-0.2l0.6-0.7l1-0.5L19,345l-0.1-0.9
			l1.1-0.7l-0.1-0.4l-0.5-0.5l-0.4-0.8l-1.9-0.1l-0.7,0.3l0.3-1l0.9-0.6v-0.7l-0.6,0.1l-0.4-0.7l-0.3,0.4l-1.1-0.5l-0.4,0.5
			l-1.2,0.5l0.5,0.8l-0.2,1.3l0.6-0.6l0.6,0.2l0,1.1l-0.8,0.1l-1.5,0.7l-0.4,1.7l-0.5,0.6l-1.4,0.1l-0.5-0.3L9,345.6l-0.5,0.6
			L6.9,346l-0.1-0.4l0.6-0.9l0.6-1.6l0.7-0.9l-0.8-0.4l0.1-1.1l0.6,0.1l0.3-1.6l0.5-0.7l-0.3-2l-0.5-0.8l-1.1,0.3L6,335.5l-0.9,0.4
			l-0.4,1.8l-0.5,1.1l0,1.1l-0.7,0.8l0.4,1.2l-0.7,2.7l-0.8-1.6L1.8,341l1.2-1.9l-0.4-1.3l0.5-0.6l-0.3-0.4l0.4-1.2l1.7-0.8l0.4-2.5
			l-0.5-0.2l-1.5,0l-1.2-0.5l-2.4,0.2l-1,1.1l1.2,0.6l-0.2,0.4l0.2,1.3l0.9,1.2l-0.7,0.2l1.5,1.1l-0.6,1.3l-0.9,0.5l-0.4,1l-0.5-0.3
			l-1,0.5l0.9-2.5l-0.6-1.5l-0.9,0.4l0.2,0.4l-1.1-0.4l-0.6,0.2l-0.1,1.1l0.6,0.4l0.2,1.1l-0.9-0.7l-1,0.7l0,1l-0.8,0.1l0-0.5
			l-1.2-0.5l0-0.5l1.1-1.4l-0.5-1.4l1.3-1.4l-0.6-1.2l0.5-1.6l0.9-1.4l0.7,0.4l2.2-0.2l-0.7-0.9l0.1-1.6l-0.9-0.9l-0.3-0.8l0.1-0.4
			l-0.2-0.2l0-3.3l0.9-1.2l0.3-3.1l0.1-0.9l0.9-2.5l1.4-1.2l2.2-1.5l0.2-0.7l0.6-0.6l0.8,0.6l0.6-1.4l-1.4-0.1l0.2-0.5l-0.5-1.2
			l1-1.3l-0.7-1.2l0.6-2.4l-0.4,0l-0.7-1l1.3-0.8l1.4-1.1l1.8-1.4l0.5,0.9l1.6-2L9.4,297l-0.1-0.7l1.3,0l0.9-0.7l0.6-0.9l0.3-1.7
			l0.7,0.2l2.2-0.1l0.6-0.4l0.6,0.7l0.4-0.1l0.3-0.1l0.5-0.3l1.4,0.8l1.2-1.5l1.3,0.8l0.3-0.6l1.4,0.7l0.2-0.7l1.2,1.7l0.9-0.5
			l0.8,0.7l1.9-0.1l1.1-0.4l0.1-0.2l1.5,0.1l1.1-0.5l0-1.4l-0.3-2.8l-0.4-2.2l-1.1-4.4l-2.2-0.9v-0.8l0.6,0l0.3-0.7l-0.9-1.3
			l4.7,1.5l-0.2-1.1l-0.2-1.6l3.5-0.2l1.2,0.2l3.3,1.1l4.9,1.2l0.4,1.1l1.2,2.2l1.8,0.8l0.6-0.5l1.2,0.6l-0.2,1.1l-0.7-0.3l0.4,1
			L50.5,285.6z"/>
		<path fill="none" stroke="#6E3589" stroke-width="0.75" d="M-40.2,238.8l0.8,0.6l0.6-0.1l1.9,2l-0.4-0.9l1-0.4l1.5,2.3l1.5,0.1
			l-0.4-1.6l1.5,3.2l1.1,0.1l0,0.4l0.5,0.4l0.3-0.5l1.4,0.1l0.9,0.3l-0.2,0.6l0.8,0.5l0.6-0.6l0.5,0.6l3.4-1.4l0.9,2.4l1.2-0.8
			l0.7,0.2l1.4-1.5l0.8,0.1l1-0.1l1.3,0.4l2.7,2.9l0.6-0.3l0.4,0.9l1.5-1.7l0.1-1.2l1.3-3.2l2.2-1.2l0.9-1.6l-0.7-0.8l0-0.9l0.9-1
			l0.9,1.5l0.9,0.1l2.9,0.7l0.3-0.7l0.8-0.1l0,0.6l1.3,0h1.5l3.4,0.7l0.9,0.1l0.5,0.6l4.6,1.8l0.9,0.3l1.2,5.6l1.2,1.8l-1.9,3.3
			l0.1,6.2l0.5,1.2l-0.3,2.3l-0.3,0.8l-0.6,1.2l-0.9,0.4l-0.6,1.5l-0.8,0.5l0.4,0.5l2.2,2.4l0.6,0.1l0.1,0.9l-1.5-0.6l-1.2,0.5
			l-0.7,1.5l-0.2,0.8l1.5,1.8l0.7,0.5l0.8,1.6l2,1.2l-0.3,0.9L16,280l-0.3,0.7l3.4,3.2l2.3,0.7l1.4,0.4l0.8,0.7l0.6,0.2l0.1-0.7
			l3.8-6.8l0.9,1.3l-0.3,0.7l-0.6,0v0.8l2.2,0.9l1.1,4.4l0.4,2.2l0.3,2.8l0,1.4l-1.1,0.5l-1.5-0.1l-0.1,0.2l-1.1,0.4l-1.9,0.1
			l-0.8-0.7l-0.9,0.5l-1.2-1.7l-0.2,0.7l-1.4-0.7l-0.3,0.6l-1.3-0.8l-1.2,1.5l-1.4-0.8l-0.5,0.3l-0.3,0.1l-0.4,0.1l-0.6-0.7
			l-0.6,0.4l-2.2,0.1l-0.7-0.2l-0.3,1.7l-0.6,0.9l-0.9,0.7l-1.3,0l0.1,0.7l0.1,1.3l-1.6,2l-0.5-0.9l-1.8,1.4L4.2,302l-1.3,0.8l0.7,1
			l0.4,0l-0.6,2.4l0.7,1.2l-1,1.3l0.5,1.2l-0.2,0.5l1.4,0.1l-0.6,1.4l-0.8-0.6l-0.6,0.6l-0.2,0.7l-2.2,1.5l-1.4,1.2l-0.9,2.5
			l-0.1,0.9l-0.3,3.1l-0.9,1.2l0,3.3l0.2,0.2l-0.1,0.4l0.3,0.8l0.9,0.9l-0.1,1.6l0.7,0.9l-2.2,0.2l-0.7-0.4l-0.9,1.4l-0.5,1.6
			l0.6,1.2l-1.3,1.4l0.5,1.4l-1.1,1.4l-0.5-0.3l-2.6,1l-0.3,0.7l-0.9-1l-0.9-0.5l-0.2-1.1l-1.1,0l0-1.8l-0.3-0.6l-0.9,0.2l-1-0.3
			l-0.4-1.7l-1.7-0.1l-0.1,0.9l-2.1,2.3l-0.6,0.1l-0.4-2l-1.4-1.6l0.3-0.7l3.5-1.1l-0.5-0.2l0.2-1.2l-0.6-0.6l-0.6,0.3l-0.6-0.7l0-1
			l-0.4-0.7l0.1-1.3l-1.5,0.4l-1.8,0.1l-2.8,0l-0.5,0.3l-0.6-1.8l-0.1-1.2l-0.7-0.2l-0.5-0.7l-1.8-0.2l-1.1,0.7l-0.9-0.2l-1-0.8
			l0.3-1.4l-0.3-1.7l-0.9-0.2l-0.7-1.9l-0.3-0.1l0.6-1l-0.8-0.6l0.3-0.7l-0.8-0.6l-0.2-1.2l-0.6-0.6l-0.4-0.7l-1.5,0.5l-0.2,0.9
			l-0.3-0.9l-0.4-2.1l0.4-1.3l-0.4-0.5l-0.5-1.3l-0.2-0.5l0.2-1.5l1.8,0.8l0.2-0.6l-0.9-1l-1-0.1l0.8-0.8l-0.1-0.4l-1.8-1.1l0.2-1.3
			l-0.3-1l-0.9-1.7l-0.5,0l-0.1-1.1l-1.6-1.6l-2.4-0.8l-1.2,0.3l-0.7,1.3l-2.2,0.6l-0.8-0.3l-0.2,0.1l-1.4-2.1l-0.3-0.8l0.7-0.5
			l0.1-0.9l-1.3-0.7l-1.1-2.1l-0.5-1.5l-3.2-3.5l-0.5-0.2l-0.9,0.1l-0.3-0.9l0.4-0.2l-1.9-1.5l-1-2.2l-1.3-0.5l0.1-3.1l-0.5-0.9
			l0.6-0.4l-0.6-0.4l-1.3-1.7l0.8,0.1l-0.8-2.1l1.1-0.7l0.2-1.4l-0.6-0.2l0.2-1l0.8,0.2l3.3-1.8l-0.4-0.8l2,0.4l0.5,1.7l2.7-0.3
			l1.3,0.1l0.6,0.5l1-1.8l1.4-1l1.5-1.5l-1.9,1.2l-0.1-5.1l0.3-0.9l1.9-0.5l0.2-0.8l-0.6-1.3l0.3-1.2l0.9-0.6l-0.4-1.5l0.2-0.2
			l2.3-3.1l0.5,0.3l0.2-0.8l-0.6,0.1l0.1-0.8l0.7-0.2l0.5-1.4l-0.6-1.4l0.6-0.4l0.5-2.6l0.6-0.9l1.2-0.5l-0.9-0.3l0-1l1.1-0.2
			l0.5,0.5l0.5-0.9l0.7-1.1l2.3,1.9L-40.2,238.8z"/>
		<path fill="none" stroke="#6E3589" stroke-width="0.75" d="M-59.8,118.3h7.1l0.9,0.9l0.8-0.4l1.5,0.8l1.6,2.7l0.5,1.5l0.6,0.4
			l0.6,1.6l0.8,0.6l2.3,1.5l1.1,0.1l1.4,0.7l0.5,1.3l1.3,0.6l1.3,1.7l0.7,1.3l0.7,0.1l0.7,0.7l1.3,0.5l0.9,0.8l1,2.3l2.9,2.2l0.4,1
			l1.6,1.1l0.6-0.3l0.7,0.7l0.9-0.3l1.2,1.3l0.9,0.1l1.3,1.6l1-0.1l0.8,1.9l0.9,0.1l0.6,0.8l0.7,1.8l0,0.5l0.4,1.4l-0.2,0.6l1,0.6
			l-0.2,0.4l1.3,1.9l0.6,0.3l0.9,1.9l-0.2,1.1l0.2,1.5l-0.4,0.6l0.7,2.3l-0.2,0.7l1,1.4l0.3,1l0.6,0.5l0.9,1.7l0.1,1.4l1.6,1.7
			l1.4,0.9l0.3,0.7l1,0.6l1.6,0.2l1.1,0.8l-0.2,0.6l1.2,1.6l1.1,0.4l1.5,1.3l1.4,0.6l3.9,0.8l0,0.9l0.8,0.1l0.5,1l3.5,0.6l2.5,2.7
			l1.6,0.6l0.3-0.7l0.8,1l-1.1,2l-1,1.2l-0.1,0.7l-2.2,4.2l-0.9,1.3l-0.8-0.7l-0.9,2l-0.1,0.2l0,0.8l-1.8,3.8l-0.8,1.3L3,207
			l-1.2,3.3l1,0.3l-0.3,1l-1-0.3l-0.4,2.2l1.2,0.2l-0.7,0.7l1.1,1.4l-0.3,2l0.3,1.3l0.5,0.7l0.1,0.5L2.8,226l0.9,0.3l0.3,1.3
			l0.4,0.7l0,2.1l0.3,0.8l0.6,0.2l0.2,1.4l-0.7,0.3l-0.1,0.7l-1.4,1.1l0,0.9l1.5,1.4l0.5,0.2l1.1,2.4l-3.4-0.7H1.6l-1.3,0l0-0.6
			l-0.8,0.1l-0.3,0.7l-2.9-0.7l-0.9-0.1l-0.9-1.5l-0.9,1l0,0.9l0.7,0.8l-0.9,1.6l-2.2,1.2l-1.3,3.2l-0.1,1.2l-1.5,1.7l-0.4-0.9
			l-0.6,0.3l-2.7-2.9l-1.3-0.4l-1,0.1l-0.8-0.1l-1.4,1.5l-0.7-0.2l-1.2,0.8l-0.9-2.4l-3.4,1.4l-0.5-0.6l-0.6,0.6l-0.8-0.5l0.2-0.6
			l-0.9-0.3l-1.4-0.1l-0.3,0.5l-0.5-0.4l0-0.4l-1.1-0.1l-1.5-3.2l0.4,1.6l-1.5-0.1l-1.5-2.3l-1,0.4l0.4,0.9l-1.9-2l-0.6,0.1
			l-0.8-0.6l-0.2,0.1l-2.3-1.9l-0.7,1.1l-0.5,0.9l-0.5-0.5l-1.1,0.2l0,1l0.9,0.3l-1.2,0.5l-0.6,0.9l-0.5,2.6l-0.6,0.4l0.6,1.4
			l-0.5,1.4l-0.7,0.2l-0.1,0.8l0.6-0.1l-0.2,0.8l-0.5-0.3l-2.3,3.1l-0.2,0.2l0.4,1.5l-0.9,0.6l-0.3,1.2l0.6,1.3l-0.2,0.8l-1.9,0.5
			l-0.3,0.9l0.1,5.1l1.9-1.2l-1.5,1.5l-1.4,1l-1,1.8l-0.6-0.5l-1.3-0.1l-2.7,0.3l-0.5-1.7l-2-0.4l0.6-0.1l0-0.7l-0.5-0.4l-0.4,0.5
			l-1.1-0.6l0.1-0.9l-2.9-2.2l-1.1-0.6l0.1-0.3l-1.1-0.8l0.4-1.8l-0.6-1.1l0-0.6l-0.9-0.8l-1.5-0.7l-1,0.1l-1.2,0.8l-0.7-1.3
			l-3.8-0.2l-0.4,0.8l-0.5-0.1l-0.2-0.7l-1.4-0.7l0-0.7l-0.9-1.4l-2.4-3.6l0.3-0.2l0.9-1.1l-0.1-0.8l-1.9-2.4l-0.6-0.3l1.4-1
			l0.2-0.5l0-1.3l-0.7-0.2l0-0.9l-1.2-1.4l-1,0.1l0-0.9l-0.7,0.6l-1.1-0.6l-0.1-1.2l1.1-1l-0.3-0.7l-1.2-0.2l-0.7,0.7l-0.5-0.6
			l-0.6,0.8l-0.4-0.4l-1.5,0l-1-0.3l-0.7,1.1l-1.5-0.6l0.2-0.8l-0.8,0.2l0.1-0.9l-0.3-1.8l-0.7-0.6l-0.4-1.4l1.5-1.9l-0.8-1.5
			l-0.1-1.1l-0.6-0.9l0.1-1.9l-1.2-0.5l-0.6-0.8l-0.5-2.5l-1.4-0.9l-1.3,0l-0.4-0.7l0.1-0.8l0.9-0.7l-1-0.7l-0.1-1.7l-1.1-0.9
			l-1.1-0.9l-0.8-2.6l0-1.3l-0.2-2.1l1.1-0.1l0.5,0.5l0.2-0.5l0.5,0.4l4.4-0.2l1.3-0.8l1,0.3l0.1-1l0.7-0.3l1.1,0.7l0.7-0.4l0-0.7
			l0.9-0.1l-0.7-1.3l0.2-1.6l-0.4-0.3l-0.2-1.2l-0.4-0.5l-0.6-1.3l-0.1-2v-0.6l-1.2-0.6l-0.9-2.7l-0.4-0.2l0.2-1.2l-0.7-3.8l0.7-0.7
			l-0.6-1.1l-0.3,0.2l0.3-2.6l1,0l0.3-1l-1-3.8l1.5-0.6l-0.4-1.3l0.5-0.3l-0.3-2.2l0.8-0.3l-0.9-1.3l1.4,0l1.1-0.4l0-1.4l-1.9-0.2
			l-0.1-0.6l0.6-0.4l-0.2-0.9l-0.3-1.7l0.3-0.3l0.1-1.8l-0.1-4.7l-0.1-1.5l1.5,0.8l0.2-0.4l-0.8-1.3l-0.9-0.1l0-0.8l-0.6-1l0.7-0.5
			l0.2-0.7l-1.3-0.1l0.1-1.3l-0.3-0.9l-1-0.6l-2.2-0.5l-0.9-0.5l0.1-1.6l-1.1-1.2l-0.6,0.1l0.3-0.9l0.1-2.3l-0.2-1l2.9,0.1l0-2.5
			l2.5,0l0-0.7l-1.4,0l0.4-0.5l-0.7-0.5l-0.1-0.7l-1.6-0.8l0.9-1.4l-0.9-0.1l-0.3-0.6l-0.8,0.4l0.4-0.9l1.3,0l1.3-2.3l11.5,0l0-11.1
			l6.6,0l13.3,0L-59.8,118.3z"/>
		<path fill="none" stroke="#6E3589" stroke-width="0.75" d="M-224.4,429.7l0.8-0.1l-0.1,0.5l-1.2,0.2l-0.1-0.5L-224.4,429.7z
			 M-146.1,418.8l1.4,1.4l-0.1,1.4l-0.6,0.3l-0.5-0.6l-1-0.2l-0.7-1.1l0.7-0.3L-146.1,418.8z M8.2,404.2l0.1,0.5L8.3,405l1,1.5
			l0.7,0.4l0.5,0.8l0.6,0.3l-0.4,1l-0.1,1.1l-0.1,0.5l0.4,0.9l-0.5,1.4l0,1.1l0.7,0.9v1.4l-1.5,1.3l-0.3,0.7L9,418.3l-0.8-0.4
			l-0.4,0.6l0.3,0.9l-0.3,0.9L6.6,421l-0.8,1.6l-2-1.9L1.3,419l-0.5-0.5l-3.1-1.8l-2.1-0.9l-2.4-0.8l0.6-0.8l-0.1-0.6l-0.9-0.7
			l-0.7-0.1l-0.2,0.6l-0.4-0.4l-0.5,0.4l-1-0.9l-4.2-1.1l0.3-0.2l1.8,0.8l-0.2-0.6l0.5-0.1l0.5-1.2l0.7-0.5l0.7,0.6l1.1-1l0.8-0.2
			l0,0.5l1.2-0.5l0.6,0.2l1.4-0.7l0.5,0.2l2.1-0.4l-0.2-0.7l0.9-0.9l0.4-0.9l-0.3-0.1l0.3-0.9l0,0l0.2-0.3l2,1l1.4,0.4l0.2-0.6
			l0.7,0.7l0.4-0.2l0.3,0.6l2.2-1l0.5-0.8L8.2,404.2z"/>
		<path fill="none" stroke="#6E3589" stroke-width="0.75" d="M-46.4,362.8l-0.5,0.9l-0.6-0.5L-46.4,362.8z M-50.8,359.9l1.2,0.3
			l0.4,0.5l-0.6,0.9l-2.3-1l0.7-0.7L-50.8,359.9z M-55.3,355.4l1.6,0.3l0.8,0.6l-0.1,0.5l0.7,0.7l-0.6,1.2l-0.3-0.3l-1.8-0.9
			l-0.5-1.2L-55.3,355.4z M-55.8,353.5l0.3,0.8l-0.6-0.2L-55.8,353.5z M-20.8,326.3l-0.1,1.3l0.4,0.7l0,1l0.6,0.7l0.6-0.3l0.6,0.6
			l-0.2,1.2l0.5,0.2l-3.5,1.1l-0.3,0.7l1.4,1.6l0.4,2l0.6-0.1l2.1-2.3l0.1-0.9l1.7,0.1l0.4,1.7l1,0.3l0.9-0.2l0.3,0.6l0,1.8l1.1,0
			l0.2,1.1l0.9,0.5l0.9,1l0.3-0.7l2.6-1l0.5,0.3l0,0.5l1.2,0.5l0,0.5l-0.1,1.5l-0.7,0.7l-0.8,3l0,3.1l0.8,0l0.7-0.6l1,0.8l1.1-0.4
			l0.4,0.3l-0.5,1.7l0.1,1l1.4,1.4l1.6-0.1l1.4,0.5l1.3,0l-0.2,0.5l0.9,1.1l-0.8,1.3l0.5,0.5l-0.3,0.7l0.7,0.5l0.7,0.4l0.1,0.8
			l1,0.6l0.5-0.2l0.6,0.6l0.6,1.1l-0.9,0.4l0.4,1.1l-0.1,0.6l-1.1,0.8L4,365.4l-0.9,0L2,365.8l-1.2-0.5l-0.9,0.6l-0.4,0.7l-0.8,0.2
			l-0.6-0.3l-1.3,0.4l-0.9-0.2l-0.3,0.4l0.2,1l-0.4,1.8l-0.3,0.7l0.2,1.2l0.6,0.2l-1.1,1.5l-0.6,0.1l0,0.9l-1.5,0.2l0.3,0.7
			l-0.5,0.6l1-0.3l0.6,0.6l0.3-0.3l0.7,1.3v0.8l-0.2,1.9l-0.5-0.6l-0.1-1.3l-1.3-0.9l-1-1.2l-1.1-0.5l-1.1-0.9l-0.8-1.6l-1-0.5
			l-0.6,0.2l-0.2,0l-1.1-0.4l0-0.3l-1.1-0.6l0-0.7l-1.4-0.1l-0.8-0.1L-20,373l-0.4-0.3l-1,0.2l-0.2-0.5l-0.8,0.3l-1.1,0.9l-0.7,1.4
			l0,1.2l-0.5-0.2l-0.8,0.7l-0.2,1l-0.8,0.7l-0.7-1.3l-1.1-0.7l-0.7,0.6l-2.5-0.8l0.5-0.4l0.9-2l0.5-0.2l0.5-1l1-0.6l0.8-1l0.1-0.6
			l1,0.2l0.6-0.6l0.3-1l-0.1-1.8l0.4-0.6l-0.5-3.6l0.4-1.1l0.6-0.8l-0.2-0.9l-0.8-0.9l-0.7,0.3l-3-2l-0.7-0.7l-1.8-4l-1.6-2.5
			L-34,349l-0.3-1.2l0.1-3.2l-0.3-2.8l-0.5-1.9l-1.5-3.6l1.2,1.6l0.5,0v-1l-0.5-1l0.4-0.3l0.5-0.3l1.2,0.6l0,0.5h1.2l0.2,0.5
			l0.6-0.3l0.8,0.5l0.5-0.4l0.1-1.4l-0.5-1.6l-0.7,0.2l-0.5-1.7l0-1.1l0.4-0.8l0.1,0l0.5-1.6l-0.6-1.7l1-0.4l0.4-1.1l0.5,0l-0.1-1.1
			l0.4-0.2l0.7,0.2l0.1,1.2l0.6,1.8l0.5-0.3l2.8,0l1.8-0.1L-20.8,326.3z"/>
		<path fill="none" stroke="#6E3589" stroke-width="0.75" d="M43.3,385.7l-0.3,0.8l0.5,0.2l-0.4,0.6l0.2,1l0.7,0.3l-0.1,0.5l1.7-0.7
			l0.8,0.3l0.8,0.2l0.7-0.2l0.7,0.4l0.2-0.6l0.8-0.4l0.5-0.6l0-0.8l1.3-0.4l0.8-0.3l0.5,0.5l0.8-0.3h0l0.3,0.8l-0.3,0.5l0.8-0.1
			l0.5,0.6l0.7,0l0,1.2l-1.2-0.1l0,0.9l0.7,0.7l-0.4,0.2l0.1,1.7l1.6,0.3l0.8-0.1l1.1,0.1l0.7,0.6l0-0.4l0.9-0.3l-0.8-0.4l0.5-0.9
			l0.9,0.8l1.1-0.5l1.4,0l0.4,0.4l-0.5,0.4l0.9,0.9l-0.7,1.2l0.9,0.5l0.2-0.7l0.8,0l1.5,0.6l0.2-1l0.7,0.5l0.3,0.9l0.7,0.1l0.6-0.6
			l1.2-0.5l0.8,0.2l0.4-0.6l0.9-0.1l-0.7,0.6l1.4,0l-0.2,1l0.5-0.8l1.3-0.5l1.8-0.2l0.1-1.7l-0.7-0.4l0.2-1.1l0.5-1.2l0-0.8l0.7-0.7
			l-0.6-0.8l0.9,0.1l1,0.4l1.7,1.4l-0.2,0.6l-0.9,0.7l0.8,0.3l-0.1,1.2l1.3,0.7l-0.3-0.2l0,1.1l0.8,0l-0.3,0.5l0,1.5l0.8,1.3
			l-0.9,0.3l-0.2,1.8l-0.1,0.8L80,400l-1.4,0l-0.1,0.8l0.4,1.4l0.4,0.9l0.6,0.6l-0.1,0.7l0.5,0.1h-0.5l0.1,1l-0.9,0.9l-1.2,0.2
			l-0.4,0.7l0.1,0.8l-0.2,0.2l0,1.2l-0.4,0.8l-0.7,0.8l0.2,0.9l-0.6,0.3l-0.4,1.5l-0.1,0.3l-1.4,0.7l-1,0.5l-0.3,1.6l-1.5,1.1
			l-0.2,0.4l-1.7,1.6l0-0.6l-0.9-1l-0.6,0.2l-0.3,0.8l-0.1,1.7l0.5,0.3l-0.2,1l0.5,0.2l0.2,1l-0.3,1.6l0.4,0.9l2.2,1.3l1,1l-1.1,1.5
			l-0.9-0.9l-0.1-0.5l-0.6,0.2l-0.4-0.6l-0.8-0.2l-0.4-0.9l-0.7,0.1l-1-0.4l-1,1l-1-0.2l-0.2-0.7l-0.6-0.2l-0.1-0.8l-1.7,0.4
			l-2.1-0.3l-0.5-0.4l-1.4-0.2l-1.7,0.6l-0.1,0.4l-0.9-0.2l-0.6,0.4l-0.9,0l-0.4,0.1l-1.8-0.9l-0.4-1.1l-0.7-0.6l-1.3,0.3l-0.2-0.5
			l-1.2,0.1l-1.5,0.7l-0.3,0.3l-0.5,0.4l-0.2,1.4l0.6,0.7l-0.6,0.8l0.6,1.2l0,1.5l-0.7,0.2l-0.2,0.6l-0.5,0.4l-0.8,0l-0.2,0.6
			l-1.3,0l-0.4,0.3l-1.5,0.1l-0.6,0.5l-0.5,2.3l0.2,1.6l0.7,0.4l0,0.7l-1.1,0.5l-2.5-1.2l-3.8-1.1l-2.5-0.6l-2.3-0.3l-1.5-0.5
			l-4.1-1.9l-1.6-0.5l-1.1,0l-2-0.8l-1.8-0.4l-4.1-1.8l-0.8-1.2l0-0.5l-1-2.1l-1-1.1l-1.7-1l0.5-0.6l-1.1-1.3l0.8-1.6l1.3-0.6
			l0.3-0.9l-0.3-0.9l0.4-0.6l0.8,0.4l0.2,0.1l0.3-0.7l1.5-1.3l0.1-0.3l1.3,0l0.5,0.3l0.4-0.3l0.9,0.1l1.7-0.9l0.5-0.2l0.4,1.2
			l0.7,0.7l1,0.1l1.7-2.3l0.4-0.5l0.7,0l-0.5-0.6l-0.1-1.2l0.8,0.3l0.4-1.2l0.9-0.1l0.7-0.6h1.2l1.1-0.9l0.4-0.2l1.7,0.9l0.7-1.1
			V409l0.6-0.6l0.2-0.9l1.2-1.5l-0.5-0.3l0.5-0.7l-0.7-0.5l0.1-0.3l-0.2-0.4l-1.6,0.9l-0.7-0.6l-0.5,0.3l0-2.3l-1.2-0.6l-0.4-0.8
			l0.3-0.9l-0.6-0.9l-0.2-0.8l0.5-0.8l1,0l0.3-1.9l-1.1-1.2l-2.1-0.5l-0.6,0.1l-0.9-0.6l-0.9,0.3l-0.5,0.5l-0.7-0.8l0.6-1.1
			l-0.2-0.4l0-1.6l0.7,0.2l1.1-0.1l0.4-0.1l-0.6-0.8l1.6,0.3L25,391l-0.1-0.7l0.7,0l1.1-0.6l1.1-0.1l-0.1-0.8l0-0.1l0.1-0.3l1.1-0.1
			l0.3-0.9l0.4,0.2l1.4-0.4l-0.2-0.4l2.1-1l1.3,0.3l0.5-0.1v0l1-0.4l0.9,0.4l0.7-0.3l0.8-0.1l1.8-0.6l1.8,0.1l-0.3,0.7l0.7-0.3
			L43.3,385.7z"/>
		<path fill="none" stroke="#6E3589" stroke-width="0.75" d="M1.8,341l0.5,2.1l0.8,1.6l0.7-2.7l-0.4-1.2l0.7-0.8l0-1.1l0.5-1.1
			l0.4-1.8l0.9-0.4l1.4,0.6l1.1-0.3l0.5,0.8l0.3,2l-0.5,0.7l-0.3,1.6l-0.6-0.1l-0.1,1.1l0.8,0.4L8,343.1l-0.6,1.6l-0.6,0.9l0.1,0.4
			l1.7,0.3l0.5-0.6l0.9,0.1l0.5,0.3l1.4-0.1l0.5-0.6l0.4-1.7l1.5-0.7l0.8-0.1l0-1.1l-0.6-0.2l-0.6,0.6l0.2-1.3l-0.5-0.8l1.2-0.5
			l0.4-0.5l1.1,0.5l0.3-0.4l0.4,0.7l0.6-0.1v0.7l-0.9,0.6l-0.3,1l0.7-0.3l1.9,0.1l0.4,0.8l0.5,0.5l0.1,0.4l-1.1,0.7L19,345l0.5,0.6
			l-1,0.5l-0.6,0.7l1,0.2l0,0.4l-0.1,0.7l-1.3,0.4l-0.6,0l0.2,0.6l-1.5-0.1l-0.3-0.4l-1.2,1.1l-0.1,0.6l-0.9,0.3l-0.6,0.1l-1.1,1.3
			l0,0.6l-0.7-0.4l-0.5,0.6l-1,0l0.9,0.7l0.4,0.8l-0.4,1.4l-0.5,0.6L9.6,358l-0.8-0.3l0,0.7L7.6,358l-0.8,0.4l-0.2,0.6l0.5,0.5
			l-0.6,0.9l0.9,0.1l0,0.5l0.8,0.5l0.8,0.6l0.3-1.1l0.7-0.1l0.5,1.1l0.1,0.9l-3.2,0.4l-1.2,0.7l0.1,0.9l1.1-0.5l0.5,0.1l0.1,2
			l0.2,0.1l0.2,0.8l0.4,0.6l0.9,0.4l0.9-0.7l0.1,0.4l0.7-0.4l1.1,0.1l0,0.5l1,1.4l0.5,0.2l1-0.4l0.4,0.3l0.4-0.7l1-0.2l1.8,0.9
			l1.1-0.4l0.4-0.6l0,0l-0.8-0.7l0.6-0.5l-0.3-0.9l0.7-1.6l0.5,0.5l0.6-0.4l1,1l0.8,0.2l0.2-0.7l0.7-0.3l0.6-1.1l0.4,0.2l0.5-0.8
			l0.4,0.3l0.9-0.9l0-0.7l1,1.1l0.8-0.6l-0.3-0.9l0.1-0.9l0.6-1.2l-0.1-0.7l-1.4-0.2l-0.4-0.6l-1-0.6l-0.8-1.6l0-0.1l0.9-0.5
			l0.3-0.5l0.1-0.1l1-0.2l0.1-0.5l1.2-0.3l1.1,0.5l0.6,0l2.8,1.7l0.7,0.4l1.2,0.7l0.6-0.7l1.4-0.1l0.3-0.9l0.8,0.1l0.8-0.4l0.8-1
			l0.8-1l0.2-0.4l0.3-0.9l2-0.8l1.3-0.5l0.9,0.1l0.1-0.8l-1.1,0.2l-0.2-0.6l0.7-0.7l0-0.8l1.3,0l0.5,0.5l0.6-0.2l0.8,0.9l1.1,0.7
			l0.2,0.8l1.7-0.2l0.2,1.4l0.5,1l0.6,0.3l-0.6,0.5l-1,0l0.1,1l0.5,0l-0.8,2.3l0.2,0.5l-0.8,1.4l-0.4,0.4l1.1,1.4l0.4,1l-0.5-0.1
			l-1.7,0.6l0.8,0.9l-0.1,0.6l0.1,0.6l-0.9,0.1l-1.7,0.8l-0.1,0.9l-0.3,1.4l-1,0.4l0.3,0.7l-1.1,0.3l-0.3,0.8L44,371l-0.6,1
			l-2.5,2.5l-0.5,0.4l-0.2,1.1l0.3,0.1l0.1,0.1l0.1,0.7l0.6-0.1l0.4,0.6l-0.1,0.9l1.1,0.3l0.3,1.3l-0.4,1l-0.3,0.6l-0.5-0.2
			l-1.1,2.2l-0.1,0.1l-0.7,1.3l-1.8,0.6l-0.8,0.1l-0.7,0.3l-0.9-0.4l-1,0.4v0l-0.5,0.1l-1.3-0.3l-2.1,1l0.2,0.4l-1.4,0.4l-0.4-0.2
			l-0.3,0.9l-1.1,0.1l-0.1,0.3l0,0.1l0.1,0.8l-1.1,0.1l-1.1,0.6l-0.7,0L25,391l-1.2-1.2l-1.6-0.3l0.6,0.8l-0.4,0.1l-1.1,0.1
			l-0.7-0.2l0,1.6l0.2,0.4l-0.6,1.1l0.7,0.8l0.5-0.5l0.9-0.3l0.9,0.6l0.6-0.1l2.1,0.5l1.1,1.2l-0.3,1.9l-1,0l-0.5,0.8l0.2,0.8
			l0.6,0.9l-0.3,0.9l0.4,0.8l1.2,0.6l0,2.3l0.5-0.3l0.7,0.6l1.6-0.9l0.2,0.4l-0.1,0.3l0.7,0.5l-0.5,0.7l0.5,0.3l-1.2,1.5l-0.2,0.9
			l-0.6,0.6v0.7l-0.7,1.1l-1.7-0.9l-0.4,0.2l-1.1,0.9h-1.2l-0.7,0.6l-0.9,0.1l-0.4,1.2l-0.8-0.3l0.1,1.2l0.5,0.6l-0.7,0l-0.4,0.5
			l-1.7,2.3l-1-0.1l-0.7-0.7l-0.4-1.2l-0.5,0.2l-1.7,0.9l-0.9-0.1l-0.4,0.3l-0.5-0.3l-1.3,0l-0.1,0.3v-1.4l-0.7-0.9l0-1.1l0.5-1.4
			l-0.4-0.9l0.1-0.5l0.1-1.1l0.4-1l-0.6-0.3l-0.5-0.8l-0.7-0.4l-1-1.5l0.1-0.3l-0.1-0.5l-1.5,0.4l-0.5,0.8l-2.2,1l-0.3-0.6L3.3,406
			l-0.7-0.7l-0.2,0.6L1,405.5l-2-1l-0.2,0.3l0,0l-0.3,0.9l0.3,0.1l-0.4,0.9l-0.9,0.9l0.2,0.7l-2.1,0.4l-0.5-0.2l-1.4,0.7l-0.6-0.2
			l-1.2,0.5l0-0.5l-0.8,0.2l-1.1,1l-0.7-0.6l-0.7,0.5l-0.5,1.2l-0.5,0.1l0.2,0.6l-1.8-0.8l-0.3,0.2l0.1-0.7l-1.9-0.7l-0.7,0.1
			l0.5-1.1l-0.8-0.5l-1.1,0.5l-1.2-0.5l-2-1.7l0.1-1.1l-1-0.7l-0.3-2l-0.5-0.5l-0.5,0.2l-1.8-1.5l-0.9-0.8l-1.7-2.8l-1.4-1.7l-2-2.9
			l-0.9-1.9l0.1-1.9l-0.3-1.1l-2-1.9l-0.6-1.1l-0.2-0.9l0.9-0.4l0.8-0.9l1.8-0.5l1.5-0.1l2.8-0.4l1.4-1l0.5-1.4l-0.3-0.8l-0.8-0.4
			l0.8-0.7l0.2-1l0.8-0.7l0.5,0.2l0-1.2l0.7-1.4l1.1-0.9l0.8-0.3l0.2,0.5l1-0.2l0.4,0.3l2.8-2.5l0.8,0.1l1.4,0.1l0,0.7l1.1,0.6
			l0,0.3l1.1,0.4l0.2,0l0.6-0.2l1,0.5l0.8,1.6l1.1,0.9l1.1,0.5l1,1.2l1.3,0.9l0.1,1.3l0.5,0.6l0.2-1.9v-0.8l-0.7-1.3l-0.3,0.3
			l-0.6-0.6l-1,0.3l0.5-0.6l-0.3-0.7l1.5-0.2l0-0.9l0.6-0.1l1.1-1.5l-0.6-0.2l-0.2-1.2l0.3-0.7l0.4-1.8l-0.2-1l0.3-0.4l0.9,0.2
			l1.3-0.4l0.6,0.3l0.8-0.2l0.4-0.7l0.9-0.6l1.2,0.5l1.2-0.4l0.9,0l0.3-1.1l1.1-0.8l0.1-0.6l-0.4-1.1l0.9-0.4l-0.6-1.1l-0.6-0.6
			L4.4,360l-1-0.6l-0.1-0.8l-0.7-0.4l-0.7-0.5l0.3-0.7l-0.5-0.5l0.8-1.3l-0.9-1.1l0.2-0.5l-1.3,0l-1.4-0.5l-1.6,0.1l-1.4-1.4l-0.1-1
			l0.5-1.7l-0.4-0.3l-1.1,0.4l-1-0.8l-0.7,0.6l-0.8,0l0-3.1l0.8-3l0.7-0.7l0.1-1.5l0.8-0.1l0-1l1-0.7l0.9,0.7l-0.2-1.1l-0.6-0.4
			l0.1-1.1l0.6-0.2l1.1,0.4l-0.2-0.4l0.9-0.4l0.6,1.5l-0.9,2.5l1-0.5l0.5,0.3l0.4-1l0.9-0.5l0.6-1.3l-1.5-1.1l0.7-0.2l-0.9-1.2
			l-0.2-1.3l0.2-0.4l-1.2-0.6l1-1.1l2.4-0.2l1.2,0.5l1.5,0l0.5,0.2L5,334.6l-1.7,0.8l-0.4,1.2l0.3,0.4l-0.5,0.6l0.4,1.3L1.8,341z"/>
		<path fill="none" stroke="#6E3589" stroke-width="0.75" d="M255.5,439.8l0.7,1.1l-0.2,0.9l0.1,0.7l-0.8,1l1.7,0.6l1.3,0.7l0.7,1.2
			l-0.4,0.1l0.5,0.7l0.1,1l-0.3,0.8l-0.7,0.6l0.2,0.6l1.1,0.3l1.3,0.7l0-0.5l1,0.7l1.9,0.4l0.1,0.6l0.7,0.8l-0.9,0.2l-0.3,1.1
			l0.3,0.8l1.5,0.6l0.1,0.7l0.5-0.5l1,0.1l0.4,1.7l0.7,0.2l0.2,0.7l0.9,1.1l1.1,0.3l0,0.5l1.2,1.1l0,0.5l1.2,0.4l0.5,0.4l-0.1-0.7
			l0.5,0l-0.3,0.7l0.8,0.2l0.4,0.9l0.7-0.1l0.6,0.6l1.1,0l0,0.5l0.8,0.3l1.1,0.9l1.1,1.8l0,1l0.6,0.4l-0.4,0.3l0,0.9l0.6-0.1
			l0.7,1.1l2.3,0.3l-0.2,0.7l1.3,0l0.5,0.7l0.1,1.1l-0.9,1.3l0.4,0.4L284,476l0,1.4l0.6,0.5l-0.7,1.5l0.3,0.4h-7.3l-3.6,0l-4.3,0
			h-2.7h-1.8l-7.3,0l-4,7l-1.4,2.5l-2.9,5.1l-1.7,3l0.5,0.7l0.4,0.6l1.2,1.5l1,1.3l-0.8,1.3l-0.7-0.1l-0.4,0.5l0,2.6l-0.7,0.5
			l0.1,0.9l0.5,1.6l0.2,1.5L248,511l-0.3,1.3l-0.9,1l-1.9-1.9l-1.9-1.7l-1.2-1.3l-4.4-4.7l-1.2-1.3l-4.2-4.3l-4-3.9l-4.4-4l-3.8-3.1
			l-3.9-2.9l-1.8-1.1l-2.8-1.4l-1.7-0.4l-0.8-0.4l-1.4-2.5l0-0.1l-0.1-0.8l1.3-0.8l0.3-1.3l-0.4-1.2l-1.1-1.7l-0.8-1.2l0.1-0.3
			l1.8-4.8l3.7-9.7l0.1-0.6l0.7-0.2l0.5-1.1l0.7-0.5l2.3-0.2l0-0.7l1.2-0.6l1.1-1.6l0.9-1.3l0.6-2.3l0.7,0.1l0.1-0.8l0.7-0.3
			l1.2-1.5l0-1.3l-0.7-1.1l0.8,0.2l0.2-0.5l0.2-1.3l-0.3-0.8l0.2-1l0.9-0.4l0.4-0.7l0.8,0.7l0.5-0.1l1.5,0.5l1.1,1l-0.8,0.8l0.3,0.7
			l0.4-0.4l1.1,0l0.6,0.9l-0.4,0.6l-0.5,1.1l0.3,0.7l-0.1,1.5l0.8,0.9l0,0.5l1.2,1.6l0.5-0.4l1.3,0.1l0.5,0.4l0.3,1.1l-0.8,0.3
			l1.5,0.1l0.7,1.6l0.4-0.1h0l1.2-0.7l0.4-1.4l1.4-1l-0.1-0.6l0.7-0.6l0.7-0.1l0.2-0.5l0.9,0l0.9,0.1l1.8-1.1l0-0.8l0-1l0.5-0.2
			l1.1,0.5l0.9-1.1l1.2-0.9l0.4,0.5l0.4,0l-0.2-1l0.4,0.3l0.6-1.3l0.7,0.2l-0.3-0.6l1.2-0.5l0.6-0.6l1,0.5l-0.1,0.9l0.7-0.8l1.3,0.4
			L255.5,439.8z"/>
		<path fill="none" stroke="#6E3589" stroke-width="0.75" d="M244.6,427.5l3.3,0l0.1,2.6l-0.2,1.5l0.6,1.3l-0.2,1.2l1.1,1.4l1.4-0.1
			l0.6,1l0.7,0.2l0.3,0.6l1.2,0l0.9,0.7l1.3,0.2l0.7,0.6l0.7,0.2l1.4,0.9l0.7,0.5l0.5-0.9l-0.2-0.7l0.2-3.4l0.8-1l0.8-0.1l0.4-0.5
			l0,0.9l1.7,1l1.1,0.4l1.2,0l2.3,1.9l1.5,0l0.5,0.3l2.8,0l0,3.2l0,8.6l0,3.8h-9.5l0.3-1.1l0.9-0.2l-0.7-0.8l-0.1-0.6l-1.9-0.4
			l-1-0.7l0,0.5l-1.3-0.7l-1.1-0.3l-0.2-0.6l0.7-0.6l0.3-0.8l-0.1-1l-0.5-0.7l0.4-0.1l-0.7-1.2l-1.3-0.7l-1.7-0.6l0.8-1l-0.1-0.7
			l0.2-0.9l-0.7-1.1l-0.7,0.4l-1.3-0.4l-0.7,0.8l0.1-0.9l-1-0.5l-0.6,0.6l-1.2,0.5l0.3,0.6l-0.7-0.2l-0.6,1.3l-0.4-0.3l0.2,1l-0.4,0
			l-0.4-0.5l-1.2,0.9l-0.9,1.1l-1.1-0.5l-0.5,0.2l0,1l0,0.8l-1.8,1.1l-0.9-0.1l-0.9,0l-0.2,0.5l-0.7,0.1l-0.7,0.6l0.1,0.6l-1.4,1
			l-0.4,1.4l-1.2,0.7h0l-0.4,0.1l-0.7-1.6l-1.5-0.1l0.8-0.3l-0.3-1.1l-0.5-0.4l-1.3-0.1l-0.5,0.4l-1.2-1.6l0-0.5l-0.8-0.9l0.1-1.5
			l-0.3-0.7l0.5-1.1l0.4-0.6l-0.6-0.9l-1.1,0l-0.4,0.4l-0.3-0.7l0.8-0.8l-1.1-1l-1.5-0.5l-0.5,0.1l-0.8-0.7l-0.4,0.7l-0.9,0.4
			l-0.2,1l0.3,0.8l-0.2,1.3l-0.2,0.5l-0.8-0.2l0.7,1.1l0,1.3l-1.2,1.5l-0.7,0.3l-0.1,0.8l-0.7-0.1l-0.6,2.3l-0.9,1.3l-1.1,1.6
			l-0.7-0.1l0.1-0.4l-1.2-1.1l0.9-0.7l0.6-1.6l0.1-1.1l-0.6-0.2l-1.7-1.5l-0.3-1l-0.5-0.5l-0.7,0.1l-1.6-0.8l0.2-0.3l-1.1-0.1
			l-0.6-0.5l-0.2-1.1l-0.4-0.7l-1,0.2l-0.2-0.7l-1,0l-0.1-2.2l0.6-0.4l-0.5-0.4l0.2-1.2l-0.6-1.5l0-1l-0.4,0.2l-0.2-0.7l0-0.3
			l5.7-1.9l4.5-1.6l2.4-0.8l2.8-0.6l6.2-0.2l1.4,0.3l2.7-0.2l1.8-0.7l1.3-1.1l1.3-2.1l0.9,0.2l1.5-0.3l2.2-0.6l0.1,0.8l0.8,1.3
			l0.2,1.5l1.1,0.6L244.6,427.5z"/>
		<path fill="none" stroke="#6E3589" stroke-width="0.75" d="M154.6,423.7l0.9,0.7v0l0.5,0.3l1.1,0l1.1,0.4l0.8,1.4l0.4,1.5l1.1,0.7
			l0.7,1.2h0l0.4,0.9l0.1,0.1l0.5,0.3l-0.3,0.8l1.5,2.2l1-0.5l-0.2,1l1.2-0.1l0.8-0.4l0.4,0.7l1-0.1l0.1,0l0.5-0.3l0.2,0.1l0.1,0
			l0.4-0.1l0.8,0l0.3,0.3l1.1,0.1l0.4,0l0.2,1.1l0.5,2.9l-1,2.2l-0.2,0.1l0.2,0.4l-0.4,1.2l-0.5,0.1l-0.1,1.4l1.9,1.7l0.6,0.1
			l-0.6,0.4l1.2,0.5l0.9,1.5l1.2-0.6l1,0.3l0.5-0.3l0.9-0.5l0.9-0.7l0.1,0.3l1.1-1.3l0.4,0.1l1.2-0.8l0.4,0.1l0.8-1l0.7,0.1l0.5-0.5
			l1,1l0.1,0.8l-1.4,0.3l-0.5,0.6l0.5,0.3l1,1.4l1.7,2.3l1,1.3l2.2,0.9l1.7,0.4l-0.4,0.9l-0.3,1.6l2.1,0.1l1.7,0.1l13.7,0.8l4.6,0.3
			l-3.7,9.7l-1.8,4.8l-0.1,0.3l0.8,1.2l1.1,1.7l0.4,1.2l-0.3,1.3l-1.3,0.8l0.1,0.8l0,0.1l1.4,2.5l0.8,0.4l-4.2-2l-3.8-1.3l-3.3-0.7
			l-3-0.4l-1.1,0l-0.4-0.1l-1.6-0.1l-1.9,0.2l-3.1,0.5l-1.4-0.1l-0.3,0.4l-1.7,0.2l-1,0.9l-1.2,0.6l-0.8,0.9l0.2,0.6l-1.2,0.5
			l-0.2,0.5l-1.6,0.3l-1.1,0.1l-2,1l-1.1,0.1l-1.1,0.2l-0.2,0.5l-2.2,0.5l-2.6,0.9l-0.9,0.4l-1.6,0.6l-0.2,0.5l-2.2,1.2l-2-0.1
			l-0.6,0.1l-1.6-0.3l-1.3,0.8l-0.6-0.1l-0.6,0.1l-3.2-1.3l-3.1-0.4l-1.6-0.9l-1.8-0.5l-0.7-0.5l-0.3-0.7l-0.9-0.2l-1.1-0.8
			l-1.1-0.4l-1.3-0.3l-1.8-0.1l-0.2,0.2l-2.3-0.4l-1.1-0.3l-0.7,0.1l-1.6-0.3l-0.8,0.3l-2.3-0.5l-2.5-1.7l-1.7-1.1l-2.1-1.2
			l-2.9-1.5l-2.1-0.5l-2.2-0.3l-2.5-0.9l0.3-0.7l1.8-0.8l1.1,0.1l0.7-0.9l0.3-0.5l-0.2-0.7l-0.8-1.5l1.6-0.5l0.5,0.3l1.8-0.6
			l0.3-0.8l-0.4,0.1l-0.5-1.9l2.1-0.4l0.1-0.7l0.6-0.1l0.7-2.4l-0.2-0.3l-0.6-1.6l0.3-0.2l0.8-1.2l0.6,0.2l0.1-0.1l0.4-0.5l-1.4-0.5
			l-0.2-0.1l-0.4-0.4l-1.8-0.7l-0.8-0.1l0.1-1.4l0.3-0.6l-0.8-0.8l-1,0.3l-0.7-0.8l0.4-1.2l0.4,0l-0.4-1.4l-0.6-1.4l0.1-0.3l0.4-0.1
			l-0.4-0.9l0-0.3l-1-1.6l-0.7,0.1l-1-0.6l-0.2-1l-0.4-0.6l-0.1-1.5l0.5-0.3l1-1.1v-0.6l0.9-0.4l1,0l0.1,0.1l0.7-0.7l0.8-0.4v0
			l0.3,1.1l0.8-0.2l0.9-0.7l0.3-1.1l0.5-0.2l0.5-0.1l1.2,0l0.4-0.2l0.8,0.4l0.6,0.1l0.7,0.2l0,0.8l0.7,0.4l0.5-0.2l1.3,0.1l0.1-0.7
			l0.9-0.7l0-0.5l1.5-0.5l-1.5-1l-0.6,0.7l0.2,0.7l-0.7,0.7l-0.3-1l0.1-0.3l0.6-0.8l-1-0.8l-0.1-1l0.5-0.5l-0.2-0.4l0.1-0.6l1-1.5
			l0.3-0.1l0.7,0.2l1.8-0.4l0.4,0.3l0,2l-0.2,0.2l0.8,0.5l1,1.1l0,0.2l0.2,1l1.6,0.4h0.2l1.2-1.7l0.9,0l0.3-0.5l0.9-0.7l1.5-0.4
			l0.5,0.2l1-0.8l0.7,0.9l0.9,0.2l1-0.2l0.4-0.7l0.3-0.3l0.7-0.6l0.8,0.3l0.1,0.1l0,0l0.5-0.5l0.1,0l0.8-0.1l0.2,0l0.7-1.7l0.8-0.4
			l0.7-1.2l0.5-0.1l-0.1,0.5l0.8,0.2l0.3-1.1l-0.5-0.2l0-0.7l0.5-1l-0.9-0.7l0.6-0.5l-0.1-0.6l0.5-0.6l-0.1-0.8l0-0.6L154.6,423.7z"
			/>
		<path fill="none" stroke="#6E3589" stroke-width="0.75" d="M58.5,352.6l-0.1,0.3l1.2,1l2.1-0.2l1.6,0.3l1.4,0.9l0.2,0.7l1,0.2
			l0.4,0.2l-0.5,1l1,0.6l1.2,0.3l0.7,0.7l0.8,0.1l0.5,0.5l0.5-0.4l0.4,0.8l0.6-0.4l1.1-0.5l1.5,0l0.2-0.3l-0.6-0.9l0.6-0.8l0.2-0.9
			l2.1-0.6l1.5,0.1l1.1,0.5l0.9,0.3l0.3,1.1l0.4-0.4l1.5,1.4l0.3,0.8l2.2-0.1l-0.2,0.5l0.4,1l0.8,0.3l0.8-0.6l1.1,0.3l0.8-0.8l0,2.3
			l-0.3,0.8l0.8,1.5l0.4-0.5l1.3,0.4l-0.5,0.7l0.1,0.7l-0.9,0l-1.9,1.7l-1.2-0.3l-0.3-0.4l-0.9-0.6l-0.8-0.1l-0.5,0.6l0.3,0.2
			l-0.6,2.4l0.2,0.5l0.1,0.2l-0.2,0.6l-0.8-0.3l0,0.5l-0.7,1.7l-2,0l-1.2-0.7l-0.4-0.2l0,0.9l-1.4,0.9l-1.7,0.1l-0.8-0.3l-0.4-0.6
			l0.1,0.5l-0.8,0.8l0.1,0.4l-1.2,0.5l-0.1,1.2l0.3,0.9l-1,0.4l0.3,0.9l0.4,0.1l0.2,0.8l0.5-0.1l0.8,1l0.1,0.9l-0.4,0l-0.1,0.8
			l0.4,1v1.1l0.4,0.9l1.3,0.3l0.1,0.3l0.4,1.2l0.8,0.4l0.6,0.8l-0.7,0.7l0,0.8l-0.5,1.2l-0.2,1.1l0.7,0.4l-0.1,1.7l-1.8,0.2
			l-1.3,0.5l-0.5,0.8l0.2-1l-1.4,0l0.7-0.6l-0.9,0.1l-0.4,0.6l-0.8-0.2l-1.2,0.5l-0.6,0.6l-0.7-0.1l-0.3-0.9l-0.7-0.5l-0.2,1
			l-1.5-0.6l-0.8,0l-0.2,0.7l-0.9-0.5l0.7-1.2l-0.9-0.9l0.5-0.4l-0.4-0.4l-1.4,0l-1.1,0.5l-0.9-0.8l-0.5,0.9l0.8,0.4l-0.9,0.3l0,0.4
			l-0.7-0.6l-1.1-0.1l-0.8,0.1l-1.6-0.3l-0.1-1.7l0.4-0.2l-0.7-0.7l0-0.9l1.2,0.1l0-1.2l-0.7,0l-0.5-0.6l-0.8,0.1l0.3-0.5l-0.3-0.8
			h0l-0.8,0.3l-0.5-0.5l-0.8,0.3l-1.3,0.4l0,0.8l-0.5,0.6l-0.8,0.4l-0.2,0.6l-0.7-0.4l-0.7,0.2l-0.8-0.2l-0.8-0.3l-1.7,0.7l0.1-0.5
			l-0.7-0.3l-0.2-1l0.4-0.6l-0.5-0.2l0.3-0.8l-0.9-0.4l-0.7,0.3l0.3-0.7l-1.8-0.1l0.7-1.3l0.1-0.1l1.1-2.2l0.5,0.2l0.3-0.6l0.4-1
			l-0.3-1.3l-1.1-0.3l0.1-0.9l-0.4-0.6l-0.6,0.1l-0.1-0.7l-0.1-0.1l-0.3-0.1l0.2-1.1l0.5-0.4l2.5-2.5l0.6-1l0.5-1.4l0.3-0.8l1.1-0.3
			l-0.3-0.7l1-0.4l0.3-1.4l0.1-0.9l1.7-0.8l0.9-0.1l-0.1-0.6l0.1-0.6l-0.8-0.9l1.7-0.6l0.5,0.1l-0.4-1l-1.1-1.4l0.4-0.4l0.8-1.4
			l-0.2-0.5l0.8-2.3l-0.5,0l-0.1-1l1,0l0.6-0.5l0.3-0.3l0.5-0.4l1.1,0.1l1.2-0.3l1,0.1l0.6,0.5L58.5,352.6z"/>
		<path fill="none" stroke="#6E3589" stroke-width="0.75" d="M36.8,340l1.3,0.3l0.6,0.3l0.2,1.3l0.6,0.1l1-0.4l0.8,0.2l0.3,1.3
			l0.5,0.5l0,1.2l-0.5,0.9l1.2,0.4l2.2,1.6l0.1,0.3l0,0.8l-0.7,0.7l0.2,0.6l1.1-0.2l-0.1,0.8l-0.9-0.1l-1.3,0.5l-2,0.8l-0.3,0.9
			l-0.2,0.4l-0.8,1l-0.8,1l-0.8,0.4l-0.8-0.1l-0.3,0.9l-1.4,0.1l-0.6,0.7l-1.2-0.7l-0.7-0.4l-2.8-1.7l-0.6,0l-1.1-0.5l-1.2,0.3
			l-0.1,0.5l-1,0.2l-2.3-1.8l0.1-0.8l-0.4-0.6l0.5-1.5l0.8-1.6l1.3-1.9l1.1-0.5l1.1-2.8l-0.6-0.4l0-1l1.2,0l1.8,0l1.3-0.7l-0.2-0.3
			l0.1-0.4l1.9-0.2l0.4-0.5l0.8-0.1l0.2-1.5l0.3-0.1l0.2,0.9L36.8,340z"/>
		<path fill="none" stroke="#6E3589" stroke-width="0.75" d="M101,355.9l0.3,1l0.9,0.7L102,359l0.3,1.1l0.1,0.8l0.5,1l0.1,1l-0.8,0
			l-0.2,0.7l0.7,0.7l1,0.4l-0.4,1l0.4,0.4l0,1.3l0,0.1l-2.5,0.5l-0.1,0.3l-1.3,0.5l-1.4-1l-0.6,0.4l-0.2,0.7l-0.9,0l-0.2,0.3
			l0.7,0.9l-0.4,0.9l-0.4,1.8l-1.1,1.8l-0.6,0.2l-0.2,1l-1.2,1.3l0.4,0.7l0.6,1l-1.5,0.5l-1.1,0.9l-0.2-0.3l-2.1,0.9l-1.9,0.5
			l-0.2,1.4l0,0.1l-0.5,4.7l-1.1-0.4l-0.4,0.8l0.2,0.4l0.1,0.3l-0.7,0l-0.1-0.8l-0.4,0.3l0.2,0.8l0.7,0.6l-0.2,1.2l0.3,1.2l-1.1,0.1
			l-0.4-0.4l-0.9,0.9l-0.7,0.2l-1.3-0.3l-1.3-0.7l0.1-1.2l-0.8-0.3l0.9-0.7l0.2-0.6l-1.7-1.4l-1-0.4l-0.9-0.1l-0.8-0.4l-0.4-1.2
			l-0.1-0.3l-1.3-0.3l-0.4-0.9v-1.1l-0.4-1l0.1-0.8l0.4,0l-0.1-0.9l-0.8-1l-0.5,0.1l-0.2-0.8l-0.4-0.1l-0.3-0.9l1-0.4l-0.3-0.9
			l0.1-1.2l1.2-0.5l-0.1-0.4l0.8-0.8l-0.1-0.5l0.4,0.6l0.8,0.3l1.7-0.1l1.4-0.9l0-0.9l0.4,0.2l1.2,0.7l2,0l0.7-1.7l0-0.5l0.8,0.3
			l0.2-0.6l-0.1-0.2l-0.2-0.5l0.6-2.4l-0.3-0.2l0.5-0.6l0.8,0.1l0.9,0.6l0.3,0.4l1.2,0.3l1.9-1.7l0.9,0l-0.1-0.7l0.5-0.7l-1.3-0.4
			l-0.4,0.5l-0.8-1.5l0.3-0.8l0-2.3l0.6-0.6l0.1-1.2l0.9,0.2l0.9,0l0.7,1.4l1.6,1.4l-0.1,0.4l1,0.2l0.7-0.4l0.8-0.3l0.4,0.4l0.9-1.8
			l-0.1-0.9l1.5,0.3l0.7-0.8l-0.1-0.9l0.9-0.5l0.3-0.8L101,355.9z"/>
		<path fill="none" stroke="#6E3589" stroke-width="0.75" d="M71.4,293.7l0.1,1.2l-0.7,2.8l1,0l-0.2,1.1l-0.4,0.1l2,0.8l-0.5,0.5
			l0.3,1.1l-0.4,1l-0.5,2.4l0.5,0.7l-0.2,1.1l0.5,0.6l0.6,0.4l0.2,1.3l0.9,1.4l-0.7,1l-0.3,1.5l0.5,0l0.2,1.3l-0.7-0.4l-0.5,2.5
			l1.3,1.2l-0.6,3.5l0.1,0.5l3.1,0.7l0.2-0.8l-0.8,0.1l-0.2-1.7l0.9,0.1l0.5,0l0.6-1.1l1.2,0.3l-0.2,1.1l2.6,0.4l-0.3,0.7l0.1,1.7
			l1,0.1l0,0.6l1,0.8l-0.9,0.6l-0.2,0.8l-0.5-0.3l0.2,0.9l-0.5-0.2l0,1.3l1.4,0l0.3,2.1l-1.5,1.4l1.7,0.8l1.4-0.6l1.5,0.1l0.9,0.4
			l-0.1,1.2l0.9,0.5l0.5-0.2l1.2,0.2l0.9-0.5l2.6,0.9l1,0.6l0.4-0.1l-0.9-2.5l-0.1-0.3l1.4,0.1l0.7,1.8l1.2-0.1l0.3,0.9l0.9-0.1
			l0.5,1.1l0.7,1.7l0.2,1l0.7,1.3l2.5,0.1l1.1-0.2l2.7,0.5l0.3,0.5h0.2l1.9,0.4l1.5-0.3l0.1-0.3l1.6-0.6l-0.2,0.8l2.1,0l0.1,0.6
			l0.9,0.2l1.2,0.9l0.7-0.2l0.9,1.1l0.8,0l-0.1,0.4l1-0.2l-0.4,0.5l0.2,0.8l-2,1.3l0,1.6l-1.3,2.2l-0.6-0.4l-0.8,0.3l-0.4,0.2
			l0.5,0.6l0.9-0.4l0.3,0.5l-0.9-0.1l-0.1,1.6l0.6,0.7l0.6-0.2l0.7,1.6l-1.2,0.9l-0.4,0.7l-0.7-0.5l0.2,0.7l-1.3,0.4l-0.5,0.9
			l0.5,0.1l-0.1,0.8l0.5,1.1l1.5,1l0.3,0.9l-0.1,0.7l0.2,0.6l0.1,0.2l-0.3,0.6l-0.5-0.5l-1.3,0.6l-0.9-0.2l-0.8,0.5l1.2,0.7l0.6,0.4
			l-0.2,2l-0.6,0.4l-0.9-0.4l-0.2,0.7l-0.1,0.1l-0.4-0.5l-0.1,0l-0.5-0.1l-0.6,0.3h0l-1.2,0.3l-0.5-0.3l-0.7-0.1l-0.4-0.7l-0.6-1.9
			l-0.2-0.1l-0.1-0.2l-2.3,0.7l-1-0.4l-0.7-0.7l0.2-0.7l0.8,0l-0.1-1l-0.5-1l-0.1-0.8L102,359l0.2-1.4l-0.9-0.7l-0.3-1l-0.6,0.1
			l-0.3,0.8l-0.9,0.5l0.1,0.9l-0.7,0.8l-1.5-0.3l0.1,0.9l-0.9,1.8l-0.4-0.4l-0.8,0.3l-0.7,0.4l-1-0.2l0.1-0.4l-1.6-1.4l-0.7-1.4
			l-0.9,0l-0.9-0.2l-0.1,1.2l-0.6,0.6l-0.8,0.8l-1.1-0.3l-0.8,0.6l-0.8-0.3l-0.4-1l0.2-0.5l-2.2,0.1l-0.3-0.8l-1.5-1.4l-0.4,0.4
			l-0.3-1.1l-0.9-0.3l-1.1-0.5l-1.5-0.1l-2.1,0.6l-0.2,0.9l-0.6,0.8l0.6,0.9l-0.2,0.3l-1.5,0l-1.1,0.5l-0.6,0.4l-0.4-0.8l-0.5,0.4
			l-0.5-0.5l-0.8-0.1l-0.7-0.7l-1.2-0.3l-1-0.6l0.5-1l-0.4-0.2l-1-0.2l-0.2-0.7l-1.4-0.9l-1.6-0.3l-2.1,0.2l-1.2-1l0.1-0.3l-1.6,0.1
			l-0.6-0.5l-1-0.1l-1.2,0.3l-1.1-0.1l-0.5,0.4l0.3-1.3l1.5-0.9l-0.4-0.5l1.2-1.3l1-0.2l-0.6-1.1l0.1-1l0.4-1.1l-0.2-0.4l-0.2-0.6
			l0.6-0.7l-0.9-1l-1-0.3l0.5-0.7l-0.6-0.3l-0.3-1.1l1.1,0.1l0.2-2.2l1.3,0.1l0.6-1.2l-0.2-1.7l-0.9-1.7l-0.9-0.4l0.3-0.4l0.3-0.5
			l-1.3-0.8l-1.7,0.1l-0.1,0.9l-1.5,1l-0.1,1l-1.7,2.2l-0.8-0.1l-1,0.3l0.2,0.6l-0.8-0.2l-0.6,0.4l0,0l-0.8-0.7l0.4-1.2l-1.1-0.3
			l0.4-2.1l-1.9,0.1l0,0l-3.7-3l-1.4-1.9l-0.1-0.4l-0.8-3.2l-0.5-0.5l1-1.9l-0.6-0.9l0-0.9l-1-0.5l0.1-0.9l0.7-0.2l-0.9-0.9l0.9-1
			l0.3-1.9l0.9,0l0,1.1l0.5,0.1v0.9l1,0.2l2.3-0.4l5-1.7l6.5-5.6l2.6-2.4l3.1-2.8l-0.3-3.9l-0.2-1.7l0.9-0.1l2.3-1l1.1-4.2l0.5-1
			l-0.5,1.1l0.1,1.1l1.3,1.2l2-1.4l2.3-2.7l0.7-0.7L71.4,293.7z"/>
		<path fill="none" stroke="#6E3589" stroke-width="0.75" d="M125.1,400l-0.1,1.3l1,0.2l0.1,0l0.7,0.6l1.5,0.7l0.3,0.7l-0.4,0.8
			l0.9,0.5l-0.3,0.6l1.4-0.9l-0.1,0.6l0.9,0.3l0.3,0.6l0.1,0l0.7,0.9l0.8,0.6l0.7,0.2l-0.3,1.1l-0.9,0.5l-0.6-0.4l-1.1,0.5l-1-0.5
			l-0.4,0.4l-0.5,0l-0.2,0.3l0.1,0.4l0.3,0.7l-1.3,1.1l-0.3,0.2l-1.1-0.6l-0.3-0.1l-0.8-0.8l-0.2,0.5l-1.2,1l-0.4,0.6l-1,0.7
			l-0.5-0.7l-0.7,0v0l-0.4-0.4l-0.4-0.1l-0.5-0.3l-0.4-0.3l-0.1,0l-0.2,0.5l-0.3-0.4l0.2-0.3l-0.8-0.6l-0.2-0.6l-0.7-0.8l0.1-0.5
			l-0.7-0.3l-0.3-0.4l-0.7-1l0,0v-0.1l-0.4-0.8l-0.7-0.8l-1,0.3l-0.9-0.4l-0.4,0l-1.2-2l0.6-1l0.2,0l0.1-0.2l1.1,0.1l0.7-0.8
			l0.6,0.4l0.3-0.3l0.3,0.7l0.6-0.1l1.7-0.2l0.6,0.2l0.3-0.4l0.9-1.3l-0.2-0.8l1.3,0l0,0.1l0.2,0l0.4,1l1.7,0.1l0.9-0.4l0.3,0.4
			l0.8-1.3L125.1,400z"/>
		<path fill="none" stroke="#6E3589" stroke-width="0.75" d="M131.1,375.1l0.8,0.3l-0.1,0.5v0v0l-0.2,0.8l-0.5,0.2l0,0.7l0.1,1.3
			l0.9,0.3l0.1,1.2l0.3,0l0.6,0.6l0.1-0.4l1.3,0.2l1,1.5l-0.7-0.1l-0.5,0.7l-0.7,0.2l-0.3,1l-0.6-0.1l-0.7-1l-0.5,0.1l-0.3,0.7
			l-0.4,0.9l1.4,1.4l0.4-0.7l0,1L132,387l-1,0.1l0.4,0.8l-0.1,1.1l1.7,0.5l0.5-0.3l0.3,0.2l0,0l0.3,0.3l0.2,1.4l0.2,0.4l0.5-0.2
			l1.4-1.1l-0.2-0.3l0.3-0.4l0.5-0.4l0-0.9l0.4-0.5l0.8,0.3l0.6-0.4l0.2,0.7l1.2,0.4l0.6,0.2l2.6,0.9l0.3-0.2l0.2,0.9l-1.5,1.8
			l0.1,0.6l-1.1,0.8l0.1,1l-1,1.2l-0.3,1.1l-0.1,2l-0.2,0.4l0.6,1l-0.5-0.2l-1.1,1l-0.8,0.2l-0.3,0.8l0.2,1l0.5,1l1.2,0.2l-0.2,1.2
			l-0.7,0.1l0.6,1.2l0.5-0.4l1.2,0.1l0.3,0.1l1.2,0.5l-0.1,0.8l0.3,0.3l1.1-0.3h0l1.1,0.4l1.1-0.3l0.6,0.6l0.5,0.2l0.1,0.1l-0.3,1
			l-0.6,0.4l-0.6,0.5l0.4,1.4l-0.3,0l-0.5-0.6l-1.4-0.1v0l-1.1-0.2l-0.1,0.7l-1.2,1l-0.1,1.5l0,0l0,0l-0.3,0.6l0.5,0.4l0.1,0.8
			l0.2,0.6l-1.1,1.3l-0.6,1.1l0,0l-0.6,0.5l0.5,0.6l-0.4,1.1l0.1,0.7l0.9,0.3l0.6,0.9v0l0.8-0.2l0.2,0.1l1.8,1l0,0.5l0.7,1.1
			l0.7,1.3l1.7-1.5l0.1,0.1l0.9-0.6l0.6,0.4l0.6-0.3l0.7,0.5l0.5,0.7l0.9-0.4l0.3,1.8l1.1,0.7L152,429l-0.7,1.2l-0.8,0.4l-0.7,1.7
			l-0.2,0l-0.8,0.1l-0.1,0l-0.5,0.5l0,0l-0.1-0.1l-0.8-0.3l-0.7,0.6l-0.3,0.3l-0.4,0.7l-1,0.2l-0.9-0.2l-0.7-0.9l-1,0.8l-0.5-0.2
			l-1.5,0.4l-0.9,0.7l-0.3,0.5l-0.9,0L137,437h-0.2l-1.6-0.4l-0.2-1l0-0.2l-1-1.1l-0.8-0.5l0.2-0.2l0-2l-0.4-0.3l-1.8,0.4l-0.7-0.2
			l-0.3,0.1l-1,1.5l-0.1,0.6l0.2,0.4l-0.5,0.5l0.1,1l1,0.8l-0.6,0.8l-0.1,0.3l0.3,1l0.7-0.7l-0.2-0.7l0.6-0.7l1.5,1l-1.5,0.5l0,0.5
			l-0.9,0.7l-0.1,0.7l-1.3-0.1l-0.5,0.2l-0.7-0.4l0-0.8l-0.7-0.2l-0.6-0.1l-0.8-0.4l-0.4,0.2l-1.2,0l-0.5,0.1l-0.5,0.2l-0.3,1.1
			l-0.9,0.7l-0.8,0.2l-0.3-1.1v0l-0.8,0.4l-0.7,0.7l-0.1-0.1l-1,0l-0.9,0.4l-0.3-1.3l0.4-0.4l-0.2-0.9l-1.1-0.2l-0.8-0.1l-0.1,0.4
			l-1.2,0l-1.3,0.9l-0.9-0.6l-2.7-1l1.6-0.7l-1.6-0.5l-1.2,0.2l0.2-0.8l0-0.8l-0.5-0.8l-1.5-0.5l-0.9,0l0.2-1.3l-0.7,0l-0.2-0.5
			l-0.5,0.4l-0.2-1.8l1.7-1.9l1,0l0.5-0.8l1.4-0.5l0.2-0.6l0.6-0.3l1.2,1.4l0.6,0.4l0.4-0.1l0-1.2l-0.1-1.9l-0.1-0.4l-0.2-1.4
			l-0.3-0.8l0.5-0.8l-0.8-0.1l0.1-0.3l0.4-1.1l0.7-0.9l0.1-0.2l0-0.1v0v0l0.4-0.5l-0.1-1l0.6-1.7l0.3-0.3l0.1-0.1l0.1-1l-0.3-0.2
			l0.3-1l-0.2-0.6l-0.1-0.2l0-0.1l-0.1-1.6l0.3-0.4l-0.1-0.1l-0.7-1.4l0.4-0.6l-0.3-1l-0.1-0.8l0.5,0l-0.4-0.8l0.4,0l0.9,0.4l1-0.3
			l0.7,0.8l0.4,0.8v0.1l0,0l0.7,1l0.3,0.4l0.7,0.3l-0.1,0.5l0.7,0.8l0.2,0.6l0.8,0.6l-0.2,0.3l0.3,0.4l0.2-0.5l0.1,0l0.4,0.3
			l0.5,0.3l0.4,0.1l0.4,0.4v0l0.7,0l0.5,0.7l1-0.7l0.4-0.6l1.2-1l0.2-0.5l0.8,0.8l0.3,0.1l1.1,0.6l0.3-0.2l1.3-1.1l-0.3-0.7
			l-0.1-0.4l0.2-0.3l0.5,0l0.4-0.4l1,0.5l1.1-0.5l0.6,0.4l0.9-0.5l0.3-1.1l-0.7-0.2l-0.8-0.6l-0.7-0.9l-0.1,0l-0.3-0.6l-0.9-0.3
			l0.1-0.6l-1.4,0.9l0.3-0.6l-0.9-0.5l0.4-0.8l-0.3-0.7l-1.5-0.7l-0.7-0.6l-0.1,0l-1-0.2l0.1-1.3l-0.4-0.7l-0.8,1.3l-0.3-0.4
			l-0.9,0.4l-1.7-0.1l-0.4-1l1.2-0.5l0-0.5l-0.8-0.3l-0.7-1.5l-0.3-0.1l-0.7-0.2l0.9-0.9l0-0.5l1.1-1.2l1-0.1l-0.1-1.4l-0.1-0.3
			l0.5-0.9l0.6-0.5l0.6-0.8l-0.8-0.1l0.1-0.7l-0.4-1l0,0l-0.9-0.8l-1.4,1l-0.5-1.1l0.6-0.9l1.3,0.2l0.2-1l1.1,0l0.3-0.4l0.3-0.6
			l0.1-0.1l0.5-1l1-0.4l0.3-0.4l0.5-0.6l0.1-0.5l0.1-0.5l1.5-1l0.3-0.8l-0.4-1.1l0.3-0.7l-0.5-0.3l0.6-1.8l0.3-0.8l0.8,0l0.3,0.6
			l1.1-0.4L131.1,375.1z"/>
		<path fill="none" stroke="#6E3589" stroke-width="0.75" d="M116.1,362.5l0,0.3l-0.1,0.1l-0.6,0.7l-1,1.4l0.6,0.4l1-0.1l-0.3,0.5
			l0.6,0.6l0.2,0.6l0.4,0.2h0l0,0.1l1.2,0l0.5-0.2l0.7-0.3l0.2,0.1l0.1-0.2l0.3,1.2l0.7,0.2l0.5-0.5l0.8,0.9l0.8,0.6l-0.2,1.5
			l-0.7,0l-0.4,1.4l-0.4,0.5v0l0.3,0.5l-0.8,0.9l0.2,1l0.6,0.1l-0.5,0.6l-1.2,0.2l0.1-0.4l-0.9,0l0.6-0.3l-0.8-0.6l0.2-0.7l-1.7,0.3
			l-0.4,0.3l-0.4,1.3l0.2,0.6l-1.7,0.8v0l-0.4,0.5l0.5,0.2l1.4-0.7l0.7-0.8l-0.1,0.7l-0.4,0.4l-0.3,0.7l-0.7,0.5l0.3,1.2l-0.5-0.2
			l-0.4,1.2l-0.7,0.8l-0.8,0.3l1,1.4l0,1.5l0.3,0.4l1.4,0.3l0.2,0l1.5-1.5l0.5,0.1l0.9-0.7l0.9-1.2l0.2-0.2l1.1-0.8l0.8,0l1.1-1.3
			l0.2-0.7l0.2,0l0.5-0.8l0.2-0.5l0.6,0.9l0.6,2.2l0.5,0.3l-0.1,0.5l-0.5,0.6l-0.3,0.4l-1,0.4l-0.5,1l-0.1,0.1l-0.3,0.6l-0.3,0.4
			l-1.1,0l-0.2,1l-1.3-0.2l-0.6,0.9l0.5,1.1l1.4-1l0.9,0.8l0,0l0.4,1l-0.1,0.7l0.8,0.1l-0.6,0.8l-0.6,0.5l-0.5,0.9l0.1,0.3l0.1,1.4
			l-1,0.1l-1.1,1.2l0,0.5l-0.9,0.9l0.7,0.2l0.3,0.1l0.7,1.5l0.8,0.3l0,0.5l-1.2,0.5l-0.2,0l0-0.1l-1.3,0l0.2,0.8l-0.9,1.3l-0.3,0.4
			l-0.6-0.2l-1.7,0.2l-0.6,0.1l-0.3-0.7l-0.3,0.3l-0.6-0.4l-0.7,0.8l-1.1-0.1l0-1.2l0.9,0l-0.3-1.4l0.5-0.1l0.2-0.9l-0.9-1l-0.4-0.5
			l-0.4,0.5l-0.4-0.4l0.6-0.5l-1.2-0.3l-0.5-0.3l-0.5-0.2l-0.3,0.6l-0.4-0.3l-1.2-0.6l-0.9,0.4l-0.7,1.6l-0.5-0.1l-1-1.3l0.7-0.3
			l0.8-0.6l-0.9-1.1l1.1-0.4l0-1.2l-0.3-0.3l-0.6-0.6l-0.3,0.3l-0.2,1.6l-0.4,0.2l0.1-1l-0.8,0.7l-0.1-0.7l-1-0.2l-0.5,0l-1,0.8
			l-0.5,0.9l-0.1,1.5l-0.4,0.3l-0.7,0.3l-1.5,1.7l-0.9,0.1l0.3-1.7l-0.9,0l-0.3-0.5l-0.1-0.1l-0.1-0.6l-1,0l0.2-1.1l0.6-0.7l0.1-0.6
			l-1-2l-0.7-1l0.3-0.3l-0.2-0.3l-2.5,0.7l-0.6-0.8l-0.8,0.2l-0.5,0.1l-1.4-1.2l-1.1-1.3l-0.4,0.4l0-0.1l0.5-4.7l0-0.1l0.2-1.4
			l1.9-0.5l2.1-0.9l0.2,0.3l1.1-0.9l1.5-0.5l-0.6-1l-0.4-0.7l1.2-1.3l0.2-1l0.6-0.2l1.1-1.8l0.4-1.8l0.4-0.9l-0.7-0.9l0.2-0.3l0.9,0
			l0.2-0.7l0.6-0.4l1.4,1l1.3-0.5l0.1-0.3l2.5-0.5l0-0.1l0-1.3l-0.4-0.4l0.4-1l2.3-0.7l0.1,0.2l0.2,0.1l0.6,1.9l0.4,0.7l0.7,0.1
			l0.5,0.3l1.2-0.3h0l0.6-0.3l0.5,0.1l0.1,0l0.4,0.5l0.1-0.1l0.2-0.7l0.9,0.4l0.6-0.4l0.2-2l-0.6-0.4l-1.2-0.7l0.8-0.5l0.9,0.2
			l1.3-0.6l0.5,0.5l0.3-0.6L116.1,362.5z"/>
		<path fill="none" stroke="#6E3589" stroke-width="0.75" d="M126.5,340.9l-0.6,0.8l0.9,0.1l0.4,0.8l0.8,0.8l0.9,0.3l0.3-0.5
			l1.1-0.7l-0.2,0.3l0.2,1.9l0.6,1.9l1.1,2.5l1.9,3.1l1.1,1.4l2.8,2.7l1.6,1.3l0.5,0.8l0,0.9L139,362l-0.8,1.4l-0.2,2.4l0.6,1.9
			l0.6,1.1l1.8,4.1l1.1,1.9l0.2,0.8l0.5,1.3l0.3,1.5l1,1.6l1.6,1.8l1.4,1.2l1.6,2.2l2.6,2.7l1.7,1.9l2.7,3.3l0.3,0.8l0.8,1l1.7,1.8
			l1,2.7l-0.1,0.4l0.2,1.3l0.4,0.8l0,1l0.9,1.4l0.5,0.8l-0.3,1.1l0.6,2l1.5,1.3l0.8,0.3l0.2,0.5l1.1,0.7l0.1,0.5l0.5,0.4l-0.1,1.1
			l0.8,0.8l1.9,0.3l0.2,1.9l0.4,1.3l1.6,1.6l2.5,1l1.6,1l2.9,0.6l1.9,0.1l3.1-0.1l0.3,0.2l1.9,0l1.2,1.2l0.9,0.2l0.6,0.9l0.5,0.7
			l1.6,0.4l1,0l1.7,0.2l0.6,0.7l0.3,1.3l0.9,1.3l1.1,0.9l0.6,0.9l0.7,0.5l0,0.7l0.6,1.4l0.8,0.5l2,0.4l2.3-0.3l2.4-0.5l2.3-0.5
			l0,0.3l0.2,0.7l0.4-0.2l0,1l0.6,1.5l-0.2,1.2l0.5,0.4l-0.6,0.4l0.1,2.2l1,0l0.2,0.7l1-0.2l0.4,0.7l0.2,1.1l0.6,0.5l1.1,0.1
			l-0.2,0.3l1.6,0.8l0.7-0.1l0.5,0.5l0.3,1l1.7,1.5l0.6,0.2l-0.1,1.1l-0.6,1.6l-0.9,0.7l1.2,1.1l-0.1,0.4l0.7,0.1l-1.2,0.6l0,0.7
			l-2.3,0.2l-0.7,0.5l-0.5,1.1l-0.7,0.2l-0.1,0.6l-4.6-0.3l-13.7-0.8l-1.7-0.1l-2.1-0.1l0.3-1.6l0.4-0.9l-1.7-0.4l-2.2-0.9l-1-1.3
			l-1.7-2.3l-1-1.4l-0.5-0.3l0.5-0.6l1.4-0.3l-0.1-0.8l-1-1l-0.5,0.5l-0.7-0.1l-0.8,1l-0.4-0.1l-1.2,0.8l-0.4-0.1l-1.1,1.3l-0.1-0.3
			l-0.9,0.7l-0.9,0.5l-0.5,0.3l-1-0.3l-1.2,0.6l-0.9-1.5l-1.2-0.5l0.6-0.4l-0.6-0.1l-1.9-1.7l0.1-1.4l0.5-0.1l0.4-1.2l-0.2-0.4
			l0.2-0.1l1-2.2l-0.5-2.9l-0.2-1.1l-0.4,0l-1.1-0.1l-0.3-0.3l-0.8,0l-0.4,0.1l-0.1,0l-0.2-0.1l-0.5,0.3l-0.1,0l-1,0.1l-0.4-0.7
			l-0.8,0.4l-1.2,0.1l0.2-1l-1,0.5l-1.5-2.2l0.3-0.8l-0.5-0.3l-0.1-0.1l-0.4-0.9h0l-0.7-1.2l-1.1-0.7l-0.4-1.5l-0.8-1.4l-1.1-0.4
			l-1.1,0l-0.5-0.3v0l-0.9-0.7l-1.2-0.8l0,0.6l0.1,0.8l-0.5,0.6l0.1,0.6l-0.6,0.5l0.9,0.7l-0.5,1l0,0.7l0.5,0.2l-0.3,1.1l-0.8-0.2
			l0.1-0.5l-1.1-0.7l-0.3-1.8l-0.9,0.4l-0.5-0.7l-0.7-0.5l-0.6,0.3l-0.6-0.4l-0.9,0.6l-0.1-0.1l-1.7,1.5l-0.7-1.3l-0.7-1.1l0-0.5
			l-1.8-1l-0.2-0.1l-0.8,0.2v0l-0.6-0.9l-0.9-0.3l-0.1-0.7l0.4-1.1l-0.5-0.6l0.6-0.5l0,0l0.6-1.1l1.1-1.3l-0.2-0.6l-0.1-0.8
			l-0.5-0.4l0.3-0.6l0,0l0,0l0.1-1.5l1.2-1l0.1-0.7l1.1,0.2v0l1.4,0.1l0.5,0.6l0.3,0l-0.4-1.4l0.6-0.5l0.6-0.4l0.3-1l-0.1-0.1
			l-0.5-0.2l-0.6-0.6l-1.1,0.3l-1.1-0.4h0l-1.1,0.3l-0.3-0.3l0.1-0.8l-1.2-0.5l-0.3-0.1l-1.2-0.1l-0.5,0.4l-0.6-1.2l0.7-0.1l0.2-1.2
			l-1.2-0.2l-0.5-1l-0.2-1l0.3-0.8l0.8-0.2l1.1-1l0.5,0.2l-0.6-1l0.2-0.4l0.1-2l0.3-1.1l1-1.2l-0.1-1l1.1-0.8l-0.1-0.6l1.5-1.8
			l-0.2-0.9l-0.3,0.2l-2.6-0.9l-0.6-0.2l-1.2-0.4l-0.2-0.7l-0.6,0.4l-0.8-0.3l-0.4,0.5l0,0.9l-0.5,0.4l-0.3,0.4l0.2,0.3l-1.4,1.1
			l-0.5,0.2l-0.2-0.4l-0.2-1.4l-0.3-0.3l0,0l-0.3-0.2l-0.5,0.3l-1.7-0.5l0.1-1.1l-0.4-0.8l1-0.1l0.7-0.5l0-1l-0.4,0.7l-1.4-1.4
			l0.4-0.9l0.3-0.7l0.5-0.1l0.7,1l0.6,0.1l0.3-1l0.7-0.2l0.5-0.7l0.7,0.1l-1-1.5l-1.3-0.2l-0.1,0.4l-0.6-0.6l-0.3,0l-0.1-1.2
			l-0.9-0.3l-0.1-1.3l0-0.7l0.5-0.2l0.2-0.8v0v0l0.1-0.5l-0.8-0.3l-0.5-0.3l-1.1,0.4l-0.3-0.6l-0.8,0l-0.3,0.8l-0.6,1.8l0.5,0.3
			l-0.3,0.7l0.4,1.1l-0.3,0.8l-1.5,1l-0.1,0.5l-0.5-0.3l-0.6-2.2l-0.6-0.9l-0.2,0.5l-0.5,0.8l-0.2,0l-0.2,0.7l-1.1,1.3l-0.8,0
			l-1.1,0.8l-0.2,0.2l-0.9,1.2l-0.9,0.7l-0.5-0.1l-1.5,1.5l-0.2,0l-1.4-0.3l-0.3-0.4l0-1.5l-1-1.4l0.8-0.3l0.7-0.8l0.4-1.2l0.5,0.2
			l-0.3-1.2l0.7-0.5l0.3-0.7l0.4-0.4l0.1-0.7l-0.7,0.8l-1.4,0.7l-0.5-0.2l0.4-0.5v0l1.7-0.8l-0.2-0.6l0.4-1.3l0.4-0.3l1.7-0.3
			l-0.2,0.7l0.8,0.6l-0.6,0.3l0.9,0l-0.1,0.4l1.2-0.2l0.5-0.6l-0.6-0.1l-0.2-1l0.8-0.9l-0.3-0.5v0l0.4-0.5l0.4-1.4l0.7,0l0.2-1.5
			l-0.8-0.6l-0.8-0.9l-0.5,0.5l-0.7-0.2l-0.3-1.2l-0.1,0.2l-0.2-0.1l-0.7,0.3l-0.5,0.2l-1.2,0l0-0.1h0l-0.4-0.2l-0.2-0.6l-0.6-0.6
			l0.3-0.5l-1,0.1l-0.6-0.4l1-1.4l0.6-0.7l0.1-0.1l0-0.3l-0.8-0.2l-0.1-0.2l-0.2-0.6l0.1-0.7l-0.3-0.9l-1.5-1l-0.5-1.1l0.1-0.8
			l-0.5-0.1l0.5-0.9l1.3-0.4l-0.2-0.7l0.7,0.5l0.4-0.7l1.2-0.9l-0.7-1.6l-0.6,0.2l-0.6-0.7l0.1-1.6l0.9,0.1l-0.3-0.5l-0.9,0.4
			l-0.5-0.6l0.4-0.2l0.8-0.3l0.6,0.4l1.3-2.2l0-1.6l2-1.3l-0.2-0.8l0.4-0.5l-1,0.2l0.1-0.4l-0.8,0l-0.9-1.1l-0.7,0.2l-1.2-0.9
			l-0.9-0.2l-0.1-0.6l-2.1,0l0.2-0.8l1.2-0.1l0.5,0.3l0.9-0.1l1.2-0.6l0.6,0.3l0.4-0.5l0.7,0.7l1.2,0.2l0.9-0.6l-0.1-1.2l0.6-0.1
			l2.1,0.1l0.1,1l1.5,0.6l0.2,0.7l1,0.4l0.6-0.3L126.5,340.9z"/>
		<path fill="none" stroke="#6E3589" stroke-width="0.75" d="M87.3,215.2l0.6-0.1l0.4,1l0.4,0l0.9,1.3l-4.1,3.1l0.1,1.4L89,223
			l0.2,3.5l1.5,4.4l0.6,0.9l-1.8,3.4l-0.8-0.2l0.1,0.9l0.4-0.5l1.4,0.3l1.1,0.6l0.8,0.2l0.2,0.8l-0.9,1.4l0.1,1l-0.8,0.7l0,0.6
			l2.5,0.1l3,1.6l-0.1,1.1l-0.3,2.6l-0.3,2l0.4,0.8l1-0.3l0.6,0.5l1.5,1.2l1.3-0.1l0.6,4.3l0.1,0.3l1.4-0.4l0.1,0.2l1.4-0.8l2.6,3.2
			l1.1-1.3l0.5-0.5l1.8,0.2l3.2,0.4l0.1,7.3l0,5h3.1l0.2,1l-9.2,7.4l-1.5,1.3l-0.3,0l-1.6,0l0.1-0.3l-0.4-0.8l-0.8,0.3l-0.2,0.8
			l-1.8,0.6l-0.3,1l0.4,2.1l-1,1.2l0.5,2l-0.6,0.1l-1.7-0.7l-1.5,0.8l-0.8,0.8l-1,0.1l-1,1.2l0,0.9l-1.5,0.5l-0.8-0.1l-2,1.1
			l-0.6,0.5l0.3,1.6l1.7-0.5l0.4,1l0.6,1.6l-0.1,1.5l-1.2,2.8l-0.2,2L93,302l0.6,0.1l0,0.8l1.1,0.8l0.6,2.2l-0.2-0.1l-0.5-0.2
			l-1.7,2.4l-0.9,0.4l-0.8-0.2l-3.1-0.3l-1.2,0.2l-0.5,1.2l-0.7,1.3l-0.9,2.5l0.3,1.4l0.6,2.7l-1.3-0.3l-2-0.1L81,318l1.4,0.8
			l-0.6,1.7l-2.6-0.4l0.2-1.1l-1.2-0.3l-0.6,1.1l-0.5,0l-0.9-0.1l0.2,1.7l0.8-0.1l-0.2,0.8l-3.1-0.7l-0.1-0.5l0.6-3.5l-1.3-1.2
			l0.5-2.5l0.7,0.4l-0.2-1.3l-0.5,0l0.3-1.5l0.7-1l-0.9-1.4l-0.2-1.3l-0.6-0.4l-0.5-0.6l0.2-1.1l-0.5-0.7l0.5-2.4l0.4-1l-0.3-1.1
			l0.5-0.5l-2-0.8l0.4-0.1l0.2-1.1l-1,0l0.7-2.8l-0.1-1.2l-2.3-2.1l-0.7,0.7l-1.2-2.2l-0.1-0.9l0.2-3.6l-0.6-1.9l2.1-1.9l-2-1.8
			l0.4-3.6l0-0.3l2-1.6l2.5-0.4l3.1,0.7l2.3,0.9l0.1-0.8l1.3,0.4l0.7-0.3l-0.7-0.8l0.4-0.4l-0.2-0.9l-1.5-0.8l-1.9,0.3l-1.2-0.3
			l0.4-1.7l-1.5-0.6l-0.2-0.7l-1.1-0.2l0.1-0.5l-0.6-0.4l1.7,0l-0.2-0.4l-1.2-0.3l-0.8-0.6l-1.2,0.1l-0.8-1.6l-1.1-0.1l-0.5-2
			L66,261l0.8-2.3l-0.3-0.7l-1.5-0.3l-0.2-2.8l-0.6-0.3l-0.7-1.1l-1.5-0.9l-0.6-0.7l-0.6-1.5l-2.1-2.5l4.7-4.1l4.8-4.4l1.2,2.6
			l0.1,0.2l1.6-1.7l0.1-0.6l0.4-1.1l1.1-1.1l-0.3-1.2l0.2-0.5l-0.1-2.3l0.1-1.6l-2.4-0.7l-0.9-0.8l-0.6,0.7l-0.5-0.1l-1.1,0.8
			l-0.7-0.7l-0.1-2.9l3.3-3.3l5.3-1.4l0,0l0.1,0l1.4-6.9l1.4-1.1l2-1.6l4,4.4l1.4-1.4L87.3,215.2z"/>
		<path fill="none" stroke="#6E3589" stroke-width="0.75" d="M65.6,179.1l1.8,0.9l0.6,1.3l-0.2,0.4l1.4,1.3l0.5,0.2l0.4,0.9l0.4,3.2
			l1,0.9L72,190l0.5,0l0.3,1.6l0.5,0.4l0.2,2l1,0.4l0,0.8l1,0.6l-0.2,0.7l0.4,1l1.1,0.4l-0.7,0.5l0.7,1.2l-0.3,0.7l1.3,2.2l-0.1,0.9
			l0.7,0.9l0.8,0.2l0.2,0.9l2.5,1l0.7,1.4l0.8,0.7l0.6,1.6l1.2,0.3l-0.1,0.8l0.9,1.2l-0.2,0.8l0.4,0.3l0.1,1.1l0.7,0.7l-1.9,2.3
			l-1.4,1.4l-4-4.4l-2,1.6l-1.4,1.1l-1.4,6.9l-0.1,0l0,0l-5.3,1.4l-3.3,3.3l0.1,2.9l0.7,0.7l1.1-0.8l0.5,0.1l0.6-0.7l0.9,0.8
			l2.4,0.7l-0.1,1.6l0.1,2.3l-0.2,0.5l0.3,1.2l-1.1,1.1l-0.4,1.1l-0.1,0.6l-1.6,1.7l-0.1-0.2l-1.2-2.6l-4.8,4.4l-4.7,4.1l2.1,2.5
			l0.6,1.5l0.6,0.7l1.5,0.9l0.7,1.1l0.6,0.3l0.2,2.8l1.5,0.3l0.3,0.7L66,261l1.2,2.2l0.5,2l1.1,0.1l0.8,1.6l1.2-0.1l0.8,0.6l1.2,0.3
			l0.2,0.4l-1.7,0l0.6,0.4l-0.1,0.5l1.1,0.2l0.2,0.7l1.5,0.6l-0.4,1.7l1.2,0.3l1.9-0.3l1.5,0.8l0.2,0.9l-0.4,0.4l0.7,0.8l-0.7,0.3
			l-1.3-0.4l-0.1,0.8l-2.3-0.9l-3.1-0.7l-2.5,0.4l-2,1.6l0,0.3l-0.4,3.6l2,1.8l-2.1,1.9l0.6,1.9l-0.2,3.6l0.1,0.9l-1,0l-1.1-0.7
			l-1.2,1l-2.5-1.1l-1-0.7l-0.8-1.3l-0.8-1.9l-2.9-1.1l-1.3,0.6l-1,1l-0.3,0.2l-2.8-0.4l-0.1,0l-0.5-0.1l-0.4-1l0.7,0.3l0.2-1.1
			l-1.2-0.6l-0.6,0.5l-1.8-0.8l-1.2-2.2l-0.4-1.1l-4.9-1.2l-3.3-1.1l-1.2-0.2l-3.5,0.2l0.2,1.6l0.2,1.1l-4.7-1.5l-3.8,6.8l-0.1,0.7
			l-0.6-0.2l-0.8-0.7l-1.4-0.4l-2.3-0.7l-3.4-3.2L16,280l-0.6-0.6l0.3-0.9l-2-1.2l-0.8-1.6l-0.7-0.5l-1.5-1.8l0.2-0.8l0.7-1.5
			l1.2-0.5l1.5,0.6l-0.1-0.9l-0.6-0.1l-2.2-2.4l-0.4-0.5l0.8-0.5l0.6-1.5l0.9-0.4l0.6-1.2l0.3-0.8l0.3-2.3l-0.5-1.2l-0.1-6.2
			l1.9-3.3l-1.2-1.8l-1.2-5.6l-0.9-0.3l-4.6-1.8l-0.5-0.6l-0.9-0.1l-1.1-2.4l-0.5-0.2l-1.5-1.4l0-0.9l1.4-1.1l0.1-0.7l0.7-0.3
			l-0.2-1.4l-0.6-0.2l-0.3-0.8l0-2.1L4,227.6l-0.3-1.3L2.8,226l0.5-5.6l-0.1-0.5l-0.5-0.7l-0.3-1.3l0.3-2l-1.1-1.4l0.7-0.7l-1.2-0.2
			l0.4-2.2l1,0.3l0.3-1l-1-0.3L3,207l2.1-4.5l0.8-1.3l1.8-3.8l0-0.8l0.1-0.2l0.9-2l0.8,0.7l0.9-1.3l2.2-4.2l0.1-0.7l1-1.2l1.1-2
			l0.6,0.7l1.1-0.4l1.6,0.5l0.8-0.3l0.3-1.8l0.4-0.7l0.8-0.2l0.9-1.9l1.7-0.4l1-0.8l-0.1-0.4l-0.7-0.3l0.5-2.4l0.8-0.1l0.3-1l-0.1-1
			l0.6-1l-0.2-0.8l1.4-1.8l0.1-1.1l0.9-0.8l0-1.1l1.4-0.3l1.2-0.8l0.3,0.6l0.7-1l1.7,0.2l1,0.4l-0.1-0.5L35,165l0.8-0.2l0.8,0.6
			l1.3,0.4l0.2-0.3l0.9,1.1l2,0.4l1.4-0.7l0.5,0.5l1.5,0.1l0.7-0.3l0.8,0.5l0.8-0.1l1.4,0.7l1-0.2l1.8,0l0.6-1l0.1,1.2l0.8-0.1
			l0.9-0.6l0.2,0.9l1.1-0.3l-0.4,0.5l0.9,1.1l0.4,1.3l1.1-0.1l-0.2,1l0.3,0.9l0.4-1.1l0.6-0.2l0.2,1.4l-0.3,1.1l1.5,0.1l0.7,0.9
			l1.9,0.3l0.1,0.6l1.1,1.8l1.1,0.4l1.3,1L65.6,179.1z"/>
		<path fill="none" stroke="#6E3589" stroke-width="0.75" d="M94.6,226.9l1.1,0.5l0.3,1.7l-0.3,0.6l0.2,1.4l-0.5,0.7l0.2,1l0.6,0
			l0.8,0.9l0,1l1.2,0.6l-0.2,0.6l1.3,0.9l0.5,1.3l0.1,1l0.7,0.5l0.2,1.6l0.4,0.8l0.2,1.4l0,0.5l0.8,0.3l0.8,1.2l-0.5,1l0.4,0.5
			l0.3,0.4l0.9-0.4l0.6,0.5l0.7-0.2l0.6,0.7l0.4-0.6l0.6,1l2-0.3l0.6,1l2,1.8l0.3,0.3l1.7-0.5l0.4,0.7l0.9,0.2l0.4,0.3l0.8-0.4
			l1.6,1.6l1-0.2l0,0.6l1.8,1.5l1.2,0.4l0.3-0.5l0.5,0.4l1.7-0.3l0.1,0.7l0.8-0.6l1.1-0.1l0.3,0.4l1.2-0.1l0.1-0.1l0.9,0.2l1.2-0.2
			l0.5,0.7l1.5-0.2l1.5,0.4l0.1,0.8l1,1.2l0.8,0.1l0.5,1.1l1.3,0l0.1,0.7l1.7,0.3l0.3-1.1l-0.3-0.4l0.6-0.6l1.5-0.1l-0.3-0.4
			l0.9,0.2l0.8-0.4l1.3,0.2l-0.1,3l-0.5,2.8l-0.6,1.7l-2.7,4.9l-2.5,4.9L136,279l-1,3l-1.9,7.2l-0.6,2.8l-0.5,3.1l-0.4,5l-0.3,4
			l0,3.6l-0.1,2.9l-0.6,6.6l0,2.4l0.2,6.2l-0.1,2.4l-0.5,2.3l-1.1,2.7l-0.4,2.8l0,1.6l0.8,3.4l0.7,1.4l-1.1,0.7l-0.3,0.5l-0.9-0.3
			l-0.8-0.8l-0.4-0.8l-0.9-0.1l0.6-0.8l-1.2-0.6l-0.6,0.3l-1-0.4l-0.2-0.7l-1.5-0.6l-0.1-1l-2.1-0.1l-0.6,0.1l0.1,1.2l-0.9,0.6
			l-1.2-0.2l-0.7-0.7l-0.4,0.5l-0.6-0.3l-1.2,0.6l-0.9,0.1l-0.5-0.3l-1.2,0.1l-1.6,0.6l-0.1,0.3l-1.5,0.3l-1.9-0.4h-0.2l-0.3-0.5
			l-2.7-0.5l-1.1,0.2l-2.5-0.1l-0.7-1.3l-0.2-1l-0.7-1.7l-0.5-1.1l-0.9,0.1l-0.3-0.9l-1.2,0.1l-0.7-1.8l-1.4-0.1l0.1,0.3l0.9,2.5
			l-0.4,0.1l-1-0.6l-2.6-0.9l-0.9,0.5l-1.2-0.2l-0.5,0.2l-0.9-0.5l0.1-1.2l-0.9-0.4l-1.5-0.1l-1.4,0.6l-1.7-0.8l1.5-1.4l-0.3-2.1
			l-1.4,0l0-1.3l0.5,0.2l-0.2-0.9l0.5,0.3l0.2-0.8l0.9-0.6l-1-0.8l0-0.6l-1-0.1l-0.1-1.7l0.3-0.7l0.6-1.7L81,318l1.4-1.3l2,0.1
			l1.3,0.3l-0.6-2.7l-0.3-1.4l0.9-2.5l0.7-1.3l0.5-1.2l1.2-0.2l3.1,0.3l0.8,0.2l0.9-0.4l1.7-2.4l0.5,0.2l0.2,0.1l-0.6-2.2l-1.1-0.8
			l0-0.8L93,302l-1.8-1.8l0.2-2l1.2-2.8l0.1-1.5l-0.6-1.6l-0.4-1l-1.7,0.5l-0.3-1.6l0.6-0.5l2-1.1l0.8,0.1l1.5-0.5l0-0.9l1-1.2
			l1-0.1l0.8-0.8l1.5-0.8l1.7,0.7l0.6-0.1l-0.5-2l1-1.2l-0.4-2.1l0.3-1l1.8-0.6l0.2-0.8l0.8-0.3l0.4,0.8l-0.1,0.3l1.6,0l0.3,0
			l1.5-1.3l9.2-7.4l-0.2-1h-3.1l0-5l-0.1-7.3l-3.2-0.4l-1.8-0.2l-0.5,0.5l-1.1,1.3l-2.6-3.2l-1.4,0.8l-0.1-0.2l-1.4,0.4l-0.1-0.3
			l-0.6-4.3l-1.3,0.1l-1.5-1.2l-0.6-0.5l-1,0.3l-0.4-0.8l0.3-2l0.3-2.6l0.1-1.1l-3-1.6l-2.5-0.1l0-0.6l0.8-0.7l-0.1-1l0.9-1.4
			l-0.2-0.8l-0.8-0.2l-1.1-0.6l-1.4-0.3l-0.4,0.5l-0.1-0.9l0.8,0.2l1.8-3.4l-0.6-0.9l-1.5-4.4L89,223l-3.3-1.3l-0.1-1.4l4.1-3.1
			l0.4,0.5l1,0l0.5,0.7l0.8-0.4l0.9,0.6l0.9,1.1l-0.4,1.6l1,0.5l-0.4,0.9l0.2,0.6l-0.3,1.7l-0.7,0.6l0.9,0.3L94.6,226.9z"/>
		<path fill="none" stroke="#6E3589" stroke-width="0.75" d="M338.2,358.1l2.6,0.9l4.3,0.9l0,11l-0.9,1.7l-3.5,6.1l-4.1,4.1
			l-0.5,0.5l-0.7,0l0,0.5l-1.5,1.7l-1.5,1.5l-2-0.2l-0.7,0l-0.9,0.8l-2.1,0l-2.3,1.3l0.4,0l-0.1,1l-1.4-0.1l-0.9,0.4l-1.5,0.9
			l-0.2,1.8l-1.7,0.1l-1,2.9l-1,0l-0.4,0.4l-0.2,1.3l-0.7,0.2l-0.2-0.6l-1.4,0.9l-0.5,1.2l1.1-0.1l0,0.5l-0.7-0.1l-0.1,0.7l-0.8-0.4
			l-1-0.2l-0.2,2l0.5,0l0,0.7l-0.8,0l0.1-1.2l-1.6,0l0.1,0.6l-1.6,1.3l-2.4-2.2L305,400l-0.4,0l-0.5-0.9l0.3-0.6l-1-0.1l-1.3-2.2
			l0-1l-0.4-0.4l0.1-1.3l-3.1-4l-0.9,1l-0.2-1.5l-0.9-0.2l0.1-0.9l-0.7,0l0.1-0.8l0.7,0l-1.3-1.7l-2.1-2.7l-0.9,0.6l-0.4,0.8
			l-1.3-0.3l-1.2,0.1l0-0.5l-1-0.2l0.2-1.1l-0.2-0.6l-2.1,0.1l-1.1-0.3l0.1-4.3v-0.1l0.1-2.2l-0.5,0l0.9-2.7l0.8-1.2l2.6-1.6
			l2.2-1.4l2.3-0.6l1.2-0.8l1.3-0.6l4.2-1l0-0.3v0v0l0.6,0.3l3.2-0.6l0.7-0.1l2.7-0.4l2-0.2l1.4-0.2l1.9-0.3l2-0.3l2.4-0.3l1.2-0.5
			l1.3-0.3l0.9-0.5l1.9-1.7l2.1-0.4l2.6-0.6l1.2,0.4l1.6-0.3l1.1-0.9l1.2-0.5l1.2,0.2l2.3,0.1L338.2,358.1z M299.1,334.7l1.2,0.3
			l1.8,2l-0.1,1.9l-0.9,1.1l-2.2-1.6l0.7,0.1l-1.1-0.9l-0.2-0.7l0.7,0.1l0.4-0.7l-0.9-1.4L299.1,334.7z"/>
		<path fill="none" stroke="#6E3589" stroke-width="0.75" d="M285.5,376.6L285.5,376.6l-0.1,4.3l1.1,0.3l2.1-0.1l0.2,0.6l-0.2,1.1
			l1,0.2l0,0.5l1.2-0.1l1.3,0.3l0.4-0.8l0.9-0.6l2.1,2.7l1.3,1.7l-0.7,0l-0.1,0.8l0.7,0l-0.1,0.9l0.9,0.2l0.2,1.5l0.9-1l3.1,4
			l-0.1,1.3l0.4,0.4l0,1l1.3,2.2l1,0.1l-0.3,0.6l0.5,0.9l0.4,0l0.7,1.1l2.4,2.2l3.1,2.8l0,3.2v3.3l0.2,0l-0.2,3l0,2.6l0.1,2.7
			l-0.2,0.5l0,6.3l0.5,0l0.1,1.4l-0.4,0l0.1,2h-0.4l-0.1,1.6l0.3-0.1l0,1.7l-1.2,0l0,1.4l1.2,0l-0.4,0.5l0,0.9l-0.9-0.1l0,1.5l1.1,0
			v0.3l0,2.7l-7.1,0l-15.8,0l-2.4,0.1l-4.7-0.1l-8.4,0l0-3.2l-2.8,0l-0.5-0.3l-1.5,0l-2.3-1.9l-1.2,0l-1.1-0.4l-1.7-1l0-0.9
			l-0.4,0.5l-0.8,0.1l-0.8,1l-0.2,3.4l0.2,0.7l-0.5,0.9l-0.7-0.5L257,439l-0.7-0.2l-0.7-0.6l-1.3-0.2l-0.9-0.7l-1.2,0l-0.3-0.6
			l-0.7-0.2l-0.6-1l-1.4,0.1l-1.1-1.4l0.2-1.2l-0.6-1.3l0.2-1.5l-0.1-2.6l-3.3,0l-0.6,0l-1.1-0.6l-0.2-1.5l-0.8-1.3l-0.1-0.8
			l1.7-0.3l3.8-0.3l4.5-0.4l0.7,0l1,1.4l1.1,0.5l0.3-1.1l2.1-0.4l2.1-1.2l2.9-1.3l1.9-2l2.3-1.4l2.3-1.1l1.5-0.9l0.7-0.7l1.8-1.2
			l2-1.4l2.9-2.6l0.8-1.3l-0.1-0.9l0.5-1.8l-0.2-1.7l0.5-1.5l-0.4-0.4l0.3-0.9l0.7-1.5l0.8-0.8l2.4-1.6l1.3-2.1l0,0l0,0l-0.5-0.7
			l0.2-0.5l-0.6-1l0.2-0.8l-0.2-1l0.1-1.5l-0.1-0.1l0-2.6l0.1-0.9l-0.4-2.8l1.1-3l-0.1-1.5l0.9-1.3l-0.1-1.2l0.2-0.8l0.5,0
			L285.5,376.6z"/>
		<path fill="none" stroke="#6E3589" stroke-width="0.75" d="M348.7,429.1l-0.4,0.2l1.2-1.8L348.7,429.1z M350.6,421.3l0.6,1.2
			l0,0.9L350.6,421.3z M361.9,380.7l-0.7,1.3l-1.1,1.5l-0.3,0l-1.4,2.1l-1.9,1.6l-0.7-1.5l0.1-1.6l1.9-3.1l0.6-0.3l0.6,0.6l1.1-0.1
			l1.9-1.1L361.9,380.7z M360.4,366.2l0,1.2l1.3,0.5l-0.8,1.7l-0.9,1.3l-0.5,2.2l-0.6,1.2l-0.9,0.9l-1,1.4l0,0.4l-0.9,0.6l-0.3,0.7
			l-2.1,2.2l-0.1,0.1l-2.5,1.9l-1.2,1.7l-1,2l-0.1,0.3l-1.4,1.9l-1,2.8l-0.1,1.3l0.3,1.8l0.7,1.1l-0.8-0.6l0.4,1.4l-0.9,1.5
			l-1.6,0.4l-1.3,2.2l-2.1,0.6l0.1,1.8l0.7,0.8l0.5-0.3l0.1,1.4l0.4-0.1l0.8-1.1l1.4-0.3l0.5,0.6l0.7-0.7l-0.3-0.4l1.2-0.2l0.1-0.8
			l0.8,0.7l-0.6,2.9l-1.2,0.8l-0.6,0.8l-0.7-0.7l-1.7,1.2l-0.3,0.8l-0.2,1.8l-0.5,0.6l0.1,0.7l1.1,0.5l0.5-1l1.3-1.6l0.8-0.4
			l1.2,0.2l-2,2.5l-0.2,2.5l-0.3,0.5l-1.4,3.2l-0.3,1.5l-0.4,0.6l-0.2,1.7l-0.8,1l-0.3,0.8l-0.3,2.7l-0.5,1.1l0,1.7l-1.2,1.9
			l-0.3,0.8l-0.2,2.3l-0.5,0.1l-0.7,1l-0.5-0.4l-2.2,0v-5.6l-4.6,0l0-1.3l-1.6-0.4l-1.3,0.2l-0.3-0.3l-0.9,0.3l-0.7-0.3l-0.9,0.7
			l-0.5,2.3l-1.3,1.5l0,1.1l-2,1.3l0.2,0.6l-0.6,1l0,1.1l-1.1,0.7l-0.3,1.1l-2.1,1.8l-1-0.8l-0.3-0.6l-0.8,0.1l-0.9-0.9l-1,0.1
			l-1.2,0.5l-0.4,0.7v-0.3l-1.1,0l0-1.5l0.9,0.1l0-0.9l0.4-0.5l-1.2,0l0-1.4l1.2,0l0-1.7l-0.3,0.1l0.1-1.6h0.4l-0.1-2l0.4,0
			l-0.1-1.4l-0.5,0l0-6.3l0.2-0.5l-0.1-2.7l0-2.6l0.2-3l-0.2,0v-3.3l0-3.2l-3.1-2.8l1.6-1.3l-0.1-0.6l1.6,0l-0.1,1.2l0.8,0l0-0.7
			l-0.5,0l0.2-2l1,0.2l0.8,0.4l0.1-0.7l0.7,0.1l0-0.5l-1.1,0.1l0.5-1.2l1.4-0.9l0.2,0.6l0.7-0.2l0.2-1.3l0.4-0.4l1,0l1-2.9l1.7-0.1
			l0.2-1.8l1.5-0.9l0.9-0.4l1.4,0.1l0.1-1l-0.4,0l2.3-1.3l2.1,0l0.9-0.8l0.7,0l2,0.2l1.5-1.5l1.5-1.7l0-0.5l0.7,0l0.5-0.5l4.1-4.1
			l3.5-6.1l0.9-1.7l0-11l1,0.2l0.4,0.6l0.6-0.3l1.7,0.5l2.7,0.3l2.3-0.9l0.2-1.7l-0.5-0.2l0.9-0.8l0.4,0.4l1.9,0.5l0.5,1.3l1.4,1.9
			l0.8,3.4l0.4,0l0.2-1.4l0.5-0.4l0-0.8l-0.6-1.2l0.5,0.3l0.1,1.4l-0.5,1.6L360.4,366.2z M354,357.6l-0.6,0.7l-1.2,0.7l-1.1,0.2
			l-1.5-0.1l-0.2-0.5l-1.5,0.8l1.3-1.2l1.3,0.6l1.3-0.1l1.3-0.5l0.6-0.6L354,357.6z"/>
	</g>
</g>
<g id="Capa_3">
	<g>
	</g>
	<g>
	</g>
	<g>
		<path fill="#FFFFFF" stroke="#6E3589" stroke-width="3" d="M102.4,338.1v24.6c26.1,0,47.2,21.1,47.2,47.2
			c0,26.1-21.1,47.2-47.2,47.2c-7.1,0-13.9-1.6-20-4.4L72.1,475c10.4,4.8,18.9,6.7,30.3,6.7c39.7,0,71.8-32.1,71.8-71.8
			C174.2,370.3,142.1,338.1,102.4,338.1z"/>
		<path fill="#FFFFFF" stroke="#6E3589" stroke-width="3" d="M55.2,409.9c0-26.1,21.1-47.2,47.2-47.2v-24.6
			c-28.2,0-53.2,15.9-65.1,41.5c-16.8,35.9-1.2,78.7,34.7,95.4l10.4-22.3C66.4,445.2,55.2,428.9,55.2,409.9z"/>
	</g>
</g>
<g id="Capa_4">
	<text transform="matrix(1 0 0 1 187.7151 417.0906)" fill="#6E3589" font-family="'Bitter-SemiBold'" font-size="34.9879px" font-weight="600">57.20%</text>
	<text transform="matrix(1 0 0 1 -105.8578 417.0912)" fill="#6E3589" font-family="'Bitter-SemiBold'" font-size="34.9879px" font-weight="600">42.80%</text>
	<text transform="matrix(1 0 0 1 -80.6458 435.0912)" fill="#6E3589" font-family="'Bitter-Regular'" font-size="12px">HOMBRES</text>
	<text transform="matrix(1 0 0 1 214.3389 435.0912)" fill="#6E3589" font-family="'Bitter-Regular'" font-size="12px">MUJERES</text>
	<text transform="matrix(1 0 0 1 149.7177 128.7286)" fill="#6E3589" font-family="'Bitter-SemiBold'" font-size="34.9879px" font-weight="600">1,491,619</text>
	<g>
		<path fill="#6E3589" d="M94.9,268.6c-0.2-1.4-0.3-2.7-0.5-4c-0.2-1.3-0.3-2.5-0.3-3.4c0-3,0.7-5.6,2-7.8c1.4-2.2,3.1-4,5.1-5.7
			c2-1.6,4-3.3,6-4.8c2-1.6,3.7-3.3,5-5.1c1.4-1.8,2-4,2-6.5c0-3-1.1-5.2-3.2-6.6c-2.2-1.4-4.9-2.1-8.3-2.1c-2.2,0-4.7,0.3-7.4,0.8
			c-2.7,0.6-5.4,1.3-8,2.3l-3.1-9.5c7.7-3.1,15.2-4.7,22.6-4.7c4.1,0,7.9,0.6,11.3,1.7c3.4,1.2,6,3,8,5.6c2,2.6,3,5.9,3,10.1
			c0,3.8-0.8,7-2.3,9.6c-1.6,2.7-3.5,5-5.8,7c-2.3,2-4.6,3.9-6.9,5.7c-2.3,1.8-4.2,3.7-5.8,5.7c-1.6,2-2.3,4.4-2.3,7.1
			c0,0.5,0,1.1,0.1,1.9c0,0.8,0.1,1.5,0.2,2.1L94.9,268.6z M93.4,290.2c0-2.6,0.9-4.6,2.6-6.2c1.7-1.6,3.8-2.3,6.2-2.3
			c2.5,0,4.5,0.8,6,2.3c1.5,1.5,2.3,3.5,2.3,6c0,2.6-0.9,4.6-2.6,6.1c-1.7,1.5-3.8,2.3-6.2,2.3c-2.4,0-4.4-0.7-5.9-2.2
			C94.2,294.7,93.4,292.7,93.4,290.2z"/>
	</g>
	<text transform="matrix(1 0 0 1 418.0089 120.8081)" fill="#6E3589" font-family="'Bitter-Light'" font-size="34.9879px">de</text>
	<rect x="153.4" y="212.3" fill="none" width="198.7" height="94.1"/>
	<text transform="matrix(1 0 0 1 153.3922 227.5585)" enable-background="new    "><tspan x="0" y="0" fill="#6E3589" font-family="'Bitter-SemiBold'" font-size="18px">SE DESCONOCE  </tspan><tspan x="0" y="21.6" fill="#6E3589" font-family="'Bitter-SemiBold'" font-size="18px">LA ORIENTACIN </tspan><tspan x="0" y="43.2" fill="#6E3589" font-family="'Bitter-SemiBold'" font-size="18px">SEXUAL E IDENTIDAD  </tspan><tspan x="0" y="64.8" fill="#6E3589" font-family="'Bitter-SemiBold'" font-size="18px">DE GNERO</tspan></text>
	<rect x="153.4" y="138.3" fill="none" width="194.2" height="49.7"/>
	<text transform="matrix(1 0 0 1 153.3923 148.497)" enable-background="new    "><tspan x="0" y="0" fill="#6E3589" font-family="'Bitter-Regular'" font-size="12px">PERSONAS ADULTAS MAYORES.</tspan><tspan x="0" y="14.4" fill="#6E3589" font-family="'Bitter-Regular'" font-size="12px">CIUDAD DE MXICO, 2020</tspan><tspan x="0" y="27" fill="#6E3589" font-family="'Bitter-Regular'" font-size="8px">INSTITUTO NACIONAL DE ESTADSTICA </tspan><tspan x="0" y="36.6" fill="#6E3589" font-family="'Bitter-Regular'" font-size="8px">Y GEOGRAFA (INEGI)</tspan></text>
	<path fill="#E30521" d="M39,364l-17.8-12.9c5.7-7.9,12.6-14.9,20.3-20.8l13.4,17.5C48.9,352.4,43.5,357.9,39,364z"/>
	<path fill="#63358B" d="M164.6,362.4c-4.6-6.1-10.1-11.4-16.3-15.9l12.9-17.8c7.9,5.7,14.9,12.6,20.9,20.3L164.6,362.4z"/>
	<path fill="#F29100" d="M56.3,346.7l-13-17.8c7.9-5.8,16.6-10.3,25.8-13.6l7.3,20.8C69.3,338.6,62.5,342.2,56.3,346.7z"/>
	<path fill="#3873B8" d="M146.8,345.5c-6.3-4.3-13.1-7.7-20.4-10.1l6.8-20.9c9.3,3,18.1,7.3,26.1,12.9L146.8,345.5z"/>
	<path fill="#FFD400" d="M78.1,335.5l-6.8-20.9c9.3-3,18.9-4.7,28.7-4.9l0.5,22C92.9,331.9,85.3,333.2,78.1,335.5z"/>
	<path fill="#13A438" d="M124.8,334.9c-7.2-2.2-14.8-3.2-22.4-3.2l-0.2,0v-22h0.1c9.8,0,19.5,1.4,28.8,4.2L124.8,334.9z"/>
</g>
</svg>
