<?xml version="1.0" encoding="utf-8"?>
<!-- Generator: Adobe Illustrator 19.0.0, SVG Export Plug-In . SVG Version: 6.00 Build 0)  -->
<svg version="1.1" xmlns="http://www.w3.org/2000/svg" xmlns:xlink="http://www.w3.org/1999/xlink" x="0px" y="0px"
	 viewBox="-18 495.9 559 227.9" enable-background="new -18 495.9 559 227.9" xml:space="preserve">
<g id="Capa_1">
	<rect id="XMLID_3_" x="304.8" y="678.1" fill="none" width="70.2" height="37.9"/>
	<text transform="matrix(1 0 0 1 343.2102 699.6917)" fill="#6E3589" font-family="'Bitter-SemiBold'" font-size="34.9879px">4</text>
	<text transform="matrix(1 0 0 1 370.7629 699.6917)" fill="#6E3589" font-family="'Bitter-Light'" font-size="34.9879px">de</text>
	<text transform="matrix(1 0 0 1 416.4166 699.6917)" fill="#6E3589" font-family="'Bitter-SemiBold'" font-size="34.9879px"> 10</text>
	<rect x="75.4" y="706.5" fill="none" width="382.5" height="15.2"/>
	<text transform="matrix(1 0 0 1 86.9095 716.139)" fill="#6E3589" font-family="'Bitter-Regular'" font-size="10.2048px">PERSONAS ADULTAS MAYORES EN SITUACIÓN DE POBREZA (MÉXICO, 2020)</text>
	<g>
		<circle fill="#F29100" cx="79.2" cy="516.5" r="13.4"/>
		<circle fill="#F29100" cx="119.8" cy="516.5" r="13.4"/>
		<circle fill="#F29100" cx="160.3" cy="516.5" r="13.4"/>
		<circle fill="#F29100" cx="200.9" cy="516.5" r="13.4"/>
		<circle fill="#F29100" cx="241.5" cy="516.5" r="13.4"/>
		<circle fill="#F29100" cx="282.1" cy="516.5" r="13.4"/>
		<circle fill="#6E3589" cx="322.7" cy="526.5" r="13.4"/>
		<circle fill="#6E3589" cx="363.3" cy="526.5" r="13.4"/>
		<circle fill="#6E3589" cx="403.9" cy="526.5" r="13.4"/>
		<circle fill="#6E3589" cx="444.5" cy="526.5" r="13.4"/>
	</g>
	<g>
		<circle fill="#F29100" cx="79.2" cy="557.3" r="13.4"/>
		<circle fill="#F29100" cx="119.8" cy="557.3" r="13.4"/>
		<circle fill="#F29100" cx="160.3" cy="557.3" r="13.4"/>
		<circle fill="#F29100" cx="200.9" cy="557.3" r="13.4"/>
		<circle fill="#F29100" cx="241.5" cy="557.3" r="13.4"/>
		<circle fill="#F29100" cx="282.1" cy="557.3" r="13.4"/>
		<circle fill="#6E3589" cx="322.7" cy="567.3" r="13.4"/>
		<circle fill="#6E3589" cx="363.3" cy="567.3" r="13.4"/>
		<circle fill="#6E3589" cx="403.9" cy="567.3" r="13.4"/>
		<circle fill="#6E3589" cx="444.5" cy="567.3" r="13.4"/>
	</g>
	<g>
		<circle fill="#F29100" cx="79.2" cy="598.1" r="13.4"/>
		<circle fill="#F29100" cx="119.8" cy="598.1" r="13.4"/>
		<circle fill="#F29100" cx="160.3" cy="598.1" r="13.4"/>
		<circle fill="#F29100" cx="200.9" cy="598.1" r="13.4"/>
		<circle fill="#F29100" cx="241.5" cy="598.1" r="13.4"/>
		<circle fill="#F29100" cx="282.1" cy="598.1" r="13.4"/>
		<circle fill="#6E3589" cx="322.7" cy="608.1" r="13.4"/>
		<circle fill="#6E3589" cx="363.3" cy="608.1" r="13.4"/>
		<circle fill="#6E3589" cx="403.9" cy="608.1" r="13.4"/>
		<circle fill="#6E3589" cx="444.5" cy="608.1" r="13.4"/>
	</g>
	<g>
		<circle fill="#F29100" cx="79.2" cy="638.9" r="13.4"/>
		<circle fill="#F29100" cx="119.8" cy="638.9" r="13.4"/>
		<circle fill="#F29100" cx="160.3" cy="638.9" r="13.4"/>
		<circle fill="#F29100" cx="200.9" cy="638.9" r="13.4"/>
		<circle fill="#F29100" cx="241.5" cy="638.9" r="13.4"/>
		<circle fill="#F29100" cx="282.1" cy="638.9" r="13.4"/>
		<circle fill="#6E3589" cx="322.7" cy="648.9" r="13.4"/>
		<circle fill="#6E3589" cx="363.3" cy="648.9" r="13.4"/>
		<circle fill="#6E3589" cx="403.9" cy="648.9" r="13.4"/>
		<circle fill="#6E3589" cx="444.5" cy="648.9" r="13.4"/>
	</g>
</g>
<g id="Capa_2" display="none">
	<circle display="inline" fill="#FFFFFF" cx="79.2" cy="516.5" r="8"/>
	<circle display="inline" fill="#FFFFFF" cx="119.8" cy="516.5" r="8"/>
	<circle display="inline" fill="#FFFFFF" cx="160.3" cy="516.5" r="8"/>
	<circle display="inline" fill="#FFFFFF" cx="200.9" cy="516.5" r="8"/>
	<circle display="inline" fill="#FFFFFF" cx="241.5" cy="516.5" r="8"/>
	<circle display="inline" fill="#FFFFFF" cx="282.1" cy="516.5" r="8"/>
	<circle display="inline" fill="#FFFFFF" cx="322.7" cy="516.5" r="8"/>
	<circle display="inline" fill="#FFFFFF" cx="363.3" cy="516.5" r="8"/>
	<circle display="inline" fill="#FFFFFF" cx="403.9" cy="516.5" r="8"/>
	<circle display="inline" fill="#FFFFFF" cx="444.5" cy="516.5" r="8"/>
	
		<line display="inline" fill="none" stroke="#6E3589" stroke-width="4" stroke-miterlimit="10" x1="65.1" y1="540.6" x2="457.1" y2="540.6"/>
</g>
</svg>
