<?xml version="1.0" encoding="utf-8"?>
<!-- Generator: Adobe Illustrator 19.0.0, SVG Export Plug-In . SVG Version: 6.00 Build 0)  -->
<svg version="1.1" id="Capa_1" xmlns="http://www.w3.org/2000/svg" xmlns:xlink="http://www.w3.org/1999/xlink" x="0px" y="0px"
	 viewBox="0 0 559 184" enable-background="new 0 0 559 184" xml:space="preserve">

<g id="XMLID_20_">
	
		<circle id="XMLID_32_" fill="none" stroke="#F29100" stroke-width="11" stroke-linecap="round" stroke-linejoin="round" stroke-miterlimit="10" cx="183.2" cy="81.9" r="41.9"/>

		<circle id="mujerespiebase" fill="none" stroke="#F29100" stroke-width="11" stroke-linecap="round" stroke-linejoin="round" stroke-miterlimit="10" cx="183.2" cy="81.9" r="28.7"/>

		<circle id="mujerespie" fill="none" stroke="#6E3589" stroke-width="11" stroke-linecap="butt" stroke-linejoin="butt" stroke-miterlimit="10" cx="183.2" cy="81.9" r="28.7"/>
	
		<line id="XMLID_30_" fill="none" stroke="#F29100" stroke-width="11" stroke-linecap="round" stroke-linejoin="round" stroke-miterlimit="10" x1="153.6" y1="52.2" x2="114.4" y2="12.8"/>
	
		<line id="XMLID_28_" fill="none" stroke="#F29100" stroke-width="11" stroke-linecap="round" stroke-linejoin="round" stroke-miterlimit="10" x1="183.2" y1="123.7" x2="183.2" y2="171.8"/>
	
		<polyline id="XMLID_27_" fill="none" stroke="#F29100" stroke-width="11" stroke-linecap="round" stroke-linejoin="round" stroke-miterlimit="10" points="
		114.4,38.3 114.4,12.8 139.8,12.8 	"/>
	
		<line id="XMLID_25_" fill="none" stroke="#F29100" stroke-width="11" stroke-linecap="round" stroke-linejoin="round" stroke-miterlimit="10" x1="195.9" y1="154.9" x2="170.5" y2="154.9"/>
	
		<line id="XMLID_24_" fill="none" stroke="#F29100" stroke-width="11" stroke-linecap="round" stroke-linejoin="round" stroke-miterlimit="10" x1="153" y1="26.1" x2="127.1" y2="52.1"/>
</g>
<g id="XMLID_21_">
	
		<circle id="XMLID_42_" fill="none" stroke="#F29100" stroke-width="11" stroke-linecap="round" stroke-linejoin="round" stroke-miterlimit="10" cx="367.1" cy="81.9" r="41.9"/>

		<circle id="hombrespiebase" fill="none" stroke="#F29100" stroke-width="11" stroke-linecap="round" stroke-linejoin="round" stroke-miterlimit="10" cx="367.1" cy="81.9" r="28.7"/>

		<circle id="hombrespie" fill="none" stroke="#6E3589" stroke-width="11" stroke-linecap="butt" stroke-linejoin="butt" stroke-miterlimit="10" cx="367.1" cy="81.9" r="28.7"  />
	
		<line id="XMLID_40_" fill="none" stroke="#F29100" stroke-width="11" stroke-linecap="round" stroke-linejoin="round" stroke-miterlimit="10" x1="337.6" y1="52.2" x2="298.3" y2="12.8"/>
	
		<line id="XMLID_39_" fill="none" stroke="#F29100" stroke-width="11" stroke-linecap="round" stroke-linejoin="round" stroke-miterlimit="10" x1="396.7" y1="52.2" x2="436" y2="12.8"/>
	
		<polyline id="XMLID_37_" fill="none" stroke="#F29100" stroke-width="11" stroke-linecap="round" stroke-linejoin="round" stroke-miterlimit="10" points="
		298.3,38.3 298.3,12.8 323.7,12.8 	"/>
	
		<polyline id="XMLID_36_" fill="none" stroke="#F29100" stroke-width="11" stroke-linecap="round" stroke-linejoin="round" stroke-miterlimit="10" points="
		410.6,12.8 436,12.8 436,38.3 	"/>
	
		<line id="XMLID_34_" fill="none" stroke="#F29100" stroke-width="11" stroke-linecap="round" stroke-linejoin="round" stroke-miterlimit="10" x1="337" y1="26.1" x2="311" y2="52.1"/>
</g>
<rect id="XMLID_19_" x="3.1" y="58.5" fill="none" width="96.3" height="52"/>
<text id="mujeresp" transform="matrix(1 0 0 1 3.0765 99.1285)" fill="#6E3589" font-family="'Bitter-SemiBold'" font-size="48px">70%</text>
<g id="mujerest">
	<rect id="XMLID_54_" x="3.1" y="108" fill="none" width="106.4" height="56.5"/>
	<text id="XMLID_53_" transform="matrix(1 0 0 1 3.0765 125.7295)"><tspan x="0" y="0" fill="#6E3589" font-family="'Bitter-SemiBold'" font-size="21px">MUJERES </tspan><tspan x="0" y="25.2" fill="#6E3589" font-family="'Bitter-SemiBold'" font-size="21px">TRANS</tspan></text>
</g>
<rect id="XMLID_18_" x="448.1" y="108" fill="none" width="106.4" height="56.5"/>
<text id="hombrrest" transform="matrix(1 0 0 1 448.0765 125.7295)"><tspan x="0" y="0" fill="#6E3589" font-family="'Bitter-SemiBold'" font-size="21px">HOMBRES </tspan><tspan x="0" y="25.2" fill="#6E3589" font-family="'Bitter-SemiBold'" font-size="21px">TRANS</tspan></text>
<rect id="XMLID_16_" x="442.9" y="58.5" fill="none" width="100.2" height="52"/>
<text id="hombresp" transform="matrix(1 0 0 1 442.9441 99.1287)" fill="#6E3589" font-family="'Bitter-SemiBold'" font-size="48px">60%</text>
</svg>
