<?xml version="1.0" encoding="utf-8"?>
<!-- Generator: Adobe Illustrator 19.0.0, SVG Export Plug-In . SVG Version: 6.00 Build 0)  -->
<svg version="1.1" id="Capa_1" xmlns="http://www.w3.org/2000/svg" xmlns:xlink="http://www.w3.org/1999/xlink" x="0px" y="0px"
	 viewBox="-403 499 559 245.8" enable-background="new -403 499 559 245.8" xml:space="preserve">
<text transform="matrix(1 0 0 1 -26.9386 704.8917)" fill="#6E3589" font-family="'Bitter-SemiBold'" font-size="34.9879px" font-weight="600">1</text>
<text transform="matrix(1 0 0 1 0.6141 704.8917)" fill="#6E3589" font-family="'Bitter-Light'" font-size="34.9879px">de</text>
<text transform="matrix(1 0 0 1 46.2678 704.8917)"><tspan x="0" y="0" fill="#6E3589" font-family="'Bitter-SemiBold'" font-size="34.9879px"> </tspan><tspan x="6.5" y="0" fill="#6E3589" font-family="'Bitter-SemiBold'" font-size="34.9879px" font-weight="600">2</tspan></text>
<rect x="-285.7" y="712" fill="none" width="357.3" height="40.7"/>
<text transform="matrix(1 0 0 1 -198.3885 720.6544)" enable-background="new    "><tspan x="0" y="0" fill="#6E3589" font-family="'Bitter-Regular'" font-size="10.2048px">PERSONAS LGBTi EN MÉXICO OCULTA SU ORIENTACIÓN  </tspan><tspan x="-18.3" y="12.2" fill="#6E3589" font-family="'Bitter-Regular'" font-size="10.2048px">SEXUAL E IDENTIDAD DE GÉNERO EN SU ESPACIO LABORAL</tspan></text>
<g>
	<circle fill="#F29100" cx="-141.8" cy="521.7" r="13.4"/>
	<circle fill="#6E3589" cx="-101.2" cy="531.7" r="13.4"/>
	<circle fill="#F29100" cx="-141.8" cy="562.5" r="13.4"/>
	<circle fill="#6E3589" cx="-101.2" cy="572.5" r="13.4"/>
	<circle fill="#F29100" cx="-141.8" cy="603.3" r="13.4"/>
	<circle fill="#6E3589" cx="-101.2" cy="613.3" r="13.4"/>
	<circle fill="#F29100" cx="-141.8" cy="644.1" r="13.4"/>
	<circle fill="#6E3589" cx="-101.2" cy="654.1" r="13.4"/>
</g>
<g>
	<circle fill="#F29100" cx="-60.6" cy="521.7" r="13.4"/>
	<circle fill="#6E3589" cx="-20" cy="531.7" r="13.4"/>
	<circle fill="#F29100" cx="-60.6" cy="562.5" r="13.4"/>
	<circle fill="#6E3589" cx="-20" cy="572.5" r="13.4"/>
	<circle fill="#F29100" cx="-60.6" cy="603.3" r="13.4"/>
	<circle fill="#6E3589" cx="-20" cy="613.3" r="13.4"/>
	<circle fill="#F29100" cx="-60.6" cy="644.1" r="13.4"/>
	<circle fill="#6E3589" cx="-20" cy="654.1" r="13.4"/>
</g>
<g>
	<circle fill="#F29100" cx="20.6" cy="521.7" r="13.4"/>
	<circle fill="#6E3589" cx="61.2" cy="531.7" r="13.4"/>
	<circle fill="#F29100" cx="20.6" cy="562.5" r="13.4"/>
	<circle fill="#6E3589" cx="61.2" cy="572.5" r="13.4"/>
	<circle fill="#F29100" cx="20.6" cy="603.3" r="13.4"/>
	<circle fill="#6E3589" cx="61.2" cy="613.3" r="13.4"/>
	<circle fill="#F29100" cx="20.6" cy="644.1" r="13.4"/>
	<circle fill="#6E3589" cx="61.2" cy="654.1" r="13.4"/>
</g>
<g>
	<circle fill="#F29100" cx="-304.1" cy="521.7" r="13.4"/>
	<circle fill="#6E3589" cx="-263.5" cy="531.7" r="13.4"/>
	<circle fill="#F29100" cx="-304.1" cy="562.5" r="13.4"/>
	<circle fill="#6E3589" cx="-263.5" cy="572.5" r="13.4"/>
	<circle fill="#F29100" cx="-304.1" cy="603.3" r="13.4"/>
	<circle fill="#6E3589" cx="-263.5" cy="613.3" r="13.4"/>
	<circle fill="#F29100" cx="-304.1" cy="644.1" r="13.4"/>
	<circle fill="#6E3589" cx="-263.5" cy="654.1" r="13.4"/>
</g>
<g>
	<circle fill="#F29100" cx="-223" cy="521.7" r="13.4"/>
	<circle fill="#6E3589" cx="-182.4" cy="531.7" r="13.4"/>
	<circle fill="#F29100" cx="-223" cy="562.5" r="13.4"/>
	<circle fill="#6E3589" cx="-182.4" cy="572.5" r="13.4"/>
	<circle fill="#F29100" cx="-223" cy="603.3" r="13.4"/>
	<circle fill="#6E3589" cx="-182.4" cy="613.3" r="13.4"/>
	<circle fill="#F29100" cx="-223" cy="644.1" r="13.4"/>
	<circle fill="#6E3589" cx="-182.4" cy="654.1" r="13.4"/>
</g>
</svg>
