<?xml version="1.0" encoding="utf-8"?>
<!-- Generator: Adobe Illustrator 19.0.0, SVG Export Plug-In . SVG Version: 6.00 Build 0)  -->
<svg version="1.1" id="Capa_1" xmlns="http://www.w3.org/2000/svg" xmlns:xlink="http://www.w3.org/1999/xlink" x="0px" y="0px"
	 viewBox="-403 465 559 160.9" enable-background="new -403 465 559 160.9" xml:space="preserve">
<rect id="XMLID_3_" x="-82.3" y="569.5" fill="none" width="70.2" height="37.9"/>
<text transform="matrix(1 0 0 1 -43.8898 591.1219)" fill="#6E3589" font-family="'Bitter-SemiBold'" font-size="34.9879px" font-weight="600" >1</text>
<text transform="matrix(1 0 0 1 -19.337 591.1219)" fill="#6E3589" font-family="'Bitter-Light'" font-size="34.9879px">de</text>
<text transform="matrix(1 0 0 1 29.3167 591.1219)" fill="#6E3589" font-family="'Bitter-SemiBold'" font-size="34.9879px" font-weight="600" > 4</text>
<rect x="-311.7" y="598.9" fill="none" width="382.5" height="15.2"/>
<text transform="matrix(1 0 0 1 -219.5925 607.5692)" fill="#6E3589" font-family="'Bitter-Regular'" font-size="10.2048px">PERSONAS QUE VIVEN CON VIH TUVIERON PROBLEMAS </text>
<text transform="matrix(1 0 0 1 -161.6925 619.7692)" fill="#6E3589" font-family="'Bitter-Regular'" font-size="10.2048px">PARA ACCEDER A SU TRATAMIENTO EN 2020</text>
<g>
	
		<circle fill="none" stroke="#6E3589" stroke-width="3" stroke-linecap="round" stroke-linejoin="round" stroke-miterlimit="10" cx="-280.5" cy="513.7" r="42.6"/>
</g>
<g>
	
		<circle fill="none" stroke="#6E3589" stroke-width="3" stroke-linecap="round" stroke-linejoin="round" stroke-miterlimit="10" cx="-180.2" cy="513.7" r="42.6"/>
</g>
<g>
	
		<circle fill="none" stroke="#6E3589" stroke-width="3" stroke-linecap="round" stroke-linejoin="round" stroke-miterlimit="10" cx="-80" cy="513.7" r="42.6"/>
</g>
<g>
	
		<circle fill="none" stroke="#6E3589" stroke-width="3" stroke-linecap="round" stroke-linejoin="round" stroke-miterlimit="10" cx="20.3" cy="513.7" r="42.6"/>
	<path fill="#6E3589" d="M30.9,513.7l8.7-8.7c1.9-1.9,1.9-5,0-6.8l-3.8-3.8c-1.9-1.9-5-1.9-6.8,0l-8.7,8.7l-8.7-8.7
		c-1.9-1.9-5-1.9-6.8,0L1,498.2c-1.9,1.9-1.9,5,0,6.8l8.7,8.7L1,522.4c-1.9,1.9-1.9,5,0,6.8l3.8,3.8c1.9,1.9,5,1.9,6.8,0l8.7-8.7
		L29,533c1.9,1.9,5,1.9,6.8,0l3.8-3.8c1.9-1.9,1.9-5,0-6.8L30.9,513.7z"/>
</g>
<g>
	<path fill="#6E3589" d="M-287.7,505.8l-10.4,10.4c-4,4-4,10.5,0,14.5c4,4,10.5,4,14.5,0l10.4-10.4L-287.7,505.8z"/>
	<path fill="none" stroke="#6E3589" stroke-width="3" stroke-linecap="round" stroke-linejoin="round" stroke-miterlimit="10" d="
		M-298.1,530.7L-298.1,530.7c-4-4-4-10.5,0-14.5l20.8-20.8c4-4,10.5-4,14.5,0l0,0c4,4,4,10.5,0,14.5l-20.8,20.8
		C-287.6,534.7-294.2,534.7-298.1,530.7z"/>
</g>
<g>
	<path fill="#6E3589" d="M-187.4,505.8l-10.4,10.4c-4,4-4,10.5,0,14.5c4,4,10.5,4,14.5,0l10.4-10.4L-187.4,505.8z"/>
	<path fill="none" stroke="#6E3589" stroke-width="3" stroke-linecap="round" stroke-linejoin="round" stroke-miterlimit="10" d="
		M-197.8,530.7L-197.8,530.7c-4-4-4-10.5,0-14.5l20.8-20.8c4-4,10.5-4,14.5,0l0,0c4,4,4,10.5,0,14.5l-20.8,20.8
		C-187.3,534.7-193.9,534.7-197.8,530.7z"/>
</g>
<g>
	<path fill="#6E3589" d="M-87.2,505.8l-10.4,10.4c-4,4-4,10.5,0,14.5c4,4,10.5,4,14.5,0l10.4-10.4L-87.2,505.8z"/>
	<path fill="none" stroke="#6E3589" stroke-width="3" stroke-linecap="round" stroke-linejoin="round" stroke-miterlimit="10" d="
		M-97.6,530.7L-97.6,530.7c-4-4-4-10.5,0-14.5l20.8-20.8c4-4,10.5-4,14.5,0l0,0c4,4,4,10.5,0,14.5l-20.8,20.8
		C-87.1,534.7-93.7,534.7-97.6,530.7z"/>
</g>
</svg>
