<?xml version="1.0" encoding="utf-8"?>
<!-- Generator: Adobe Illustrator 19.0.0, SVG Export Plug-In . SVG Version: 6.00 Build 0)  -->
<svg version="1.1" id="Capa_1" xmlns="http://www.w3.org/2000/svg" xmlns:xlink="http://www.w3.org/1999/xlink" x="0px" y="0px"
	 viewBox="-18 495.9 559 181.7" enable-background="new -18 495.9 559 181.7" xml:space="preserve">
<text transform="matrix(1 0 0 1 25.6654 637.391)" fill="#6E3589" font-family="'Bitter-SemiBold'" font-size="24px">32%</text>
<rect x="1.8" y="645.9" fill="none" width="95.6" height="23.7"/>
<text transform="matrix(1 0 0 1 21.6949 654.5048)" enable-background="new    "><tspan x="0" y="0" fill="#6E3589" font-family="'Bitter-Regular'" font-size="10.2048px">VIOLENCIA </tspan><tspan x="-18" y="12.2" fill="#6E3589" font-family="'Bitter-Regular'" font-size="10.2048px">PSICOEMOCIONAL</tspan></text>
<g>
	<g>
		<g>
			<g>
				<path fill="#F29100" d="M48.2,558.8l45.2,21.1c-11.6,25-41.3,35.8-66.3,24.1S-8.7,562.7,3,537.7c8.4-18,25.4-28.8,45.2-28.8
					V558.8z"/>
			</g>
		</g>
		<g>
			<g>
				<path fill="#6E3589" d="M48.2,558.8v-49.9c27.5,0,49.9,22.3,49.9,49.9c0,7.7-1.4,14.1-4.7,21.1L48.2,558.8z"/>
			</g>
		</g>
	</g>
	<g>
		<g>
		</g>
		<g>
		</g>
	</g>
</g>
<text transform="matrix(1 0 0 1 171.0311 637.391)" fill="#6E3589" font-family="'Bitter-SemiBold'" font-size="24px">31%</text>
<rect x="124.3" y="645.9" fill="none" width="138" height="36.4"/>
<text transform="matrix(1 0 0 1 129.0119 654.5048)" enable-background="new    "><tspan x="0" y="0" fill="#6E3589" font-family="'Bitter-Regular'" font-size="10.2048px">VIOLENCIA PATRIMONIAL  </tspan><tspan x="28.7" y="12.2" fill="#6E3589" font-family="'Bitter-Regular'" font-size="10.2048px">Y ECONÓMICA</tspan></text>
<g>
	<g>
		<g>
			<g>
				<path fill="#F29100" d="M191.5,558.8l46.6,17.9c-9.9,25.7-38.7,38.6-64.4,28.7s-38.6-38.7-28.7-64.4c7.5-19.5,25.6-32,46.6-32
					V558.8z"/>
			</g>
		</g>
		<g>
			<g>
				<path fill="#6E3589" d="M191.5,558.8v-49.9c27.5,0,49.9,22.3,49.9,49.9c0,6.6-0.9,11.7-3.3,17.9L191.5,558.8z"/>
			</g>
		</g>
	</g>
	<g>
		<g>
		</g>
		<g>
		</g>
	</g>
</g>
<text transform="matrix(1 0 0 1 316.0647 637.391)" fill="#6E3589" font-family="'Bitter-SemiBold'" font-size="24px">31%</text>
<rect x="277" y="645.9" fill="none" width="122.7" height="36.4"/>
<text transform="matrix(1 0 0 1 279.9235 654.5048)" enable-background="new    "><tspan x="0" y="0" fill="#6E3589" font-family="'Bitter-Regular'" font-size="10.2048px">OMISIÓN DE CUIDADOS </tspan><tspan x="26.4" y="12.2" fill="#6E3589" font-family="'Bitter-Regular'" font-size="10.2048px">Y MALTRATO</tspan></text>
<g>
	<g>
		<g>
			<g>
				<path fill="#F29100" d="M333.3,558.8l46.6,17.9c-9.9,25.7-38.7,38.6-64.4,28.7c-25.7-9.9-38.6-38.7-28.7-64.4
					c7.5-19.5,25.6-32,46.6-32V558.8z"/>
			</g>
		</g>
		<g>
			<g>
				<path fill="#6E3589" d="M333.3,558.8v-49.9c27.5,0,49.9,22.3,49.9,49.9c0,6.6-0.9,11.7-3.3,17.9L333.3,558.8z"/>
			</g>
		</g>
	</g>
	<g>
		<g>
		</g>
		<g>
		</g>
	</g>
</g>
<text transform="matrix(1 0 0 1 461.4901 637.391)" fill="#6E3589" font-family="'Bitter-SemiBold'" font-size="24px">9%</text>
<rect x="431.1" y="645.9" fill="none" width="95.6" height="23.7"/>
<text transform="matrix(1 0 0 1 433.5502 654.5048)" fill="#6E3589" font-family="'Bitter-Regular'" font-size="10.2048px">VIOLENCIA FÍSICA</text>
<g>
	<g>
		<g>
			<g>
				<path fill="#F29100" d="M476.1,558.8l26.4-42.3c23.4,14.6,30.5,45.4,15.9,68.7c-14.6,23.4-45.4,30.5-68.7,15.9
					s-30.5-45.4-15.9-68.7c9.3-15,24.7-23.4,42.3-23.4V558.8z"/>
			</g>
		</g>
		<g>
			<g>
				<path fill="#6E3589" d="M476.1,558.8v-49.9c9.9,0,18,2.3,26.4,7.6L476.1,558.8z"/>
			</g>
		</g>
	</g>
	<g>
		<g>
		</g>
		<g>
		</g>
	</g>
</g>
</svg>
