<?xml version="1.0" encoding="utf-8"?>
<!-- Generator: Adobe Illustrator 19.0.0, SVG Export Plug-In . SVG Version: 6.00 Build 0)  -->
<svg version="1.1" id="Capa_1" xmlns="http://www.w3.org/2000/svg" xmlns:xlink="http://www.w3.org/1999/xlink" x="0px" y="0px"
	 viewBox="-18 495.9 559 168.4" enable-background="new -18 495.9 559 168.4" xml:space="preserve">
<text transform="matrix(1 0 0 1 399.1252 526.2739)" fill="#6E3589" font-family="'Bitter-SemiBold'" font-size="24px" font-weight="600" >30%</text>
<text transform="matrix(1 0 0 1 399.0381 634.0462)" fill="#6E3589" font-family="'Bitter-SemiBold'" font-size="24px" font-weight="600" >863</text>
<rect x="399.1" y="532.3" fill="none" width="131.9" height="70.9"/>
<text transform="matrix(1 0 0 1 399.1252 542.502)" enable-background="new    "><tspan x="0" y="0" fill="#6E3589" font-family="'Bitter-Regular'" font-size="12px">INCREMENTÓ  </tspan><tspan x="0" y="14.4" fill="#6E3589" font-family="'Bitter-Regular'" font-size="12px">DE LA VIOLENCIA  </tspan><tspan x="0" y="28.8" fill="#6E3589" font-family="'Bitter-Regular'" font-size="12px">EJERCIDA CONTRA </tspan><tspan x="0" y="43.2" fill="#6E3589" font-family="'Bitter-Regular'" font-size="12px">ADULTES MAYORES   </tspan><tspan x="0" y="57.6" fill="#6E3589" font-family="'Bitter-Regular'" font-size="12px">EN 2020</tspan></text>
<rect x="399.1" y="639.8" fill="none" width="131.9" height="21.6"/>
<text transform="matrix(1 0 0 1 399.1243 649.9985)" fill="#6E3589" font-family="'Bitter-Regular'" font-size="12px">CASOS DE VIOLENCIA</text>
<line fill="none" stroke="#F29100" stroke-miterlimit="10" x1="2" y1="646.9" x2="347.5" y2="646.9"/>
<line opacity="0.42" fill="none" stroke="#F29100" stroke-miterlimit="10" x1="29.1" y1="646.9" x2="29.1" y2="506.8"/>
<line opacity="0.42" fill="none" stroke="#F29100" stroke-miterlimit="10" x1="151.8" y1="646.9" x2="151.8" y2="506.8"/>
<line opacity="0.42" fill="none" stroke="#F29100" stroke-miterlimit="10" x1="274.4" y1="646.9" x2="274.4" y2="506.8"/>
<line fill="none" stroke="#F29100" stroke-miterlimit="10" x1="347.5" y1="646.9" x2="347.5" y2="644"/>
<g opacity="0.62">
	<g>
		<text transform="matrix(1 0 0 1 351.8742 651.1421)" fill="#6E3589" font-family="'Bitter-SemiBold'" font-size="11px">0%</text>
		<text transform="matrix(1 0 0 1 351.8742 585.2109)" fill="#6E3589" font-family="'Bitter-SemiBold'" font-size="11px">15%</text>
		<text transform="matrix(1 0 0 1 351.8742 519.2803)" fill="#6E3589" font-family="'Bitter-SemiBold'" font-size="11px">30%</text>
	</g>
</g>
<line fill="none" stroke="#F29100" stroke-miterlimit="10" x1="347.5" y1="646.9" x2="347.5" y2="515.1"/>
<g>
	<line fill="none" stroke="#F29100" stroke-miterlimit="10" x1="347.5" y1="646.9" x2="340.5" y2="646.9"/>
	<line fill="none" stroke="#F29100" stroke-miterlimit="10" x1="347.5" y1="581" x2="340.5" y2="581"/>
	<line fill="none" stroke="#F29100" stroke-miterlimit="10" x1="347.5" y1="515.1" x2="340.5" y2="515.1"/>
</g>
<line fill="none" stroke="#6E3589" stroke-width="3" stroke-miterlimit="10" x1="151.8" y1="646.9" x2="29.1" y2="646.9"/>
<line fill="none" stroke="#6E3589" stroke-width="3" stroke-miterlimit="10" x1="274.4" y1="515.1" x2="151.8" y2="646.9"/>
<g>
	<g>
		<line fill="none" stroke="#6E3589" stroke-width="3" stroke-miterlimit="10" x1="312" y1="515.1" x2="310.5" y2="515.1"/>
		
			<line fill="none" stroke="#6E3589" stroke-width="3" stroke-miterlimit="10" stroke-dasharray="3.1421,3.1421" x1="307.4" y1="515.1" x2="277.5" y2="515.1"/>
		<line fill="none" stroke="#6E3589" stroke-width="3" stroke-miterlimit="10" x1="275.9" y1="515.1" x2="274.4" y2="515.1"/>
	</g>
</g>
<rect x="25.2" y="643" fill="#6E3589" width="7.8" height="7.8"/>
<rect x="147.9" y="643" fill="#6E3589" width="7.8" height="7.8"/>
<rect x="270.5" y="511.2" fill="#6E3589" width="7.8" height="7.8"/>
<text transform="matrix(1 0 0 1 186.2426 586.7515)" fill="#F29100" font-family="'Bitter-ExtraBold'" font-size="24px" font-weight="800" >2020</text>
<g>
	<text transform="matrix(1 0 0 1 65.8331 586.7511)" fill="#F29100" font-family="'Bitter-ExtraBold'" font-size="24px" font-weight="800" >2019</text>
</g>
</svg>
