<?xml version="1.0" encoding="utf-8"?>
<!-- Generator: Adobe Illustrator 19.0.0, SVG Export Plug-In . SVG Version: 6.00 Build 0)  -->
<svg version="1.1" id="Capa_1" xmlns="http://www.w3.org/2000/svg" xmlns:xlink="http://www.w3.org/1999/xlink" x="0px" y="0px"
	 viewBox="-18 495.9 559 160.9" enable-background="new -18 495.9 559 160.9" xml:space="preserve">
<rect id="XMLID_3_" x="309.3" y="600.8" fill="none" width="70.2" height="37.9"/>
<text transform="matrix(1 0 0 1 347.7102 622.3915)" fill="#6E3589" font-weight="600" font-family="'Bitter-SemiBold'" font-size="34.9879px">1</text>
<text transform="matrix(1 0 0 1 372.2629 622.3915)" fill="#6E3589" font-family="'Bitter-Light'" font-size="34.9879px">de</text>
<text transform="matrix(1 0 0 1 420.9166 622.3915)" fill="#6E3589" font-weight="600" font-family="'Bitter-SemiBold'" font-size="34.9879px"> 4</text>
<rect x="79.9" y="630.2" fill="none" width="382.5" height="15.2"/>
<text transform="matrix(1 0 0 1 172.0075 638.8387)" enable-background="new    "><tspan x="0" y="0" fill="#6E3589" font-family="'Bitter-Regular'" font-size="10.2048px">PERSONAS QUE VIVEN CON VIH TUVIERON PROBLEMAS </tspan><tspan x="57.9" y="12.2" fill="#6E3589" font-family="'Bitter-Regular'" font-size="10.2048px">PARA ACCEDER A SU TRATAMIENTO EN 2020</tspan></text>
<g>
	<g>
		<path fill="none" stroke="#6E3589" stroke-width="3" stroke-linecap="round" stroke-linejoin="round" stroke-miterlimit="10" d="
			M91.2,556l19.2-19.2c1.4-1.4,3.8-1.4,5.2,0l3.6,3.6c1.4,1.4,1.4,3.8,0,5.2l-19.2,19.2L91.2,556z"/>
		
			<line fill="none" stroke="#6E3589" stroke-width="3" stroke-linecap="round" stroke-linejoin="round" stroke-miterlimit="10" x1="88.8" y1="553.6" x2="102.5" y2="567.3"/>
		
			<line fill="none" stroke="#6E3589" stroke-width="3" stroke-linecap="round" stroke-linejoin="round" stroke-miterlimit="10" x1="86.2" y1="559.9" x2="96.3" y2="569.9"/>
		
			<line fill="none" stroke="#6E3589" stroke-width="3" stroke-linecap="round" stroke-linejoin="round" stroke-miterlimit="10" x1="116.5" y1="529.5" x2="126.6" y2="539.6"/>
		
			<line fill="none" stroke="#6E3589" stroke-width="3" stroke-linecap="round" stroke-linejoin="round" stroke-miterlimit="10" x1="95.6" y1="551.9" x2="99.8" y2="556.1"/>
		
			<line fill="none" stroke="#6E3589" stroke-width="3" stroke-linecap="round" stroke-linejoin="round" stroke-miterlimit="10" x1="99.9" y1="547.6" x2="104.1" y2="551.8"/>
		
			<line fill="none" stroke="#6E3589" stroke-width="3" stroke-linecap="round" stroke-linejoin="round" stroke-miterlimit="10" x1="104.3" y1="543.3" x2="108.5" y2="547.5"/>
		
			<line fill="none" stroke="#6E3589" stroke-width="3" stroke-linecap="round" stroke-linejoin="round" stroke-miterlimit="10" x1="108.4" y1="539" x2="117.1" y2="547.7"/>
		<g>
			
				<line fill="none" stroke="#6E3589" stroke-width="3" stroke-linecap="round" stroke-linejoin="round" stroke-miterlimit="10" x1="89" y1="562.7" x2="93.5" y2="558.3"/>
			
				<line fill="none" stroke="#6E3589" stroke-width="3" stroke-linecap="round" stroke-linejoin="round" stroke-miterlimit="10" x1="93.4" y1="567" x2="97.8" y2="562.6"/>
		</g>
		
			<line fill="none" stroke="#6E3589" stroke-width="3" stroke-linecap="round" stroke-linejoin="round" stroke-miterlimit="10" x1="117.5" y1="538.6" x2="121.5" y2="534.6"/>
		
			<line fill="none" stroke="#6E3589" stroke-width="3" stroke-linecap="round" stroke-linejoin="round" stroke-miterlimit="10" x1="125.8" y1="530.3" x2="136.1" y2="520"/>
		
			<polyline fill="none" stroke="#6E3589" stroke-width="3" stroke-linecap="round" stroke-linejoin="round" stroke-miterlimit="10" points="
			123.7,536.8 126.1,534.4 125.8,530.3 121.7,530 119.4,532.4 		"/>
	</g>
	
		<circle fill="none" stroke="#6E3589" stroke-width="3" stroke-linecap="round" stroke-linejoin="round" stroke-miterlimit="10" cx="111.1" cy="545" r="42.6"/>
</g>
<g>
	<g>
		<path fill="none" stroke="#6E3589" stroke-width="3" stroke-linecap="round" stroke-linejoin="round" stroke-miterlimit="10" d="
			M191.5,556l19.2-19.2c1.4-1.4,3.8-1.4,5.2,0l3.6,3.6c1.4,1.4,1.4,3.8,0,5.2l-19.2,19.2L191.5,556z"/>
		
			<line fill="none" stroke="#6E3589" stroke-width="3" stroke-linecap="round" stroke-linejoin="round" stroke-miterlimit="10" x1="189" y1="553.6" x2="202.8" y2="567.3"/>
		
			<line fill="none" stroke="#6E3589" stroke-width="3" stroke-linecap="round" stroke-linejoin="round" stroke-miterlimit="10" x1="186.4" y1="559.9" x2="196.5" y2="569.9"/>
		
			<line fill="none" stroke="#6E3589" stroke-width="3" stroke-linecap="round" stroke-linejoin="round" stroke-miterlimit="10" x1="216.7" y1="529.5" x2="226.8" y2="539.6"/>
		
			<line fill="none" stroke="#6E3589" stroke-width="3" stroke-linecap="round" stroke-linejoin="round" stroke-miterlimit="10" x1="195.8" y1="551.9" x2="200" y2="556.1"/>
		
			<line fill="none" stroke="#6E3589" stroke-width="3" stroke-linecap="round" stroke-linejoin="round" stroke-miterlimit="10" x1="200.2" y1="547.6" x2="204.4" y2="551.8"/>
		
			<line fill="none" stroke="#6E3589" stroke-width="3" stroke-linecap="round" stroke-linejoin="round" stroke-miterlimit="10" x1="204.5" y1="543.3" x2="208.7" y2="547.5"/>
		
			<line fill="none" stroke="#6E3589" stroke-width="3" stroke-linecap="round" stroke-linejoin="round" stroke-miterlimit="10" x1="208.7" y1="539" x2="217.3" y2="547.7"/>
		<g>
			
				<line fill="none" stroke="#6E3589" stroke-width="3" stroke-linecap="round" stroke-linejoin="round" stroke-miterlimit="10" x1="189.3" y1="562.7" x2="193.7" y2="558.3"/>
			
				<line fill="none" stroke="#6E3589" stroke-width="3" stroke-linecap="round" stroke-linejoin="round" stroke-miterlimit="10" x1="193.6" y1="567" x2="198" y2="562.6"/>
		</g>
		
			<line fill="none" stroke="#6E3589" stroke-width="3" stroke-linecap="round" stroke-linejoin="round" stroke-miterlimit="10" x1="217.7" y1="538.6" x2="221.8" y2="534.6"/>
		
			<line fill="none" stroke="#6E3589" stroke-width="3" stroke-linecap="round" stroke-linejoin="round" stroke-miterlimit="10" x1="226" y1="530.3" x2="236.3" y2="520"/>
		
			<polyline fill="none" stroke="#6E3589" stroke-width="3" stroke-linecap="round" stroke-linejoin="round" stroke-miterlimit="10" points="
			224,536.8 226.3,534.4 226,530.3 221.9,530 219.6,532.4 		"/>
	</g>
	
		<circle fill="none" stroke="#6E3589" stroke-width="3" stroke-linecap="round" stroke-linejoin="round" stroke-miterlimit="10" cx="211.4" cy="545" r="42.6"/>
</g>
<g>
	<g>
		<path fill="none" stroke="#6E3589" stroke-width="3" stroke-linecap="round" stroke-linejoin="round" stroke-miterlimit="10" d="
			M291.7,556l19.2-19.2c1.4-1.4,3.8-1.4,5.2,0l3.6,3.6c1.4,1.4,1.4,3.8,0,5.2l-19.2,19.2L291.7,556z"/>
		
			<line fill="none" stroke="#6E3589" stroke-width="3" stroke-linecap="round" stroke-linejoin="round" stroke-miterlimit="10" x1="289.3" y1="553.6" x2="303" y2="567.3"/>
		
			<line fill="none" stroke="#6E3589" stroke-width="3" stroke-linecap="round" stroke-linejoin="round" stroke-miterlimit="10" x1="286.7" y1="559.9" x2="296.7" y2="569.9"/>
		
			<line fill="none" stroke="#6E3589" stroke-width="3" stroke-linecap="round" stroke-linejoin="round" stroke-miterlimit="10" x1="317" y1="529.5" x2="327.1" y2="539.6"/>
		
			<line fill="none" stroke="#6E3589" stroke-width="3" stroke-linecap="round" stroke-linejoin="round" stroke-miterlimit="10" x1="296.1" y1="551.9" x2="300.3" y2="556.1"/>
		
			<line fill="none" stroke="#6E3589" stroke-width="3" stroke-linecap="round" stroke-linejoin="round" stroke-miterlimit="10" x1="300.4" y1="547.6" x2="304.6" y2="551.8"/>
		
			<line fill="none" stroke="#6E3589" stroke-width="3" stroke-linecap="round" stroke-linejoin="round" stroke-miterlimit="10" x1="304.8" y1="543.3" x2="309" y2="547.5"/>
		
			<line fill="none" stroke="#6E3589" stroke-width="3" stroke-linecap="round" stroke-linejoin="round" stroke-miterlimit="10" x1="308.9" y1="539" x2="317.6" y2="547.7"/>
		<g>
			
				<line fill="none" stroke="#6E3589" stroke-width="3" stroke-linecap="round" stroke-linejoin="round" stroke-miterlimit="10" x1="289.5" y1="562.7" x2="293.9" y2="558.3"/>
			
				<line fill="none" stroke="#6E3589" stroke-width="3" stroke-linecap="round" stroke-linejoin="round" stroke-miterlimit="10" x1="293.9" y1="567" x2="298.3" y2="562.6"/>
		</g>
		
			<line fill="none" stroke="#6E3589" stroke-width="3" stroke-linecap="round" stroke-linejoin="round" stroke-miterlimit="10" x1="318" y1="538.6" x2="322" y2="534.6"/>
		
			<line fill="none" stroke="#6E3589" stroke-width="3" stroke-linecap="round" stroke-linejoin="round" stroke-miterlimit="10" x1="326.3" y1="530.3" x2="336.6" y2="520"/>
		
			<polyline fill="none" stroke="#6E3589" stroke-width="3" stroke-linecap="round" stroke-linejoin="round" stroke-miterlimit="10" points="
			324.2,536.8 326.6,534.4 326.3,530.3 322.2,530 319.8,532.4 		"/>
	</g>
	
		<circle fill="none" stroke="#6E3589" stroke-width="3" stroke-linecap="round" stroke-linejoin="round" stroke-miterlimit="10" cx="311.6" cy="545" r="42.6"/>
</g>
<g>
	
		<circle fill="none" stroke="#6E3589" stroke-width="3" stroke-linecap="round" stroke-linejoin="round" stroke-miterlimit="10" cx="411.9" cy="545" r="42.6"/>
	<path fill="#6E3589" d="M422.5,545l8.7-8.7c1.9-1.9,1.9-5,0-6.8l-3.8-3.8c-1.9-1.9-5-1.9-6.8,0l-8.7,8.7l-8.7-8.7
		c-1.9-1.9-5-1.9-6.8,0l-3.8,3.8c-1.9,1.9-1.9,5,0,6.8l8.7,8.7l-8.7,8.7c-1.9,1.9-1.9,5,0,6.8l3.8,3.8c1.9,1.9,5,1.9,6.8,0l8.7-8.7
		l8.7,8.7c1.9,1.9,5,1.9,6.8,0l3.8-3.8c1.9-1.9,1.9-5,0-6.8L422.5,545z"/>
</g>
</svg>
