<?xml version="1.0" encoding="utf-8"?>
<!-- Generator: Adobe Illustrator 19.0.0, SVG Export Plug-In . SVG Version: 6.00 Build 0)  -->
<svg version="1.1" xmlns="http://www.w3.org/2000/svg" xmlns:xlink="http://www.w3.org/1999/xlink" x="0px" y="0px"
	 viewBox="-18 495.9 559 240.4" enable-background="new -18 495.9 559 240.4" xml:space="preserve">
<g id="mask">
	<g>
		<defs>
			<polygon id="SVGID_1_" points="61.5,597.4 132.9,528.3 132.9,710.7 61.5,710.7 			"/>
		</defs>
		<clipPath id="SVGID_2_">
			<use xlink:href="#SVGID_1_"  overflow="visible"/>
		</clipPath>
		<rect id="porciento" x="56.9" y="523.1" clip-path="url(#SVGID_2_)" fill="#6E3589" width="76" height="192.9"/>
	</g>
</g>
<g id="Capa_3">
	
		<text id="porciento_1_" transform="matrix(1 0 0 1 286.6056 623.5208)" fill="#6E3589" font-family="'Bitter-SemiBold'" font-size="49.9424px">47.26%</text>
	<text transform="matrix(1 0 0 1 290.6059 572.0643)" fill="#6E3589" font-family="'Bitter-Light'" font-size="34.9879px">2020</text>
	<rect x="290.6" y="641.3" fill="none" width="232" height="89"/>
	<text transform="matrix(1 0 0 1 290.6057 652.0295)">
	<tspan x="0" y="0" fill="#6E3589" font-family="'Bitter-Light'" font-size="14px">DE LA COMUNIDAD LGBTi</tspan>
	<tspan x="0" y="16.8" fill="#6E3589" font-family="'Bitter-Light'" font-size="14px">EN MÉXICO REPORTÓ</tspan>
	<tspan x="204.8" y="16.8" fill="#6E3589" font-family="'Bitter-Light'" font-size="14px">-</tspan>
	<tspan x="0" y="33.6" fill="#6E3589" font-family="'Bitter-Light'" font-size="14px">MAYOR VIOLENCIA</tspan>
	<tspan x="0" y="50.4" fill="#6E3589" font-family="'Bitter-Light'" font-size="14px">EN EL SENO FAMILIAR</tspan>
	</text>
	<g>
		<g>
		</g>
		<g>
		</g>
	</g>
</g>
<g id="Capa_4">
	
		<polyline fill="none" stroke="#6E3589" stroke-width="12" stroke-linecap="round" stroke-linejoin="round" stroke-miterlimit="10" points="
		21.8,634.2 141.6,514.4 261.5,634.2 	"/>
	
		<polyline fill="none" stroke="#6E3589" stroke-width="12" stroke-linecap="round" stroke-linejoin="round" stroke-miterlimit="10" points="
		226.4,603 226.4,716 56.9,716 56.9,603 	"/>
</g>
</svg>
