<?xml version="1.0" encoding="utf-8"?>
<!-- Generator: Adobe Illustrator 23.0.3, SVG Export Plug-In . SVG Version: 6.00 Build 0)  -->
<svg version="1.1" id="Capa_1" xmlns="http://www.w3.org/2000/svg" xmlns:xlink="http://www.w3.org/1999/xlink" x="0px" y="0px"
	 viewBox="0 0 137.8 117.9" width="22" enable-background="new 0 0 137.8 117.9" xml:space="preserve">
<path fill="none" stroke="#FFFFFF" stroke-width="6" stroke-linecap="round" stroke-linejoin="round" stroke-miterlimit="10" d="
	M104.7,5c17,11.9,28.1,31.7,28.1,54c0,22.3-11,41.9-27.9,53.9"/>
<path fill="none" stroke="#FFFFFF" stroke-width="6" stroke-linecap="round" stroke-linejoin="round" stroke-miterlimit="10" d="
	M92.6,95.4C104,87.3,111.4,74,111.4,59c0-15.1-7.5-28.4-19-36.5"/>
<path fill="none" stroke="#FFFFFF" stroke-width="6" stroke-linecap="round" stroke-linejoin="round" stroke-miterlimit="10" d="
	M79.9,77.3c5.7-4.1,9.4-10.8,9.4-18.3c0-7.6-3.8-14.3-9.6-18.4"/>
<path fill="none" stroke="#FFFFFF" stroke-width="6" stroke-linecap="round" stroke-linejoin="round" stroke-miterlimit="10" d="
	M65.8,5.1L27.7,41.3H17c-6.6,0-12,5.4-12,12v12.9c0,6.6,5.4,12,12,12h12.1l36.7,34.7V5.1z"/>
</svg>
