<?xml version="1.0" encoding="utf-8"?>
<!-- Generator: Adobe Illustrator 23.0.3, SVG Export Plug-In . SVG Version: 6.00 Build 0)  -->
<svg version="1.1" id="Capa_2" xmlns="http://www.w3.org/2000/svg" xmlns:xlink="http://www.w3.org/1999/xlink" x="0px" y="0px"
	 viewBox="0 0 165.8 117.9" width="22" enable-background="new 0 0 165.8 117.9" xml:space="preserve">
<path fill="#B0F0F8" d="M133,115.9c-0.9,0-1.9-0.4-2.5-1.3c-1-1.4-0.6-3.2,0.7-4.2c16.7-11.8,26.7-31,26.7-51.4
	c0-20.5-10-39.7-26.8-51.6c-1.4-1-1.7-2.8-0.7-4.2c1-1.4,2.8-1.7,4.2-0.7c18.4,12.9,29.4,34,29.4,56.5c0,22.3-10.9,43.4-29.2,56.3
	C134.2,115.7,133.6,115.9,133,115.9z"/>
<path fill="#B0F0F8" d="M120.7,98.4c-0.9,0-1.9-0.4-2.4-1.3c-1-1.4-0.6-3.2,0.7-4.2c11-7.8,17.6-20.5,17.6-34
	c0-13.5-6.6-26.3-17.7-34.1c-1.4-1-1.7-2.8-0.7-4.2c1-1.4,2.8-1.7,4.2-0.7c12.7,8.9,20.3,23.5,20.3,39c0,15.4-7.5,29.9-20.1,38.9
	C121.9,98.2,121.3,98.4,120.7,98.4z"/>
<path fill="#B0F0F8" d="M108,80.3c-0.9,0-1.9-0.4-2.4-1.3c-1-1.3-0.7-3.2,0.7-4.2c5.1-3.7,8.2-9.6,8.2-15.9c0-6.3-3.1-12.3-8.3-16
	c-1.4-1-1.7-2.8-0.7-4.2c1-1.4,2.8-1.7,4.2-0.7c6.8,4.8,10.8,12.6,10.8,20.9c0,8.2-4,16-10.7,20.7C109.2,80.1,108.6,80.3,108,80.3z"
	/>
<path fill="#B0F0F8" d="M93.9,115.9H4.1c-1.7,0-3-1.3-3-3V5.1c0-1.7,1.3-3,3-3h89.8c1.7,0,3,1.3,3,3v107.8
	C96.9,114.6,95.6,115.9,93.9,115.9z M7.1,109.9h83.8V8.1H7.1V109.9z"/>
<rect x="17.7" y="18.9" fill="#B0F0F8" width="7.2" height="7.2"/>
<rect x="17.7" y="43" fill="#B0F0F8" width="7.2" height="7.2"/>
<rect x="17.7" y="67.2" fill="#B0F0F8" width="7.2" height="7.2"/>
<rect x="17.7" y="91.3" fill="#B0F0F8" width="7.2" height="7.2"/>
<rect x="72.8" y="18.9" fill="#B0F0F8" width="7.2" height="7.2"/>
<rect x="72.8" y="43" fill="#B0F0F8" width="7.2" height="7.2"/>
<rect x="72.8" y="67.2" fill="#B0F0F8" width="7.2" height="7.2"/>
<rect x="72.8" y="91.3" fill="#B0F0F8" width="7.2" height="7.2"/>
</svg>
