<?xml version="1.0" encoding="utf-8"?>
<!-- Generator: Adobe Illustrator 23.0.3, SVG Export Plug-In . SVG Version: 6.00 Build 0)  -->
<svg version="1.1" id="Capa_1" xmlns="http://www.w3.org/2000/svg" xmlns:xlink="http://www.w3.org/1999/xlink" x="0px" y="0px"
	 viewBox="0 0 137.8 117.9" width="22" enable-background="new 0 0 137.8 117.9" xml:space="preserve">
<path fill="#FFFFFF" d="M104.9,116.9c-1.3,0-2.5-0.6-3.3-1.7c-1.3-1.8-0.9-4.3,0.9-5.6C119,98,128.8,79.1,128.8,59
	c0-20.2-9.9-39.2-26.4-50.7c-1.8-1.3-2.3-3.8-1-5.6c1.3-1.8,3.8-2.2,5.6-1c18.7,13.1,29.8,34.5,29.8,57.3c0,22.6-11.1,44-29.6,57.2
	C106.5,116.7,105.7,116.9,104.9,116.9z"/>
<path fill="#FFFFFF" d="M92.6,99.4c-1.3,0-2.5-0.6-3.3-1.7c-1.3-1.8-0.9-4.3,0.9-5.6c10.7-7.6,17.1-20,17.1-33.1
	c0-13.2-6.5-25.6-17.3-33.2c-1.8-1.3-2.2-3.8-1-5.6c1.3-1.8,3.8-2.2,5.6-1c13,9.1,20.7,24,20.7,39.8c0,15.7-7.7,30.5-20.5,39.7
	C94.2,99.2,93.4,99.4,92.6,99.4z"/>
<path fill="#FFFFFF" d="M79.9,81.3c-1.2,0-2.5-0.6-3.3-1.7c-1.3-1.8-0.9-4.3,0.9-5.6c4.8-3.5,7.7-9.1,7.7-15.1c0-6-3-11.6-7.9-15.1
	c-1.8-1.3-2.2-3.8-1-5.6c1.3-1.8,3.8-2.2,5.6-1c7.1,5,11.3,13.1,11.3,21.7c0,8.5-4.1,16.6-11.1,21.5C81.5,81.1,80.7,81.3,79.9,81.3z
	"/>
<path fill="#FFFFFF" d="M65.8,116.9c-1,0-2-0.4-2.7-1.1L27.5,82.2H17c-8.8,0-16-7.2-16-16V53.3c0-8.8,7.2-16,16-16h9.1L63,2.2
	c1.2-1.1,2.9-1.4,4.3-0.8c1.5,0.6,2.4,2.1,2.4,3.7v107.8c0,1.6-1,3-2.4,3.7C66.9,116.8,66.3,116.9,65.8,116.9z M17,45.3
	c-4.4,0-8,3.6-8,8v12.9c0,4.4,3.6,8,8,8h12.1c1,0,2,0.4,2.7,1.1l30,28.3V14.4L30.5,44.2c-0.7,0.7-1.7,1.1-2.8,1.1H17z"/>
</svg>
