<?xml version="1.0" encoding="utf-8"?>
<!-- Generator: Adobe Illustrator 23.0.3, SVG Export Plug-In . SVG Version: 6.00 Build 0)  -->
<svg version="1.1" id="Layer_1" xmlns="http://www.w3.org/2000/svg" xmlns:xlink="http://www.w3.org/1999/xlink" x="0px" y="0px"
	 viewBox="0 0 1029 224.9" enable-background="new 0 0 1029 224.9" xml:space="preserve">
<rect fill="#000000" width="804.1" height="224.9"/>
<g>
	<path fill="#FFFFFF" d="M44.9,182.4V39.8h34.5c12.4,0,21.4,3.5,27.1,10.4c5.7,6.9,8.5,16.9,8.5,30c0,6.4-0.6,12-1.9,16.8
		c-1.2,4.8-3,8.7-5.2,11.8c-2.2,3.1-5.1,5.6-8.6,7.4c-3.5,1.9-7.3,3.2-11.3,4c-4.1,0.8-8.8,1.2-14.1,1.2v61H44.9z M74,101.1
		c1.5,0,2.9-0.1,4.1-0.3c1.2-0.2,2.2-0.4,3.1-0.6c0.9-0.2,1.7-0.7,2.4-1.3c0.7-0.6,1.3-1.2,1.7-1.7c0.4-0.5,0.8-1.3,1.1-2.3
		c0.3-1.1,0.6-2,0.7-2.7c0.2-0.7,0.3-1.8,0.4-3.3c0.1-1.5,0.1-2.8,0.1-3.7s0-2.4,0-4.3c0-0.5,0-0.9,0-1.2c0-2.1,0-3.6,0-4.7
		c0-1.1-0.1-2.4-0.3-4c-0.2-1.6-0.4-2.9-0.8-3.7c-0.3-0.8-0.8-1.8-1.5-2.8c-0.7-1.1-1.5-1.8-2.4-2.3c-1-0.5-2.2-0.9-3.6-1.3
		c-1.5-0.4-3.1-0.6-5-0.6V101.1z"/>
	<path fill="#FFFFFF" d="M127.7,182.4V39.8H159c7.1,0,13.4,0.7,18.8,2c5.4,1.3,10.2,3.5,14.2,6.3c4.1,2.9,7.2,6.8,9.3,11.6
		c2.1,4.9,3.2,10.7,3.2,17.5c0,3-0.1,5.6-0.3,7.9c-0.2,2.3-0.7,5-1.5,8c-0.8,3-1.8,5.6-3.1,7.9c-1.3,2.3-3.2,4.6-5.7,6.8
		c-2.5,2.2-5.4,4.1-8.8,5.5c8.6,27.1,16,50.1,22.3,68.9h-29.9l-16.3-65.7h-4.8v65.7H127.7z M156.5,99.2h8.2c2.2,0,4.1-0.7,5.7-2.2
		c1.6-1.5,2.7-3.4,3.4-5.6c0.7-2.3,1.2-4.4,1.5-6.3c0.3-1.9,0.4-3.7,0.4-5.4s-0.1-3.4-0.4-5.2c-0.2-1.8-0.7-3.8-1.3-6
		c-0.6-2.2-1.6-4-3-5.4c-1.4-1.4-3.1-2.1-5.1-2.1h-9.6V99.2z"/>
	<path fill="#FFFFFF" d="M218.3,182.4V39.8h59.5v19.8h-30.7v38.8h21.7v20.3h-21.7v43.9h30.7v19.8H218.3z"/>
	<path fill="#FFFFFF" d="M285,141.6l29.2-5.6c0,2.9,0.1,5.5,0.2,7.7c0.1,2.2,0.4,4.6,0.8,7.2c0.4,2.6,1.1,4.8,1.8,6.4
		c0.8,1.7,1.8,3.1,3.2,4.2c1.4,1.1,3.1,1.7,5,1.7c5.7,0,8.6-3.6,8.6-10.9c0-10-5.6-19.9-16.9-29.8l-9-7.6c-2.9-2.4-5.1-4.4-6.8-5.9
		c-1.7-1.6-3.7-3.7-6-6.4c-2.3-2.7-4.1-5.3-5.4-7.8c-1.3-2.5-2.4-5.5-3.3-9.1c-0.9-3.5-1.4-7.3-1.4-11.3c0-11.6,3.7-20.7,11-27.5
		c7.3-6.7,17.1-10.1,29.2-10.1c10.1,0,18.7,3.6,25.7,10.8c7.1,7.2,10.6,15.8,10.6,26l-0.1,1c0,0.7,0,1.5,0,2.4l-29.8,4.1
		c0-0.6,0-1.5,0.1-2.7c0.1-1.2,0.1-2.3,0.1-3.1c0-1.9-0.1-3.7-0.4-5.5c-0.3-1.7-0.7-3.5-1.3-5.2c-0.6-1.7-1.5-3.1-2.8-4.2
		c-1.3-1-2.8-1.5-4.6-1.5c-3.2,0-5.5,1.2-7.1,3.7c-1.6,2.5-2.4,5.4-2.4,8.8c0,3,0.5,5.7,1.4,8.3c0.9,2.6,2.3,5,4.2,7.2
		c1.9,2.2,3.6,4.1,5.2,5.6c1.6,1.5,3.7,3.3,6.3,5.4c2.6,2.1,4.5,3.7,5.6,4.7c4.1,3.6,7.5,7,10.3,10.1c2.8,3.1,5.4,6.7,7.9,10.7
		c2.5,4,4.3,8.2,5.6,12.8c1.2,4.6,1.9,9.6,1.9,14.9c0,10-3.6,18.2-10.7,24.5c-7.1,6.4-15.8,9.5-26,9.5c-6.6,0-12.5-1.2-17.6-3.6
		c-5.1-2.4-9.3-5.7-12.4-9.9c-3.1-4.2-5.6-8.8-7.2-13.9C286.2,152.9,285.3,147.4,285,141.6z"/>
	<path fill="#FFFFFF" d="M375.1,182.4V39.8h59.5v19.8H404v38.8h21.7v20.3H404v43.9h30.7v19.8H375.1z"/>
	<path fill="#FFFFFF" d="M446.7,182.4V39.7h20.8l31.3,74.6V39.7h23.9v142.7h-20l-31.2-79.1v79.1H446.7z"/>
	<path fill="#FFFFFF" d="M555,182.4V61.4H534V39.8h70.3v21.5h-20.5v121.1H555z"/>
	<path fill="#FFFFFF" d="M615.7,182.4V39.8h59.5v19.8h-30.7v38.8h21.7v20.3h-21.7v43.9h30.7v19.8H615.7z"/>
	<path fill="#FFFFFF" d="M682.3,141.6l29.2-5.6c0,2.9,0.1,5.5,0.2,7.7c0.1,2.2,0.4,4.6,0.8,7.2c0.5,2.6,1.1,4.8,1.8,6.4
		c0.8,1.7,1.8,3.1,3.2,4.2c1.4,1.1,3,1.7,4.9,1.7c5.7,0,8.6-3.6,8.6-10.9c0-10-5.6-19.9-16.9-29.8l-9-7.6c-2.9-2.4-5.1-4.4-6.8-5.9
		c-1.7-1.6-3.7-3.7-6-6.4c-2.3-2.7-4.1-5.3-5.4-7.8c-1.3-2.5-2.4-5.5-3.3-9.1c-0.9-3.5-1.4-7.3-1.4-11.3c0-11.6,3.7-20.7,11-27.5
		c7.3-6.7,17.1-10.1,29.2-10.1c10.1,0,18.7,3.6,25.7,10.8c7.1,7.2,10.6,15.8,10.6,26l-0.1,1c0,0.7,0,1.5,0,2.4l-29.8,4.1
		c0-0.6,0-1.5,0.1-2.7c0.1-1.2,0.1-2.3,0.1-3.1c0-1.9-0.1-3.7-0.4-5.5c-0.3-1.7-0.7-3.5-1.3-5.2c-0.6-1.7-1.6-3.1-2.8-4.2
		c-1.3-1-2.8-1.5-4.6-1.5c-3.2,0-5.5,1.2-7.1,3.7c-1.6,2.5-2.4,5.4-2.4,8.8c0,3,0.5,5.7,1.4,8.3c0.9,2.6,2.3,5,4.2,7.2
		c1.9,2.2,3.6,4.1,5.2,5.6c1.6,1.5,3.7,3.3,6.3,5.4c2.6,2.1,4.5,3.7,5.6,4.7c4.1,3.6,7.5,7,10.3,10.1c2.8,3.1,5.4,6.7,7.9,10.7
		c2.5,4,4.3,8.2,5.6,12.8c1.2,4.6,1.9,9.6,1.9,14.9c0,10-3.6,18.2-10.7,24.5c-7.1,6.4-15.8,9.5-26,9.5c-6.6,0-12.5-1.2-17.6-3.6
		c-5.1-2.4-9.3-5.7-12.4-9.9c-3.1-4.2-5.6-8.8-7.3-13.9C683.6,152.9,682.6,147.4,682.3,141.6z"/>
</g>
<rect x="841.6" fill="#F29100" width="37.5" height="224.9"/>
<rect x="879.1" fill="#FFD400" width="37.5" height="224.9"/>
<rect x="916.6" fill="#13A438" width="37.5" height="224.9"/>
<rect x="954.1" fill="#3973B8" width="37.5" height="224.9"/>
<rect x="991.6" fill="#6E358B" width="37.5" height="224.9"/>
<rect x="804.1" fill="#E30521" width="37.5" height="224.9"/>
</svg>
