<?xml version="1.0" encoding="utf-8"?>
<!-- Generator: Adobe Illustrator 23.0.3, SVG Export Plug-In . SVG Version: 6.00 Build 0)  -->
<svg version="1.1" id="Capa_1" xmlns="http://www.w3.org/2000/svg" xmlns:xlink="http://www.w3.org/1999/xlink" x="0px" y="0px"
	 viewBox="0 0 88 164" enable-background="new 0 0 88 164" xml:space="preserve">
<g id="contorno">
	<path fill="#000000" d="M44,6c21,0,38,17,38,38v76c0,21-17,38-38,38c-21,0-38-17-38-38V44C6,23,23,6,44,6 M44,3L44,3
		C21.4,3,3,21.4,3,44v76c0,22.6,18.4,41,41,41h0c22.6,0,41-18.4,41-41V44C85,21.4,66.6,3,44,3L44,3z"/>
</g>
<g>
	<defs>
		<path id="mascara" d="M44,161L44,161c-22.6,0-41-18.4-41-41V44C3,21.4,21.4,3,44,3h0c22.6,0,41,18.4,41,41v76
			C85,142.6,66.6,161,44,161z"/>
	</defs>
	<clipPath id="mascara_1_">
		<use xlink:href="#mascara"  overflow="visible"/>
	</clipPath>
	<g id="flecha" clip-path="url(#mascara_1_)">
		<g>
			
				<line fill="none" stroke="#000000" stroke-width="3" stroke-linecap="round" stroke-linejoin="round" stroke-miterlimit="10" x1="44" y1="-77.5" x2="44" y2="-0.5"/>
		</g>
		
			<polyline fill-rule="evenodd" clip-rule="evenodd" fill="none" stroke="#000000" stroke-width="3" stroke-linecap="round" stroke-linejoin="round" stroke-miterlimit="10" points="
			23.5,-21 44,-0.5 64.5,-21 		"/>
	</g>
</g>
</svg>
